<svg width="53" height="53" viewBox="0 0 53 53" fill="none" xmlns="http://www.w3.org/2000/svg">
<path d="M47.6909 0.911133H5.69092C2.92949 0.911133 0.690918 3.14971 0.690918 5.91113V47.9111C0.690918 50.6726 2.92949 52.9111 5.69092 52.9111H47.6909C50.4523 52.9111 52.6909 50.6726 52.6909 47.9111V5.91113C52.6909 3.14971 50.4523 0.911133 47.6909 0.911133Z" fill="#F7FFBF"/>
<path d="M24.4369 38.0124V40.7374L23.7779 40.2054C21.992 38.7157 20.3265 37.0873 18.7969 35.3353C15.4079 31.4453 13.6899 27.9523 13.6899 24.9553V24.6553C13.6899 21.805 14.8222 19.0714 16.8377 17.0559C18.8531 15.0405 21.5866 13.9082 24.4369 13.9082C27.2872 13.9082 30.0207 15.0405 32.0362 17.0559C34.0516 19.0714 35.1839 21.805 35.1839 24.6553V24.9553C35.1839 25.2073 35.1712 25.4626 35.1459 25.7213L33.0459 23.8043C32.8226 21.5984 31.7608 19.5625 30.0798 18.1169C28.3987 16.6713 26.2268 15.9264 24.0123 16.036C21.7979 16.1456 19.7101 17.1013 18.18 18.7058C16.6499 20.3103 15.7943 22.4411 15.7899 24.6583V24.9583C15.7899 30.0223 22.3149 36.1583 24.4399 38.0154L24.4369 38.0124ZM30.8899 36.5063H34.0349V33.3613H30.8899V36.5063ZM24.4369 20.2022C25.3182 20.2022 26.1798 20.4636 26.9125 20.9532C27.6453 21.4429 28.2165 22.1388 28.5537 22.953C28.891 23.7673 28.9792 24.6632 28.8073 25.5276C28.6354 26.392 28.211 27.186 27.5878 27.8092C26.9646 28.4323 26.1706 28.8567 25.3062 29.0287C24.4419 29.2006 23.5459 29.1124 22.7317 28.7751C21.9175 28.4378 21.2215 27.8667 20.7319 27.1339C20.2423 26.4011 19.9809 25.5396 19.9809 24.6583C19.9809 23.4765 20.4504 22.3431 21.2861 21.5074C22.1217 20.6717 23.2551 20.2022 24.4369 20.2022ZM24.4369 22.3023C23.9704 22.3023 23.5143 22.4406 23.1263 22.6998C22.7384 22.959 22.436 23.3275 22.2575 23.7585C22.0789 24.1896 22.0322 24.6639 22.1233 25.1215C22.2143 25.5791 22.439 25.9994 22.7689 26.3293C23.0988 26.6593 23.5191 26.8839 23.9767 26.975C24.4343 27.066 24.9086 27.0193 25.3397 26.8407C25.7707 26.6622 26.1391 26.3598 26.3984 25.9719C26.6576 25.5839 26.7959 25.1278 26.7959 24.6613C26.7959 24.0356 26.5474 23.4356 26.105 22.9932C25.6626 22.5508 25.0626 22.3023 24.4369 22.3023ZM39.1839 35.0813L38.5939 34.5433V37.9124C38.5931 38.6661 38.2933 39.3888 37.7603 39.9218C37.2273 40.4548 36.5047 40.7546 35.7509 40.7554H29.1119C28.3582 40.7546 27.6355 40.4548 27.1025 39.9218C26.5695 39.3888 26.2697 38.6661 26.2689 37.9124V34.5443L25.6789 35.0823L24.2669 33.5323L32.4319 26.0833L40.5979 33.5323L39.1839 35.0813ZM36.4969 32.6303L32.4319 28.9223L28.3659 32.6313V37.9124C28.3662 38.1101 28.4449 38.2997 28.5847 38.4396C28.7246 38.5794 28.9141 38.6581 29.1119 38.6584H35.7509C35.9489 38.6584 36.1387 38.5798 36.2788 38.4399C36.4188 38.3 36.4976 38.1103 36.4979 37.9124L36.4969 32.6303Z" fill="#0706A9"/>
</svg>
