<svg xmlns="http://www.w3.org/2000/svg" width="26.907" height="26.842" viewBox="0 0 26.907 26.842">
  <path id="address" d="M10.747,24.1v2.725l-.659-.532a44.178,44.178,0,0,1-4.981-4.87C1.718,17.533,0,14.04,0,11.043v-.3a10.747,10.747,0,0,1,21.494,0v.3c0,.252-.013.507-.038.766l-2.1-1.917A8.65,8.65,0,0,0,2.1,10.746v.3c0,5.064,6.525,11.2,8.65,13.057ZM17.2,22.594h3.145V19.449H17.2ZM10.747,6.29a4.456,4.456,0,1,1-4.456,4.456A4.461,4.461,0,0,1,10.747,6.29Zm0,2.1a2.359,2.359,0,1,0,2.359,2.359A2.362,2.362,0,0,0,10.747,8.387ZM25.494,21.169l-.59-.538V24a2.846,2.846,0,0,1-2.843,2.843H15.422A2.846,2.846,0,0,1,12.579,24V20.632l-.59.538L10.577,19.62l8.165-7.449,8.166,7.449Zm-2.687-2.451L18.742,15.01l-4.066,3.709V24a.747.747,0,0,0,.746.746h6.639A.747.747,0,0,0,22.808,24Zm0,0" transform="translate(0 0.001)" fill="#919191"/>
</svg>
