<svg width="385" height="302" viewBox="0 0 385 302" fill="none" xmlns="http://www.w3.org/2000/svg">
<g clip-path="url(#clip0)">
<path d="M11.6485 272.929C11.6485 272.929 -14.7515 237.138 24.2485 204.518C39.9215 191.409 100.884 182.176 49.6295 109.052C19.4925 66.0521 63.2695 3.4301 133.14 43.1951C192.608 77.0381 233.96 4.9751 286.608 0.195104C326.655 -3.4439 350.74 45.9411 326.581 84.3391C299.472 127.422 351.158 120.186 362.395 134.448C382.18 159.559 317.977 189.362 347.428 221.258C377.42 253.742 356.852 272.934 356.852 272.934L11.6485 272.929Z" fill="#F7FFBF"/>
<path d="M310.064 273.947H1.7084C1.41666 273.947 1.13687 273.831 0.93058 273.625C0.72429 273.418 0.608398 273.139 0.608398 272.847C0.608398 272.555 0.72429 272.275 0.93058 272.069C1.13687 271.863 1.41666 271.747 1.7084 271.747H310.064C310.208 271.747 310.351 271.775 310.485 271.831C310.618 271.886 310.74 271.967 310.842 272.069C310.944 272.171 311.025 272.293 311.08 272.426C311.136 272.559 311.164 272.703 311.164 272.847C311.164 272.991 311.136 273.134 311.08 273.268C311.025 273.401 310.944 273.523 310.842 273.625C310.74 273.727 310.618 273.808 310.485 273.863C310.351 273.919 310.208 273.947 310.064 273.947Z" fill="#0706A9"/>
<path d="M360.168 273.947H313.747C313.455 273.947 313.175 273.831 312.969 273.625C312.763 273.418 312.647 273.139 312.647 272.847C312.647 272.555 312.763 272.275 312.969 272.069C313.175 271.863 313.455 271.747 313.747 271.747H360.171C360.463 271.747 360.743 271.863 360.949 272.069C361.155 272.275 361.271 272.555 361.271 272.847C361.271 273.139 361.155 273.418 360.949 273.625C360.743 273.831 360.463 273.947 360.171 273.947H360.168Z" fill="#0706A9"/>
<path opacity="0.5" d="M320.693 142.291H317.893V139.491C317.893 139.274 317.807 139.066 317.654 138.913C317.5 138.759 317.292 138.673 317.075 138.673C316.858 138.673 316.65 138.759 316.497 138.913C316.343 139.066 316.257 139.274 316.257 139.491V142.291H313.457C313.24 142.291 313.032 142.377 312.879 142.531C312.725 142.684 312.639 142.892 312.639 143.109C312.639 143.326 312.725 143.534 312.879 143.687C313.032 143.841 313.24 143.927 313.457 143.927H316.257V146.727C316.257 146.944 316.343 147.152 316.497 147.305C316.65 147.459 316.858 147.545 317.075 147.545C317.292 147.545 317.5 147.459 317.654 147.305C317.807 147.152 317.893 146.944 317.893 146.727V143.927H320.693C320.91 143.927 321.118 143.841 321.272 143.687C321.425 143.534 321.511 143.326 321.511 143.109C321.511 142.892 321.425 142.684 321.272 142.531C321.118 142.377 320.91 142.291 320.693 142.291Z" fill="#11AFD3"/>
<path d="M66.8851 203.701H64.0851V200.901C64.0851 200.684 63.9989 200.476 63.8455 200.323C63.6921 200.169 63.484 200.083 63.2671 200.083C63.0501 200.083 62.8421 200.169 62.6887 200.323C62.5353 200.476 62.4491 200.684 62.4491 200.901V203.701H59.6491C59.4321 203.701 59.2241 203.787 59.0707 203.941C58.9173 204.094 58.8311 204.302 58.8311 204.519C58.8311 204.736 58.9173 204.944 59.0707 205.097C59.2241 205.251 59.4321 205.337 59.6491 205.337H62.4491V208.137C62.4491 208.354 62.5353 208.562 62.6887 208.715C62.8421 208.869 63.0501 208.955 63.2671 208.955C63.484 208.955 63.6921 208.869 63.8455 208.715C63.9989 208.562 64.0851 208.354 64.0851 208.137V205.337H66.8851C67.102 205.337 67.3101 205.251 67.4635 205.097C67.6169 204.944 67.7031 204.736 67.7031 204.519C67.7031 204.302 67.6169 204.094 67.4635 203.941C67.3101 203.787 67.102 203.701 66.8851 203.701Z" fill="#0706A9"/>
<path d="M24.3101 260.82H22.4781V258.988C22.4781 258.846 22.4216 258.709 22.3211 258.609C22.2206 258.508 22.0843 258.452 21.9421 258.452C21.8 258.452 21.6636 258.508 21.5631 258.609C21.4626 258.709 21.4061 258.846 21.4061 258.988V260.82H19.5721C19.43 260.82 19.2936 260.876 19.1931 260.977C19.0926 261.077 19.0361 261.214 19.0361 261.356C19.0361 261.498 19.0926 261.634 19.1931 261.735C19.2936 261.835 19.43 261.892 19.5721 261.892H21.4041V263.72C21.4041 263.862 21.4606 263.998 21.5611 264.099C21.6616 264.199 21.798 264.256 21.9401 264.256C22.0823 264.256 22.2186 264.199 22.3191 264.099C22.4196 263.998 22.4761 263.862 22.4761 263.72V261.89H24.3081C24.4503 261.89 24.5866 261.833 24.6871 261.733C24.7876 261.632 24.8441 261.496 24.8441 261.354C24.8441 261.212 24.7876 261.075 24.6871 260.975C24.5866 260.874 24.4503 260.818 24.3081 260.818L24.3101 260.82Z" fill="#0706A9"/>
<path opacity="0.5" d="M88.3011 18.3199H85.5011V15.5199C85.5011 15.303 85.4149 15.0949 85.2615 14.9415C85.1081 14.7881 84.9 14.7019 84.6831 14.7019C84.4661 14.7019 84.2581 14.7881 84.1047 14.9415C83.9513 15.0949 83.8651 15.303 83.8651 15.5199V18.3199H81.0651C80.8481 18.3199 80.6401 18.4061 80.4867 18.5595C80.3333 18.7129 80.2471 18.921 80.2471 19.1379C80.2471 19.3548 80.3333 19.5629 80.4867 19.7163C80.6401 19.8697 80.8481 19.9559 81.0651 19.9559H83.8651V22.7559C83.8651 22.9729 83.9513 23.1809 84.1047 23.3343C84.2581 23.4877 84.4661 23.5739 84.6831 23.5739C84.9 23.5739 85.1081 23.4877 85.2615 23.3343C85.4149 23.1809 85.5011 22.9729 85.5011 22.7559V19.9559H88.3011C88.518 19.9559 88.7261 19.8697 88.8795 19.7163C89.0329 19.5629 89.1191 19.3548 89.1191 19.1379C89.1191 18.921 89.0329 18.7129 88.8795 18.5595C88.7261 18.4061 88.518 18.3199 88.3011 18.3199Z" fill="#11AFD3"/>
<path opacity="0.8" d="M130.765 214.597H127.965V211.797C127.965 211.58 127.879 211.372 127.725 211.218C127.572 211.065 127.364 210.979 127.147 210.979C126.93 210.979 126.722 211.065 126.569 211.218C126.415 211.372 126.329 211.58 126.329 211.797V214.597H123.529C123.312 214.597 123.104 214.683 122.951 214.836C122.797 214.99 122.711 215.198 122.711 215.415C122.711 215.632 122.797 215.84 122.951 215.993C123.104 216.147 123.312 216.233 123.529 216.233H126.329V219.033C126.329 219.25 126.415 219.458 126.569 219.611C126.722 219.765 126.93 219.851 127.147 219.851C127.364 219.851 127.572 219.765 127.725 219.611C127.879 219.458 127.965 219.25 127.965 219.033V216.233H130.765C130.982 216.233 131.19 216.147 131.343 215.993C131.497 215.84 131.583 215.632 131.583 215.415C131.583 215.198 131.497 214.99 131.343 214.836C131.19 214.683 130.982 214.597 130.765 214.597Z" fill="#0706A9"/>
<path d="M228.439 17.4281H225.639V14.6281C225.639 14.4112 225.553 14.2031 225.4 14.0497C225.246 13.8963 225.038 13.8101 224.821 13.8101C224.604 13.8101 224.396 13.8963 224.243 14.0497C224.09 14.2031 224.003 14.4112 224.003 14.6281V17.4281H221.203C220.986 17.4281 220.778 17.5143 220.625 17.6677C220.472 17.8211 220.385 18.0292 220.385 18.2461C220.385 18.4631 220.472 18.6711 220.625 18.8246C220.778 18.978 220.986 19.0641 221.203 19.0641H224.003V21.8641C224.003 22.0811 224.09 22.2891 224.243 22.4426C224.396 22.596 224.604 22.6821 224.821 22.6821C225.038 22.6821 225.246 22.596 225.4 22.4426C225.553 22.2891 225.639 22.0811 225.639 21.8641V19.0601H228.439C228.656 19.0601 228.864 18.974 229.018 18.8206C229.171 18.6671 229.257 18.4591 229.257 18.2421C229.257 18.0252 229.171 17.8171 229.018 17.6637C228.864 17.5103 228.656 17.4241 228.439 17.4241V17.4281Z" fill="#025AA2"/>
<path opacity="0.6" d="M147.725 29.4902H146.139V27.9032C146.139 27.7801 146.09 27.6621 146.003 27.5751C145.916 27.4881 145.798 27.4392 145.675 27.4392C145.552 27.4392 145.434 27.4881 145.347 27.5751C145.26 27.6621 145.211 27.7801 145.211 27.9032V29.4902H143.624C143.501 29.4902 143.383 29.5391 143.296 29.6261C143.209 29.7131 143.16 29.8311 143.16 29.9542C143.16 30.0772 143.209 30.1952 143.296 30.2823C143.383 30.3693 143.501 30.4182 143.624 30.4182H145.211V32.0082C145.211 32.1312 145.26 32.2492 145.347 32.3363C145.434 32.4233 145.552 32.4722 145.675 32.4722C145.798 32.4722 145.916 32.4233 146.003 32.3363C146.09 32.2492 146.139 32.1312 146.139 32.0082V30.4182H147.726C147.849 30.4182 147.967 30.3693 148.054 30.2823C148.141 30.1952 148.19 30.0772 148.19 29.9542C148.19 29.8311 148.141 29.7131 148.054 29.6261C147.967 29.5391 147.849 29.4902 147.726 29.4902H147.725Z" fill="#BDE7FF"/>
<path d="M57.1426 176.541C57.1519 177.605 56.8454 178.648 56.2619 179.538C55.6784 180.428 54.8442 181.124 53.8647 181.54C52.8852 181.956 51.8044 182.072 50.7589 181.873C49.7135 181.675 48.7505 181.171 47.9916 180.425C47.2327 179.679 46.712 178.725 46.4954 177.683C46.2789 176.641 46.3761 175.558 46.7748 174.572C47.1735 173.585 47.8558 172.739 48.7355 172.14C49.6151 171.542 50.6526 171.217 51.7166 171.208C53.1433 171.196 54.5165 171.751 55.534 172.751C56.5516 173.751 57.1302 175.114 57.1426 176.541Z" fill="#0706A9"/>
<path d="M49.3975 176.86L51.5335 178.895L54.3335 175.052" stroke="white" stroke-width="1.684" stroke-linecap="round" stroke-linejoin="round"/>
<path d="M340.324 103.598C340.335 104.847 339.975 106.072 339.29 107.117C338.605 108.162 337.625 108.98 336.475 109.469C335.325 109.957 334.056 110.093 332.828 109.86C331.6 109.627 330.469 109.035 329.578 108.159C328.687 107.283 328.075 106.163 327.821 104.939C327.567 103.716 327.681 102.445 328.149 101.286C328.617 100.127 329.418 99.1338 330.451 98.4306C331.484 97.7273 332.702 97.3461 333.951 97.3352C334.781 97.3279 335.604 97.4842 336.373 97.795C337.143 98.1058 337.843 98.5651 338.435 99.1467C339.027 99.7283 339.498 100.421 339.822 101.184C340.147 101.948 340.317 102.768 340.324 103.598Z" fill="#0706A9"/>
<path d="M331.226 103.973L333.735 106.363L337.019 101.849" stroke="white" stroke-width="1.978" stroke-linecap="round" stroke-linejoin="round"/>
<g opacity="0.25">
<path opacity="0.25" d="M266.173 61.8401V192.88C266.172 195.609 265.088 198.226 263.158 200.156C261.228 202.086 258.611 203.17 255.882 203.171H95.8105C93.0818 203.169 90.4653 202.084 88.5357 200.155C86.6061 198.225 85.5209 195.609 85.5186 192.88V61.8401C85.518 60.4884 85.7839 59.1498 86.3009 57.9009C86.8179 56.652 87.576 55.5172 88.5318 54.5614C89.4876 53.6056 90.6224 52.8475 91.8714 52.3304C93.1203 51.8134 94.4588 51.5475 95.8105 51.5481H255.882C257.234 51.5475 258.572 51.8134 259.821 52.3305C261.07 52.8475 262.205 53.6056 263.161 54.5614C264.116 55.5172 264.874 56.652 265.391 57.9009C265.908 59.1499 266.174 60.4884 266.173 61.8401Z" fill="#594157"/>
<path opacity="0.25" d="M266.173 61.8401V80.1611H85.5186V61.8401C85.518 60.4884 85.7839 59.1498 86.3009 57.9009C86.8179 56.652 87.576 55.5172 88.5318 54.5614C89.4876 53.6056 90.6224 52.8475 91.8714 52.3304C93.1203 51.8134 94.4588 51.5475 95.8105 51.5481H255.882C257.234 51.5475 258.572 51.8134 259.821 52.3305C261.07 52.8475 262.205 53.6056 263.161 54.5614C264.116 55.5172 264.874 56.652 265.391 57.9009C265.908 59.1499 266.174 60.4884 266.173 61.8401Z" fill="#594157"/>
<path opacity="0.25" d="M110.947 88.2712H95.0076C93.7241 88.2712 92.6836 89.3117 92.6836 90.5952V106.535C92.6836 107.819 93.7241 108.859 95.0076 108.859H110.947C112.231 108.859 113.271 107.819 113.271 106.535V90.5952C113.271 89.3117 112.231 88.2712 110.947 88.2712Z" fill="#594157"/>
<path opacity="0.25" d="M140.28 88.2712H124.34C123.057 88.2712 122.016 89.3117 122.016 90.5952V106.535C122.016 107.819 123.057 108.859 124.34 108.859H140.28C141.564 108.859 142.604 107.819 142.604 106.535V90.5952C142.604 89.3117 141.564 88.2712 140.28 88.2712Z" fill="#594157"/>
<path opacity="0.25" d="M169.611 88.2712H153.671C152.388 88.2712 151.347 89.3117 151.347 90.5952V106.535C151.347 107.819 152.388 108.859 153.671 108.859H169.611C170.895 108.859 171.935 107.819 171.935 106.535V90.5952C171.935 89.3117 170.895 88.2712 169.611 88.2712Z" fill="#594157"/>
<path opacity="0.25" d="M198.943 88.2712H183.003C181.72 88.2712 180.679 89.3117 180.679 90.5952V106.535C180.679 107.819 181.72 108.859 183.003 108.859H198.943C200.227 108.859 201.267 107.819 201.267 106.535V90.5952C201.267 89.3117 200.227 88.2712 198.943 88.2712Z" fill="#594157"/>
<path opacity="0.25" d="M228.275 88.2712H212.335C211.052 88.2712 210.011 89.3117 210.011 90.5952V106.535C210.011 107.819 211.052 108.859 212.335 108.859H228.275C229.559 108.859 230.599 107.819 230.599 106.535V90.5952C230.599 89.3117 229.559 88.2712 228.275 88.2712Z" stroke="#594157" stroke-width="1.302" stroke-miterlimit="10"/>
<path opacity="0.25" d="M257.607 88.2712H241.667C240.384 88.2712 239.343 89.3117 239.343 90.5952V106.535C239.343 107.819 240.384 108.859 241.667 108.859H257.607C258.891 108.859 259.931 107.819 259.931 106.535V90.5952C259.931 89.3117 258.891 88.2712 257.607 88.2712Z" fill="#594157"/>
<path opacity="0.25" d="M95.0076 115.895H110.947C111.564 115.895 112.155 116.14 112.591 116.576C113.027 117.012 113.272 117.603 113.272 118.22V134.159C113.272 134.775 113.027 135.367 112.592 135.802C112.156 136.238 111.565 136.483 110.948 136.483H95.0086C94.3921 136.483 93.8009 136.238 93.3649 135.802C92.9289 135.367 92.6839 134.775 92.6836 134.159V118.219C92.6836 117.603 92.9284 117.012 93.3643 116.576C93.8001 116.14 94.3912 115.895 95.0076 115.895Z" fill="#594157"/>
<path opacity="0.25" d="M124.34 115.895H140.28C140.897 115.895 141.488 116.14 141.924 116.576C142.36 117.012 142.605 117.603 142.605 118.22V134.159C142.605 134.775 142.36 135.367 141.925 135.802C141.489 136.238 140.898 136.483 140.281 136.483H124.341C123.725 136.483 123.134 136.238 122.698 135.802C122.262 135.367 122.016 134.775 122.016 134.159V118.219C122.016 117.603 122.261 117.012 122.697 116.576C123.133 116.14 123.724 115.895 124.34 115.895Z" fill="#594157"/>
<path opacity="0.25" d="M169.611 115.895H153.671C152.388 115.895 151.347 116.936 151.347 118.219V134.159C151.347 135.443 152.388 136.483 153.671 136.483H169.611C170.895 136.483 171.935 135.443 171.935 134.159V118.219C171.935 116.936 170.895 115.895 169.611 115.895Z" stroke="#594157" stroke-width="1.302" stroke-miterlimit="10"/>
<path opacity="0.25" d="M183.003 115.895H198.943C199.56 115.895 200.151 116.14 200.587 116.576C201.023 117.012 201.268 117.603 201.268 118.22V134.159C201.268 134.775 201.023 135.367 200.588 135.802C200.152 136.238 199.561 136.483 198.944 136.483H183.004C182.388 136.483 181.797 136.238 181.361 135.802C180.925 135.367 180.68 134.775 180.679 134.159V118.219C180.679 117.603 180.924 117.012 181.36 116.576C181.796 116.14 182.387 115.895 183.003 115.895Z" fill="#594157"/>
<path opacity="0.25" d="M212.335 115.895H228.275C228.892 115.895 229.483 116.14 229.919 116.576C230.355 117.012 230.6 117.603 230.6 118.22V134.159C230.6 134.775 230.355 135.367 229.92 135.802C229.484 136.238 228.893 136.483 228.276 136.483H212.336C211.72 136.483 211.129 136.238 210.693 135.802C210.257 135.367 210.012 134.775 210.011 134.159V118.219C210.011 117.603 210.256 117.012 210.692 116.576C211.128 116.14 211.719 115.895 212.335 115.895Z" fill="#594157"/>
<path opacity="0.25" d="M241.667 115.895H257.607C257.913 115.895 258.215 115.955 258.497 116.072C258.779 116.189 259.035 116.36 259.251 116.576C259.466 116.792 259.638 117.048 259.754 117.33C259.871 117.612 259.931 117.914 259.931 118.219V134.159C259.931 134.776 259.686 135.367 259.25 135.803C258.814 136.239 258.223 136.484 257.606 136.484H241.667C241.362 136.484 241.06 136.424 240.778 136.307C240.496 136.19 240.24 136.019 240.024 135.803C239.808 135.587 239.637 135.331 239.52 135.049C239.403 134.767 239.343 134.464 239.343 134.159V118.219C239.343 117.603 239.588 117.012 240.024 116.576C240.46 116.14 241.051 115.895 241.667 115.895Z" fill="#594157"/>
<path opacity="0.25" d="M95.0076 143.519H110.947C111.252 143.519 111.555 143.579 111.837 143.696C112.119 143.813 112.375 143.984 112.591 144.2C112.806 144.416 112.977 144.672 113.094 144.954C113.211 145.236 113.271 145.538 113.271 145.843V161.783C113.271 162.088 113.211 162.39 113.094 162.672C112.977 162.954 112.806 163.211 112.591 163.426C112.375 163.642 112.119 163.813 111.837 163.93C111.555 164.047 111.252 164.107 110.947 164.107H95.0086C94.3921 164.107 93.8009 163.862 93.3649 163.426C92.9289 162.991 92.6839 162.399 92.6836 161.783V145.843C92.6836 145.227 92.9284 144.636 93.3643 144.2C93.8001 143.764 94.3912 143.519 95.0076 143.519Z" fill="#594157"/>
<path opacity="0.25" d="M140.28 143.519H124.34C123.057 143.519 122.016 144.56 122.016 145.843V161.783C122.016 163.067 123.057 164.107 124.34 164.107H140.28C141.564 164.107 142.604 163.067 142.604 161.783V145.843C142.604 144.56 141.564 143.519 140.28 143.519Z" fill="#594157"/>
<path opacity="0.25" d="M153.671 143.519H169.611C169.916 143.519 170.219 143.579 170.501 143.696C170.783 143.813 171.039 143.984 171.255 144.2C171.47 144.416 171.642 144.672 171.758 144.954C171.875 145.236 171.935 145.538 171.935 145.843V161.783C171.935 162.088 171.875 162.39 171.758 162.672C171.642 162.954 171.47 163.211 171.255 163.426C171.039 163.642 170.783 163.813 170.501 163.93C170.219 164.047 169.916 164.107 169.611 164.107H153.672C153.056 164.107 152.465 163.862 152.029 163.426C151.593 162.991 151.348 162.399 151.347 161.783V145.843C151.347 145.227 151.592 144.636 152.028 144.2C152.464 143.764 153.055 143.519 153.671 143.519Z" fill="#594157"/>
<path opacity="0.25" d="M183.003 143.519H198.943C199.249 143.519 199.551 143.579 199.833 143.696C200.115 143.813 200.371 143.984 200.587 144.2C200.802 144.416 200.974 144.672 201.09 144.954C201.207 145.236 201.267 145.538 201.267 145.843V161.783C201.267 162.4 201.022 162.991 200.586 163.427C200.15 163.863 199.559 164.108 198.942 164.108H183.003C182.698 164.108 182.396 164.048 182.114 163.931C181.832 163.814 181.575 163.643 181.36 163.427C181.144 163.211 180.973 162.955 180.856 162.673C180.739 162.391 180.679 162.088 180.679 161.783V145.843C180.679 145.227 180.924 144.636 181.36 144.2C181.796 143.764 182.387 143.519 183.003 143.519Z" fill="#594157"/>
<path opacity="0.25" d="M228.275 143.519H212.335C211.052 143.519 210.011 144.56 210.011 145.843V161.783C210.011 163.067 211.052 164.107 212.335 164.107H228.275C229.559 164.107 230.599 163.067 230.599 161.783V145.843C230.599 144.56 229.559 143.519 228.275 143.519Z" fill="#594157"/>
<path opacity="0.25" d="M241.667 143.519H257.607C257.913 143.519 258.215 143.579 258.497 143.696C258.779 143.813 259.035 143.984 259.251 144.2C259.466 144.416 259.638 144.672 259.754 144.954C259.871 145.236 259.931 145.538 259.931 145.843V161.783C259.931 162.088 259.871 162.39 259.754 162.672C259.638 162.954 259.466 163.211 259.251 163.426C259.035 163.642 258.779 163.813 258.497 163.93C258.215 164.047 257.913 164.107 257.607 164.107H241.668C241.052 164.107 240.461 163.862 240.025 163.426C239.589 162.991 239.344 162.399 239.343 161.783V145.843C239.343 145.227 239.588 144.636 240.024 144.2C240.46 143.764 241.051 143.519 241.667 143.519Z" fill="#594157"/>
<path opacity="0.25" d="M95.0086 171.143H110.947C111.252 171.143 111.555 171.203 111.837 171.32C112.119 171.437 112.375 171.608 112.591 171.824C112.806 172.04 112.977 172.296 113.094 172.578C113.211 172.86 113.271 173.162 113.271 173.467V189.407C113.271 189.712 113.211 190.014 113.094 190.296C112.977 190.578 112.806 190.835 112.591 191.05C112.375 191.266 112.119 191.437 111.837 191.554C111.555 191.671 111.252 191.731 110.947 191.731H95.0076C94.7024 191.731 94.4002 191.671 94.1182 191.554C93.8363 191.437 93.5801 191.266 93.3643 191.05C93.1485 190.835 92.9773 190.578 92.8605 190.296C92.7437 190.014 92.6836 189.712 92.6836 189.407V173.468C92.6836 172.851 92.9285 172.26 93.3646 171.824C93.8006 171.388 94.392 171.143 95.0086 171.143Z" stroke="#594157" stroke-width="1.302" stroke-miterlimit="10"/>
<path opacity="0.25" d="M124.341 171.143H140.28C140.585 171.143 140.888 171.203 141.17 171.32C141.452 171.437 141.708 171.608 141.924 171.824C142.139 172.04 142.311 172.296 142.427 172.578C142.544 172.86 142.604 173.162 142.604 173.467V189.407C142.604 189.712 142.544 190.014 142.427 190.296C142.311 190.578 142.139 190.835 141.924 191.05C141.708 191.266 141.452 191.437 141.17 191.554C140.888 191.671 140.585 191.731 140.28 191.731H124.34C124.035 191.731 123.733 191.671 123.451 191.554C123.169 191.437 122.913 191.266 122.697 191.05C122.481 190.835 122.31 190.578 122.193 190.296C122.076 190.014 122.016 189.712 122.016 189.407V173.468C122.016 172.851 122.261 172.26 122.697 171.824C123.133 171.388 123.725 171.143 124.341 171.143Z" fill="#594157"/>
<path opacity="0.25" d="M153.671 171.143H169.611C170.228 171.143 170.819 171.388 171.255 171.824C171.691 172.26 171.936 172.851 171.936 173.468V189.407C171.936 190.023 171.691 190.615 171.256 191.05C170.82 191.486 170.229 191.731 169.612 191.731H153.671C153.366 191.731 153.064 191.671 152.782 191.554C152.5 191.437 152.244 191.266 152.028 191.05C151.812 190.835 151.641 190.578 151.524 190.296C151.407 190.014 151.347 189.712 151.347 189.407V173.467C151.347 172.851 151.592 172.26 152.028 171.824C152.464 171.388 153.055 171.143 153.671 171.143Z" fill="#594157"/>
<path opacity="0.25" d="M198.943 171.143H183.003C181.72 171.143 180.679 172.184 180.679 173.467V189.407C180.679 190.691 181.72 191.731 183.003 191.731H198.943C200.227 191.731 201.267 190.691 201.267 189.407V173.467C201.267 172.184 200.227 171.143 198.943 171.143Z" fill="#594157"/>
<path opacity="0.25" d="M212.336 171.143H228.275C228.581 171.143 228.883 171.203 229.165 171.32C229.447 171.437 229.703 171.608 229.919 171.824C230.134 172.04 230.306 172.296 230.422 172.578C230.539 172.86 230.599 173.162 230.599 173.467V189.407C230.599 189.712 230.539 190.014 230.422 190.296C230.306 190.578 230.134 190.835 229.919 191.05C229.703 191.266 229.447 191.437 229.165 191.554C228.883 191.671 228.581 191.731 228.275 191.731H212.335C212.03 191.731 211.728 191.671 211.446 191.554C211.164 191.437 210.908 191.266 210.692 191.05C210.476 190.835 210.305 190.578 210.188 190.296C210.071 190.014 210.011 189.712 210.011 189.407V173.468C210.011 172.851 210.256 172.26 210.692 171.824C211.128 171.388 211.72 171.143 212.336 171.143Z" fill="#594157"/>
<path opacity="0.25" d="M241.667 171.143H257.607C258.224 171.143 258.815 171.388 259.251 171.824C259.687 172.26 259.932 172.851 259.932 173.468V189.407C259.932 190.023 259.688 190.615 259.252 191.05C258.816 191.486 258.225 191.731 257.608 191.731H241.667C241.362 191.731 241.06 191.671 240.778 191.554C240.496 191.437 240.24 191.266 240.024 191.05C239.808 190.835 239.637 190.578 239.52 190.296C239.403 190.014 239.343 189.712 239.343 189.407V173.467C239.343 172.851 239.588 172.26 240.024 171.824C240.46 171.388 241.051 171.143 241.667 171.143Z" fill="#594157"/>
<path opacity="0.25" d="M100.14 67.5072C100.14 68.2477 99.9208 68.9715 99.5094 69.5872C99.098 70.2029 98.5132 70.6828 97.8291 70.9662C97.145 71.2496 96.3922 71.3237 95.6659 71.1792C94.9397 71.0348 94.2725 70.6782 93.7489 70.1546C93.2253 69.631 92.8688 68.9639 92.7243 68.2376C92.5798 67.5113 92.654 66.7585 92.9373 66.0744C93.2207 65.3903 93.7006 64.8055 94.3163 64.3941C94.932 63.9827 95.6559 63.7632 96.3963 63.7632C97.3893 63.7632 98.3416 64.1576 99.0437 64.8598C99.7459 65.5619 100.14 66.5142 100.14 67.5072Z" fill="#594157"/>
<path opacity="0.25" d="M132.019 67.5072C132.019 68.2477 131.8 68.9715 131.388 69.5872C130.977 70.2029 130.392 70.6828 129.708 70.9662C129.024 71.2496 128.271 71.3237 127.545 71.1792C126.819 71.0348 126.152 70.6782 125.628 70.1546C125.104 69.631 124.748 68.9639 124.603 68.2376C124.459 67.5113 124.533 66.7585 124.816 66.0744C125.1 65.3903 125.58 64.8055 126.195 64.3941C126.811 63.9827 127.535 63.7632 128.275 63.7632C129.268 63.7632 130.221 64.1576 130.923 64.8598C131.625 65.5619 132.019 66.5142 132.019 67.5072Z" fill="#594157"/>
<path opacity="0.25" d="M163.905 67.5072C163.905 68.2477 163.686 68.9715 163.274 69.5872C162.863 70.2029 162.278 70.6828 161.594 70.9662C160.91 71.2496 160.157 71.3237 159.431 71.1792C158.704 71.0348 158.037 70.6782 157.514 70.1546C156.99 69.631 156.634 68.9639 156.489 68.2376C156.345 67.5113 156.419 66.7585 156.702 66.0744C156.985 65.3903 157.465 64.8055 158.081 64.3941C158.697 63.9827 159.421 63.7632 160.161 63.7632C161.154 63.7632 162.106 64.1576 162.809 64.8598C163.511 65.5619 163.905 66.5142 163.905 67.5072Z" fill="#594157"/>
<path opacity="0.25" d="M195.786 67.5072C195.786 68.2477 195.566 68.9715 195.155 69.5872C194.744 70.2029 194.159 70.6828 193.475 70.9662C192.791 71.2496 192.038 71.3237 191.312 71.1792C190.585 71.0348 189.918 70.6782 189.395 70.1546C188.871 69.631 188.514 68.9639 188.37 68.2376C188.225 67.5113 188.3 66.7585 188.583 66.0744C188.866 65.3903 189.346 64.8055 189.962 64.3941C190.578 63.9827 191.301 63.7632 192.042 63.7632C192.534 63.7632 193.02 63.86 193.475 64.0482C193.929 64.2363 194.342 64.5121 194.689 64.8598C195.037 65.2074 195.313 65.6202 195.501 66.0744C195.689 66.5286 195.786 67.0155 195.786 67.5072Z" fill="#594157"/>
<path opacity="0.25" d="M227.668 67.5072C227.668 68.2477 227.449 68.9715 227.037 69.5872C226.626 70.2029 226.041 70.6828 225.357 70.9662C224.673 71.2496 223.92 71.3237 223.194 71.1792C222.468 71.0348 221.8 70.6782 221.277 70.1546C220.753 69.631 220.397 68.9639 220.252 68.2376C220.108 67.5113 220.182 66.7585 220.465 66.0744C220.749 65.3903 221.229 64.8055 221.844 64.3941C222.46 63.9827 223.184 63.7632 223.924 63.7632C224.917 63.7632 225.87 64.1576 226.572 64.8598C227.274 65.5619 227.668 66.5142 227.668 67.5072Z" fill="#594157"/>
<path opacity="0.25" d="M259.55 67.5072C259.55 68.2477 259.331 68.9715 258.919 69.5872C258.508 70.2029 257.923 70.6828 257.239 70.9662C256.555 71.2496 255.802 71.3237 255.076 71.1792C254.349 71.0348 253.682 70.6782 253.159 70.1546C252.635 69.631 252.279 68.9639 252.134 68.2376C251.99 67.5113 252.064 66.7585 252.347 66.0744C252.63 65.3903 253.11 64.8055 253.726 64.3941C254.342 63.9827 255.066 63.7632 255.806 63.7632C256.298 63.7632 256.785 63.86 257.239 64.0482C257.693 64.2363 258.106 64.5121 258.453 64.8598C258.801 65.2074 259.077 65.6202 259.265 66.0744C259.453 66.5286 259.55 67.0155 259.55 67.5072Z" fill="#594157"/>
<path opacity="0.25" d="M96.3965 67.5072V49.9312" stroke="#594157" stroke-width="5.414" stroke-miterlimit="10" stroke-linecap="round"/>
<path opacity="0.25" d="M128.278 67.5072V49.9312" stroke="#594157" stroke-width="5.414" stroke-miterlimit="10" stroke-linecap="round"/>
<path opacity="0.25" d="M160.16 67.5072V49.9312" stroke="#594157" stroke-width="5.414" stroke-miterlimit="10" stroke-linecap="round"/>
<path opacity="0.25" d="M223.925 67.5072V49.9312" stroke="#594157" stroke-width="5.414" stroke-miterlimit="10" stroke-linecap="round"/>
<path opacity="0.25" d="M255.807 67.5072V49.9312" stroke="#594157" stroke-width="5.414" stroke-miterlimit="10" stroke-linecap="round"/>
<path opacity="0.25" d="M167.546 148.284C166.948 148.496 166.339 148.674 165.72 148.817C166.158 150.316 166.393 151.867 166.42 153.428H169.731C169.643 151.508 168.869 149.683 167.551 148.284H167.546ZM164.808 146.37C165.069 146.93 165.298 147.504 165.495 148.09C165.98 147.977 166.456 147.848 166.924 147.69C166.295 147.137 165.58 146.691 164.807 146.37H164.808ZM163.791 146.007C163.214 145.849 162.62 145.756 162.022 145.732V148.51C162.935 148.497 163.845 148.408 164.743 148.243C164.481 147.475 164.162 146.728 163.79 146.007H163.791ZM164.97 148.979C163.998 149.16 163.012 149.257 162.023 149.269V153.428H165.657C165.634 151.92 165.403 150.423 164.969 148.979H164.97ZM161.643 145.724C161.513 145.724 161.393 145.724 161.263 145.732H162.022C161.892 145.724 161.771 145.724 161.642 145.724H161.643ZM159.494 146.007C159.123 146.726 158.805 147.471 158.541 148.236C159.439 148.404 160.349 148.496 161.262 148.511V145.733C160.664 145.757 160.071 145.849 159.493 146.007H159.494ZM156.361 147.679C156.83 147.837 157.307 147.97 157.79 148.079C157.989 147.497 158.219 146.925 158.477 146.367C157.707 146.69 156.992 147.133 156.36 147.679H156.361ZM158.316 148.971C157.886 150.419 157.655 151.919 157.629 153.429H161.263V149.27C160.274 149.255 159.287 149.155 158.315 148.97L158.316 148.971ZM155.748 148.271C154.423 149.673 153.647 151.504 153.559 153.431H156.87C156.899 151.865 157.132 150.309 157.564 148.803C156.948 148.663 156.341 148.484 155.747 148.268L155.748 148.271ZM162.023 154.19V158.358C163.01 158.373 163.994 158.474 164.963 158.658C165.399 157.208 165.632 155.705 165.657 154.192L162.023 154.19ZM166.417 154.19C166.395 155.755 166.16 157.309 165.717 158.81C166.335 158.956 166.944 159.134 167.543 159.343C168.869 157.944 169.646 156.115 169.732 154.19H166.417ZM157.808 159.545C157.323 159.658 156.839 159.787 156.362 159.945C157.001 160.499 157.723 160.949 158.502 161.278C158.242 160.705 158.008 160.132 157.802 159.542L157.808 159.545ZM165.48 159.537C165.283 160.129 165.051 160.709 164.786 161.274C165.568 160.948 166.292 160.495 166.926 159.933C166.447 159.776 165.962 159.647 165.477 159.533L165.48 159.537ZM162.024 159.117V161.897C162.614 161.867 163.198 161.775 163.768 161.622C164.146 160.902 164.467 160.154 164.729 159.385C163.836 159.218 162.93 159.128 162.021 159.114L162.024 159.117ZM158.559 159.4C158.83 160.165 159.153 160.91 159.528 161.629C160.095 161.784 160.677 161.876 161.264 161.904V159.117C160.356 159.134 159.45 159.227 158.557 159.397L158.559 159.4ZM156.871 154.191H153.56C153.645 156.121 154.422 157.956 155.749 159.36C156.35 159.146 156.962 158.965 157.582 158.818C157.136 157.314 156.896 155.756 156.869 154.187L156.871 154.191ZM157.63 154.191C157.661 155.704 157.896 157.207 158.33 158.657C159.3 158.476 160.283 158.376 161.269 158.357V154.187L157.63 154.191Z" fill="#594157"/>
<path opacity="0.25" d="M161.259 161.897C161.388 161.904 161.509 161.904 161.638 161.904C161.767 161.904 161.888 161.904 162.017 161.897" fill="#594157"/>
<path opacity="0.25" d="M96.9395 99.9931L101.903 104.144L109.056 94.2031" stroke="#594157" stroke-width="3.906" stroke-linecap="round" stroke-linejoin="round"/>
<path opacity="0.25" d="M214.818 99.9931L219.782 104.144L226.935 94.2031" stroke="#594157" stroke-width="3.906" stroke-linecap="round" stroke-linejoin="round"/>
<path opacity="0.25" d="M126.25 181.631L131.214 185.782L138.367 175.841" stroke="#594157" stroke-width="3.906" stroke-linecap="round" stroke-linejoin="round"/>
</g>
<path d="M262.639 58.3049V189.346C262.637 192.075 261.552 194.691 259.623 196.621C257.693 198.55 255.077 199.636 252.348 199.638H92.2754C89.5466 199.636 86.9303 198.55 85.0008 196.621C83.0714 194.691 81.9865 192.075 81.9844 189.346V58.3049C81.9839 56.9533 82.2497 55.6149 82.7666 54.3661C83.2836 53.1173 84.0417 51.9826 84.9974 51.0269C85.9531 50.0712 87.0878 49.3132 88.3366 48.7962C89.5853 48.2792 90.9238 48.0134 92.2754 48.0139H252.348C253.7 48.0134 255.038 48.2792 256.287 48.7962C257.536 49.3132 258.67 50.0712 259.626 51.0269C260.582 51.9826 261.34 53.1173 261.857 54.3661C262.374 55.6149 262.64 56.9533 262.639 58.3049Z" fill="white"/>
<path d="M262.639 58.3049V76.6259H81.9844V58.3049C81.9839 56.9533 82.2497 55.6149 82.7666 54.3661C83.2836 53.1173 84.0417 51.9826 84.9974 51.0269C85.9531 50.0712 87.0878 49.3132 88.3366 48.7962C89.5853 48.2792 90.9238 48.0134 92.2754 48.0139H252.348C253.7 48.0134 255.038 48.2792 256.287 48.7962C257.536 49.3132 258.67 50.0712 259.626 51.0269C260.582 51.9826 261.34 53.1173 261.857 54.3661C262.374 55.6149 262.64 56.9533 262.639 58.3049Z" fill="#0706A9"/>
<path d="M91.4734 84.7371H107.413C107.718 84.7371 108.02 84.7973 108.302 84.914C108.584 85.0308 108.841 85.202 109.056 85.4178C109.272 85.6336 109.443 85.8898 109.56 86.1718C109.677 86.4537 109.737 86.7559 109.737 87.0611V103.001C109.737 103.306 109.677 103.608 109.56 103.89C109.443 104.172 109.272 104.428 109.056 104.644C108.841 104.86 108.584 105.031 108.302 105.148C108.02 105.265 107.718 105.325 107.413 105.325H91.4744C90.8578 105.325 90.2664 105.08 89.8304 104.644C89.3944 104.208 89.1494 103.617 89.1494 103V87.0611C89.1494 86.4448 89.3943 85.8537 89.8301 85.4178C90.2659 84.982 90.8571 84.7371 91.4734 84.7371Z" fill="#E4E4E4"/>
<path d="M136.745 84.7371H120.805C119.522 84.7371 118.481 85.7776 118.481 87.0611V103.001C118.481 104.284 119.522 105.325 120.805 105.325H136.745C138.029 105.325 139.069 104.284 139.069 103.001V87.0611C139.069 85.7776 138.029 84.7371 136.745 84.7371Z" fill="#E4E4E4"/>
<path d="M166.077 84.7371H150.137C148.854 84.7371 147.813 85.7776 147.813 87.0611V103.001C147.813 104.284 148.854 105.325 150.137 105.325H166.077C167.361 105.325 168.401 104.284 168.401 103.001V87.0611C168.401 85.7776 167.361 84.7371 166.077 84.7371Z" fill="#E4E4E4"/>
<path d="M195.409 84.7371H179.469C178.186 84.7371 177.145 85.7776 177.145 87.0611V103.001C177.145 104.284 178.186 105.325 179.469 105.325H195.409C196.693 105.325 197.733 104.284 197.733 103.001V87.0611C197.733 85.7776 196.693 84.7371 195.409 84.7371Z" fill="#E4E4E4"/>
<path d="M224.741 84.7371H208.801C207.518 84.7371 206.477 85.7776 206.477 87.0611V103.001C206.477 104.284 207.518 105.325 208.801 105.325H224.741C226.025 105.325 227.065 104.284 227.065 103.001V87.0611C227.065 85.7776 226.025 84.7371 224.741 84.7371Z" stroke="#E4E4E4" stroke-width="1.302" stroke-miterlimit="10"/>
<path d="M254.073 84.7371H238.133C236.85 84.7371 235.809 85.7776 235.809 87.0611V103.001C235.809 104.284 236.85 105.325 238.133 105.325H254.073C255.357 105.325 256.397 104.284 256.397 103.001V87.0611C256.397 85.7776 255.357 84.7371 254.073 84.7371Z" fill="#E4E4E4"/>
<path d="M91.4744 112.361H107.413C107.718 112.361 108.02 112.421 108.302 112.538C108.584 112.655 108.841 112.826 109.056 113.042C109.272 113.257 109.443 113.514 109.56 113.796C109.677 114.078 109.737 114.38 109.737 114.685V130.625C109.737 131.242 109.492 131.833 109.056 132.269C108.62 132.705 108.029 132.95 107.412 132.95H91.4744C90.8578 132.95 90.2664 132.705 89.8304 132.269C89.3944 131.833 89.1494 131.242 89.1494 130.625V114.686C89.1494 114.069 89.3944 113.478 89.8304 113.042C90.2664 112.606 90.8578 112.361 91.4744 112.361Z" fill="#E4E4E4"/>
<path d="M120.806 112.361H136.745C137.05 112.361 137.352 112.421 137.634 112.538C137.916 112.655 138.173 112.826 138.388 113.042C138.604 113.257 138.775 113.514 138.892 113.796C139.009 114.078 139.069 114.38 139.069 114.685V130.625C139.069 130.93 139.009 131.232 138.892 131.514C138.775 131.796 138.604 132.052 138.388 132.268C138.173 132.484 137.916 132.655 137.634 132.772C137.352 132.889 137.05 132.949 136.745 132.949H120.805C120.5 132.949 120.198 132.889 119.916 132.772C119.634 132.655 119.378 132.484 119.162 132.268C118.946 132.052 118.775 131.796 118.658 131.514C118.541 131.232 118.481 130.93 118.481 130.625V114.686C118.481 114.069 118.726 113.478 119.162 113.042C119.598 112.606 120.189 112.361 120.806 112.361Z" fill="#E4E4E4"/>
<path d="M150.138 112.361H166.077C166.382 112.361 166.684 112.421 166.966 112.538C167.248 112.655 167.505 112.826 167.72 113.042C167.936 113.257 168.107 113.514 168.224 113.796C168.341 114.078 168.401 114.38 168.401 114.685V130.625C168.401 130.93 168.341 131.232 168.224 131.514C168.107 131.796 167.936 132.052 167.72 132.268C167.505 132.484 167.248 132.655 166.966 132.772C166.684 132.889 166.382 132.949 166.077 132.949H150.137C149.832 132.949 149.53 132.889 149.248 132.772C148.966 132.655 148.71 132.484 148.494 132.268C148.278 132.052 148.107 131.796 147.99 131.514C147.873 131.232 147.813 130.93 147.813 130.625V114.686C147.813 114.069 148.058 113.478 148.494 113.042C148.93 112.606 149.521 112.361 150.138 112.361Z" stroke="#E4E4E4" stroke-width="1.302" stroke-miterlimit="10"/>
<path d="M179.469 112.361H195.409C196.026 112.361 196.617 112.606 197.053 113.042C197.489 113.478 197.734 114.069 197.734 114.686V130.625C197.734 131.241 197.489 131.832 197.053 132.268C196.618 132.704 196.026 132.949 195.41 132.949H179.47C178.854 132.949 178.262 132.704 177.826 132.268C177.39 131.833 177.145 131.241 177.145 130.625V114.685C177.145 114.069 177.39 113.477 177.826 113.042C178.262 112.606 178.853 112.361 179.469 112.361Z" fill="#E4E4E4"/>
<path d="M208.802 112.361H224.741C225.046 112.361 225.349 112.421 225.631 112.538C225.912 112.655 226.169 112.826 226.384 113.042C226.6 113.257 226.771 113.514 226.888 113.796C227.005 114.078 227.065 114.38 227.065 114.685V130.625C227.065 130.93 227.005 131.232 226.888 131.514C226.771 131.796 226.6 132.052 226.384 132.268C226.169 132.484 225.912 132.655 225.631 132.772C225.349 132.889 225.046 132.949 224.741 132.949H208.801C208.496 132.949 208.194 132.889 207.912 132.772C207.63 132.655 207.374 132.484 207.158 132.268C206.942 132.052 206.771 131.796 206.654 131.514C206.537 131.232 206.477 130.93 206.477 130.625V114.686C206.477 114.069 206.722 113.478 207.158 113.042C207.594 112.606 208.186 112.361 208.802 112.361Z" fill="#E4E4E4"/>
<path d="M238.133 112.361H254.073C254.69 112.361 255.281 112.606 255.717 113.042C256.153 113.478 256.398 114.069 256.398 114.686V130.625C256.398 131.242 256.153 131.833 255.717 132.269C255.281 132.705 254.69 132.95 254.073 132.95H238.133C237.828 132.95 237.526 132.89 237.244 132.773C236.962 132.656 236.705 132.485 236.49 132.269C236.274 132.053 236.103 131.797 235.986 131.515C235.869 131.233 235.809 130.93 235.809 130.625V114.685C235.809 114.069 236.054 113.477 236.49 113.042C236.926 112.606 237.517 112.361 238.133 112.361Z" fill="#E4E4E4"/>
<path d="M91.4734 139.985H107.413C107.718 139.985 108.02 140.045 108.302 140.162C108.584 140.279 108.841 140.45 109.056 140.666C109.272 140.881 109.443 141.138 109.56 141.42C109.677 141.702 109.737 142.004 109.737 142.309V158.249C109.737 158.866 109.492 159.457 109.056 159.893C108.62 160.329 108.029 160.574 107.412 160.574H91.4744C90.8578 160.574 90.2664 160.329 89.8304 159.893C89.3944 159.457 89.1494 158.866 89.1494 158.249V142.309C89.1494 141.693 89.3943 141.102 89.8301 140.666C90.2659 140.23 90.8571 139.985 91.4734 139.985Z" fill="#E4E4E4"/>
<path d="M120.805 139.985H136.745C137.05 139.985 137.352 140.045 137.634 140.162C137.916 140.279 138.173 140.45 138.388 140.666C138.604 140.881 138.775 141.138 138.892 141.42C139.009 141.702 139.069 142.004 139.069 142.309V158.249C139.069 158.554 139.009 158.856 138.892 159.138C138.775 159.42 138.604 159.676 138.388 159.892C138.173 160.108 137.916 160.279 137.634 160.396C137.352 160.513 137.05 160.573 136.745 160.573H120.806C120.19 160.573 119.598 160.328 119.162 159.892C118.726 159.457 118.481 158.865 118.481 158.249V142.309C118.481 141.693 118.726 141.102 119.162 140.666C119.598 140.23 120.189 139.985 120.805 139.985Z" fill="#E4E4E4"/>
<path d="M150.137 139.985H166.077C166.382 139.985 166.684 140.045 166.966 140.162C167.248 140.279 167.505 140.45 167.72 140.666C167.936 140.881 168.107 141.138 168.224 141.42C168.341 141.702 168.401 142.004 168.401 142.309V158.249C168.401 158.554 168.341 158.856 168.224 159.138C168.107 159.42 167.936 159.676 167.72 159.892C167.505 160.108 167.248 160.279 166.966 160.396C166.684 160.513 166.382 160.573 166.077 160.573H150.138C149.522 160.573 148.93 160.328 148.494 159.892C148.058 159.457 147.813 158.865 147.813 158.249V142.309C147.813 141.693 148.058 141.102 148.494 140.666C148.93 140.23 149.521 139.985 150.137 139.985Z" fill="#E4E4E4"/>
<path d="M179.469 139.985H195.409C195.714 139.985 196.017 140.045 196.298 140.162C196.58 140.279 196.837 140.45 197.052 140.666C197.268 140.881 197.439 141.138 197.556 141.42C197.673 141.702 197.733 142.004 197.733 142.309V158.249C197.733 158.866 197.488 159.457 197.052 159.893C196.616 160.329 196.025 160.574 195.408 160.574H179.469C179.164 160.574 178.862 160.514 178.58 160.397C178.298 160.28 178.041 160.109 177.825 159.893C177.61 159.677 177.438 159.421 177.322 159.139C177.205 158.857 177.145 158.554 177.145 158.249V142.309C177.145 141.693 177.39 141.102 177.826 140.666C178.262 140.23 178.853 139.985 179.469 139.985Z" fill="#E4E4E4"/>
<path d="M208.801 139.985H224.741C225.046 139.985 225.349 140.045 225.631 140.162C225.912 140.279 226.169 140.45 226.384 140.666C226.6 140.881 226.771 141.138 226.888 141.42C227.005 141.702 227.065 142.004 227.065 142.309V158.249C227.065 158.554 227.005 158.856 226.888 159.138C226.771 159.42 226.6 159.676 226.384 159.892C226.169 160.108 225.912 160.279 225.631 160.396C225.349 160.513 225.046 160.573 224.741 160.573H208.802C208.186 160.573 207.594 160.328 207.158 159.892C206.723 159.457 206.477 158.865 206.477 158.249V142.309C206.477 141.693 206.722 141.102 207.158 140.666C207.594 140.23 208.185 139.985 208.801 139.985Z" fill="#E4E4E4"/>
<path d="M238.133 139.985H254.073C254.378 139.985 254.681 140.045 254.963 140.162C255.245 140.279 255.501 140.45 255.717 140.666C255.932 140.881 256.103 141.138 256.22 141.42C256.337 141.702 256.397 142.004 256.397 142.309V158.249C256.397 158.554 256.337 158.856 256.22 159.138C256.103 159.42 255.932 159.676 255.717 159.892C255.501 160.108 255.245 160.279 254.963 160.396C254.681 160.513 254.378 160.573 254.073 160.573H238.134C237.518 160.573 236.927 160.328 236.491 159.892C236.055 159.457 235.809 158.865 235.809 158.249V142.309C235.809 141.693 236.054 141.102 236.49 140.666C236.926 140.23 237.517 139.985 238.133 139.985Z" fill="#E4E4E4"/>
<path d="M91.4744 167.609H107.413C107.718 167.609 108.02 167.669 108.302 167.786C108.584 167.903 108.841 168.074 109.056 168.29C109.272 168.505 109.443 168.762 109.56 169.044C109.677 169.325 109.737 169.628 109.737 169.933V185.873C109.737 186.178 109.677 186.48 109.56 186.762C109.443 187.044 109.272 187.3 109.056 187.516C108.841 187.732 108.584 187.903 108.302 188.02C108.02 188.137 107.718 188.197 107.413 188.197H91.4744C90.858 188.197 90.2667 187.952 89.8307 187.516C89.3948 187.08 89.1497 186.489 89.1494 185.873V169.934C89.1494 169.317 89.3944 168.726 89.8304 168.29C90.2664 167.854 90.8578 167.609 91.4744 167.609Z" stroke="#E4E4E4" stroke-width="1.302" stroke-miterlimit="10"/>
<path d="M120.805 167.609H136.745C137.362 167.609 137.953 167.854 138.389 168.29C138.825 168.726 139.07 169.317 139.07 169.934V185.873C139.07 186.489 138.825 187.08 138.389 187.516C137.954 187.952 137.362 188.197 136.746 188.197H120.805C120.5 188.197 120.198 188.137 119.916 188.02C119.634 187.903 119.378 187.732 119.162 187.516C118.946 187.3 118.775 187.044 118.658 186.762C118.541 186.48 118.481 186.178 118.481 185.873V169.933C118.481 169.317 118.726 168.725 119.162 168.29C119.598 167.854 120.189 167.609 120.805 167.609Z" fill="#E4E4E4"/>
<path d="M150.137 167.609H166.077C166.694 167.609 167.285 167.854 167.721 168.29C168.157 168.726 168.402 169.317 168.402 169.934V185.873C168.402 186.489 168.157 187.08 167.721 187.516C167.286 187.952 166.694 188.197 166.078 188.197H150.137C149.832 188.197 149.53 188.137 149.248 188.02C148.966 187.903 148.71 187.732 148.494 187.516C148.278 187.3 148.107 187.044 147.99 186.762C147.873 186.48 147.813 186.178 147.813 185.873V169.933C147.813 169.317 148.058 168.725 148.494 168.29C148.93 167.854 149.521 167.609 150.137 167.609Z" fill="#E4E4E4"/>
<path d="M195.409 167.609H179.469C178.186 167.609 177.145 168.649 177.145 169.933V185.873C177.145 187.156 178.186 188.197 179.469 188.197H195.409C196.693 188.197 197.733 187.156 197.733 185.873V169.933C197.733 168.649 196.693 167.609 195.409 167.609Z" fill="#E4E4E4"/>
<path d="M208.801 167.609H224.741C225.358 167.609 225.949 167.854 226.385 168.29C226.821 168.726 227.066 169.317 227.066 169.934V185.873C227.066 186.489 226.821 187.08 226.385 187.516C225.95 187.952 225.359 188.197 224.742 188.197H208.801C208.496 188.197 208.194 188.137 207.912 188.02C207.63 187.903 207.374 187.732 207.158 187.516C206.942 187.3 206.771 187.044 206.654 186.762C206.537 186.48 206.477 186.178 206.477 185.873V169.933C206.477 169.317 206.722 168.725 207.158 168.29C207.594 167.854 208.185 167.609 208.801 167.609Z" fill="#E4E4E4"/>
<path d="M238.133 167.609H254.073C254.69 167.609 255.281 167.854 255.717 168.29C256.153 168.726 256.398 169.317 256.398 169.934V185.873C256.398 186.489 256.153 187.08 255.718 187.516C255.282 187.952 254.691 188.197 254.074 188.197H238.133C237.828 188.197 237.526 188.137 237.244 188.02C236.962 187.903 236.706 187.732 236.49 187.516C236.274 187.3 236.103 187.044 235.986 186.762C235.869 186.48 235.809 186.178 235.809 185.873V169.933C235.809 169.317 236.054 168.725 236.49 168.29C236.926 167.854 237.517 167.609 238.133 167.609Z" fill="#E4E4E4"/>
<path d="M96.6052 63.973C96.6052 64.7135 96.3856 65.4374 95.9742 66.0531C95.5628 66.6688 94.9781 67.1486 94.294 67.432C93.6098 67.7154 92.857 67.7895 92.1308 67.6451C91.4045 67.5006 90.7374 67.144 90.2138 66.6204C89.6902 66.0968 89.3336 65.4297 89.1891 64.7034C89.0447 63.9772 89.1188 63.2244 89.4022 62.5402C89.6856 61.8561 90.1654 61.2714 90.7811 60.86C91.3968 60.4486 92.1207 60.229 92.8612 60.229C93.8542 60.229 94.8065 60.6235 95.5086 61.3256C96.2107 62.0277 96.6052 62.98 96.6052 63.973Z" fill="#BDE7FF"/>
<path d="M124.743 67.717C126.81 67.717 128.487 66.0408 128.487 63.973C128.487 61.9052 126.81 60.229 124.743 60.229C122.675 60.229 120.999 61.9052 120.999 63.973C120.999 66.0408 122.675 67.717 124.743 67.717Z" fill="#BDE7FF"/>
<path d="M156.626 67.717C158.694 67.717 160.37 66.0408 160.37 63.973C160.37 61.9052 158.694 60.229 156.626 60.229C154.558 60.229 152.882 61.9052 152.882 63.973C152.882 66.0408 154.558 67.717 156.626 67.717Z" fill="#BDE7FF"/>
<path d="M192.251 63.973C192.251 64.7135 192.031 65.4374 191.62 66.0531C191.208 66.6688 190.624 67.1486 189.94 67.432C189.255 67.7154 188.503 67.7895 187.776 67.6451C187.05 67.5006 186.383 67.144 185.859 66.6204C185.336 66.0968 184.979 65.4297 184.835 64.7034C184.69 63.9772 184.764 63.2244 185.048 62.5402C185.331 61.8561 185.811 61.2714 186.427 60.86C187.042 60.4486 187.766 60.229 188.507 60.229C189.5 60.229 190.452 60.6235 191.154 61.3256C191.856 62.0277 192.251 62.98 192.251 63.973Z" fill="#BDE7FF"/>
<path d="M224.134 63.973C224.134 64.7135 223.914 65.4374 223.503 66.0531C223.091 66.6688 222.507 67.1486 221.822 67.432C221.138 67.7154 220.385 67.7895 219.659 67.6451C218.933 67.5006 218.266 67.144 217.742 66.6204C217.219 66.0968 216.862 65.4297 216.718 64.7034C216.573 63.9772 216.647 63.2244 216.931 62.5402C217.214 61.8561 217.694 61.2714 218.31 60.86C218.925 60.4486 219.649 60.229 220.39 60.229C220.881 60.229 221.368 60.3258 221.822 60.514C222.277 60.7022 222.689 60.9779 223.037 61.3256C223.385 61.6733 223.66 62.086 223.849 62.5402C224.037 62.9945 224.134 63.4813 224.134 63.973Z" fill="#BDE7FF"/>
<path d="M256.015 63.973C256.015 64.7135 255.795 65.4374 255.384 66.0531C254.973 66.6688 254.388 67.1486 253.704 67.432C253.02 67.7154 252.267 67.7895 251.541 67.6451C250.814 67.5006 250.147 67.144 249.624 66.6204C249.1 66.0968 248.743 65.4297 248.599 64.7034C248.454 63.9772 248.529 63.2244 248.812 62.5402C249.095 61.8561 249.575 61.2714 250.191 60.86C250.807 60.4486 251.53 60.229 252.271 60.229C253.264 60.229 254.216 60.6235 254.918 61.3256C255.621 62.0277 256.015 62.98 256.015 63.973Z" fill="#BDE7FF"/>
<path d="M92.8613 63.9732V46.3972" stroke="#0F398A" stroke-width="5.414" stroke-miterlimit="10" stroke-linecap="round"/>
<path d="M124.743 63.9732V46.3972" stroke="#0F398A" stroke-width="5.414" stroke-miterlimit="10" stroke-linecap="round"/>
<path d="M156.625 63.9732V46.3972" stroke="#0F398A" stroke-width="5.414" stroke-miterlimit="10" stroke-linecap="round"/>
<path d="M220.39 63.9732V46.3972" stroke="#0F398A" stroke-width="5.414" stroke-miterlimit="10" stroke-linecap="round"/>
<path d="M252.271 63.9732V46.3972" stroke="#0F398A" stroke-width="5.414" stroke-miterlimit="10" stroke-linecap="round"/>
<path d="M157.724 158.363C157.853 158.37 157.974 158.37 158.103 158.37C158.232 158.37 158.353 158.37 158.482 158.363" fill="white"/>
<path d="M93.4043 96.4599L98.3683 100.611L105.521 90.6699" stroke="#0706A9" stroke-width="3.906" stroke-linecap="round" stroke-linejoin="round"/>
<path d="M211.284 96.4599L216.248 100.611L223.401 90.6699" stroke="#0706A9" stroke-width="3.906" stroke-linecap="round" stroke-linejoin="round"/>
<path d="M122.717 178.096L127.681 182.247L134.834 172.306" stroke="#0706A9" stroke-width="3.906" stroke-linecap="round" stroke-linejoin="round"/>
<g opacity="0.25">
<path opacity="0.25" d="M226.446 107.189L215.195 114.143L220.346 122.477L231.598 115.523L226.446 107.189Z" fill="#594157"/>
<path opacity="0.25" d="M215.189 114.146C216.487 112.277 218.155 110.694 220.091 109.498C222.026 108.301 224.188 107.516 226.44 107.191L215.189 114.146Z" fill="#594157"/>
<path opacity="0.25" d="M311.221 107.187L306.07 115.521L317.321 122.475L322.473 114.141L311.221 107.187Z" fill="#594157"/>
<path opacity="0.25" d="M322.472 114.146C321.174 112.277 319.506 110.694 317.571 109.498C315.635 108.301 313.474 107.516 311.222 107.191L322.472 114.146Z" fill="#594157"/>
<path opacity="0.25" d="M279.183 99.8281H258.485V106.595H279.183V99.8281Z" fill="#594157"/>
<path opacity="0.25" d="M282.92 86.1082V99.8272H254.747V86.1082C263.818 82.6397 273.849 82.6397 282.92 86.1082Z" fill="#594157"/>
<path opacity="0.25" d="M256.342 99.8283V86.1113" stroke="#594157" stroke-width="1.083" stroke-miterlimit="10"/>
<path opacity="0.25" d="M258.591 99.8283V86.1113" stroke="#594157" stroke-width="1.083" stroke-miterlimit="10"/>
<path opacity="0.25" d="M260.839 99.8283V86.1113" stroke="#594157" stroke-width="1.083" stroke-miterlimit="10"/>
<path opacity="0.25" d="M263.089 99.8283V86.1113" stroke="#594157" stroke-width="1.083" stroke-miterlimit="10"/>
<path opacity="0.25" d="M265.338 99.8283V86.1113" stroke="#594157" stroke-width="1.083" stroke-miterlimit="10"/>
<path opacity="0.25" d="M267.587 99.8283V86.1113" stroke="#594157" stroke-width="1.083" stroke-miterlimit="10"/>
<path opacity="0.25" d="M269.836 99.8283V86.1113" stroke="#594157" stroke-width="1.083" stroke-miterlimit="10"/>
<path opacity="0.25" d="M272.085 99.8283V86.1113" stroke="#594157" stroke-width="1.083" stroke-miterlimit="10"/>
<path opacity="0.25" d="M274.334 99.8283V86.1113" stroke="#594157" stroke-width="1.083" stroke-miterlimit="10"/>
<path opacity="0.25" d="M276.583 99.8283V86.1113" stroke="#594157" stroke-width="1.083" stroke-miterlimit="10"/>
<path opacity="0.25" d="M278.832 99.8283V86.1113" stroke="#594157" stroke-width="1.083" stroke-miterlimit="10"/>
<path opacity="0.25" d="M281.081 99.8283V86.1113" stroke="#594157" stroke-width="1.083" stroke-miterlimit="10"/>
<path opacity="0.25" d="M282.92 86.1082H254.747C263.818 82.6397 273.849 82.6397 282.92 86.1082Z" fill="#594157"/>
<path opacity="0.25" d="M326.51 243.387C358.363 211.533 358.363 159.889 326.51 128.035C294.656 96.1819 243.011 96.1819 211.158 128.035C179.304 159.889 179.304 211.533 211.158 243.387C243.011 275.24 294.656 275.24 326.51 243.387Z" fill="#594157"/>
<path opacity="0.7" d="M320.794 237.671C349.491 208.974 349.491 162.448 320.794 133.751C292.097 105.054 245.57 105.054 216.874 133.751C188.177 162.448 188.177 208.974 216.874 237.671C245.57 266.368 292.097 266.368 320.794 237.671Z" fill="#594157"/>
<path opacity="0.25" d="M318.975 235.853C346.667 208.16 346.667 163.262 318.975 135.569C291.282 107.877 246.384 107.877 218.692 135.569C190.999 163.262 190.999 208.16 218.692 235.853C246.384 263.545 291.282 263.545 318.975 235.853Z" fill="#594157"/>
<path opacity="0.25" d="M335.336 185.71H328.355" stroke="#594157" stroke-width="5.414" stroke-miterlimit="10" stroke-linecap="round"/>
<path opacity="0.25" d="M268.834 252.212V245.231" stroke="#594157" stroke-width="5.414" stroke-miterlimit="10" stroke-linecap="round"/>
<path opacity="0.25" d="M202.332 185.71H209.313" stroke="#594157" stroke-width="5.414" stroke-miterlimit="10" stroke-linecap="round"/>
<path opacity="0.25" d="M268.834 119.209V126.19" stroke="#594157" stroke-width="5.414" stroke-miterlimit="10" stroke-linecap="round"/>
<path opacity="0.25" d="M326.424 218.964L320.379 215.473" stroke="#594157" stroke-width="3.248" stroke-miterlimit="10" stroke-linecap="round"/>
<path opacity="0.25" d="M235.58 243.301L239.071 237.256" stroke="#594157" stroke-width="3.248" stroke-miterlimit="10" stroke-linecap="round"/>
<path opacity="0.25" d="M211.243 152.457L217.288 155.948" stroke="#594157" stroke-width="3.248" stroke-miterlimit="10" stroke-linecap="round"/>
<path opacity="0.25" d="M302.087 128.12L298.596 134.165" stroke="#594157" stroke-width="3.248" stroke-miterlimit="10" stroke-linecap="round"/>
<path opacity="0.25" d="M302.074 243.309L298.585 237.263" stroke="#594157" stroke-width="3.248" stroke-miterlimit="10" stroke-linecap="round"/>
<path opacity="0.25" d="M211.235 218.951L217.281 215.462" stroke="#594157" stroke-width="3.248" stroke-miterlimit="10" stroke-linecap="round"/>
<path opacity="0.25" d="M235.593 128.112L239.082 134.158" stroke="#594157" stroke-width="3.248" stroke-miterlimit="10" stroke-linecap="round"/>
<path opacity="0.25" d="M326.432 152.47L320.386 155.959" stroke="#594157" stroke-width="3.248" stroke-miterlimit="10" stroke-linecap="round"/>
<path opacity="0.25" d="M286.139 211.655C285.791 211.656 285.448 211.574 285.138 211.417C284.828 211.259 284.56 211.03 284.355 210.749L266.355 186.055L284.064 138.072C284.267 137.524 284.679 137.078 285.21 136.833C285.741 136.589 286.347 136.565 286.896 136.768C287.444 136.97 287.89 137.382 288.134 137.913C288.379 138.444 288.403 139.051 288.2 139.599L271.306 185.367L287.914 208.152C288.154 208.48 288.299 208.869 288.332 209.274C288.365 209.68 288.285 210.087 288.1 210.449C287.916 210.812 287.634 211.116 287.287 211.329C286.94 211.541 286.541 211.653 286.134 211.652L286.139 211.655Z" fill="#594157"/>
<path opacity="0.25" d="M274.345 185.71C274.345 186.8 274.022 187.865 273.416 188.772C272.811 189.678 271.95 190.384 270.943 190.801C269.936 191.219 268.828 191.328 267.759 191.115C266.69 190.902 265.708 190.378 264.937 189.607C264.166 188.836 263.641 187.854 263.429 186.785C263.216 185.716 263.325 184.608 263.742 183.601C264.159 182.594 264.866 181.733 265.772 181.128C266.678 180.522 267.744 180.199 268.834 180.199C270.295 180.199 271.697 180.78 272.731 181.813C273.764 182.847 274.345 184.248 274.345 185.71Z" fill="#594157"/>
</g>
<path d="M222.911 103.653L211.661 110.609L216.813 118.943L228.064 111.987L222.911 103.653Z" fill="#0706A9"/>
<path d="M211.663 110.608C212.96 108.738 214.628 107.156 216.564 105.96C218.499 104.763 220.661 103.978 222.913 103.653L211.663 110.608Z" fill="#0706A9"/>
<path d="M307.687 103.652L302.536 111.987L313.787 118.941L318.938 110.607L307.687 103.652Z" fill="#0706A9"/>
<path d="M318.939 110.608C317.641 108.738 315.973 107.156 314.037 105.959C312.101 104.763 309.94 103.978 307.688 103.653L318.939 110.608Z" fill="#0706A9"/>
<path d="M275.649 96.2939H254.951V103.061H275.649V96.2939Z" fill="#0706A9"/>
<path d="M279.387 82.5741V96.2941H251.214V82.5741C260.285 79.1055 270.316 79.1055 279.387 82.5741Z" fill="#0706A9"/>
<path d="M252.808 96.2941V82.5771" stroke="#101747" stroke-width="1.083" stroke-miterlimit="10"/>
<path d="M255.057 96.2941V82.5771" stroke="#101747" stroke-width="1.083" stroke-miterlimit="10"/>
<path d="M257.306 96.2941V82.5771" stroke="#101747" stroke-width="1.083" stroke-miterlimit="10"/>
<path d="M259.555 96.2941V82.5771" stroke="#101747" stroke-width="1.083" stroke-miterlimit="10"/>
<path d="M261.804 96.2941V82.5771" stroke="#101747" stroke-width="1.083" stroke-miterlimit="10"/>
<path d="M264.053 96.2941V82.5771" stroke="#101747" stroke-width="1.083" stroke-miterlimit="10"/>
<path d="M266.302 96.2941V82.5771" stroke="#101747" stroke-width="1.083" stroke-miterlimit="10"/>
<path d="M268.551 96.2941V82.5771" stroke="#101747" stroke-width="1.083" stroke-miterlimit="10"/>
<path d="M270.8 96.2941V82.5771" stroke="#101747" stroke-width="1.083" stroke-miterlimit="10"/>
<path d="M273.049 96.2941V82.5771" stroke="#101747" stroke-width="1.083" stroke-miterlimit="10"/>
<path d="M275.298 96.2941V82.5771" stroke="#101747" stroke-width="1.083" stroke-miterlimit="10"/>
<path d="M277.547 96.2941V82.5771" stroke="#101747" stroke-width="1.083" stroke-miterlimit="10"/>
<path d="M279.387 82.5741H251.214C260.285 79.1055 270.316 79.1055 279.387 82.5741Z" fill="#0706A9"/>
<path d="M322.976 239.852C354.83 207.998 354.83 156.354 322.976 124.5C291.123 92.6468 239.478 92.6467 207.625 124.5C175.771 156.354 175.771 207.998 207.625 239.852C239.478 271.705 291.123 271.705 322.976 239.852Z" fill="#0706A9"/>
<path opacity="0.7" d="M317.26 234.136C345.957 205.439 345.957 158.913 317.26 130.216C288.563 101.519 242.036 101.519 213.339 130.216C184.642 158.913 184.642 205.439 213.339 234.136C242.036 262.833 288.563 262.833 317.26 234.136Z" fill="#E4E4E4"/>
<path d="M265.301 253.088C304.464 253.088 336.212 221.34 336.212 182.177C336.212 143.014 304.464 111.266 265.301 111.266C226.138 111.266 194.39 143.014 194.39 182.177C194.39 221.34 226.138 253.088 265.301 253.088Z" fill="white"/>
<path d="M331.802 182.177H324.821" stroke="#0706A9" stroke-width="5.414" stroke-miterlimit="10" stroke-linecap="round"/>
<path d="M265.301 248.679V241.698" stroke="#0706A9" stroke-width="5.414" stroke-miterlimit="10" stroke-linecap="round"/>
<path d="M198.799 182.177H205.78" stroke="#0706A9" stroke-width="5.414" stroke-miterlimit="10" stroke-linecap="round"/>
<path d="M265.301 115.675V122.656" stroke="#0706A9" stroke-width="5.414" stroke-miterlimit="10" stroke-linecap="round"/>
<g opacity="0.3">
<g opacity="0.3">
<g opacity="0.3">
<path opacity="0.3" d="M322.89 215.43L316.845 211.939" stroke="#101747" stroke-width="3.248" stroke-miterlimit="10" stroke-linecap="round"/>
</g>
<g opacity="0.3">
<path opacity="0.3" d="M232.046 239.767L235.537 233.722" stroke="#101747" stroke-width="3.248" stroke-miterlimit="10" stroke-linecap="round"/>
</g>
<g opacity="0.3">
<path opacity="0.3" d="M207.708 148.923L213.753 152.414" stroke="#101747" stroke-width="3.248" stroke-miterlimit="10" stroke-linecap="round"/>
</g>
<g opacity="0.3">
<path opacity="0.3" d="M298.553 124.586L295.062 130.631" stroke="#101747" stroke-width="3.248" stroke-miterlimit="10" stroke-linecap="round"/>
</g>
<g opacity="0.3">
<path opacity="0.3" d="M298.539 239.775L295.05 233.729" stroke="#101747" stroke-width="3.248" stroke-miterlimit="10" stroke-linecap="round"/>
</g>
<g opacity="0.3">
<path opacity="0.3" d="M207.701 215.416L213.747 211.927" stroke="#101747" stroke-width="3.248" stroke-miterlimit="10" stroke-linecap="round"/>
</g>
<g opacity="0.3">
<path opacity="0.3" d="M232.06 124.578L235.549 130.624" stroke="#101747" stroke-width="3.248" stroke-miterlimit="10" stroke-linecap="round"/>
</g>
<g opacity="0.3">
<path opacity="0.3" d="M322.899 148.936L316.853 152.425" stroke="#101747" stroke-width="3.248" stroke-miterlimit="10" stroke-linecap="round"/>
</g>
</g>
</g>
<path d="M282.604 208.12C282.256 208.121 281.913 208.039 281.603 207.881C281.294 207.724 281.025 207.495 280.821 207.214L262.821 182.521L280.537 134.538C280.637 134.266 280.79 134.017 280.986 133.805C281.183 133.592 281.42 133.42 281.682 133.299C281.945 133.178 282.23 133.11 282.519 133.099C282.808 133.087 283.097 133.133 283.368 133.233C283.64 133.334 283.889 133.487 284.102 133.683C284.314 133.88 284.486 134.116 284.607 134.379C284.728 134.642 284.796 134.926 284.808 135.215C284.819 135.505 284.773 135.793 284.673 136.065L267.773 181.832L284.38 204.618C284.62 204.946 284.765 205.335 284.798 205.74C284.831 206.146 284.75 206.553 284.566 206.915C284.382 207.278 284.1 207.582 283.753 207.795C283.406 208.007 283.007 208.119 282.6 208.118L282.604 208.12Z" fill="#0706A9"/>
<path d="M265.299 187.687C268.342 187.687 270.81 185.22 270.81 182.176C270.81 179.132 268.342 176.665 265.299 176.665C262.255 176.665 259.788 179.132 259.788 182.176C259.788 185.22 262.255 187.687 265.299 187.687Z" fill="#0F398A"/>
<path d="M331.134 265.4L333.12 268.839L335.654 268.349L333.914 264.324" fill="#FDAEB3"/>
<path d="M335.65 268.098C335.118 268.443 334.49 268.611 333.857 268.576C333.583 268.491 333.298 268.446 333.012 268.442C332.812 268.49 332.464 269.059 332.318 269.222C331.909 269.576 331.459 269.878 330.977 270.122C330.623 270.288 329.277 270.757 329.035 271.276C329.012 271.327 329.003 271.382 329.007 271.438C329.012 271.493 329.03 271.547 329.061 271.593C329.091 271.639 329.133 271.677 329.182 271.703C329.231 271.73 329.286 271.743 329.342 271.742C329.749 271.742 330.863 271.711 331.642 271.703C332.128 271.7 332.612 271.628 333.079 271.49C334.226 271.166 335.355 270.779 336.46 270.331C336.497 269.922 336.444 269.51 336.304 269.124C336.164 268.738 335.941 268.388 335.65 268.098Z" fill="#594157"/>
<path d="M313.267 231.967C303.535 225.713 304.736 235.054 304.736 235.054L332.187 267.54C332.737 267.499 333.269 267.322 333.733 267.026C334.198 266.729 334.582 266.322 334.851 265.84C334.851 265.84 324.256 239.091 313.267 231.967Z" fill="#0F398A"/>
<path d="M316.473 204.105C317.199 205.826 317.49 207.698 317.322 209.558C317.062 212.314 316.432 214.649 316.201 217.158C315.97 219.667 313.053 234.641 313.053 234.641C313.053 234.641 305.165 237.035 304.596 234.689C303.446 229.943 301.814 204.264 301.814 204.264C306.663 205.174 311.645 205.12 316.473 204.105Z" fill="#0F398A"/>
<path d="M319.457 203.369C319.457 203.369 321.798 209.669 313.983 216.901C311.951 218.782 310.101 219.495 307.61 221.801C305.759 223.517 294.394 234.769 294.394 234.769C294.394 234.769 287.372 229.188 288.254 226.942C290.038 222.396 302.643 199.63 302.643 199.63C302.643 199.63 312.663 200.75 319.457 203.369Z" fill="#0F398A"/>
<path d="M278.803 265.437L277.835 269.328L280.413 269.452L282.502 265.768" fill="#FDAEB3"/>
<path d="M296.481 229.601C295.805 216.523 288.254 226.947 288.254 226.947L278.307 266.825C279.156 267.613 280.267 268.058 281.425 268.074C281.425 268.074 297.157 242.682 296.481 229.601Z" fill="#0F398A"/>
<path d="M322.101 160.152C318.863 161.743 313.432 160.368 313.432 160.368L315.254 154.568L316.036 152.094C316.036 152.094 316.592 151.619 317.413 150.96C319.939 148.927 324.972 145.208 323.661 148.835C321.923 153.634 322.101 160.152 322.101 160.152Z" fill="#FDAEB3"/>
<path d="M319.098 151.728C318.089 152.998 316.763 153.978 315.253 154.57L316.036 152.096C316.036 152.096 316.592 151.621 317.413 150.962L317.684 150.913L319.098 151.728Z" fill="#E58099"/>
<path d="M312.158 140.915C312.158 140.915 310.051 151.448 311.718 153.215C313.385 154.982 321.175 151.734 321.175 151.734C321.175 151.734 327.265 146.044 326.834 140.901C326.47 136.562 317.358 132.934 313.442 137.418C312.738 138.464 312.298 139.665 312.158 140.918V140.915Z" fill="#FDAEB3"/>
<path d="M311.327 133.838C311.327 133.838 309.611 139.255 313.671 141.213C316.364 142.513 319.442 142.801 319.437 144.132C319.432 145.463 320.004 144.5 320.598 144.254C321.859 143.733 322.485 145.477 321.707 147.112C321.114 148.359 321.186 150.318 323.077 150.79C324.228 149.283 325.297 147.714 326.277 146.09C327.126 144.579 329.319 139.255 325.769 138.09C325.584 137.439 325.257 136.837 324.812 136.328C324.366 135.819 323.813 135.415 323.192 135.146C319.792 133.586 316.6 134.046 314.162 134.154C313.041 134.201 311.822 131.863 311.327 133.838Z" fill="#1D2468"/>
<path d="M304.606 169.485C303.334 168.974 301.495 168.135 299.565 167.218C298.052 166.497 296.484 165.728 295.091 165.035C292.503 163.76 290.499 162.735 290.499 162.735C290.499 162.735 292.176 157.575 293.255 157.354C293.894 157.222 298.711 158.104 302.504 158.837C303.314 158.991 304.08 159.144 304.74 159.285C306.204 159.561 307.187 159.763 307.187 159.763L304.606 169.485Z" fill="#FDAEB3"/>
<path d="M290.501 162.728C288.08 161.509 287.073 159.928 284.449 154.909C283.504 153.109 281.399 148.893 280.577 147.153L281.477 144.729C281.972 145.029 288.859 151.689 289.76 152.74C291.2 154.419 293.26 157.347 293.26 157.347C294.291 159.159 292.922 163.957 290.501 162.728Z" fill="#FDAEB3"/>
<path d="M313.489 160.92C309.534 159.604 300.624 158.005 300.624 158.005C300.624 158.005 298.189 163.48 298.091 167.476C300.966 169.285 308.183 171.492 308.183 171.492" fill="#0706A9"/>
<path d="M324.007 185.079C323.901 185.308 323.786 185.547 323.672 185.779C323.098 186.919 322.541 188.067 322.046 189.225C318.053 198.457 319.458 203.379 319.458 203.379C312.902 204.236 301.937 200.949 301.937 200.949C301.937 200.949 301.964 200.012 301.947 199.279C301.767 192.33 301.991 185.377 302.618 178.455C302.697 177.774 302.777 177.112 302.875 176.467C303.136 173.75 303.804 171.087 304.854 168.567C308.582 161.021 313.433 160.367 313.433 160.367C316.319 160.679 319.233 160.607 322.1 160.155C329.927 164.643 327.877 176.95 324.007 185.079Z" fill="#0706A9"/>
<path d="M290.182 175.071C290.182 175.071 289.851 169.658 290.775 169.056C291.322 168.699 296.127 167.756 299.922 167.056C300.733 166.901 301.506 166.763 302.172 166.649C303.628 166.372 304.624 166.201 304.624 166.201L305.78 176.201C301.36 176.171 290.182 175.071 290.182 175.071Z" fill="#FDAEB3"/>
<path d="M290.776 169.054C289.379 167.852 287.877 166.776 286.289 165.84C285.067 165.194 280.389 163.369 277.118 161.901C275.953 161.38 274.827 160.779 273.746 160.101L272.736 161.668C272.736 161.668 277.416 166.29 281.687 170.003C285.958 173.716 287.479 174.816 290.18 175.069C292.881 175.322 292.398 170.359 290.776 169.054Z" fill="#FDAEB3"/>
<path d="M316.911 176.2C311.981 179.01 304.311 178.585 302.611 178.453C302.69 177.772 302.77 177.11 302.868 176.465L316.911 176.2Z" fill="#0706A9"/>
<path d="M318.182 175.739C312.052 178.264 302.308 176.919 302.308 176.919C301.465 173.566 301.109 170.109 301.252 166.655C303.796 165.807 311.483 164.57 311.483 164.57C311.483 164.57 319.296 163.586 320.442 168.878C321.627 174.341 318.182 175.739 318.182 175.739Z" fill="#0706A9"/>
<path d="M273.269 162.191C272.885 161.801 272.373 161.562 271.827 161.519C271.47 161.513 271.119 161.417 270.809 161.241C270.498 161.065 270.236 160.813 270.048 160.509C270.307 159.65 270.74 158.854 271.32 158.171C271.52 158.047 272.551 158.827 272.887 158.947C273.223 159.067 273.163 159.729 274.267 160.422" fill="#FDAEB3"/>
<path d="M273.373 159.731C273.367 159.294 273.253 158.865 273.042 158.483C272.942 158.283 272.702 157.569 272.578 157.567C272.454 157.565 272.293 157.724 272.244 157.91C272.223 158.199 272.23 158.489 272.263 158.777" fill="#FDAEB3"/>
<path d="M313.432 160.368L314.449 159.04C316.97 159.558 319.567 159.589 322.1 159.13V160.152L318.887 160.82C317.06 161.147 315.18 160.991 313.432 160.368Z" fill="#F9400A"/>
<path d="M314.448 164.041L314.704 167.092C314.704 167.092 319.83 166.892 322.685 165.515L322.106 163.766C319.586 164.282 316.998 164.374 314.448 164.041Z" fill="#F94F1E"/>
<path d="M280.617 269.095C279.926 269.325 279.192 269.399 278.469 269.31C278.469 269.31 278.21 268.746 277.786 268.741C277.362 268.736 276.838 269.327 276.55 269.461C276.262 269.595 270.786 271.269 272.625 271.64C272.691 271.719 279.125 271.74 280.533 271.74C280.614 271.74 280.694 271.713 280.757 271.661C280.82 271.61 280.864 271.538 280.88 271.458C281.013 271.069 281.059 270.656 281.014 270.247C280.968 269.838 280.833 269.445 280.617 269.095Z" fill="#594157"/>
<path d="M312.126 164.112C312.865 163.829 313.653 163.696 314.445 163.723C315.236 163.749 316.013 163.933 316.732 164.265C318.218 164.824 319.431 165.934 320.12 167.364C320.808 168.794 320.92 170.434 320.432 171.944" fill="#0706A9"/>
<path d="M312.126 164.112C312.865 163.829 313.653 163.696 314.445 163.723C315.236 163.749 316.013 163.933 316.732 164.265C318.218 164.824 319.431 165.934 320.12 167.364C320.808 168.794 320.92 170.434 320.432 171.944" stroke="white" stroke-width="0.247" stroke-miterlimit="10" stroke-linecap="round"/>
<path d="M319.684 161.767C319.788 162.412 319.721 163.073 319.491 163.684C319.26 164.295 318.874 164.836 318.371 165.252" fill="#0706A9"/>
<path d="M319.684 161.767C319.788 162.412 319.721 163.073 319.491 163.684C319.26 164.295 318.874 164.836 318.371 165.252" stroke="white" stroke-width="0.247" stroke-miterlimit="10" stroke-linecap="round"/>
<path d="M277.284 143.343C277.284 143.343 277.22 140.86 277.809 140.197C278.398 139.534 279.521 139.461 279.668 140.344C279.815 141.227 277.548 142.626 277.548 142.626L277.284 143.343Z" fill="#FDAEB3"/>
<path d="M106.695 231.488C105.783 238.288 102.095 264.55 102.095 264.55H99.3106C99.3106 264.55 96.9506 242.95 97.7426 237.808C98.5426 232.647 99.0866 231.038 98.8426 228.766C98.8186 228.51 97.6266 223.301 96.6506 219.012C96.5056 218.404 96.3706 217.82 96.2506 217.268C95.7386 215.052 95.3506 213.395 95.3506 213.395H106.704C106.704 213.395 106.934 229.68 106.695 231.488Z" fill="#FDAEB3"/>
<path d="M105.87 216.873C102.653 218.257 96.9169 218.986 96.6529 219.018C96.5079 218.41 96.3729 217.826 96.2529 217.274L96.2689 217.154L99.0219 216.002C99.0219 216.002 109.167 215.445 105.87 216.873Z" fill="#E58099"/>
<path d="M102.095 264.549C102.052 264.961 102.124 265.376 102.303 265.749C102.976 267.372 103.988 268.833 105.271 270.033L105.494 270.633L103.865 270.767C102.995 270.266 102.16 269.707 101.365 269.093C101.209 268.825 100.607 267.651 100.429 267.293C100.251 266.935 99.4917 266.262 99.4917 265.949C99.4221 265.475 99.3178 265.007 99.1797 264.549C99.5265 264.256 99.8916 263.984 100.273 263.737C100.429 263.693 101.12 263.626 101.12 263.626L102.095 264.549Z" fill="#FDAEB3"/>
<path d="M99.2441 263.921C98.5637 264.893 98.2052 266.054 98.2191 267.24C98.4786 268.729 98.6592 270.232 98.7601 271.74H99.1411L99.7661 268.397C99.7661 268.397 102.525 271.436 103.15 271.588C104.24 271.704 105.336 271.755 106.431 271.74C106.565 271.74 108.531 271.298 105.27 270.026C105.27 270.026 105.292 270.673 103.998 270.004C102.687 269.212 101.555 268.156 100.673 266.904C99.9884 266.024 99.5011 265.006 99.2441 263.921Z" fill="#423D73"/>
<path d="M97.3172 212.532C97.3172 212.532 97.3172 213.652 97.2172 215.477C97.1852 215.997 97.1532 216.577 97.1052 217.205C96.7546 222.181 95.8774 227.105 94.4882 231.896C92.4722 238.457 83.6622 264.023 83.6622 264.023L80.9092 263.639C80.9092 263.639 82.9332 242.418 84.4302 237.425C85.9272 232.432 88.3192 230.48 88.3912 228.199C88.4312 226.899 87.8472 222.278 87.3352 218.54C87.1672 217.284 87.0072 216.132 86.8782 215.24C86.7192 214.12 86.6142 213.4 86.6142 213.4L97.3172 212.532Z" fill="#FDAEB3"/>
<path d="M83.6605 264.019C83.5623 264.419 83.5765 264.839 83.7015 265.232C84.1452 266.932 84.9468 268.518 86.0525 269.883L86.1905 270.51L84.5585 270.419C83.7654 269.804 83.015 269.136 82.3125 268.419C82.1955 268.133 81.7595 266.887 81.6325 266.505C81.5055 266.123 80.8455 265.355 80.8885 265.045C80.8843 264.567 80.8452 264.09 80.7715 263.618C81.1553 263.375 81.5541 263.157 81.9655 262.964C82.1265 262.942 82.8205 262.97 82.8205 262.97L83.6605 264.019Z" fill="#FDAEB3"/>
<path d="M80.9231 263.005C80.1157 263.874 79.6013 264.975 79.4521 266.152C79.5044 267.664 79.4767 269.178 79.3691 270.687L79.7461 270.739L80.8241 267.514C80.8241 267.514 83.1401 270.903 83.7381 271.139C84.8013 271.403 85.8792 271.603 86.9661 271.739C87.0991 271.757 89.1041 271.589 86.0531 269.882C86.0531 269.882 85.9861 270.526 84.7961 269.682C83.6064 268.716 82.6301 267.514 81.9291 266.152C81.3723 265.187 81.0292 264.114 80.9231 263.005Z" fill="#423D73"/>
<path d="M97.772 216.752C97.561 216.922 97.3364 217.075 97.1001 217.208C94.1071 218.961 88.906 218.673 87.33 218.544C87.162 217.288 87.002 216.136 86.873 215.244C90.173 215.076 95.1311 214.944 97.2121 215.484C98.1881 215.733 98.533 216.134 97.772 216.752Z" fill="#E58099"/>
<path d="M119.515 153.786C119.515 153.786 119.601 157.276 118.495 158.106C117.654 158.738 110.27 158.515 106.807 158.373C105.722 158.325 105.02 158.292 105.02 158.292L105.434 154.873L105.82 151.691L119.515 153.786Z" fill="#FDAEB3"/>
<path d="M117.973 154.168C119.477 153.371 121.083 152.785 122.747 152.427C124.994 152.051 135.024 149.479 135.024 149.479L135.805 151.444C135.805 151.444 126.505 157.322 117.414 158.357L117.973 154.168Z" fill="#FDAEB3"/>
<path d="M135.024 149.479C135.34 149.215 135.605 148.895 135.805 148.535C136.051 147.915 136.527 147.413 137.134 147.135C137.815 146.895 138.343 146.554 138.534 146.635C138.725 146.716 138.662 147.155 138.279 147.325C137.896 147.495 137.343 147.925 137.372 148.057C137.995 147.832 138.597 147.554 139.172 147.226C139.894 146.925 140.638 146.679 141.397 146.489C141.638 146.532 141.468 147.073 140.541 147.436C139.841 147.709 139.452 148.066 139.509 148.236C139.713 148.475 139.834 148.774 139.853 149.088C139.872 149.402 139.789 149.714 139.616 149.976C139.439 150.37 139.167 150.714 138.825 150.978C138.483 151.242 138.081 151.418 137.655 151.489C136.95 151.478 136.245 151.518 135.546 151.609" fill="#FDAEB3"/>
<path d="M109.146 152.033C109.146 152.033 109.146 156.741 108.529 158.656C107.123 158.736 105.714 158.718 104.31 158.602C103.439 158.538 102.486 158.438 101.489 158.275C101.063 158.202 100.628 158.121 100.184 158.03V150.252C103.223 150.542 106.226 151.138 109.146 152.033Z" fill="#0706A9"/>
<path d="M104.315 158.603C103.444 158.539 102.491 158.439 101.494 158.276L101.276 157.95L101.83 155.564C101.83 155.564 103.145 157.214 104.315 158.603Z" fill="#D43304"/>
<path d="M104.36 183.469C104.36 183.469 98.2003 187.525 85.9713 183.823C85.9713 183.823 87.9573 176.801 87.2863 172.201C86.8893 170.349 86.2855 168.547 85.4863 166.83C84.9233 165.514 84.2863 164.13 83.6353 162.774C82.5103 160.425 81.3493 158.174 80.4963 156.56C80.325 156.232 80.2245 155.872 80.2014 155.503C80.1784 155.134 80.2332 154.764 80.3624 154.418C80.4916 154.071 80.6923 153.756 80.9514 153.492C81.2105 153.228 81.5222 153.022 81.8663 152.886C87.7045 150.674 93.9585 149.776 100.183 150.255C100.709 151.47 101.643 155.562 102.17 156.334C104.792 160.181 104.47 160.598 103.911 163.473C103.126 167.51 102.355 177.363 104.36 183.469Z" fill="#0706A9"/>
<path d="M86.3826 160.181C86.3826 160.181 86.0566 164.028 85.4936 166.831C84.9306 165.515 84.2936 164.131 83.6426 162.775L86.3826 160.181Z" fill="#D43304"/>
<path d="M86.7257 182.864C86.7257 182.864 84.5567 184.696 83.8087 190.98C83.0607 197.264 86.7257 216.711 86.7257 216.711C86.7257 216.711 92.3357 219.404 106.996 216.711C106.996 216.711 107.296 193 104.004 182.191L86.7257 182.864Z" fill="#0F398A"/>
<path d="M88.5638 148.811C88.5638 148.811 87.2198 151.211 86.3018 151.458C86.3018 151.458 90.5648 153.151 93.3018 152.919C94.1536 152.801 94.9677 152.492 95.6828 152.015C96.398 151.537 96.9956 150.904 97.4308 150.162C96.7543 150.057 96.1339 149.725 95.6719 149.22C95.2099 148.715 94.934 148.067 94.8898 147.384" fill="#FDAEB3"/>
<path d="M95.1954 143.733C95.1954 143.733 95.1394 144.353 95.0844 144.965C95.0284 145.492 94.9844 146.011 94.9734 146.122C94.8534 147.409 94.8994 148.437 94.7144 150.159L88.5654 148.817C88.5654 148.817 89.6584 147.65 88.9264 141.743L95.0844 143.696L95.1954 143.733Z" fill="#FDAEB3"/>
<path d="M95.1956 143.733C95.1956 143.733 95.1396 144.353 95.0846 144.965C94.125 144.968 93.1672 144.881 92.2236 144.706L95.0846 143.696L95.1956 143.733Z" fill="#E58099"/>
<path d="M90.1469 128.188C90.1469 128.188 92.0169 126.822 93.5569 128.001C95.0969 129.18 95.2899 131.626 94.5379 133.29C93.7859 134.954 89.9189 129.819 89.9189 129.819" fill="#332F62"/>
<path d="M98.4043 142.409C98.4174 142.662 98.3492 142.912 98.2098 143.123C98.0703 143.334 97.8669 143.495 97.6293 143.582C95.1432 144.543 92.4612 144.886 89.8133 144.582C85.7543 143.994 81.8263 132.856 90.0043 129.082C91.5943 128.356 97.8523 133.309 98.4043 142.409Z" fill="#FDAEB3"/>
<path d="M80.6169 136.212C80.6169 136.212 79.2039 136.542 78.8369 137.385C78.8369 137.385 80.5529 136.622 81.3009 137.24" fill="#332F62"/>
<path d="M81.9154 136.558C81.9154 136.558 78.8434 137.317 76.9704 135.212C74.3834 132.305 79.3224 126.245 83.3594 131.877" fill="#332F62"/>
<path d="M81.0482 137.576C80.8798 137.505 80.7303 137.396 80.6114 137.257C80.4925 137.118 80.4075 136.953 80.3632 136.776C80.168 135.68 80.2526 134.553 80.609 133.498C80.9654 132.443 81.5822 131.496 82.4022 130.743C82.4022 130.743 83.0312 130.176 83.4702 130.513" fill="#0706A9"/>
<path d="M89.1413 145.467C89.1413 145.467 82.4333 143.574 80.8323 137.12C79.2313 130.666 88.9703 124.307 93.0653 130.451C93.0653 130.451 90.1653 131.068 89.3653 133.222C88.5653 135.376 89.0753 138.501 88.2263 137.967C88.0092 137.839 87.7594 137.777 87.5075 137.788C87.2556 137.799 87.0125 137.883 86.8076 138.03C86.6027 138.177 86.445 138.381 86.3537 138.616C86.2624 138.851 86.2414 139.107 86.2933 139.354C86.4483 140.361 88.0073 141.57 88.8053 142.928C89.0311 143.306 89.1774 143.726 89.2352 144.163C89.2929 144.599 89.261 145.043 89.1413 145.467Z" fill="#332F62"/>
<path d="M93.085 129.302C93.085 129.302 96.2239 132.502 89.6229 135.668C89.9539 134.415 88.165 131.348 88.165 131.348" fill="#332F62"/>
<path d="M69.2422 199.493L96.1951 193.039C96.5818 192.946 96.8202 192.558 96.7276 192.171L92.3734 173.988C92.2808 173.601 91.8922 173.363 91.5055 173.455L64.5525 179.91C64.1658 180.002 63.9274 180.391 64.02 180.778L68.3743 198.961C68.4669 199.347 68.8554 199.586 69.2422 199.493Z" fill="#423D73"/>
<path d="M69.7553 198.308L95.202 192.215L90.9936 174.64L65.5469 180.733L69.7553 198.308Z" fill="white"/>
<path d="M93.0456 180.5L91.7441 180.814L93.3756 187.565L94.6771 187.25L93.0456 180.5Z" fill="#9E9DBA"/>
<path d="M80.5005 176.912C80.5005 176.912 77.0505 176.376 76.4295 175.141C75.9575 174.201 77.4885 166.973 78.2425 163.592C78.4825 162.533 78.6425 161.848 78.6425 161.848L81.9335 162.863L84.9965 163.808L80.5005 176.912Z" fill="#FDAEB3"/>
<path d="M80.3984 175.327C80.9156 176.948 81.2067 178.633 81.2634 180.334C81.2344 182.612 81.9844 192.941 81.9844 192.941L79.9114 193.36C79.9114 193.36 75.7784 183.166 76.3754 174.033L80.3984 175.327Z" fill="#FDAEB3"/>
<path d="M79.9121 193.36C79.9823 194.372 80.1641 195.374 80.4541 196.346C81.3801 198.391 83.9841 196.446 84.2751 195.892C84.2751 195.892 83.5181 195.984 82.9881 194.528C82.7913 194.149 82.5134 193.819 82.1741 193.56C82.0797 193.364 82.0156 193.155 81.9841 192.94" fill="#FDAEB3"/>
<path d="M80.3704 154.42C79.3976 157.751 78.6147 161.134 78.0254 164.554C80.1098 165.408 82.3316 165.879 84.5834 165.943C85.4392 163.795 86.0979 161.573 86.5514 159.306" fill="#0706A9"/>
<path d="M181.062 246.606C181.062 246.606 191.886 246.019 191.899 243.82C191.909 242.11 185.287 243.557 185.287 243.557C188.9 242.526 192.439 241.249 195.878 239.736C196.638 239.405 197.32 238.918 197.878 238.305C198.151 237.994 198.327 237.61 198.385 237.2C198.442 236.79 198.377 236.372 198.199 235.998C197.636 235.032 196.283 234.954 195.173 235.088C190.715 235.627 187.581 238.011 183.567 240.026C186.468 238.539 189.158 236.672 191.567 234.475C193.818 232.463 196.438 230.575 197.939 227.887C198.879 226.202 199.252 223.713 197.587 222.327C195.972 220.983 193.659 221.611 191.887 222.233C187.089 223.946 182.986 227.188 180.208 231.459C180.915 229.48 181.466 227.449 181.854 225.384C182.011 224.552 182.068 223.527 181.381 223.034C180.489 222.395 179.299 223.25 178.606 224.099C176.923 226.166 175.649 228.534 174.853 231.078C175.399 225.396 175.94 219.601 174.704 214.028C174.482 212.739 173.981 211.513 173.237 210.437C172.859 209.904 172.353 209.474 171.765 209.188C171.177 208.901 170.527 208.767 169.874 208.798C168.652 209.045 167.563 209.731 166.811 210.725C164.129 213.726 162.602 217.584 162.504 221.608C162.407 225.631 163.745 229.559 166.279 232.686C164.958 231.3 163.47 230.083 161.851 229.061C161.487 228.832 160.951 228.635 160.681 228.967C160.561 229.156 160.518 229.384 160.563 229.604C160.812 232.304 162.624 234.572 164.363 236.658C162.582 234.614 160.351 233.01 157.845 231.974C155.34 230.937 152.628 230.496 149.923 230.685C149.597 230.667 149.271 230.725 148.971 230.856C148.672 230.987 148.407 231.186 148.199 231.438C148.031 231.779 147.975 232.164 148.039 232.538C148.327 235.248 150.718 237.213 153.068 238.591C155.046 239.751 157.128 240.72 159.206 241.691C158.017 241.521 156.813 241.479 155.615 241.565C155.478 241.557 155.341 241.578 155.213 241.627C155.085 241.675 154.968 241.749 154.87 241.845C154.555 242.256 154.999 242.813 155.418 243.116C158.459 245.295 162.168 246.338 165.899 246.061" fill="#CDE90C"/>
<path opacity="0.45" d="M193.355 226.399C193.488 226.299 193.619 226.515 193.491 226.612C190.041 229.201 186.875 232.149 184.046 235.406C181.295 238.723 178.842 242.277 176.717 246.026C176.7 246.051 176.674 246.068 176.645 246.076C176.616 246.083 176.585 246.079 176.559 246.065C176.533 246.051 176.512 246.027 176.502 245.999C176.491 245.971 176.492 245.94 176.503 245.912C180.189 238.182 186.464 231.384 193.356 226.399H193.355ZM177.778 229.191C175.678 234.567 174.735 240.326 175.01 246.091C175.011 246.119 175.024 246.146 175.044 246.165C175.065 246.185 175.093 246.195 175.121 246.194C175.15 246.192 175.177 246.18 175.196 246.159C175.215 246.138 175.225 246.11 175.224 246.082C175.241 240.368 176.2 234.696 178.064 229.295C178.125 229.132 177.84 229.024 177.777 229.186L177.778 229.191ZM170.924 217.996C169.976 227.471 170.759 237.04 173.236 246.235C173.277 246.386 173.492 246.31 173.463 246.163C172.454 241.453 171.72 236.689 171.263 231.894C170.933 227.274 170.874 222.638 171.085 218.011C171.085 217.919 170.93 217.902 170.92 217.995L170.924 217.996ZM162.516 231.896C165.31 235.866 168.406 243.209 172.075 246.41C172.105 246.435 172.143 246.447 172.182 246.445C172.221 246.442 172.257 246.425 172.284 246.396C172.31 246.368 172.325 246.33 172.324 246.291C172.324 246.252 172.308 246.215 172.281 246.187C168.965 242.539 165.714 235.703 162.74 231.752C162.64 231.617 162.416 231.752 162.515 231.896H162.516ZM192.628 238.048C187.086 240.548 181.372 243.488 176.676 247.395C176.53 247.516 176.676 247.763 176.84 247.652C182.011 244.219 187.014 240.84 192.701 238.275C192.839 238.213 192.768 237.985 192.624 238.048H192.628ZM158.167 237.363C162.202 239.774 166.517 244.92 170.917 246.6C171.056 246.653 171.17 246.459 171.029 246.39C166.766 244.307 162.408 239.505 158.283 237.145C158.144 237.066 158.031 237.282 158.167 237.364V237.363Z" fill="white"/>
<path d="M182.729 271.742H167.407L163.26 245.962H186.876L182.729 271.742Z" fill="#0F398A"/>
<path d="M182.712 271.742H178.067L182.23 245.962H186.87L182.712 271.742Z" fill="#0C2D6E"/>
<path d="M207.846 48.011H174.878C174.916 47.6112 175.025 47.2214 175.2 46.86C176.545 44.7349 178.102 42.752 179.848 40.942C183.223 39.9655 186.671 39.2603 190.158 38.833L195.958 38.458C195.958 38.458 203.327 40.169 205.808 41.942C207.256 43.62 207.988 45.7992 207.846 48.011Z" fill="#0706A9"/>
<path d="M196.919 48.0111H174.878C174.922 47.6124 175.031 47.2236 175.2 46.8601C176.054 46.6223 176.955 46.6151 177.813 46.8391L179.157 47.1941H193.494C196.296 47.1941 196.919 48.0111 196.919 48.0111Z" fill="#D43304"/>
<path d="M194.47 33.0692C194.622 32.2324 194.656 31.3784 194.57 30.5322C194.356 29.706 193.962 28.9376 193.415 28.2822C192.998 28.3401 192.589 28.4406 192.193 28.5822C192.214 28.6272 192.193 30.3002 192.193 30.3002C192.193 30.3002 192.61 32.7002 192.731 32.9452C192.931 33.3698 193.159 33.781 193.412 34.1762C193.605 34.1317 193.794 34.0705 193.977 33.9932L194.47 33.0692Z" fill="#FDAEB3"/>
<path d="M191.475 41.7422C191.044 41.766 190.619 41.6374 190.273 41.3791C189.927 41.1208 189.683 40.7491 189.584 40.3292C189.465 39.9278 189.311 39.5373 189.125 39.1622C188.878 38.6142 188.586 38.0142 188.401 37.5182L190.336 36.1042L194.462 33.0742C194.462 33.0742 194.974 36.9442 195.962 38.4632C195.969 38.4592 196.296 41.4642 191.475 41.7422Z" fill="#FDAEB3"/>
<path d="M192.426 35.4021C191.525 36.8157 190.412 38.0822 189.126 39.1571C188.879 38.6091 188.587 38.0091 188.402 37.5131L190.337 36.0991L192.426 35.4021Z" fill="#E58099"/>
<path d="M193.718 31.2859C193.809 32.0452 193.826 32.8114 193.769 33.5739C193.761 33.6575 193.748 33.7404 193.728 33.8219C193.716 33.9057 193.697 33.9886 193.674 34.0699C193.02 36.6579 185.022 39.6259 184.78 39.4699C180.311 36.5969 178.762 25.9609 179.228 25.2549C179.74 24.4789 186.076 23.7439 186.207 23.7319C186.338 23.7199 192.427 24.1599 192.427 24.1599C192.988 26.5097 193.419 28.8886 193.718 31.2859Z" fill="#FDAEB3"/>
<path d="M176.31 22.7532C176.31 22.7532 176.51 27.3982 184.138 25.5402C186.232 25.0302 188.08 24.5542 189.119 25.1142C190.679 30.0212 190.729 32.3762 191.282 32.1822C191.973 31.9402 190.1 27.8642 192.482 28.3042C194.308 28.6412 194.466 33.0692 194.466 33.0692C194.466 33.0692 194.621 33.4302 194.685 32.4002C194.724 31.7842 195.147 21.8272 193.636 19.7402C193.241 19.1663 192.643 18.7625 191.963 18.6092C191.283 18.456 190.571 18.5645 189.967 18.9132C189.967 18.9132 190.095 13.8752 182.874 17.5902C178.706 19.7352 176.689 18.2762 176.7 18.4062C176.215 19.8011 176.081 21.2941 176.31 22.7532Z" fill="#1D2468"/>
<path d="M186.619 81.3811C186.337 81.7155 186.026 82.0247 185.689 82.3051C185.33 82.5774 184.905 82.7499 184.457 82.8051C183.929 83.0089 183.47 83.3606 183.136 83.8181C182.957 84.0371 183.136 84.1361 183.513 84.0561C183.89 83.9761 184.377 83.6791 184.536 83.6791C184.695 83.6791 184.695 83.8721 184.536 84.2231C184.322 84.6466 184.033 85.0277 183.682 85.3481C183.423 85.5481 182.708 85.9481 182.629 86.1821C182.55 86.4161 182.609 86.5401 182.987 86.4201C183.426 86.2256 183.851 86 184.258 85.7451C184.435 85.6433 184.596 85.5178 184.738 85.3721C185.081 85.4673 185.438 85.5038 185.793 85.4801C185.973 85.4476 186.143 85.3732 186.288 85.2631C186.341 85.255 186.393 85.2426 186.443 85.2261C186.781 85.0891 186.959 83.9171 187.143 83.5991C187.662 83.061 188.225 82.5667 188.825 82.1211L186.619 81.3811Z" fill="#FDAEB3"/>
<path d="M177.604 50.2802C177.285 50.1712 177.006 49.9688 176.804 49.6992C176.697 49.5922 176.546 49.4092 176.385 49.2152C176.235 49.1072 176.095 49.0152 175.976 48.9352C175.793 48.8079 175.575 48.7383 175.352 48.7352H175.319V48.7212C173.759 48.6892 173.061 48.0112 171.147 48.0112C171.147 48.0112 175.621 45.8602 178.32 47.3872C178.697 47.4504 179.078 47.4898 179.46 47.5052C180.245 47.5162 180.019 47.9142 179.771 48.0432C179.598 48.0894 179.422 48.1229 179.244 48.1432L179.287 48.1862C179.405 48.3152 179.513 48.4442 179.61 48.5622C179.954 48.9822 180.416 49.5302 180.502 49.6162C180.62 49.7562 180.545 49.8422 180.545 49.8422C180.719 50.0972 178.993 50.9672 177.604 50.2802Z" fill="#FDAEB3"/>
<path d="M202.525 70.1321C202.525 70.1321 197.637 69.4051 197.274 68.4671C197.079 65.6267 197.059 62.777 197.215 59.9341C197.231 59.1811 197.252 58.4661 197.277 57.8511C197.306 56.5001 197.341 55.5811 197.341 55.5811L206.473 56.4381C205.617 60.3731 202.525 70.1321 202.525 70.1321Z" fill="#FDAEB3"/>
<path d="M197.277 68.4659C195.941 69.4845 194.699 70.62 193.564 71.859C192.757 72.827 190.247 76.65 188.32 79.292C187.637 80.2316 186.889 81.1225 186.082 81.958L187.288 83.1579C187.288 83.1579 192.288 79.8579 196.409 76.7519C200.53 73.6459 201.793 72.498 202.529 70.137C203.265 67.776 198.743 67.2659 197.277 68.4659Z" fill="#FDAEB3"/>
<path d="M196.919 48.0112L197.227 56.3732C197.227 56.3732 202.152 58.0982 206.589 57.0422C206.589 57.0422 209.389 50.4222 207.167 44.0952" fill="#0706A9"/>
<path d="M188.509 63.9739V46.3979" stroke="#0F398A" stroke-width="5.414" stroke-miterlimit="10" stroke-linecap="round"/>
</g>
<defs>
<clipPath id="clip0">
<rect width="384" height="302" fill="white" transform="translate(0.608398)"/>
</clipPath>
</defs>
</svg>
