<svg width="437" height="328" viewBox="0 0 437 328" fill="none" xmlns="http://www.w3.org/2000/svg">
<g clip-path="url(#clip0)">
<path d="M11.1043 327.486C11.1043 327.486 -20.5757 284.541 26.2183 245.4C45.0243 229.671 118.173 218.592 56.6723 130.851C20.5113 79.2609 73.0393 4.11486 156.872 51.8299C228.222 92.4369 277.846 5.96886 341.019 0.229862C389.071 -4.13614 417.971 55.1209 388.982 101.194C356.454 152.894 418.472 144.207 431.955 161.32C455.695 191.451 378.655 227.211 413.996 265.482C449.983 304.459 425.303 327.488 425.303 327.488L11.1043 327.486Z" fill="#F7FFBF"/>
<path opacity="0.5" d="M250.558 101.519V84.3809C250.558 84.1953 250.484 84.0172 250.353 83.8859C250.222 83.7547 250.044 83.6809 249.858 83.6809H246.208C246.022 83.6809 245.844 83.7547 245.713 83.8859C245.582 84.0172 245.508 84.1953 245.508 84.3809V101.519C243.148 102.092 241.048 103.439 239.544 105.345C238.039 107.251 237.217 109.606 237.208 112.035V160.817C237.208 166.772 242.08 166.888 248.034 166.888C253.988 166.888 258.861 166.771 258.861 160.817V112.036C258.852 109.607 258.03 107.251 256.525 105.344C255.02 103.438 252.919 102.091 250.558 101.519Z" fill="#429B9B"/>
<path d="M237.209 134.467V160.817C237.209 166.772 242.081 166.888 248.035 166.888C253.989 166.888 258.862 166.771 258.862 160.817V134.467H237.209Z" fill="#CC4242"/>
<path d="M186.064 176.712H182.171V308.288H191.315V176.712H186.064Z" fill="#894A4F"/>
<path d="M251.933 176.712H248.033V308.288H257.177V176.712H251.933Z" fill="#894A4F"/>
<path d="M355.864 317.518V227.464H351.527V317.518H355.864Z" fill="#894A4F"/>
<path d="M351.525 317.518V227.464H347.188V317.518H351.525Z" fill="#9A5457"/>
<path d="M260.074 317.518V227.464H255.737V317.518H260.074Z" fill="#894A4F"/>
<path d="M255.736 317.518V227.464H251.399V317.518H255.736Z" fill="#9A5457"/>
<path d="M291.968 317.518V227.464H287.631V317.518H291.968Z" fill="#894A4F"/>
<path d="M287.631 317.518V227.464H283.294V317.518H287.631Z" fill="#9A5457"/>
<path d="M318.422 317.518V227.464H314.085V317.518H318.422Z" fill="#894A4F"/>
<path d="M314.084 317.518V227.464H309.747V317.518H314.084Z" fill="#9A5457"/>
<path d="M243.924 231.067H352.609V219.45H243.924V231.067Z" fill="#9A5457"/>
<path d="M288.669 231.067H360.201V219.45H288.669V231.067Z" fill="#894A4F"/>
<path d="M360.2 219.45V118.198H347.299V219.45H360.2Z" fill="#894A4F"/>
<path d="M353.109 219.45V118.198H305.583V219.45H353.109Z" fill="#9A5457"/>
<path d="M271.219 165.996H241.599C238.897 165.997 236.306 164.924 234.395 163.014C232.483 161.104 231.409 158.514 231.408 155.812H281.402C281.402 157.149 281.139 158.473 280.627 159.709C280.116 160.944 279.366 162.067 278.42 163.013C277.474 163.959 276.352 164.709 275.116 165.221C273.881 165.732 272.557 165.996 271.219 165.996Z" fill="#93BCAF"/>
<path d="M248.811 303.661C248.811 303.661 249.525 308.679 247.156 310.353C243.013 313.138 226.161 313.82 228.547 311.566C232.818 310.744 238.726 305.596 240.584 304.242" fill="#F75959"/>
<path d="M264.424 310.687C264.424 310.687 265.888 315.46 263.47 317.063C259.246 319.723 242.38 319.901 244.832 317.72C249.126 317.025 254.777 313.171 256.674 311.873" fill="#F75959"/>
<path d="M240.063 303.988C239.51 299.553 233.705 223.123 234.424 216.116C235.173 208.816 256.404 187.516 291.639 171.777C294.166 178.505 306.322 178.441 320.116 178.548C331.016 175.148 312.273 214.44 260.797 227.871C260.797 227.871 252.857 288.192 249.028 304.733C249.028 304.732 241.273 305.176 240.063 303.988Z" fill="#335656"/>
<path d="M330.595 176.712C326.932 177.697 323.205 178.423 319.441 178.885L301.056 178.262C296.856 184.494 288.429 188.573 288.429 188.573C256.464 207.023 249.753 218.018 248.785 225.293C247.857 232.275 254.705 308.465 255.124 312.915C256.624 313.494 265.05 313.015 265.05 313.015C270.303 297.283 279.341 236.508 279.341 236.508C308.177 220.065 326.779 218.058 332.172 206.636C338.388 193.47 330.595 176.712 330.595 176.712Z" fill="#3A5F61"/>
<path d="M290.64 61.7977C290.64 61.7977 293.655 46.9297 313.914 49.0867C318.975 49.2237 323.788 51.1747 328.829 56.4367C332.329 60.0897 329.751 59.6677 332.329 60.0897C355.365 63.8677 330.229 92.2987 338.045 108.89C341.836 116.946 341.845 116.59 340.871 116.414C317.706 112.128 328.371 90.1717 329.671 72.0757C330.697 79.4397 329.151 90.5667 317.845 91.6147C291.102 93.1867 290.64 61.7977 290.64 61.7977Z" fill="#D07400"/>
<path d="M227.328 120.274L230.029 113.674C230.082 113.451 230.185 113.243 230.332 113.067C230.478 112.89 230.663 112.75 230.873 112.657C231.083 112.564 231.311 112.521 231.54 112.53C231.769 112.54 231.993 112.602 232.193 112.713L239.186 113.373L249.429 115.246C256.172 116.27 277.029 119.813 284.856 116.805C298.973 111.381 308.924 102.567 308.908 101.568C308.908 101.568 324.039 92.4547 314.663 109.117C297.511 139.596 258.615 128.637 245.241 124.588C245.241 124.588 241.941 123.758 238.559 123.212C236.83 123.11 235.097 123.099 233.366 123.178C232.838 123.368 232.266 123.405 231.718 123.285L228.573 122.621C228.324 122.569 228.091 122.463 227.888 122.31C227.686 122.158 227.519 121.963 227.4 121.739C227.282 121.515 227.214 121.267 227.201 121.014C227.189 120.761 227.232 120.508 227.328 120.274Z" fill="#FFD4AF"/>
<path opacity="0.45" d="M239.282 97.9306V84.3176H220.198V97.9346C220.199 100.22 221.021 102.429 222.514 104.159C224.008 105.89 226.073 107.026 228.333 107.362V127.297L222.561 130.091C222.436 130.148 222.334 130.247 222.273 130.371C222.213 130.495 222.196 130.636 222.227 130.77C222.258 130.904 222.334 131.024 222.443 131.109C222.552 131.194 222.686 131.238 222.824 131.236H236.657C236.795 131.238 236.929 131.193 237.038 131.108C237.147 131.024 237.223 130.904 237.253 130.77C237.284 130.635 237.268 130.494 237.207 130.371C237.146 130.247 237.044 130.148 236.919 130.091L231.147 127.297V107.358C233.408 107.022 235.473 105.885 236.966 104.155C238.459 102.425 239.281 100.216 239.282 97.9306Z" fill="#DEDEDE"/>
<path d="M239.355 97.8577C239.355 99.1107 239.108 100.352 238.628 101.509C238.149 102.667 237.446 103.719 236.56 104.605C235.674 105.491 234.622 106.194 233.464 106.673C232.306 107.153 231.066 107.4 229.812 107.4C228.559 107.4 227.319 107.153 226.161 106.673C225.003 106.194 223.951 105.491 223.065 104.605C222.179 103.719 221.476 102.667 220.997 101.509C220.517 100.352 220.271 99.1107 220.271 97.8577" fill="#E24D4D"/>
<path d="M229.747 121.068C229.714 121.217 229.651 121.358 229.564 121.483C229.476 121.608 229.364 121.715 229.235 121.797C229.106 121.879 228.962 121.934 228.812 121.961C228.661 121.987 228.507 121.983 228.358 121.95L226.419 121.516C226.27 121.482 226.129 121.42 226.004 121.333C225.879 121.245 225.772 121.133 225.69 121.004C225.608 120.876 225.552 120.732 225.526 120.581C225.5 120.431 225.503 120.277 225.537 120.128C225.57 119.978 225.632 119.837 225.72 119.712C225.808 119.587 225.92 119.481 226.049 119.399C226.178 119.317 226.321 119.261 226.472 119.235C226.622 119.209 226.777 119.212 226.926 119.246L228.866 119.679C229.015 119.712 229.156 119.774 229.281 119.862C229.406 119.95 229.512 120.062 229.594 120.191C229.676 120.32 229.731 120.463 229.758 120.614C229.784 120.764 229.78 120.919 229.747 121.068Z" fill="#FFD4AF"/>
<path d="M229.696 118.667C229.628 118.972 229.441 119.238 229.177 119.406C228.912 119.574 228.592 119.63 228.286 119.562L226.38 119.137C226.075 119.068 225.809 118.881 225.641 118.617C225.473 118.352 225.417 118.032 225.485 117.727C225.519 117.575 225.582 117.432 225.671 117.305C225.761 117.178 225.874 117.07 226.005 116.987C226.136 116.904 226.282 116.847 226.435 116.82C226.588 116.794 226.744 116.798 226.895 116.832L228.801 117.257C229.107 117.325 229.373 117.512 229.541 117.776C229.709 118.041 229.765 118.361 229.696 118.667Z" fill="#FFD4AF"/>
<path d="M230.228 116.371C230.159 116.676 229.972 116.942 229.708 117.11C229.444 117.278 229.123 117.334 228.818 117.266L226.912 116.841C226.606 116.772 226.34 116.585 226.172 116.321C226.004 116.057 225.948 115.736 226.017 115.431C226.05 115.279 226.114 115.136 226.203 115.009C226.292 114.882 226.405 114.774 226.536 114.691C226.667 114.608 226.813 114.551 226.966 114.525C227.119 114.498 227.275 114.502 227.427 114.536L229.333 114.961C229.638 115.029 229.904 115.216 230.072 115.48C230.24 115.745 230.296 116.065 230.228 116.371Z" fill="#FFD4AF"/>
<path d="M230.668 114.05C230.634 114.201 230.571 114.344 230.482 114.471C230.393 114.598 230.28 114.706 230.149 114.789C230.018 114.872 229.872 114.929 229.719 114.956C229.566 114.982 229.41 114.978 229.258 114.945L227.349 114.516C227.044 114.447 226.778 114.26 226.61 113.996C226.442 113.731 226.386 113.411 226.454 113.106C226.522 112.8 226.709 112.534 226.974 112.366C227.238 112.198 227.559 112.142 227.864 112.211L229.77 112.636C229.922 112.669 230.066 112.732 230.194 112.821C230.321 112.911 230.43 113.024 230.513 113.156C230.597 113.287 230.653 113.434 230.68 113.587C230.707 113.741 230.703 113.898 230.668 114.05Z" fill="#FFD4AF"/>
<path d="M231.103 115.304L231.474 115.387C231.749 115.452 232.039 115.405 232.279 115.256C232.52 115.108 232.692 114.871 232.757 114.596L232.982 113.596C233.01 113.478 233.061 113.366 233.132 113.268C233.204 113.17 233.294 113.087 233.397 113.024C233.501 112.961 233.615 112.919 233.735 112.9C233.855 112.881 233.977 112.887 234.095 112.916C235.557 115.836 239.815 114.074 239.815 114.074L235.731 110.932C235.447 110.684 235.106 110.511 234.738 110.427L232.895 110.003C232.686 109.951 232.468 109.942 232.255 109.975C232.041 110.008 231.837 110.083 231.653 110.196C231.468 110.308 231.308 110.456 231.181 110.63C231.055 110.805 230.963 111.003 230.913 111.213L230.278 114.044C230.221 114.32 230.275 114.608 230.43 114.844C230.585 115.081 230.827 115.246 231.103 115.304Z" fill="#FFD4AF"/>
<path d="M295.408 65.3186C294.969 64.1616 291.028 72.0636 291.964 82.6186C292.301 85.3526 293.664 89.6066 295.64 91.5376C298.635 94.2893 302.346 96.1411 306.346 96.8806C307.51 97.1436 307.004 102.618 308.073 102.704C314.383 103.216 323.381 97.7226 323.381 97.7226C323.381 97.7226 318.141 92.9726 317.847 91.6226C321.093 88.0056 296.576 68.3956 295.408 65.3186Z" fill="#FFD4AF"/>
<path d="M306.346 96.8788C307.104 96.6408 313.595 94.3608 315.611 92.4868C315.611 92.4868 315.665 94.3668 306.991 98.0388C306.789 97.6438 306.951 97.0958 306.346 96.8788Z" fill="#F8C498"/>
<path d="M295.412 62.0537C293.417 65.6134 291.979 69.4581 291.149 73.4537C289.414 81.2537 292.9 94.4127 303.792 95.5397C314.684 96.6667 319.892 90.9127 322.538 85.4717C323.599 85.3394 324.569 84.808 325.251 83.9858C325.933 83.1635 326.276 82.1121 326.21 81.0457C326.192 79.7367 326.03 78.6057 324.871 78.1177C324.871 78.1177 328.652 66.9177 326.328 63.2437C324.004 59.5697 305.828 49.3427 295.412 62.0537Z" fill="#FFD4AF"/>
<path d="M314.184 50.6707C317.051 51.3967 323.474 52.4117 327.084 60.0177C330.623 67.4727 329.947 79.8948 328.495 79.2448C324.861 77.6188 322.829 77.7568 322.085 79.2338C321.341 80.7108 319.131 75.9338 313.452 74.6758C304.031 72.5938 296.552 67.9197 293.837 66.6467C289.707 75.8767 290.749 79.2898 290.892 80.3048C291.035 81.3197 288.466 76.1237 288.663 70.9507C288.881 65.2207 291.353 55.9567 297.879 52.3837C304.856 48.5637 314.184 50.6707 314.184 50.6707Z" fill="#D07400"/>
<path d="M304.225 83.2818C304.151 83.5818 303.291 83.8368 302.297 83.5968C301.397 83.3808 300.719 82.7328 300.966 82.2548C301.066 82.0548 302.466 78.5608 303.054 77.1018C303.069 77.0654 303.096 77.0348 303.13 77.015C303.164 76.9951 303.203 76.987 303.242 76.9919C303.281 76.9968 303.318 77.0144 303.346 77.0421C303.374 77.0697 303.392 77.1058 303.397 77.1448L304.225 83.2818Z" fill="#FF8157"/>
<path d="M309.143 77.5258C309.085 77.6905 309.077 77.8688 309.12 78.0379C309.164 78.2071 309.256 78.3596 309.386 78.4762C309.516 78.5928 309.678 78.6682 309.851 78.6929C310.024 78.7176 310.2 78.6905 310.358 78.6149C310.515 78.5394 310.647 78.4189 310.736 78.2686C310.825 78.1184 310.867 77.9451 310.857 77.7707C310.848 77.5963 310.787 77.4287 310.682 77.289C310.577 77.1492 310.434 77.0438 310.269 76.9858C310.048 76.9084 309.805 76.9217 309.594 77.023C309.383 77.1242 309.221 77.305 309.143 77.5258Z" fill="#45413D"/>
<path d="M295.407 76.9628C295.349 77.1275 295.341 77.3058 295.384 77.4751C295.427 77.6443 295.52 77.7969 295.65 77.9135C295.78 78.0301 295.942 78.1055 296.115 78.1302C296.288 78.1549 296.464 78.1277 296.622 78.0521C296.779 77.9765 296.911 77.8559 296.999 77.7055C297.088 77.5551 297.131 77.3818 297.121 77.2074C297.111 77.0329 297.05 76.8653 296.945 76.7256C296.84 76.586 296.696 76.4806 296.532 76.4228C296.311 76.3454 296.068 76.3588 295.857 76.46C295.646 76.5613 295.484 76.7421 295.407 76.9628Z" fill="#45413D"/>
<path d="M303.804 88.7198C298.977 89.4468 299.226 85.3898 299.351 85.2038C299.38 85.1587 299.417 85.1199 299.461 85.0897C299.506 85.0594 299.555 85.0383 299.608 85.0275C299.66 85.0168 299.714 85.0167 299.767 85.0272C299.819 85.0378 299.869 85.0587 299.913 85.0888C302.12 86.5498 306.001 85.0208 306.092 84.9418C306.132 84.9063 306.179 84.8793 306.229 84.8622C306.28 84.8451 306.334 84.8384 306.387 84.8424C306.44 84.8464 306.492 84.8611 306.54 84.8856C306.588 84.91 306.63 84.9437 306.664 84.9848C306.777 85.8589 306.54 86.7424 306.004 87.4422C305.468 88.142 304.677 88.6013 303.804 88.7198Z" fill="white"/>
<path opacity="0.37" d="M313.728 81.2528C313.746 81.6342 313.651 82.0125 313.454 82.3398C313.257 82.6671 312.968 82.9286 312.622 83.0914C312.277 83.2542 311.891 83.3108 311.513 83.2543C311.135 83.1977 310.783 83.0304 310.5 82.7735C310.218 82.5166 310.018 82.1817 309.925 81.8111C309.833 81.4405 309.853 81.0509 309.982 80.6915C310.111 80.3321 310.344 80.0191 310.651 79.792C310.958 79.5649 311.326 79.434 311.707 79.4158C311.96 79.4037 312.214 79.4416 312.452 79.5273C312.691 79.6131 312.91 79.7451 313.098 79.9157C313.286 80.0862 313.438 80.2921 313.546 80.5216C313.654 80.751 313.716 80.9995 313.728 81.2528Z" fill="#FF8157"/>
<path opacity="0.37" d="M295.494 80.1878C295.512 80.5693 295.416 80.9475 295.22 81.2748C295.023 81.6021 294.733 81.8636 294.388 82.0264C294.042 82.1892 293.656 82.2459 293.279 82.1893C292.901 82.1327 292.549 81.9654 292.266 81.7085C291.983 81.4516 291.783 81.1167 291.691 80.7461C291.599 80.3756 291.618 79.9859 291.748 79.6265C291.877 79.2672 292.11 78.9541 292.417 78.727C292.724 78.5 293.091 78.369 293.473 78.3508C293.984 78.3266 294.484 78.5065 294.863 78.851C295.242 79.1954 295.469 79.6763 295.494 80.1878Z" fill="#FF8157"/>
<path d="M329.137 128.492C333.57 111.921 334.65 102.992 321.803 95.6816C319.394 94.3116 314.313 100.704 310.335 102.505C307.6 103.224 307.6 102.105 307.329 100.618C307.202 99.9176 306.763 100.518 305.49 102.018C303.426 106.85 303.96 110.879 293.56 120.599C288.352 125.468 295.06 137.499 295.351 138.517C298.421 149.089 294.296 162.833 286.436 174.283C288.316 174.026 305.067 189.297 331.974 176.291C327.497 158.171 326.213 139.421 329.137 128.492Z" fill="#0706A9"/>
<path d="M268.655 158.556C268.655 158.556 264.381 160.198 261.966 160.806C259.333 161.476 256.64 161.884 253.926 162.027C253.172 161.886 252.619 161.785 253.998 161.146C254.85 160.791 255.757 160.585 256.678 160.536C258.617 160.258 258.451 159.508 257.178 159.836C255.459 160.288 252.06 160.443 251.017 159.953C249.966 159.446 251.244 158.981 251.244 158.981C251.244 158.981 252.852 158.733 253.897 158.653C254.916 158.553 256.897 157.539 256.154 157.596C255.437 157.658 251.709 158.031 250.778 158.096C249.834 158.181 248.991 158.231 249.13 157.429C249.324 156.436 256.482 155.715 256.482 155.715C256.482 155.715 251.728 155.515 250.431 155.265C249.134 155.015 249.275 154.48 249.381 154.197C249.487 153.914 250.053 153.678 251.993 153.864C252.761 153.942 256.977 153.957 257.284 152.941C257.384 152.603 256.553 152.441 256.553 152.441C256.553 152.441 255.268 152.195 253.866 151.928C252.464 151.661 252.741 150.793 254.837 150.628C256.774 150.472 264.813 151.099 266.237 151.213L269.524 150.752C269.524 150.752 289.424 145.852 296.824 139.282C305.073 131.955 310.773 115.182 312.534 108.295C312.865 106.953 313.509 105.709 314.415 104.664C315.32 103.62 316.46 102.806 317.741 102.288C321.803 100.698 331.774 102.221 326.869 120.071C318.064 152.103 281.84 157.056 268.655 158.556Z" fill="#FFD4AF"/>
<path d="M71.8359 317.518V227.464H67.4989V317.518H71.8359Z" fill="#894A4F"/>
<path d="M76.1729 317.518V227.464H71.8359V317.518H76.1729Z" fill="#9A5457"/>
<path d="M167.625 317.518V227.464H163.288V317.518H167.625Z" fill="#894A4F"/>
<path d="M171.963 317.518V227.464H167.626V317.518H171.963Z" fill="#9A5457"/>
<path d="M135.731 317.518V227.464H131.394V317.518H135.731Z" fill="#894A4F"/>
<path d="M140.068 317.518V227.464H135.731V317.518H140.068Z" fill="#9A5457"/>
<path d="M109.278 317.518V227.464H104.941V317.518H109.278Z" fill="#894A4F"/>
<path d="M113.615 317.518V227.464H109.278V317.518H113.615Z" fill="#9A5457"/>
<path d="M179.438 219.45H70.7529V231.067H179.438V219.45Z" fill="#9A5457"/>
<path d="M134.694 219.45H63.1621V231.067H134.694V219.45Z" fill="#894A4F"/>
<path d="M76.0645 219.45V118.198H63.1635L63.1635 219.45H76.0645Z" fill="#894A4F"/>
<path d="M117.778 219.45V118.198H70.2523V219.45H117.778Z" fill="#9A5457"/>
<path d="M172.353 310.133C167.52 309.519 161.253 305.768 159.08 304.388C160.889 299.72 176.774 245.523 177.904 237.716C179.08 229.581 154.459 203.083 137.046 175.006C137.046 175.006 132.61 184.715 107.576 170.98C96.6659 164.314 96.0759 211.237 148.332 239.858C148.332 239.858 149.488 283.741 149.137 302.752C149.137 302.752 148.699 308.411 151.467 310.111C156.294 312.927 175.18 312.482 172.353 310.133Z" fill="#5A6CAD"/>
<path d="M93.5418 171.649C97.364 173.502 101.312 175.084 105.356 176.383L120.975 179.283C127.304 179.326 132.698 178.065 135.528 172.326L137.274 175.41C137.274 175.41 134.817 194.039 133.937 193.327L134.244 193.661C150.372 218.51 158.837 237.605 158.372 245.81C157.926 253.687 146.01 308.127 144.614 312.934C146.897 314.119 153.467 317.313 158.335 317.504C161.357 319.597 142.583 321.682 137.528 319.297C134.622 317.843 135.69 311.697 135.69 311.697C133.217 293.288 133.49 249.092 133.49 249.092C105.225 224.945 95.2228 207.071 92.0178 195.687C91.9798 195.756 91.9408 195.821 91.9028 195.887C87.7678 183.955 93.5418 171.649 93.5418 171.649Z" fill="#6B7EB5"/>
<path d="M149.138 302.753C149.138 302.753 148.7 308.412 151.468 310.112C156.297 312.927 175.181 312.482 172.353 310.134C167.52 309.52 161.253 305.769 159.08 304.389" fill="#1F3C4C"/>
<path d="M135.691 311.704C135.691 311.704 134.623 317.846 137.529 319.304C142.585 321.69 161.358 319.604 158.336 317.511C153.468 317.319 146.898 314.126 144.615 312.941" fill="#1F3C4C"/>
<path d="M124.793 95.2358C124.793 95.2358 134.093 125.309 137.703 127.76C141.313 130.211 184.651 158.441 184.651 158.441L185.374 165.836L136.333 154.222C136.333 154.222 104.239 151.222 104.239 131.486C104.239 121.696 98.8133 102.905 102.839 100.157C106.865 97.4088 124.793 95.2358 124.793 95.2358Z" fill="#F4EFEF"/>
<path d="M148.186 132.98C148.186 133.438 151.735 161.995 147.371 166.854C143.007 171.713 137.947 167.106 137.947 167.106C137.947 167.106 135.579 131.462 136.082 131.936C136.585 132.41 148.186 132.98 148.186 132.98Z" fill="#E8E6E6"/>
<path d="M94.0184 101.61C94.0184 101.61 88.1004 116.548 93.1184 131.118C96.1394 139.894 90.5704 164.093 89.3414 170.418C89.0248 172.067 89.2553 173.775 89.9981 175.281C90.7408 176.788 91.9551 178.011 93.4564 178.764C100.635 182.389 125.714 181.246 136.418 181.51C141.327 181.631 145.653 173.7 146.728 168.91C149.907 154.738 144.583 123.665 144.583 123.665C144.583 123.665 136.474 87.0058 132.283 84.5988C102.428 67.4708 94.0184 101.61 94.0184 101.61Z" fill="#0706A9"/>
<path d="M109.764 77.7547C110.765 79.514 111.048 81.592 110.553 83.5547C110.061 85.0957 122.939 89.3547 130.001 87.7847C133.121 87.0897 130.139 82.3667 132.809 80.6747C135.624 79.0428 137.757 76.4512 138.816 73.3747C142.837 60.4647 139.611 45.7747 134.968 44.1227C130.325 42.4707 113.313 50.4747 110.568 56.1587C107.823 61.8427 102.033 74.6917 109.764 77.7547Z" fill="#FFD4AF"/>
<path d="M132.834 80.7158C116.57 88.0438 108.777 70.6437 108.777 70.6437C105.577 68.1857 103.494 60.5438 102.558 62.9598C101.732 67.2698 105.816 76.2688 109.685 77.8028C110.685 79.5622 110.967 81.6403 110.472 83.6027C109.539 86.5357 118.841 93.4448 132.834 80.7158Z" fill="#F8C498"/>
<path d="M131.695 63.5319C131.354 64.5509 131.86 70.0368 135.395 68.1408C137.229 67.1558 133.333 63.2199 133.333 63.2199C133.333 63.2199 132.286 61.7619 131.695 63.5319Z" fill="#F8C498"/>
<path d="M131.131 74.9028L131.706 74.8737C132.685 74.822 133.603 74.384 134.259 73.6558C134.915 72.9276 135.256 71.9687 135.206 70.9897L127.345 71.4008C127.383 72.3671 127.803 73.2788 128.513 73.9355C129.223 74.5922 130.164 74.9401 131.131 74.9028Z" fill="white"/>
<path d="M137.676 34.9648C131.288 31.7528 119.563 29.5268 109.985 33.6328C93.9026 40.5268 94.4636 49.6098 94.6036 57.8778C94.8586 72.9118 110.387 79.4598 110.387 79.4598L109.765 77.7598C109.765 77.7598 105.365 72.2498 104.33 69.0068C103.41 66.1238 106.358 64.4398 106.622 65.2298C108.583 71.0728 116.328 73.0728 114.56 69.4448C113.588 67.4508 109.651 66.1838 110.626 61.5718C112.169 54.2718 117.526 54.1028 119.204 54.2668C134.337 55.7408 140.004 55.1798 142.381 48.3668C142.382 48.3648 145.228 38.7578 137.676 34.9648ZM115.37 54.0648C115.37 54.0208 115.37 53.9798 115.375 53.9338L115.443 53.9468L115.37 54.0648Z" fill="#363636"/>
<path d="M109.129 68.6048C109.017 69.2683 108.712 69.8839 108.25 70.3735C107.789 70.8631 107.192 71.2047 106.536 71.3552C105.881 71.5057 105.195 71.4582 104.566 71.2188C103.937 70.9794 103.394 70.5588 103.004 70.0103C102.614 69.4618 102.396 68.81 102.377 68.1375C102.358 67.4649 102.539 66.8018 102.897 66.2322C103.255 65.6625 103.774 65.2119 104.389 64.9373C105.003 64.6628 105.685 64.5766 106.348 64.6898C107.235 64.8413 108.026 65.3385 108.548 66.0724C109.069 66.8063 109.278 67.717 109.129 68.6048Z" fill="#FFD4AF"/>
<path d="M124.461 62.1407C124.531 62.2962 124.553 62.4689 124.525 62.637C124.496 62.8051 124.419 62.961 124.302 63.0851C124.185 63.2091 124.034 63.2957 123.868 63.3339C123.702 63.3721 123.528 63.3602 123.368 63.2997C123.209 63.2391 123.071 63.1327 122.972 62.9939C122.873 62.855 122.818 62.69 122.813 62.5196C122.808 62.3492 122.853 62.1811 122.944 62.0366C123.034 61.8921 123.165 61.7777 123.321 61.7077C123.424 61.6613 123.536 61.6356 123.649 61.6322C123.762 61.6288 123.875 61.6478 123.981 61.688C124.086 61.7282 124.183 61.7889 124.266 61.8666C124.348 61.9442 124.414 62.0374 124.461 62.1407Z" fill="#45413D"/>
<path d="M137.784 60.4577C137.855 60.6133 137.877 60.7863 137.849 60.9547C137.821 61.1232 137.744 61.2795 137.627 61.404C137.51 61.5284 137.358 61.6153 137.192 61.6538C137.026 61.6922 136.852 61.6805 136.692 61.62C136.532 61.5594 136.394 61.4529 136.295 61.3139C136.196 61.1748 136.14 61.0095 136.135 60.8388C136.13 60.6681 136.176 60.4997 136.266 60.355C136.357 60.2102 136.488 60.0956 136.644 60.0257C136.853 59.9321 137.09 59.925 137.304 60.006C137.517 60.0869 137.69 60.2494 137.784 60.4577Z" fill="#45413D"/>
<path d="M220.585 110.257V96.6367H201.5V110.257C201.501 112.542 202.323 114.751 203.816 116.481C205.31 118.211 207.374 119.348 209.635 119.684V139.619L203.863 142.413C203.738 142.471 203.637 142.57 203.577 142.693C203.517 142.817 203.5 142.957 203.531 143.091C203.562 143.225 203.638 143.345 203.746 143.429C203.854 143.514 203.989 143.559 204.126 143.557H217.959C218.096 143.559 218.23 143.514 218.338 143.429C218.447 143.344 218.522 143.225 218.553 143.091C218.584 142.957 218.567 142.816 218.507 142.693C218.447 142.57 218.346 142.471 218.221 142.413L212.45 139.619V119.684C214.711 119.348 216.775 118.211 218.269 116.481C219.762 114.751 220.584 112.542 220.585 110.257Z" fill="#F0F0F0"/>
<path d="M220.657 110.184C220.657 112.715 219.652 115.142 217.862 116.931C216.073 118.721 213.646 119.726 211.115 119.726C208.585 119.726 206.157 118.721 204.368 116.931C202.579 115.142 201.573 112.715 201.573 110.184" fill="#E24D4D"/>
<path d="M198.85 127.121C201.508 127.665 207.744 127.138 209.588 125.686C210.729 124.786 212.817 124.417 212.845 125.398C212.845 127.113 212.818 125.052 213.055 127.225C215.097 128.263 215.769 127.442 216.501 127.825C216.703 127.942 216.875 128.106 217.001 128.303C217.126 128.5 217.203 128.725 217.223 128.958C217.244 129.191 217.208 129.425 217.119 129.641C217.03 129.858 216.89 130.049 216.711 130.2C216.111 130.461 216.155 130.522 216.965 130.688C217.804 130.861 218.042 132.408 217.107 133.188C216.407 133.771 216.407 133.771 216.918 133.845C217.354 133.909 217.333 135.519 216.761 135.854C216.101 136.241 215.845 136.154 216.548 136.389C217.519 136.714 217.048 138.024 216.38 138.296C214.92 138.889 207.708 138.971 198.508 138.696" fill="#FFD4AF"/>
<path d="M132.836 83.1299L134.552 86.7139C134.552 86.7139 131.204 93.7418 131.604 93.1999C132.004 92.6579 127.73 88.0138 127.73 88.0138C127.73 88.0138 131.092 86.0979 131.42 83.6899C131.639 82.0899 132.836 83.1299 132.836 83.1299Z" fill="#F4EFEF"/>
<path d="M109.172 79.8279C109.172 79.8279 120.172 85.6879 127.731 88.0129L127.343 93.2289C127.343 93.2289 112.95 90.0409 110.253 88.4509C108.038 87.1439 104.185 84.5199 104.185 84.5199L109.172 79.8279Z" fill="#F4EFEF"/>
<path d="M184.655 158.44C184.655 158.44 198.8 157.415 202.599 160.414C206.398 163.413 207.108 165.939 207.108 165.939L185.378 165.839L184.655 158.44Z" fill="#FFD4AF"/>
<path d="M102.839 100.156C102.839 100.156 98.5816 104.534 99.1286 107.534C99.6756 110.534 98.9926 118.207 104.184 123.271C109.375 128.335 136.654 137.686 146.354 136.385C148.045 130.967 144.58 123.662 144.58 123.662C144.58 123.662 133.58 106.942 128.02 105.162C122.46 103.382 102.839 100.156 102.839 100.156Z" fill="#F4EFEF"/>
<path d="M94.5645 105.158C94.5645 105.158 96.8244 82.9118 118.735 93.2288C129.789 98.4338 145.42 104.209 153.484 110.184C161.548 116.159 162.626 115.157 165.532 116.884C177.914 118.299 194.813 124.979 197.742 125.578C199.827 126.005 198.418 138.486 198.418 138.486C198.418 138.486 177.194 144.553 154.748 135.313C142.163 133.966 129.818 130.924 118.048 126.268C118.048 126.268 94.5645 116.316 94.5645 105.158Z" fill="#F4EFEF"/>
<path d="M111.763 193.326H107.87V327.5H117.014V193.326H111.763Z" fill="#894A4F"/>
<path d="M324.72 193.326H320.827V327.5H329.971V193.326H324.72Z" fill="#894A4F"/>
<path d="M339.494 165.996H89.5625V266.329C95.8595 266.031 102.003 264.284 107.514 261.224C119.281 254.26 138.515 254.26 150.279 261.224C162.043 268.188 181.254 268.199 193.02 261.224C204.785 254.249 224.02 254.26 235.773 261.224C247.526 268.188 266.764 268.199 278.525 261.224C290.286 254.249 309.512 254.26 321.268 261.224C326.348 264.237 332.832 265.866 339.493 266.282L339.494 165.996Z" fill="#CDE90C"/>
<path d="M184.666 165.986H89.1543V266.394C95.4508 266.097 101.594 264.351 107.106 261.294C118.873 254.33 138.106 254.33 149.869 261.294C159.261 266.862 173.359 267.907 184.669 264.584L184.666 165.986Z" fill="#B6CF0B"/>
<path d="M122.292 165.886H154.116C155.553 165.886 156.977 165.604 158.305 165.054C159.633 164.505 160.84 163.699 161.856 162.683C162.873 161.667 163.68 160.46 164.23 159.132C164.781 157.805 165.064 156.381 165.065 154.944H111.347C111.347 156.381 111.63 157.804 112.18 159.132C112.73 160.46 113.536 161.666 114.553 162.682C115.569 163.698 116.776 164.504 118.103 165.054C119.431 165.604 120.855 165.886 122.292 165.886Z" fill="#93BCAF"/>
<path d="M260.418 221.496L255.898 224.327" stroke="#2F3037" stroke-width="0.273" stroke-linecap="round" stroke-linejoin="round"/>
<path d="M259.629 227.229L255.895 224.329L260.786 224.289" stroke="#2F3037" stroke-width="0.273" stroke-linecap="round" stroke-linejoin="round"/>
<path d="M260.389 222.268C260.236 222.262 260.089 222.211 259.965 222.122C259.841 222.032 259.747 221.908 259.694 221.765C259.641 221.622 259.631 221.466 259.667 221.318C259.702 221.169 259.781 221.034 259.893 220.93C260.004 220.826 260.145 220.758 260.296 220.734C260.446 220.71 260.601 220.731 260.74 220.795C260.879 220.859 260.995 220.962 261.075 221.092C261.155 221.222 261.195 221.373 261.189 221.526C261.181 221.73 261.092 221.923 260.942 222.062C260.792 222.201 260.593 222.275 260.389 222.268Z" fill="#2F3037"/>
<path d="M261.142 225.074C260.989 225.068 260.841 225.018 260.717 224.928C260.593 224.839 260.498 224.714 260.445 224.571C260.392 224.427 260.382 224.271 260.417 224.122C260.453 223.974 260.532 223.839 260.644 223.735C260.756 223.631 260.897 223.562 261.048 223.538C261.199 223.514 261.354 223.535 261.493 223.599C261.632 223.663 261.748 223.767 261.828 223.897C261.908 224.028 261.948 224.179 261.942 224.332C261.934 224.536 261.845 224.729 261.695 224.868C261.545 225.007 261.346 225.081 261.142 225.074Z" fill="#2F3037"/>
<path d="M260.141 228.207C259.991 228.231 259.836 228.21 259.697 228.146C259.559 228.082 259.442 227.978 259.362 227.848C259.282 227.718 259.243 227.567 259.249 227.415C259.254 227.262 259.305 227.115 259.395 226.991C259.485 226.868 259.609 226.773 259.752 226.72C259.895 226.667 260.051 226.658 260.2 226.694C260.348 226.729 260.483 226.808 260.586 226.92C260.69 227.032 260.758 227.172 260.782 227.323C260.798 227.423 260.794 227.525 260.771 227.624C260.747 227.722 260.705 227.815 260.645 227.898C260.586 227.98 260.51 228.049 260.424 228.102C260.338 228.155 260.242 228.191 260.141 228.207Z" fill="#2F3037"/>
<path d="M144.477 199.029L139.957 201.86" stroke="#2F3037" stroke-width="0.273" stroke-linecap="round" stroke-linejoin="round"/>
<path d="M143.691 204.762L139.957 201.862L144.848 201.822" stroke="#2F3037" stroke-width="0.273" stroke-linecap="round" stroke-linejoin="round"/>
<path d="M144.447 199.8C144.294 199.794 144.146 199.743 144.023 199.654C143.899 199.564 143.804 199.44 143.751 199.297C143.698 199.153 143.689 198.998 143.724 198.849C143.76 198.701 143.838 198.566 143.951 198.462C144.063 198.358 144.203 198.29 144.354 198.266C144.505 198.242 144.659 198.263 144.798 198.327C144.937 198.391 145.053 198.495 145.133 198.625C145.213 198.755 145.253 198.906 145.247 199.059C145.243 199.16 145.219 199.26 145.177 199.352C145.135 199.444 145.075 199.527 145 199.595C144.926 199.664 144.839 199.718 144.744 199.753C144.649 199.788 144.548 199.804 144.447 199.8Z" fill="#2F3037"/>
<path d="M145.2 202.605C145.048 202.599 144.9 202.548 144.777 202.459C144.653 202.369 144.558 202.245 144.505 202.102C144.452 201.959 144.443 201.803 144.478 201.654C144.513 201.506 144.592 201.371 144.704 201.267C144.816 201.163 144.956 201.095 145.107 201.071C145.258 201.047 145.412 201.068 145.551 201.132C145.69 201.196 145.807 201.299 145.887 201.429C145.967 201.559 146.006 201.71 146 201.863C145.993 202.067 145.904 202.26 145.754 202.399C145.604 202.538 145.405 202.612 145.2 202.605Z" fill="#2F3037"/>
<path d="M144.2 205.74C144.049 205.764 143.895 205.742 143.756 205.679C143.617 205.615 143.501 205.511 143.421 205.381C143.341 205.251 143.301 205.1 143.307 204.948C143.313 204.795 143.364 204.648 143.454 204.524C143.543 204.401 143.668 204.306 143.811 204.253C143.954 204.2 144.11 204.191 144.258 204.226C144.407 204.262 144.541 204.341 144.645 204.453C144.749 204.565 144.817 204.705 144.841 204.856C144.873 205.058 144.823 205.265 144.703 205.43C144.583 205.596 144.402 205.707 144.2 205.74Z" fill="#2F3037"/>
<path d="M319.518 178.566L317.008 173.861" stroke="#2F3037" stroke-width="0.273" stroke-linecap="round" stroke-linejoin="round"/>
<path d="M313.854 177.384L317.009 173.861L316.708 178.743" stroke="#2F3037" stroke-width="0.273" stroke-linecap="round" stroke-linejoin="round"/>
<path d="M318.75 178.483C318.767 178.331 318.828 178.188 318.926 178.071C319.024 177.954 319.155 177.869 319.302 177.826C319.448 177.783 319.604 177.785 319.75 177.831C319.895 177.877 320.024 177.965 320.12 178.085C320.215 178.204 320.273 178.348 320.286 178.501C320.3 178.653 320.267 178.805 320.194 178.939C320.12 179.073 320.009 179.182 319.873 179.252C319.738 179.323 319.585 179.351 319.433 179.335C319.332 179.324 319.234 179.293 319.145 179.244C319.056 179.196 318.978 179.13 318.915 179.051C318.851 178.971 318.804 178.881 318.776 178.783C318.747 178.686 318.739 178.584 318.75 178.483Z" fill="#2F3037"/>
<path d="M315.898 179.04C315.915 178.888 315.976 178.744 316.074 178.627C316.172 178.51 316.303 178.424 316.45 178.382C316.597 178.339 316.753 178.34 316.899 178.386C317.045 178.432 317.174 178.52 317.269 178.64C317.365 178.759 317.423 178.904 317.437 179.056C317.45 179.209 317.418 179.361 317.344 179.495C317.271 179.63 317.159 179.739 317.023 179.809C316.888 179.88 316.734 179.909 316.582 179.892C316.378 179.869 316.192 179.767 316.064 179.607C315.936 179.448 315.876 179.244 315.898 179.04Z" fill="#2F3037"/>
<path d="M312.842 177.824C312.828 177.672 312.86 177.519 312.933 177.384C313.006 177.25 313.118 177.14 313.253 177.069C313.389 176.998 313.542 176.969 313.694 176.985C313.846 177.002 313.99 177.063 314.107 177.161C314.225 177.259 314.31 177.389 314.354 177.536C314.397 177.683 314.395 177.839 314.349 177.985C314.304 178.131 314.216 178.26 314.097 178.356C313.977 178.452 313.832 178.51 313.68 178.524C313.579 178.533 313.477 178.522 313.38 178.492C313.284 178.462 313.194 178.413 313.116 178.348C313.038 178.283 312.974 178.203 312.927 178.113C312.88 178.023 312.851 177.925 312.842 177.824Z" fill="#2F3037"/>
<path d="M251.241 175.522L250.41 180.79" stroke="#2F3037" stroke-width="0.273" stroke-linecap="round" stroke-linejoin="round"/>
<path d="M250.41 180.79L253.59 177.074" stroke="#2F3037" stroke-width="0.273" stroke-linecap="round" stroke-linejoin="round"/>
<path d="M251.804 176.054C251.699 176.165 251.564 176.242 251.415 176.277C251.266 176.311 251.11 176.3 250.968 176.246C250.825 176.192 250.702 176.097 250.613 175.972C250.524 175.848 250.475 175.7 250.47 175.548C250.465 175.395 250.506 175.244 250.587 175.115C250.668 174.986 250.785 174.883 250.925 174.82C251.064 174.758 251.218 174.738 251.369 174.763C251.52 174.788 251.659 174.857 251.77 174.962C251.844 175.031 251.904 175.115 251.946 175.207C251.987 175.3 252.01 175.399 252.013 175.501C252.016 175.602 251.999 175.703 251.963 175.798C251.927 175.893 251.873 175.98 251.804 176.054Z" fill="#2F3037"/>
<path d="M254.415 177.323C254.311 177.434 254.175 177.512 254.027 177.546C253.878 177.58 253.722 177.57 253.58 177.516C253.437 177.462 253.313 177.367 253.225 177.242C253.136 177.118 253.086 176.97 253.081 176.818C253.077 176.665 253.117 176.515 253.198 176.385C253.279 176.256 253.396 176.153 253.535 176.09C253.674 176.027 253.829 176.007 253.98 176.032C254.13 176.057 254.27 176.126 254.381 176.231C254.455 176.3 254.515 176.383 254.557 176.476C254.599 176.568 254.622 176.668 254.625 176.77C254.628 176.871 254.611 176.972 254.575 177.067C254.539 177.162 254.485 177.249 254.415 177.323Z" fill="#2F3037"/>
<path d="M216.384 232.945L221.043 235.541" stroke="#2F3037" stroke-width="0.273" stroke-linecap="round" stroke-linejoin="round"/>
<path d="M221.042 235.541L218.65 231.275" stroke="#2F3037" stroke-width="0.273" stroke-linecap="round" stroke-linejoin="round"/>
<path d="M217.075 232.599C217.143 232.735 217.169 232.889 217.15 233.04C217.131 233.192 217.068 233.334 216.968 233.45C216.868 233.565 216.736 233.648 216.589 233.689C216.442 233.729 216.286 233.725 216.141 233.677C215.996 233.629 215.869 233.539 215.775 233.419C215.681 233.298 215.625 233.153 215.614 233.001C215.603 232.848 215.638 232.696 215.713 232.563C215.788 232.431 215.901 232.323 216.038 232.255C216.221 232.163 216.433 232.148 216.627 232.212C216.821 232.277 216.982 232.416 217.075 232.599Z" fill="#2F3037"/>
<path d="M219.168 230.586C219.237 230.722 219.263 230.876 219.244 231.027C219.225 231.179 219.162 231.321 219.062 231.437C218.962 231.552 218.83 231.636 218.683 231.676C218.536 231.717 218.38 231.713 218.235 231.664C218.09 231.616 217.962 231.526 217.869 231.406C217.775 231.285 217.719 231.14 217.708 230.987C217.697 230.835 217.731 230.683 217.807 230.55C217.882 230.417 217.996 230.31 218.132 230.242C218.315 230.15 218.527 230.135 218.721 230.2C218.915 230.264 219.076 230.403 219.168 230.586Z" fill="#2F3037"/>
<path d="M132.911 233.623L137.759 235.846" stroke="#2F3037" stroke-width="0.273" stroke-linecap="round" stroke-linejoin="round"/>
<path d="M137.759 235.846L135.04 231.781" stroke="#2F3037" stroke-width="0.273" stroke-linecap="round" stroke-linejoin="round"/>
<path d="M133.573 233.225C133.652 233.355 133.69 233.507 133.683 233.659C133.676 233.812 133.623 233.959 133.533 234.081C133.442 234.204 133.317 234.297 133.173 234.349C133.03 234.401 132.874 234.409 132.726 234.372C132.578 234.335 132.444 234.255 132.341 234.143C132.238 234.03 132.171 233.889 132.148 233.738C132.126 233.587 132.148 233.433 132.213 233.294C132.278 233.156 132.382 233.04 132.513 232.962C132.6 232.909 132.696 232.875 132.797 232.859C132.897 232.844 132.999 232.849 133.098 232.874C133.196 232.898 133.289 232.942 133.37 233.002C133.452 233.062 133.521 233.138 133.573 233.225Z" fill="#2F3037"/>
<path d="M135.503 231.058C135.581 231.189 135.62 231.34 135.612 231.492C135.605 231.645 135.553 231.792 135.462 231.915C135.372 232.037 135.247 232.131 135.103 232.182C134.959 232.234 134.804 232.242 134.655 232.205C134.507 232.168 134.373 232.089 134.271 231.976C134.168 231.863 134.101 231.722 134.078 231.571C134.055 231.42 134.078 231.266 134.143 231.128C134.208 230.989 134.312 230.874 134.443 230.795C134.618 230.689 134.828 230.658 135.027 230.707C135.226 230.756 135.397 230.883 135.503 231.058Z" fill="#2F3037"/>
<path d="M100.105 171.486L99.2744 176.754" stroke="#2F3037" stroke-width="0.273" stroke-linecap="round" stroke-linejoin="round"/>
<path d="M99.2744 176.754L102.454 173.038" stroke="#2F3037" stroke-width="0.273" stroke-linecap="round" stroke-linejoin="round"/>
<path d="M100.668 172.015C100.564 172.126 100.428 172.204 100.28 172.238C100.131 172.272 99.9754 172.262 99.8326 172.208C99.6899 172.154 99.5664 172.059 99.4777 171.934C99.389 171.81 99.3391 171.662 99.3344 171.51C99.3296 171.357 99.3702 171.207 99.451 171.077C99.5318 170.948 99.6491 170.845 99.7882 170.782C99.9274 170.719 100.082 170.699 100.233 170.724C100.383 170.749 100.523 170.818 100.634 170.923C100.783 171.063 100.871 171.257 100.877 171.462C100.884 171.667 100.808 171.866 100.668 172.015Z" fill="#2F3037"/>
<path d="M103.28 173.288C103.175 173.399 103.04 173.477 102.891 173.511C102.742 173.545 102.587 173.535 102.444 173.481C102.301 173.427 102.178 173.332 102.089 173.207C102 173.083 101.95 172.935 101.946 172.783C101.941 172.63 101.982 172.48 102.062 172.35C102.143 172.221 102.26 172.118 102.4 172.055C102.539 171.992 102.693 171.972 102.844 171.997C102.994 172.022 103.134 172.091 103.246 172.196C103.395 172.336 103.482 172.53 103.489 172.735C103.495 172.94 103.42 173.138 103.28 173.288Z" fill="#2F3037"/>
<path d="M254.714 206.117C254.654 206.201 254.571 206.266 254.475 206.304C254.379 206.341 254.274 206.35 254.173 206.327C254.072 206.305 253.98 206.254 253.909 206.179C253.838 206.105 253.79 206.011 253.772 205.909C253.754 205.807 253.766 205.702 253.808 205.608C253.849 205.513 253.918 205.433 254.005 205.378C254.092 205.322 254.193 205.294 254.296 205.296C254.4 205.298 254.5 205.331 254.585 205.39C254.698 205.469 254.775 205.59 254.799 205.727C254.823 205.863 254.792 206.003 254.714 206.117Z" fill="#2F3037"/>
<path d="M256.874 207.557C256.815 207.641 256.732 207.706 256.635 207.744C256.539 207.781 256.434 207.79 256.333 207.767C256.233 207.745 256.141 207.693 256.069 207.619C255.998 207.544 255.95 207.45 255.932 207.349C255.914 207.247 255.926 207.142 255.968 207.048C256.009 206.953 256.078 206.873 256.165 206.818C256.252 206.762 256.353 206.734 256.457 206.736C256.56 206.738 256.66 206.771 256.745 206.83C256.858 206.909 256.935 207.03 256.959 207.167C256.983 207.303 256.952 207.443 256.874 207.557Z" fill="#2F3037"/>
<path d="M256.998 205.106C256.939 205.191 256.856 205.256 256.76 205.294C256.664 205.332 256.558 205.34 256.457 205.318C256.356 205.296 256.264 205.245 256.192 205.17C256.12 205.096 256.072 205.001 256.054 204.899C256.036 204.798 256.048 204.693 256.09 204.598C256.131 204.503 256.2 204.423 256.287 204.367C256.374 204.311 256.476 204.282 256.58 204.285C256.683 204.287 256.784 204.319 256.868 204.379C256.925 204.418 256.973 204.468 257.01 204.526C257.047 204.583 257.072 204.648 257.084 204.715C257.096 204.783 257.095 204.852 257.08 204.919C257.065 204.986 257.038 205.049 256.998 205.106Z" fill="#2F3037"/>
<path d="M193.788 221.284C193.729 221.368 193.646 221.433 193.549 221.471C193.453 221.508 193.348 221.516 193.247 221.494C193.146 221.472 193.054 221.42 192.982 221.345C192.911 221.271 192.863 221.176 192.845 221.075C192.827 220.973 192.839 220.868 192.881 220.773C192.923 220.679 192.991 220.598 193.078 220.543C193.166 220.487 193.267 220.458 193.371 220.461C193.474 220.463 193.574 220.495 193.659 220.555C193.716 220.594 193.764 220.644 193.801 220.702C193.838 220.76 193.863 220.825 193.875 220.892C193.887 220.96 193.885 221.029 193.871 221.097C193.856 221.164 193.828 221.227 193.788 221.284Z" fill="#2F3037"/>
<path d="M195.948 222.726C195.889 222.811 195.806 222.876 195.709 222.914C195.613 222.952 195.508 222.96 195.407 222.938C195.305 222.916 195.213 222.865 195.141 222.79C195.07 222.715 195.022 222.621 195.003 222.519C194.985 222.417 194.997 222.312 195.039 222.218C195.08 222.123 195.149 222.042 195.236 221.987C195.324 221.931 195.425 221.902 195.529 221.904C195.632 221.907 195.733 221.939 195.818 221.999C195.931 222.078 196.009 222.199 196.033 222.335C196.057 222.472 196.027 222.612 195.948 222.726Z" fill="#2F3037"/>
<path d="M196.073 220.273C196.014 220.357 195.931 220.423 195.834 220.46C195.738 220.498 195.632 220.506 195.531 220.484C195.43 220.462 195.338 220.41 195.267 220.335C195.195 220.261 195.147 220.166 195.129 220.064C195.111 219.963 195.124 219.858 195.165 219.763C195.207 219.668 195.276 219.588 195.363 219.532C195.45 219.477 195.552 219.448 195.655 219.45C195.759 219.453 195.859 219.485 195.944 219.545C196 219.584 196.048 219.634 196.085 219.692C196.122 219.75 196.147 219.814 196.159 219.882C196.171 219.949 196.17 220.019 196.155 220.086C196.14 220.153 196.112 220.216 196.073 220.273Z" fill="#2F3037"/>
<path d="M307.649 220.044C307.59 220.129 307.507 220.194 307.411 220.232C307.315 220.27 307.209 220.278 307.108 220.256C307.007 220.234 306.915 220.182 306.843 220.107C306.772 220.033 306.724 219.939 306.705 219.837C306.687 219.735 306.7 219.63 306.741 219.535C306.783 219.441 306.851 219.36 306.938 219.304C307.025 219.249 307.127 219.22 307.231 219.222C307.334 219.224 307.435 219.257 307.519 219.316C307.576 219.355 307.624 219.405 307.661 219.463C307.698 219.521 307.723 219.585 307.736 219.653C307.748 219.721 307.746 219.79 307.731 219.857C307.717 219.924 307.689 219.988 307.649 220.044Z" fill="#2F3037"/>
<path d="M309.809 221.487C309.75 221.572 309.667 221.637 309.571 221.675C309.474 221.713 309.369 221.722 309.268 221.699C309.167 221.677 309.074 221.626 309.003 221.551C308.931 221.477 308.883 221.382 308.865 221.281C308.846 221.179 308.859 221.074 308.9 220.979C308.942 220.884 309.011 220.804 309.098 220.748C309.185 220.692 309.287 220.664 309.39 220.666C309.494 220.668 309.594 220.701 309.679 220.76C309.735 220.799 309.783 220.849 309.82 220.907C309.857 220.964 309.883 221.029 309.895 221.096C309.907 221.164 309.905 221.233 309.891 221.3C309.876 221.367 309.848 221.431 309.809 221.487Z" fill="#2F3037"/>
<path d="M309.935 219.033C309.876 219.118 309.793 219.183 309.696 219.22C309.6 219.258 309.495 219.266 309.394 219.244C309.293 219.222 309.201 219.17 309.129 219.095C309.058 219.021 309.01 218.927 308.992 218.825C308.973 218.723 308.986 218.618 309.027 218.524C309.069 218.429 309.137 218.349 309.224 218.293C309.311 218.237 309.413 218.208 309.516 218.21C309.62 218.212 309.72 218.245 309.805 218.304C309.919 218.383 309.997 218.505 310.021 218.641C310.045 218.778 310.014 218.919 309.935 219.033Z" fill="#2F3037"/>
<path d="M274.174 243.662C274.114 243.746 274.031 243.812 273.935 243.849C273.839 243.887 273.734 243.895 273.633 243.873C273.532 243.85 273.44 243.799 273.369 243.724C273.297 243.65 273.25 243.556 273.232 243.454C273.214 243.352 273.226 243.248 273.268 243.153C273.309 243.059 273.378 242.978 273.465 242.923C273.552 242.867 273.653 242.839 273.756 242.841C273.86 242.843 273.96 242.876 274.044 242.935C274.101 242.974 274.149 243.024 274.186 243.082C274.222 243.14 274.248 243.204 274.26 243.272C274.272 243.339 274.27 243.408 274.255 243.475C274.241 243.542 274.213 243.606 274.174 243.662Z" fill="#2F3037"/>
<path d="M276.334 245.104C276.275 245.188 276.192 245.254 276.096 245.291C276 245.329 275.895 245.337 275.794 245.315C275.693 245.293 275.601 245.241 275.53 245.167C275.458 245.093 275.41 244.999 275.392 244.897C275.374 244.795 275.386 244.691 275.427 244.596C275.469 244.502 275.537 244.421 275.624 244.366C275.711 244.31 275.813 244.281 275.916 244.283C276.019 244.285 276.119 244.318 276.204 244.377C276.26 244.416 276.308 244.466 276.345 244.524C276.382 244.581 276.408 244.646 276.42 244.713C276.432 244.781 276.43 244.85 276.416 244.917C276.401 244.984 276.373 245.047 276.334 245.104Z" fill="#2F3037"/>
<path d="M276.458 242.651C276.399 242.735 276.316 242.8 276.22 242.838C276.124 242.875 276.018 242.883 275.918 242.861C275.817 242.839 275.725 242.787 275.654 242.712C275.582 242.638 275.535 242.544 275.517 242.442C275.499 242.34 275.511 242.235 275.553 242.141C275.595 242.047 275.663 241.966 275.75 241.911C275.838 241.856 275.939 241.827 276.042 241.829C276.146 241.832 276.246 241.865 276.33 241.924C276.444 242.003 276.521 242.125 276.545 242.261C276.569 242.397 276.538 242.537 276.458 242.651Z" fill="#2F3037"/>
<path d="M143.785 175.565C143.726 175.649 143.643 175.714 143.547 175.752C143.45 175.789 143.345 175.798 143.244 175.775C143.144 175.753 143.052 175.702 142.98 175.627C142.909 175.553 142.861 175.458 142.843 175.357C142.825 175.255 142.837 175.15 142.879 175.056C142.92 174.961 142.989 174.881 143.076 174.826C143.163 174.77 143.264 174.742 143.368 174.744C143.471 174.746 143.571 174.779 143.656 174.838C143.712 174.877 143.76 174.927 143.797 174.985C143.834 175.042 143.859 175.107 143.871 175.174C143.883 175.242 143.881 175.311 143.867 175.378C143.852 175.445 143.824 175.508 143.785 175.565Z" fill="#2F3037"/>
<path d="M145.944 177.007C145.885 177.092 145.802 177.157 145.706 177.195C145.61 177.233 145.504 177.241 145.403 177.219C145.302 177.197 145.21 177.145 145.138 177.07C145.066 176.996 145.019 176.902 145 176.8C144.982 176.698 144.995 176.593 145.036 176.498C145.077 176.403 145.146 176.323 145.233 176.267C145.32 176.212 145.422 176.183 145.526 176.185C145.629 176.187 145.729 176.22 145.814 176.279C145.871 176.318 145.919 176.368 145.956 176.426C145.993 176.484 146.018 176.548 146.03 176.616C146.043 176.683 146.041 176.753 146.026 176.82C146.012 176.887 145.984 176.951 145.944 177.007Z" fill="#2F3037"/>
<path d="M146.073 174.555C146.014 174.64 145.931 174.705 145.834 174.743C145.738 174.781 145.633 174.789 145.532 174.767C145.43 174.745 145.338 174.694 145.266 174.619C145.195 174.545 145.147 174.45 145.128 174.348C145.11 174.247 145.122 174.142 145.164 174.047C145.205 173.952 145.274 173.872 145.361 173.816C145.449 173.76 145.55 173.731 145.654 173.734C145.757 173.736 145.858 173.768 145.943 173.828C145.999 173.867 146.047 173.917 146.084 173.975C146.121 174.032 146.146 174.097 146.158 174.164C146.17 174.232 146.169 174.301 146.154 174.368C146.14 174.435 146.112 174.498 146.073 174.555Z" fill="#2F3037"/>
<path d="M169.528 200.156C169.469 200.241 169.386 200.306 169.29 200.344C169.193 200.382 169.088 200.39 168.987 200.368C168.886 200.346 168.794 200.294 168.722 200.219C168.65 200.145 168.602 200.05 168.584 199.948C168.566 199.846 168.579 199.741 168.62 199.647C168.662 199.552 168.731 199.472 168.818 199.416C168.905 199.36 169.007 199.332 169.111 199.334C169.214 199.336 169.315 199.369 169.399 199.429C169.513 199.508 169.59 199.629 169.614 199.766C169.638 199.902 169.607 200.042 169.528 200.156Z" fill="#2F3037"/>
<path d="M171.688 201.598C171.629 201.682 171.546 201.748 171.449 201.785C171.353 201.822 171.248 201.83 171.147 201.808C171.046 201.786 170.954 201.734 170.883 201.659C170.812 201.585 170.764 201.491 170.746 201.389C170.728 201.287 170.741 201.183 170.783 201.088C170.824 200.994 170.893 200.913 170.98 200.858C171.067 200.803 171.169 200.774 171.272 200.776C171.375 200.779 171.475 200.812 171.56 200.871C171.673 200.95 171.75 201.072 171.774 201.208C171.798 201.344 171.767 201.484 171.688 201.598Z" fill="#2F3037"/>
<path d="M171.814 199.145C171.754 199.23 171.671 199.295 171.575 199.333C171.479 199.371 171.373 199.379 171.272 199.357C171.171 199.335 171.079 199.283 171.007 199.208C170.935 199.134 170.887 199.039 170.869 198.937C170.851 198.835 170.864 198.73 170.905 198.636C170.947 198.541 171.016 198.461 171.103 198.405C171.191 198.349 171.292 198.321 171.396 198.323C171.499 198.325 171.6 198.358 171.685 198.418C171.741 198.457 171.789 198.507 171.826 198.565C171.863 198.623 171.888 198.687 171.9 198.755C171.912 198.822 171.91 198.891 171.895 198.958C171.881 199.025 171.853 199.089 171.814 199.145Z" fill="#2F3037"/>
<path d="M92.842 254.098C92.7827 254.182 92.6998 254.247 92.6036 254.284C92.5075 254.322 92.4024 254.33 92.3016 254.308C92.2009 254.285 92.1091 254.234 92.0377 254.159C91.9663 254.085 91.9186 253.991 91.9006 253.889C91.8826 253.787 91.8951 253.683 91.9365 253.588C91.978 253.494 92.0465 253.414 92.1334 253.358C92.2203 253.303 92.3218 253.274 92.4249 253.276C92.5281 253.278 92.6283 253.311 92.713 253.37C92.7693 253.409 92.8174 253.459 92.8544 253.517C92.8914 253.575 92.9166 253.639 92.9286 253.707C92.9406 253.774 92.9391 253.844 92.9242 253.911C92.9093 253.978 92.8814 254.041 92.842 254.098Z" fill="#2F3037"/>
<path d="M95.0009 255.54C94.9418 255.625 94.8588 255.69 94.7625 255.728C94.6662 255.766 94.5608 255.774 94.4598 255.752C94.3587 255.729 94.2665 255.678 94.1948 255.603C94.1231 255.529 94.0752 255.435 94.057 255.333C94.0388 255.231 94.0512 255.126 94.0927 255.031C94.1341 254.936 94.2028 254.856 94.2899 254.8C94.377 254.745 94.4787 254.716 94.5822 254.718C94.6856 254.72 94.7861 254.753 94.871 254.812C94.9274 254.851 94.9755 254.901 95.0126 254.959C95.0497 255.017 95.075 255.081 95.0871 255.149C95.0992 255.216 95.0978 255.286 95.083 255.353C95.0682 255.42 95.0403 255.483 95.0009 255.54Z" fill="#2F3037"/>
<path d="M95.127 253.088C95.0679 253.172 94.9851 253.238 94.889 253.275C94.7928 253.313 94.6877 253.321 94.5869 253.299C94.4861 253.277 94.3941 253.225 94.3225 253.151C94.251 253.077 94.2031 252.983 94.1849 252.881C94.1667 252.779 94.1791 252.675 94.2204 252.58C94.2618 252.485 94.3302 252.405 94.4171 252.35C94.504 252.294 94.6055 252.265 94.7087 252.267C94.8119 252.269 94.9122 252.302 94.997 252.361C95.0532 252.4 95.1013 252.45 95.1383 252.507C95.1753 252.565 95.2005 252.63 95.2126 252.697C95.2247 252.765 95.2233 252.834 95.2086 252.901C95.1939 252.968 95.1662 253.031 95.127 253.088Z" fill="#2F3037"/>
<path d="M330.809 220.548L326.296 229.015" stroke="#7E6F70" stroke-width="0.346" stroke-linecap="round" stroke-linejoin="round"/>
<path d="M328.075 221.201L328.927 224.079L331.791 223.179" stroke="#7E6F70" stroke-width="0.346" stroke-linecap="round" stroke-linejoin="round"/>
<path d="M331.814 220.331C331.741 220.468 331.629 220.58 331.492 220.653C331.355 220.726 331.2 220.757 331.046 220.742C330.891 220.727 330.745 220.666 330.625 220.568C330.505 220.47 330.417 220.338 330.372 220.19C330.327 220.042 330.327 219.883 330.371 219.735C330.416 219.587 330.504 219.455 330.624 219.356C330.744 219.258 330.89 219.197 331.044 219.182C331.198 219.166 331.354 219.197 331.491 219.27C331.674 219.368 331.811 219.535 331.872 219.734C331.932 219.932 331.911 220.147 331.814 220.331Z" fill="#7E6F70"/>
<path d="M332.861 223.401C332.788 223.538 332.677 223.65 332.54 223.723C332.403 223.796 332.248 223.827 332.094 223.812C331.939 223.797 331.793 223.737 331.673 223.638C331.553 223.54 331.465 223.408 331.42 223.26C331.375 223.112 331.374 222.953 331.419 222.805C331.464 222.657 331.552 222.525 331.672 222.426C331.791 222.328 331.938 222.267 332.092 222.252C332.246 222.236 332.402 222.267 332.538 222.34C332.722 222.438 332.859 222.605 332.919 222.804C332.98 223.003 332.959 223.217 332.861 223.401Z" fill="#7E6F70"/>
<path d="M328.734 221.2C328.661 221.337 328.549 221.449 328.413 221.522C328.276 221.596 328.121 221.627 327.966 221.612C327.812 221.597 327.665 221.537 327.545 221.438C327.425 221.34 327.337 221.208 327.292 221.06C327.247 220.912 327.246 220.753 327.291 220.605C327.336 220.456 327.424 220.325 327.544 220.226C327.664 220.128 327.81 220.067 327.964 220.051C328.119 220.036 328.274 220.067 328.411 220.14C328.502 220.188 328.582 220.254 328.648 220.333C328.713 220.413 328.763 220.504 328.793 220.603C328.823 220.701 328.833 220.805 328.823 220.907C328.813 221.01 328.783 221.109 328.734 221.2Z" fill="#7E6F70"/>
<path d="M326.554 224.054L327.406 226.932L330.27 226.032" stroke="#7E6F70" stroke-width="0.346" stroke-linecap="round" stroke-linejoin="round"/>
<path d="M331.337 226.254C331.265 226.391 331.153 226.503 331.016 226.576C330.879 226.65 330.724 226.681 330.57 226.666C330.415 226.651 330.269 226.591 330.149 226.492C330.029 226.394 329.941 226.262 329.895 226.114C329.85 225.966 329.85 225.807 329.895 225.659C329.94 225.51 330.028 225.379 330.147 225.28C330.267 225.181 330.414 225.121 330.568 225.105C330.722 225.09 330.878 225.121 331.014 225.194C331.198 225.292 331.335 225.458 331.395 225.657C331.456 225.856 331.435 226.07 331.337 226.254Z" fill="#7E6F70"/>
<path d="M327.214 224.055C327.141 224.191 327.029 224.304 326.892 224.377C326.756 224.45 326.6 224.481 326.446 224.466C326.292 224.451 326.145 224.39 326.025 224.292C325.906 224.194 325.817 224.062 325.772 223.914C325.727 223.766 325.727 223.607 325.772 223.459C325.817 223.31 325.904 223.179 326.024 223.08C326.144 222.982 326.29 222.921 326.444 222.905C326.599 222.89 326.754 222.921 326.891 222.994C326.982 223.042 327.062 223.108 327.128 223.188C327.193 223.267 327.242 223.359 327.272 223.457C327.302 223.556 327.313 223.659 327.303 223.762C327.293 223.864 327.262 223.964 327.214 224.055Z" fill="#7E6F70"/>
<path d="M201.807 242.567L204.332 251.824" stroke="#7E6F70" stroke-width="0.346" stroke-linecap="round" stroke-linejoin="round"/>
<path d="M200.267 244.917L202.861 246.427L204.329 243.809" stroke="#7E6F70" stroke-width="0.346" stroke-linecap="round" stroke-linejoin="round"/>
<path d="M202.389 241.719C202.43 241.868 202.425 242.027 202.376 242.174C202.327 242.321 202.235 242.45 202.113 242.545C201.99 242.64 201.842 242.696 201.688 242.707C201.533 242.718 201.378 242.683 201.244 242.606C201.109 242.529 201 242.414 200.931 242.275C200.862 242.136 200.835 241.98 200.855 241.827C200.874 241.673 200.939 241.528 201.041 241.411C201.142 241.294 201.276 241.21 201.426 241.169C201.627 241.114 201.841 241.142 202.021 241.245C202.202 241.348 202.334 241.518 202.389 241.719Z" fill="#7E6F70"/>
<path d="M205.256 243.235C205.297 243.385 205.292 243.543 205.243 243.69C205.194 243.837 205.102 243.966 204.979 244.061C204.857 244.156 204.709 244.212 204.554 244.223C204.399 244.233 204.245 244.198 204.11 244.121C203.976 244.044 203.867 243.928 203.798 243.79C203.729 243.651 203.702 243.495 203.722 243.341C203.742 243.187 203.807 243.042 203.909 242.926C204.01 242.809 204.145 242.725 204.294 242.684C204.394 242.657 204.497 242.65 204.6 242.663C204.702 242.676 204.8 242.709 204.89 242.76C204.979 242.811 205.057 242.879 205.12 242.961C205.183 243.042 205.23 243.135 205.256 243.235Z" fill="#7E6F70"/>
<path d="M200.745 244.464C200.785 244.614 200.781 244.772 200.731 244.919C200.682 245.066 200.59 245.195 200.468 245.29C200.345 245.385 200.197 245.441 200.042 245.452C199.887 245.462 199.733 245.427 199.598 245.35C199.464 245.273 199.355 245.157 199.286 245.019C199.217 244.88 199.191 244.724 199.21 244.57C199.23 244.416 199.295 244.271 199.397 244.155C199.499 244.038 199.633 243.954 199.783 243.913C199.882 243.886 199.986 243.879 200.088 243.892C200.19 243.905 200.289 243.938 200.378 243.989C200.467 244.04 200.546 244.108 200.609 244.19C200.672 244.271 200.718 244.364 200.745 244.464Z" fill="#7E6F70"/>
<path d="M201.116 248.037L203.71 249.547L205.178 246.929" stroke="#7E6F70" stroke-width="0.346" stroke-linecap="round" stroke-linejoin="round"/>
<path d="M206.108 246.354C206.149 246.504 206.144 246.662 206.095 246.809C206.046 246.957 205.954 247.086 205.831 247.181C205.708 247.276 205.56 247.333 205.405 247.344C205.25 247.354 205.095 247.319 204.961 247.242C204.826 247.165 204.717 247.049 204.648 246.91C204.578 246.771 204.552 246.615 204.572 246.461C204.591 246.307 204.656 246.162 204.758 246.045C204.86 245.928 204.995 245.844 205.145 245.803C205.346 245.748 205.56 245.776 205.74 245.879C205.921 245.982 206.053 246.153 206.108 246.354Z" fill="#7E6F70"/>
<path d="M201.597 247.585C201.638 247.735 201.633 247.893 201.584 248.04C201.535 248.188 201.443 248.317 201.32 248.412C201.197 248.507 201.049 248.564 200.894 248.574C200.739 248.585 200.585 248.55 200.45 248.473C200.315 248.396 200.206 248.28 200.137 248.141C200.068 248.002 200.041 247.846 200.061 247.692C200.081 247.538 200.146 247.393 200.248 247.276C200.35 247.159 200.484 247.074 200.634 247.034C200.733 247.007 200.837 246.999 200.939 247.012C201.042 247.025 201.14 247.058 201.23 247.11C201.319 247.161 201.398 247.229 201.461 247.311C201.524 247.392 201.57 247.485 201.597 247.585Z" fill="#7E6F70"/>
<path d="M102.868 187.814L101.382 197.293" stroke="#7E6F70" stroke-width="0.346" stroke-linecap="round" stroke-linejoin="round"/>
<path d="M100.499 189.328L102.247 191.767L104.658 189.98" stroke="#7E6F70" stroke-width="0.346" stroke-linecap="round" stroke-linejoin="round"/>
<path d="M103.745 187.279C103.721 187.432 103.651 187.574 103.546 187.687C103.44 187.801 103.304 187.88 103.153 187.916C103.002 187.952 102.844 187.942 102.699 187.889C102.554 187.835 102.428 187.739 102.337 187.614C102.246 187.488 102.194 187.339 102.188 187.184C102.182 187.029 102.222 186.876 102.303 186.744C102.384 186.612 102.502 186.507 102.642 186.442C102.783 186.377 102.939 186.355 103.092 186.379C103.195 186.395 103.292 186.431 103.381 186.485C103.469 186.538 103.545 186.609 103.606 186.693C103.667 186.777 103.71 186.871 103.734 186.972C103.758 187.072 103.762 187.177 103.745 187.279Z" fill="#7E6F70"/>
<path d="M105.741 189.835C105.717 189.988 105.647 190.13 105.542 190.243C105.436 190.357 105.3 190.436 105.149 190.472C104.998 190.508 104.84 190.498 104.695 190.444C104.55 190.391 104.424 190.295 104.333 190.17C104.242 190.044 104.19 189.895 104.184 189.74C104.178 189.585 104.218 189.432 104.299 189.3C104.38 189.168 104.498 189.063 104.638 188.998C104.779 188.933 104.935 188.911 105.088 188.935C105.191 188.95 105.289 188.986 105.377 189.04C105.465 189.094 105.542 189.165 105.602 189.249C105.663 189.332 105.707 189.427 105.731 189.528C105.754 189.628 105.758 189.733 105.741 189.835Z" fill="#7E6F70"/>
<path d="M101.122 189.111C101.098 189.263 101.028 189.406 100.923 189.519C100.817 189.632 100.681 189.712 100.53 189.748C100.38 189.784 100.222 189.774 100.077 189.721C99.9313 189.667 99.8052 189.572 99.7142 189.446C99.6232 189.321 99.5713 189.172 99.5651 189.017C99.5589 188.862 99.5986 188.709 99.6792 188.577C99.7599 188.445 99.8779 188.339 100.018 188.274C100.159 188.209 100.315 188.187 100.468 188.211C100.571 188.226 100.669 188.262 100.757 188.316C100.845 188.37 100.922 188.441 100.983 188.525C101.043 188.608 101.087 188.703 101.111 188.804C101.135 188.904 101.139 189.009 101.122 189.111Z" fill="#7E6F70"/>
<path d="M99.998 192.523L101.746 194.962L104.157 193.175" stroke="#7E6F70" stroke-width="0.346" stroke-linecap="round" stroke-linejoin="round"/>
<path d="M105.242 193.031C105.217 193.184 105.147 193.326 105.042 193.439C104.937 193.553 104.8 193.632 104.649 193.668C104.499 193.704 104.341 193.695 104.196 193.641C104.05 193.587 103.924 193.492 103.833 193.366C103.742 193.241 103.69 193.092 103.684 192.937C103.678 192.782 103.718 192.629 103.798 192.497C103.879 192.365 103.997 192.26 104.137 192.194C104.278 192.129 104.435 192.107 104.588 192.131C104.69 192.147 104.788 192.183 104.876 192.237C104.964 192.291 105.041 192.361 105.101 192.445C105.162 192.529 105.206 192.623 105.23 192.724C105.254 192.824 105.258 192.929 105.242 193.031Z" fill="#7E6F70"/>
<path d="M100.621 192.307C100.597 192.46 100.527 192.602 100.422 192.715C100.316 192.829 100.18 192.908 100.029 192.944C99.8786 192.98 99.7208 192.97 99.5756 192.917C99.4303 192.863 99.3043 192.768 99.2132 192.642C99.1222 192.517 99.0703 192.368 99.0641 192.213C99.0579 192.058 99.0976 191.905 99.1783 191.773C99.2589 191.641 99.3769 191.536 99.5174 191.47C99.6578 191.405 99.8144 191.383 99.9674 191.407C100.07 191.423 100.168 191.459 100.256 191.512C100.344 191.566 100.421 191.637 100.481 191.721C100.542 191.804 100.586 191.899 100.61 192C100.634 192.1 100.638 192.205 100.621 192.307Z" fill="#7E6F70"/>
<path d="M238.09 223.945L232.594 216.081" stroke="#7E6F70" stroke-width="0.346" stroke-linecap="round" stroke-linejoin="round"/>
<path d="M238.748 221.213L235.797 220.666L235.297 223.625" stroke="#7E6F70" stroke-width="0.346" stroke-linecap="round" stroke-linejoin="round"/>
<path d="M237.828 224.939C237.739 224.812 237.69 224.661 237.687 224.506C237.684 224.351 237.726 224.198 237.81 224.068C237.893 223.937 238.014 223.834 238.156 223.772C238.298 223.71 238.455 223.691 238.608 223.718C238.76 223.745 238.902 223.817 239.013 223.924C239.125 224.032 239.203 224.17 239.236 224.321C239.27 224.473 239.257 224.631 239.201 224.775C239.145 224.919 239.047 225.044 238.92 225.133C238.835 225.192 238.74 225.233 238.639 225.256C238.539 225.278 238.435 225.28 238.333 225.262C238.232 225.244 238.135 225.206 238.048 225.151C237.962 225.095 237.887 225.023 237.828 224.939Z" fill="#7E6F70"/>
<path d="M234.617 224.479C234.528 224.352 234.479 224.201 234.476 224.046C234.473 223.891 234.515 223.739 234.599 223.608C234.682 223.477 234.803 223.374 234.945 223.312C235.087 223.25 235.244 223.231 235.397 223.258C235.549 223.285 235.691 223.357 235.802 223.464C235.914 223.572 235.992 223.71 236.025 223.861C236.059 224.013 236.046 224.171 235.99 224.315C235.934 224.459 235.836 224.584 235.709 224.673C235.624 224.732 235.529 224.774 235.428 224.796C235.328 224.818 235.224 224.82 235.122 224.802C235.021 224.784 234.924 224.746 234.837 224.691C234.751 224.635 234.676 224.563 234.617 224.479Z" fill="#7E6F70"/>
<path d="M238.445 221.801C238.357 221.674 238.308 221.523 238.305 221.368C238.302 221.213 238.345 221.061 238.428 220.93C238.512 220.8 238.632 220.697 238.774 220.635C238.916 220.572 239.073 220.554 239.226 220.581C239.378 220.608 239.519 220.679 239.631 220.787C239.743 220.894 239.821 221.032 239.854 221.183C239.888 221.335 239.876 221.492 239.819 221.637C239.763 221.781 239.665 221.906 239.538 221.995C239.368 222.114 239.157 222.161 238.952 222.124C238.747 222.088 238.565 221.971 238.445 221.801Z" fill="#7E6F70"/>
<path d="M236.896 218.562L233.945 218.015L233.445 220.974" stroke="#7E6F70" stroke-width="0.346" stroke-linecap="round" stroke-linejoin="round"/>
<path d="M232.761 221.829C232.672 221.702 232.623 221.551 232.619 221.396C232.616 221.24 232.659 221.088 232.742 220.957C232.826 220.826 232.946 220.722 233.088 220.66C233.23 220.597 233.388 220.578 233.541 220.605C233.694 220.632 233.835 220.704 233.947 220.812C234.059 220.919 234.137 221.057 234.171 221.209C234.204 221.36 234.192 221.519 234.136 221.663C234.079 221.808 233.981 221.933 233.854 222.022C233.683 222.141 233.473 222.187 233.268 222.151C233.063 222.115 232.881 221.999 232.761 221.829Z" fill="#7E6F70"/>
<path d="M236.598 219.15C236.509 219.023 236.46 218.872 236.457 218.717C236.454 218.562 236.497 218.41 236.58 218.279C236.664 218.148 236.784 218.045 236.926 217.983C237.068 217.921 237.226 217.902 237.378 217.929C237.531 217.956 237.672 218.028 237.784 218.136C237.896 218.243 237.973 218.381 238.007 218.532C238.04 218.684 238.028 218.842 237.971 218.986C237.915 219.131 237.817 219.255 237.69 219.344C237.606 219.403 237.51 219.445 237.41 219.467C237.309 219.489 237.205 219.491 237.104 219.473C237.002 219.455 236.906 219.417 236.819 219.362C236.732 219.306 236.657 219.234 236.598 219.15Z" fill="#7E6F70"/>
<path d="M163.818 245.612L158.322 237.748" stroke="#7E6F70" stroke-width="0.346" stroke-linecap="round" stroke-linejoin="round"/>
<path d="M164.477 242.88L161.526 242.333L161.026 245.292" stroke="#7E6F70" stroke-width="0.346" stroke-linecap="round" stroke-linejoin="round"/>
<path d="M163.556 246.606C163.467 246.479 163.418 246.328 163.415 246.173C163.412 246.018 163.455 245.865 163.538 245.735C163.622 245.604 163.742 245.501 163.884 245.439C164.026 245.377 164.184 245.358 164.336 245.385C164.489 245.412 164.63 245.484 164.742 245.591C164.854 245.699 164.931 245.837 164.965 245.988C164.998 246.14 164.986 246.298 164.929 246.442C164.873 246.586 164.775 246.711 164.648 246.8C164.564 246.859 164.468 246.9 164.368 246.923C164.267 246.945 164.163 246.947 164.062 246.929C163.96 246.911 163.864 246.873 163.777 246.818C163.69 246.762 163.615 246.69 163.556 246.606Z" fill="#7E6F70"/>
<path d="M160.345 246.146C160.256 246.019 160.207 245.868 160.204 245.713C160.201 245.558 160.244 245.406 160.328 245.275C160.411 245.145 160.531 245.042 160.673 244.98C160.815 244.917 160.973 244.899 161.125 244.926C161.278 244.953 161.419 245.024 161.531 245.132C161.643 245.239 161.72 245.377 161.754 245.528C161.787 245.68 161.775 245.837 161.719 245.982C161.663 246.126 161.565 246.251 161.438 246.34C161.353 246.399 161.258 246.441 161.157 246.463C161.057 246.485 160.953 246.488 160.851 246.47C160.75 246.452 160.653 246.414 160.566 246.358C160.479 246.303 160.404 246.23 160.345 246.146Z" fill="#7E6F70"/>
<path d="M164.178 243.468C164.089 243.341 164.04 243.19 164.037 243.035C164.034 242.88 164.077 242.728 164.161 242.597C164.244 242.466 164.364 242.363 164.506 242.301C164.648 242.239 164.806 242.22 164.958 242.247C165.111 242.274 165.252 242.346 165.364 242.453C165.476 242.561 165.553 242.699 165.587 242.85C165.62 243.002 165.608 243.16 165.552 243.304C165.495 243.448 165.397 243.573 165.27 243.662C165.186 243.721 165.091 243.763 164.99 243.785C164.889 243.807 164.785 243.809 164.684 243.791C164.583 243.773 164.486 243.735 164.399 243.68C164.312 243.624 164.237 243.552 164.178 243.468Z" fill="#7E6F70"/>
<path d="M162.624 240.229L159.673 239.682L159.173 242.641" stroke="#7E6F70" stroke-width="0.346" stroke-linecap="round" stroke-linejoin="round"/>
<path d="M158.492 243.495C158.404 243.368 158.355 243.217 158.352 243.062C158.349 242.907 158.392 242.755 158.475 242.624C158.559 242.494 158.679 242.391 158.821 242.329C158.963 242.266 159.12 242.248 159.273 242.275C159.425 242.302 159.566 242.374 159.678 242.481C159.79 242.588 159.868 242.726 159.901 242.877C159.935 243.029 159.922 243.187 159.866 243.331C159.81 243.475 159.712 243.6 159.585 243.689C159.415 243.808 159.204 243.855 158.999 243.818C158.794 243.782 158.612 243.666 158.492 243.495Z" fill="#7E6F70"/>
<path d="M162.329 240.817C162.24 240.69 162.191 240.539 162.188 240.384C162.185 240.229 162.227 240.077 162.311 239.946C162.394 239.815 162.515 239.712 162.657 239.65C162.799 239.588 162.956 239.569 163.109 239.596C163.261 239.623 163.402 239.695 163.514 239.803C163.626 239.91 163.704 240.048 163.737 240.199C163.77 240.351 163.758 240.509 163.702 240.653C163.646 240.798 163.548 240.922 163.421 241.011C163.336 241.07 163.241 241.112 163.14 241.134C163.04 241.156 162.936 241.158 162.834 241.14C162.733 241.122 162.636 241.084 162.549 241.029C162.463 240.973 162.388 240.901 162.329 240.817Z" fill="#7E6F70"/>
<path d="M92.2555 224.622L84.8145 218.565" stroke="#7E6F70" stroke-width="0.346" stroke-linecap="round" stroke-linejoin="round"/>
<path d="M92.1404 221.813L89.1523 222.095L89.4823 225.078" stroke="#7E6F70" stroke-width="0.346" stroke-linecap="round" stroke-linejoin="round"/>
<path d="M92.2771 225.649C92.1565 225.551 92.0675 225.42 92.0215 225.272C91.9755 225.123 91.9746 224.965 92.0188 224.816C92.0631 224.667 92.1505 224.535 92.27 224.436C92.3895 224.337 92.5358 224.275 92.6902 224.259C92.8446 224.244 93.0003 224.274 93.1375 224.347C93.2746 224.419 93.3871 224.531 93.4607 224.668C93.5343 224.805 93.5656 224.96 93.5507 225.115C93.5358 225.269 93.4754 225.416 93.3771 225.536C93.2461 225.696 93.0567 225.799 92.8505 225.82C92.6443 225.841 92.4381 225.779 92.2771 225.649Z" fill="#7E6F70"/>
<path d="M89.0633 226.087C88.9426 225.989 88.8536 225.858 88.8076 225.71C88.7617 225.561 88.7607 225.403 88.805 225.254C88.8492 225.105 88.9366 224.973 89.0562 224.874C89.1757 224.775 89.3219 224.713 89.4763 224.697C89.6308 224.682 89.7864 224.712 89.9236 224.785C90.0608 224.857 90.1733 224.969 90.2468 225.106C90.3204 225.242 90.3517 225.398 90.3369 225.552C90.322 225.707 90.2616 225.854 90.1633 225.974C90.0319 226.134 89.8426 226.236 89.6365 226.257C89.4305 226.278 89.2244 226.217 89.0633 226.087Z" fill="#7E6F70"/>
<path d="M92.0144 222.46C91.8938 222.362 91.8048 222.231 91.7588 222.082C91.7128 221.934 91.7119 221.776 91.7561 221.627C91.8004 221.478 91.8878 221.346 92.0073 221.247C92.1268 221.147 92.2731 221.086 92.4275 221.07C92.5819 221.054 92.7376 221.085 92.8748 221.157C93.0119 221.23 93.1244 221.342 93.198 221.479C93.2716 221.615 93.3029 221.771 93.288 221.925C93.2731 222.08 93.2127 222.226 93.1144 222.347C92.9832 222.507 92.7939 222.609 92.5877 222.63C92.3816 222.651 92.1755 222.59 92.0144 222.46Z" fill="#7E6F70"/>
<path d="M89.6325 219.773L86.6445 220.055L86.9745 223.038" stroke="#7E6F70" stroke-width="0.346" stroke-linecap="round" stroke-linejoin="round"/>
<path d="M86.5546 224.046C86.4336 223.948 86.3443 223.817 86.2981 223.668C86.2519 223.52 86.2509 223.361 86.2951 223.212C86.3393 223.063 86.4269 222.93 86.5466 222.831C86.6663 222.731 86.8128 222.67 86.9675 222.654C87.1222 222.638 87.2781 222.669 87.4155 222.741C87.5529 222.814 87.6656 222.926 87.7392 223.063C87.8128 223.2 87.8441 223.356 87.829 223.511C87.814 223.666 87.7533 223.812 87.6546 223.933C87.5234 224.093 87.3341 224.195 87.128 224.216C86.9218 224.237 86.7157 224.176 86.5546 224.046Z" fill="#7E6F70"/>
<path d="M89.5066 220.419C89.3859 220.321 89.297 220.19 89.251 220.041C89.205 219.893 89.2041 219.735 89.2483 219.586C89.2926 219.437 89.38 219.305 89.4995 219.206C89.619 219.106 89.7653 219.045 89.9197 219.029C90.0741 219.013 90.2298 219.044 90.367 219.116C90.5041 219.189 90.6166 219.301 90.6902 219.438C90.7638 219.574 90.7951 219.73 90.7802 219.884C90.7653 220.039 90.7049 220.185 90.6066 220.306C90.4753 220.466 90.2859 220.567 90.0799 220.589C89.8738 220.61 89.6678 220.549 89.5066 220.419Z" fill="#7E6F70"/>
<path d="M305.81 200.676L296.218 200.891" stroke="#7E6F70" stroke-width="0.346" stroke-linecap="round" stroke-linejoin="round"/>
<path d="M303.901 198.613L301.81 200.765L303.996 202.822" stroke="#7E6F70" stroke-width="0.346" stroke-linecap="round" stroke-linejoin="round"/>
<path d="M306.491 201.445C306.336 201.449 306.183 201.406 306.052 201.323C305.921 201.239 305.817 201.119 305.754 200.977C305.692 200.835 305.672 200.677 305.699 200.524C305.726 200.371 305.798 200.229 305.905 200.117C306.013 200.005 306.151 199.927 306.303 199.893C306.455 199.86 306.613 199.872 306.758 199.929C306.903 199.985 307.027 200.083 307.116 200.211C307.205 200.338 307.254 200.489 307.257 200.645C307.262 200.852 307.183 201.053 307.04 201.203C306.896 201.353 306.699 201.44 306.491 201.445Z" fill="#7E6F70"/>
<path d="M304.329 203.863C304.174 203.866 304.021 203.824 303.89 203.741C303.758 203.657 303.655 203.537 303.592 203.395C303.529 203.253 303.51 203.095 303.537 202.942C303.564 202.789 303.636 202.647 303.743 202.535C303.851 202.423 303.989 202.345 304.141 202.311C304.293 202.278 304.451 202.29 304.596 202.347C304.741 202.403 304.865 202.501 304.954 202.629C305.043 202.756 305.092 202.907 305.095 203.063C305.1 203.27 305.021 203.471 304.878 203.621C304.734 203.771 304.537 203.858 304.329 203.863Z" fill="#7E6F70"/>
<path d="M304.225 199.188C304.069 199.191 303.916 199.149 303.785 199.065C303.654 198.982 303.551 198.861 303.488 198.719C303.426 198.577 303.407 198.419 303.434 198.266C303.461 198.113 303.533 197.972 303.64 197.86C303.748 197.748 303.886 197.67 304.038 197.636C304.19 197.603 304.348 197.615 304.493 197.672C304.637 197.728 304.762 197.826 304.851 197.954C304.94 198.081 304.989 198.232 304.992 198.388C304.996 198.595 304.917 198.796 304.774 198.946C304.63 199.096 304.432 199.183 304.225 199.188Z" fill="#7E6F70"/>
<path d="M300.669 198.685L298.578 200.837L300.764 202.894" stroke="#7E6F70" stroke-width="0.346" stroke-linecap="round" stroke-linejoin="round"/>
<path d="M301.096 203.938C300.94 203.941 300.787 203.899 300.656 203.816C300.525 203.732 300.422 203.612 300.359 203.47C300.296 203.328 300.277 203.17 300.304 203.017C300.331 202.864 300.403 202.722 300.51 202.61C300.617 202.498 300.756 202.42 300.908 202.386C301.059 202.353 301.218 202.365 301.362 202.422C301.507 202.478 301.632 202.576 301.721 202.704C301.81 202.831 301.859 202.982 301.862 203.138C301.866 203.345 301.788 203.546 301.644 203.696C301.501 203.846 301.303 203.933 301.096 203.938Z" fill="#7E6F70"/>
<path d="M300.991 199.26C300.836 199.263 300.684 199.221 300.553 199.137C300.422 199.054 300.319 198.934 300.256 198.792C300.193 198.65 300.174 198.493 300.201 198.34C300.228 198.187 300.3 198.046 300.407 197.934C300.514 197.822 300.653 197.744 300.804 197.71C300.956 197.677 301.114 197.689 301.258 197.745C301.403 197.802 301.527 197.9 301.616 198.027C301.705 198.154 301.754 198.305 301.757 198.46C301.762 198.667 301.683 198.868 301.54 199.018C301.396 199.168 301.199 199.255 300.991 199.26Z" fill="#7E6F70"/>
<path d="M275.568 197.829C275.568 197.829 275.334 199.769 274.503 200.102C274.31 200.176 274.1 200.194 273.897 200.151C273.694 200.109 273.508 200.009 273.361 199.864C273.214 199.719 273.111 199.534 273.067 199.332C273.022 199.13 273.036 198.919 273.108 198.725C273.409 198.144 273.84 197.641 274.368 197.256C274.368 197.256 272.835 198.062 272.188 197.299C272.056 197.134 271.97 196.937 271.94 196.728C271.91 196.519 271.936 196.305 272.017 196.11C272.098 195.915 272.229 195.745 272.398 195.618C272.567 195.491 272.767 195.412 272.977 195.389C273.43 195.42 273.874 195.529 274.289 195.711C274.047 195.386 273.889 195.005 273.831 194.603C273.772 194.202 273.815 193.792 273.955 193.411C274.393 192.627 275.661 192.521 275.942 193.352C276.107 194.133 276.141 194.936 276.042 195.729C276.042 195.729 277.435 193.84 278.442 194.899C278.636 195.077 278.767 195.313 278.815 195.572C278.863 195.831 278.826 196.098 278.709 196.334C278.592 196.57 278.402 196.762 278.168 196.881C277.933 196.999 277.666 197.039 277.406 196.993C276.426 196.993 278.354 197.658 277.796 199.018C277.387 200.024 275.875 200.369 275.568 197.829Z" fill="white"/>
<path d="M275.541 196.8C275.531 196.763 275.532 196.724 275.544 196.687C275.556 196.651 275.579 196.619 275.609 196.595C275.64 196.572 275.676 196.558 275.715 196.555C275.753 196.552 275.791 196.561 275.825 196.58C275.858 196.599 275.885 196.628 275.902 196.662C275.919 196.697 275.926 196.736 275.921 196.774C275.916 196.812 275.899 196.848 275.874 196.876C275.849 196.905 275.815 196.926 275.778 196.936C275.729 196.949 275.676 196.942 275.632 196.917C275.587 196.891 275.555 196.849 275.541 196.8Z" fill="#2F3037"/>
<path d="M274.586 196.631C274.576 196.594 274.577 196.555 274.59 196.519C274.602 196.483 274.625 196.451 274.655 196.428C274.685 196.405 274.722 196.392 274.76 196.389C274.798 196.387 274.836 196.396 274.869 196.415C274.902 196.434 274.928 196.462 274.945 196.496C274.962 196.53 274.968 196.569 274.963 196.607C274.959 196.644 274.943 196.68 274.917 196.709C274.892 196.737 274.859 196.758 274.823 196.768C274.798 196.775 274.772 196.776 274.747 196.773C274.722 196.77 274.698 196.762 274.676 196.749C274.653 196.736 274.634 196.719 274.619 196.699C274.603 196.679 274.592 196.656 274.586 196.631Z" fill="#2F3037"/>
<path d="M275.162 196.134C275.152 196.097 275.153 196.058 275.165 196.021C275.177 195.985 275.2 195.953 275.23 195.929C275.261 195.906 275.298 195.892 275.336 195.889C275.374 195.886 275.412 195.895 275.446 195.914C275.479 195.933 275.506 195.962 275.523 195.996C275.54 196.031 275.547 196.07 275.542 196.108C275.537 196.146 275.52 196.182 275.495 196.21C275.47 196.239 275.436 196.26 275.399 196.27C275.35 196.283 275.297 196.276 275.253 196.251C275.208 196.225 275.176 196.183 275.162 196.134Z" fill="#2F3037"/>
<path d="M338.136 181.261C338.136 181.261 337.903 183.202 337.072 183.534C336.879 183.608 336.668 183.626 336.466 183.583C336.263 183.541 336.077 183.441 335.93 183.296C335.782 183.151 335.68 182.966 335.635 182.764C335.59 182.562 335.605 182.351 335.677 182.157C335.977 181.576 336.409 181.073 336.937 180.688C336.937 180.688 335.403 181.496 334.757 180.731C334.624 180.566 334.538 180.369 334.508 180.16C334.478 179.951 334.505 179.738 334.585 179.542C334.666 179.347 334.798 179.177 334.967 179.05C335.136 178.924 335.336 178.845 335.546 178.822C335.999 178.852 336.443 178.961 336.858 179.144C336.615 178.819 336.457 178.438 336.399 178.036C336.341 177.634 336.384 177.225 336.524 176.844C336.961 176.06 338.23 175.953 338.511 176.784C338.675 177.566 338.709 178.369 338.611 179.162C338.611 179.162 340.004 177.272 341.011 178.332C341.205 178.51 341.335 178.746 341.383 179.005C341.432 179.264 341.394 179.531 341.278 179.767C341.161 180.003 340.971 180.195 340.736 180.313C340.501 180.432 340.234 180.472 339.975 180.426C338.996 180.426 340.924 181.091 340.366 182.449C339.955 183.456 338.444 183.801 338.136 181.261Z" fill="white"/>
<path d="M338.11 180.233C338.1 180.196 338.102 180.157 338.114 180.121C338.126 180.085 338.149 180.053 338.179 180.03C338.21 180.007 338.246 179.993 338.284 179.991C338.322 179.988 338.36 179.997 338.393 180.016C338.426 180.035 338.453 180.064 338.47 180.098C338.486 180.132 338.493 180.171 338.488 180.208C338.483 180.246 338.467 180.282 338.442 180.31C338.417 180.339 338.384 180.36 338.347 180.37C338.297 180.383 338.245 180.376 338.2 180.35C338.156 180.325 338.123 180.282 338.11 180.233Z" fill="#2F3037"/>
<path d="M337.154 180.064C337.147 180.039 337.146 180.014 337.149 179.989C337.152 179.964 337.161 179.939 337.173 179.917C337.199 179.873 337.241 179.841 337.291 179.827C337.34 179.814 337.393 179.821 337.437 179.847C337.481 179.872 337.514 179.914 337.527 179.964C337.54 180.013 337.533 180.066 337.508 180.11C337.482 180.155 337.44 180.187 337.391 180.2C337.341 180.214 337.288 180.207 337.244 180.181C337.2 180.156 337.167 180.113 337.154 180.064Z" fill="#2F3037"/>
<path d="M337.732 179.566C337.722 179.529 337.724 179.49 337.736 179.454C337.748 179.418 337.771 179.386 337.801 179.363C337.832 179.34 337.868 179.326 337.906 179.324C337.944 179.321 337.982 179.33 338.015 179.349C338.048 179.368 338.075 179.397 338.092 179.431C338.109 179.465 338.115 179.504 338.11 179.541C338.105 179.579 338.089 179.615 338.064 179.643C338.039 179.672 338.006 179.693 337.969 179.703C337.919 179.716 337.867 179.709 337.822 179.683C337.778 179.658 337.745 179.615 337.732 179.566Z" fill="#2F3037"/>
<path d="M258.759 243.424C258.759 243.424 258.525 245.364 257.694 245.697C257.501 245.771 257.29 245.789 257.088 245.746C256.885 245.704 256.699 245.604 256.552 245.459C256.404 245.314 256.302 245.129 256.257 244.927C256.212 244.725 256.227 244.514 256.299 244.32C256.599 243.739 257.031 243.236 257.559 242.851C257.559 242.851 256.026 243.658 255.379 242.894C255.246 242.729 255.16 242.532 255.13 242.323C255.1 242.114 255.127 241.901 255.207 241.705C255.288 241.51 255.42 241.34 255.589 241.213C255.758 241.087 255.958 241.008 256.168 240.985C256.621 241.015 257.065 241.124 257.48 241.307C257.237 240.982 257.079 240.601 257.021 240.199C256.963 239.797 257.006 239.388 257.146 239.007C257.584 238.222 258.852 238.116 259.133 238.947C259.298 239.728 259.331 240.532 259.233 241.325C259.233 241.325 260.626 239.435 261.633 240.495C261.827 240.673 261.958 240.909 262.006 241.168C262.055 241.427 262.018 241.695 261.901 241.931C261.784 242.167 261.593 242.358 261.358 242.477C261.123 242.595 260.855 242.634 260.596 242.588C259.617 242.588 261.545 243.254 260.987 244.613C260.579 245.619 259.067 245.964 258.759 243.424Z" fill="white"/>
<path d="M258.733 242.395C258.722 242.358 258.723 242.319 258.736 242.282C258.748 242.246 258.77 242.214 258.801 242.19C258.831 242.167 258.868 242.153 258.906 242.15C258.945 242.147 258.983 242.156 259.016 242.175C259.049 242.194 259.076 242.223 259.093 242.257C259.11 242.292 259.117 242.331 259.112 242.369C259.107 242.407 259.091 242.442 259.065 242.471C259.04 242.5 259.007 242.521 258.97 242.531C258.92 242.544 258.867 242.537 258.823 242.512C258.779 242.486 258.746 242.444 258.733 242.395Z" fill="#2F3037"/>
<path d="M257.777 242.225C257.767 242.188 257.768 242.148 257.78 242.112C257.793 242.075 257.815 242.043 257.846 242.02C257.876 241.996 257.913 241.982 257.951 241.98C257.989 241.977 258.028 241.986 258.061 242.005C258.094 242.024 258.121 242.053 258.138 242.087C258.155 242.122 258.162 242.16 258.157 242.198C258.152 242.237 258.136 242.272 258.11 242.301C258.085 242.33 258.052 242.351 258.014 242.361C257.965 242.374 257.912 242.367 257.868 242.341C257.824 242.316 257.791 242.274 257.777 242.225Z" fill="#2F3037"/>
<path d="M258.35 241.729C258.34 241.692 258.342 241.653 258.354 241.617C258.367 241.581 258.389 241.549 258.42 241.526C258.45 241.503 258.486 241.489 258.524 241.487C258.562 241.484 258.6 241.493 258.633 241.512C258.666 241.531 258.693 241.56 258.71 241.594C258.727 241.628 258.733 241.667 258.728 241.704C258.723 241.742 258.707 241.778 258.682 241.806C258.657 241.835 258.624 241.856 258.587 241.866C258.538 241.879 258.485 241.872 258.44 241.846C258.396 241.82 258.364 241.778 258.35 241.729Z" fill="#2F3037"/>
<path d="M113.435 219.366C113.435 219.366 113.201 221.306 112.371 221.639C112.177 221.714 111.966 221.732 111.763 221.691C111.559 221.649 111.372 221.549 111.224 221.403C111.076 221.258 110.973 221.072 110.928 220.87C110.883 220.667 110.898 220.455 110.971 220.261C111.271 219.68 111.703 219.178 112.231 218.793C112.231 218.793 110.698 219.599 110.051 218.836C109.918 218.671 109.832 218.474 109.802 218.265C109.772 218.056 109.799 217.842 109.879 217.647C109.96 217.452 110.092 217.282 110.261 217.155C110.43 217.028 110.63 216.949 110.84 216.926C111.293 216.956 111.737 217.065 112.153 217.248C111.91 216.923 111.752 216.542 111.693 216.14C111.635 215.739 111.678 215.329 111.818 214.948C112.256 214.164 113.524 214.058 113.805 214.889C113.969 215.67 114.003 216.473 113.905 217.266C113.905 217.266 115.297 215.377 116.305 216.436C116.498 216.614 116.629 216.85 116.677 217.109C116.725 217.368 116.688 217.635 116.571 217.871C116.455 218.107 116.265 218.299 116.03 218.417C115.795 218.536 115.528 218.576 115.269 218.53C114.289 218.53 116.218 219.195 115.659 220.555C115.254 221.561 113.743 221.906 113.435 219.366Z" fill="white"/>
<path d="M113.409 218.336C113.396 218.286 113.403 218.233 113.428 218.189C113.454 218.145 113.496 218.112 113.545 218.099C113.595 218.086 113.648 218.093 113.692 218.118C113.736 218.144 113.769 218.186 113.782 218.236C113.788 218.26 113.79 218.286 113.787 218.311C113.784 218.336 113.775 218.36 113.763 218.382C113.75 218.404 113.733 218.423 113.713 218.439C113.693 218.454 113.67 218.466 113.645 218.472C113.621 218.479 113.595 218.48 113.57 218.477C113.545 218.474 113.521 218.466 113.499 218.453C113.477 218.44 113.458 218.423 113.442 218.403C113.427 218.383 113.415 218.36 113.409 218.336Z" fill="#2F3037"/>
<path d="M112.452 218.168C112.442 218.131 112.443 218.092 112.456 218.056C112.468 218.02 112.491 217.988 112.521 217.965C112.551 217.942 112.588 217.928 112.626 217.926C112.664 217.923 112.702 217.932 112.735 217.951C112.768 217.971 112.795 217.999 112.811 218.033C112.828 218.067 112.835 218.106 112.83 218.144C112.825 218.181 112.809 218.217 112.784 218.246C112.759 218.274 112.726 218.295 112.689 218.305C112.639 218.318 112.586 218.311 112.542 218.285C112.498 218.26 112.465 218.217 112.452 218.168Z" fill="#2F3037"/>
<path d="M113.028 217.671C113.018 217.634 113.019 217.594 113.031 217.558C113.044 217.522 113.066 217.489 113.097 217.466C113.127 217.442 113.164 217.428 113.202 217.426C113.24 217.423 113.279 217.432 113.312 217.451C113.345 217.47 113.372 217.499 113.389 217.533C113.406 217.568 113.413 217.606 113.408 217.645C113.403 217.683 113.387 217.718 113.361 217.747C113.336 217.776 113.303 217.797 113.265 217.807C113.216 217.82 113.163 217.813 113.119 217.788C113.075 217.762 113.042 217.72 113.028 217.671Z" fill="#2F3037"/>
<path d="M233.593 187.725C233.593 187.725 233.36 189.665 232.529 189.998C232.336 190.073 232.124 190.091 231.921 190.049C231.718 190.008 231.531 189.908 231.383 189.763C231.235 189.617 231.132 189.432 231.087 189.229C231.042 189.027 231.057 188.815 231.129 188.621C231.43 188.04 231.861 187.537 232.39 187.152C232.39 187.152 230.856 187.959 230.21 187.195C230.077 187.03 229.991 186.833 229.961 186.624C229.931 186.415 229.958 186.201 230.038 186.006C230.119 185.811 230.251 185.641 230.42 185.514C230.589 185.387 230.789 185.308 230.999 185.285C231.452 185.316 231.895 185.425 232.311 185.608C232.068 185.283 231.91 184.902 231.852 184.5C231.794 184.099 231.837 183.689 231.977 183.308C232.414 182.523 233.677 182.417 233.963 183.248C234.127 184.029 234.161 184.833 234.063 185.626C234.063 185.626 235.456 183.736 236.463 184.796C236.657 184.974 236.788 185.21 236.836 185.469C236.884 185.728 236.847 185.995 236.731 186.231C236.614 186.467 236.423 186.659 236.188 186.777C235.953 186.896 235.686 186.935 235.427 186.889C234.447 186.889 236.376 187.555 235.818 188.914C235.413 189.921 233.902 190.265 233.593 187.725Z" fill="white"/>
<path d="M233.567 186.696C233.557 186.659 233.558 186.62 233.57 186.583C233.583 186.547 233.605 186.515 233.636 186.491C233.666 186.468 233.703 186.454 233.741 186.451C233.779 186.448 233.818 186.457 233.851 186.476C233.884 186.495 233.911 186.524 233.928 186.558C233.945 186.593 233.952 186.632 233.947 186.67C233.942 186.708 233.926 186.744 233.9 186.772C233.875 186.801 233.842 186.822 233.804 186.832C233.755 186.845 233.702 186.838 233.658 186.813C233.614 186.787 233.581 186.745 233.567 186.696Z" fill="#2F3037"/>
<path d="M232.612 186.532C232.602 186.495 232.603 186.456 232.616 186.42C232.628 186.384 232.65 186.352 232.681 186.329C232.711 186.305 232.747 186.292 232.785 186.289C232.823 186.286 232.861 186.295 232.895 186.314C232.928 186.333 232.954 186.362 232.971 186.396C232.988 186.43 232.995 186.468 232.99 186.506C232.985 186.544 232.969 186.58 232.944 186.608C232.919 186.637 232.886 186.658 232.849 186.668C232.825 186.674 232.799 186.676 232.774 186.673C232.749 186.67 232.724 186.662 232.702 186.649C232.68 186.636 232.661 186.619 232.646 186.599C232.63 186.579 232.619 186.556 232.612 186.532Z" fill="#2F3037"/>
<path d="M233.189 186.03C233.179 185.993 233.181 185.954 233.193 185.918C233.205 185.882 233.228 185.85 233.258 185.827C233.288 185.803 233.324 185.79 233.363 185.787C233.401 185.784 233.439 185.793 233.472 185.812C233.505 185.831 233.531 185.86 233.548 185.894C233.565 185.928 233.572 185.966 233.567 186.004C233.562 186.042 233.546 186.078 233.521 186.106C233.496 186.135 233.463 186.156 233.426 186.166C233.402 186.173 233.376 186.174 233.351 186.171C233.326 186.168 233.302 186.16 233.28 186.147C233.258 186.134 233.238 186.118 233.223 186.097C233.207 186.077 233.196 186.054 233.189 186.03Z" fill="#2F3037"/>
<path d="M201.339 171.196C201.13 171.585 201.02 172.02 201.016 172.461C201.013 172.903 201.117 173.339 201.32 173.732C201.165 173.648 201.026 173.572 200.915 173.509C200.487 172.808 199.83 172.277 199.056 172.004C198.226 171.864 197.732 172.772 198.17 173.552C198.62 174.352 200.679 173.886 200.679 173.886C200.708 173.881 200.738 173.874 200.766 173.866L201.33 174.212H201.305C200.855 174.234 200.418 174.366 200.031 174.597C199.644 174.827 199.32 175.149 199.086 175.534C198.663 176.261 199.423 177.062 200.309 176.951C201.218 176.837 200.963 175.351 201.496 174.645C201.567 174.551 201.621 174.474 201.662 174.411L203.752 175.692L204.047 175.163C204.047 175.163 202.718 174.476 201.715 173.94C201.744 173.878 201.776 173.805 201.815 173.716C202.147 172.898 203.553 172.354 203.186 171.516C202.824 170.702 201.747 170.46 201.339 171.196Z" fill="white"/>
<path d="M124.393 163.898C124.184 164.287 124.074 164.722 124.07 165.163C124.067 165.605 124.171 166.041 124.374 166.434C124.219 166.35 124.08 166.274 123.969 166.211C123.541 165.51 122.884 164.978 122.11 164.706C121.28 164.566 120.786 165.475 121.224 166.254C121.674 167.054 123.734 166.588 123.734 166.588C123.763 166.583 123.791 166.576 123.82 166.568L124.384 166.914H124.359C123.909 166.936 123.471 167.068 123.084 167.298C122.697 167.529 122.373 167.851 122.14 168.236C121.718 168.963 122.477 169.764 123.363 169.652C124.272 169.538 124.018 168.052 124.549 167.352C124.621 167.257 124.674 167.181 124.715 167.117L126.805 168.399L127.1 167.871C127.1 167.871 125.771 167.182 124.769 166.647C124.797 166.586 124.829 166.513 124.869 166.423C125.202 165.605 126.607 165.062 126.24 164.223C125.878 163.403 124.801 163.162 124.393 163.898Z" fill="white"/>
<path d="M241.153 251.309C240.764 251.1 240.329 250.99 239.888 250.986C239.446 250.983 239.01 251.087 238.617 251.29C238.701 251.134 238.777 250.996 238.84 250.885C239.542 250.457 240.074 249.8 240.347 249.026C240.487 248.196 239.578 247.702 238.799 248.14C237.999 248.588 238.465 250.649 238.465 250.649C238.47 250.678 238.476 250.707 238.484 250.736L238.138 251.3V251.275C238.116 250.825 237.984 250.387 237.754 250C237.524 249.613 237.202 249.289 236.817 249.055C236.089 248.633 235.288 249.392 235.4 250.278C235.514 251.187 237 250.933 237.7 251.464C237.794 251.536 237.871 251.589 237.935 251.631L236.652 253.72L237.181 254.015C237.181 254.015 237.869 252.687 238.405 251.684C238.467 251.713 238.54 251.745 238.629 251.784C239.447 252.117 239.991 253.522 240.829 253.155C241.647 252.794 241.889 251.718 241.153 251.309Z" fill="#F75959"/>
<path d="M125.401 202.61C125.051 202.879 124.772 203.23 124.587 203.632C124.403 204.034 124.32 204.474 124.344 204.916C124.237 204.775 124.144 204.649 124.066 204.545C123.963 203.73 123.582 202.976 122.988 202.409C122.288 201.942 121.465 202.568 121.545 203.458C121.627 204.37 123.696 204.791 123.696 204.791C123.725 204.799 123.754 204.805 123.783 204.809L124.157 205.356L124.132 205.35C123.712 205.186 123.259 205.127 122.811 205.18C122.364 205.232 121.936 205.393 121.565 205.65C120.881 206.14 121.246 207.181 122.1 207.443C122.976 207.713 123.353 206.252 124.128 205.828C124.228 205.771 124.312 205.728 124.375 205.683L125.755 207.709L126.24 207.348C126.24 207.348 125.311 206.176 124.617 205.276C124.669 205.232 124.728 205.176 124.797 205.111C125.436 204.501 126.942 204.583 126.95 203.667C126.957 202.767 126.073 202.106 125.401 202.61Z" fill="#F75959"/>
<path d="M171.764 258.771C171.375 258.562 170.94 258.451 170.498 258.448C170.056 258.444 169.62 258.549 169.227 258.752C169.311 258.596 169.388 258.458 169.45 258.347C170.152 257.919 170.685 257.263 170.958 256.488C171.097 255.658 170.189 255.164 169.41 255.602C168.61 256.05 169.075 258.111 169.075 258.111C169.08 258.14 169.086 258.169 169.094 258.197L168.748 258.762V258.736C168.726 258.286 168.594 257.849 168.364 257.462C168.133 257.075 167.811 256.75 167.426 256.517C166.699 256.094 165.898 256.853 166.009 257.739C166.123 258.648 167.609 258.394 168.309 258.927C168.404 258.999 168.481 259.052 168.544 259.093L167.262 261.183L167.791 261.478C167.791 261.478 168.48 260.149 169.015 259.147C169.076 259.175 169.149 259.207 169.239 259.247C170.057 259.58 170.6 260.986 171.439 260.619C172.258 260.256 172.5 259.179 171.764 258.771Z" fill="#F75959"/>
<path d="M161.274 213.594C161.087 213.994 161 214.434 161.021 214.875C161.042 215.316 161.17 215.746 161.394 216.127L160.977 215.927C160.511 215.251 159.827 214.756 159.039 214.527C158.85 214.516 158.662 214.561 158.498 214.656C158.334 214.751 158.201 214.892 158.116 215.061C158.031 215.23 157.997 215.421 158.019 215.609C158.041 215.798 158.117 215.975 158.239 216.121C158.731 216.894 160.763 216.321 160.763 216.321C160.792 216.315 160.821 216.307 160.849 216.297L161.431 216.612L161.406 216.617C160.958 216.663 160.529 216.819 160.155 217.07C159.781 217.321 159.475 217.66 159.263 218.058C158.88 218.808 159.682 219.566 160.563 219.406C161.463 219.243 161.129 217.773 161.622 217.04C161.688 216.94 161.738 216.862 161.776 216.797L163.932 217.963L164.197 217.419C164.197 217.419 162.834 216.804 161.803 216.324C161.828 216.261 161.857 216.186 161.888 216.095C162.174 215.26 163.549 214.64 163.136 213.823C162.729 213.019 161.642 212.836 161.274 213.594Z" fill="white"/>
<path d="M295.168 183.243C294.778 183.034 294.344 182.924 293.902 182.92C293.46 182.917 293.024 183.021 292.632 183.224C292.716 183.069 292.792 182.93 292.855 182.819C293.556 182.391 294.088 181.735 294.362 180.961C294.502 180.13 293.593 179.637 292.814 180.073C292.014 180.521 292.48 182.582 292.48 182.582C292.484 182.611 292.49 182.64 292.499 182.669L292.153 183.233V183.208C292.131 182.758 291.999 182.32 291.769 181.934C291.539 181.547 291.217 181.222 290.832 180.989C290.105 180.566 289.303 181.325 289.415 182.211C289.529 183.12 291.015 182.866 291.715 183.398C291.809 183.47 291.886 183.524 291.949 183.565L290.667 185.655L291.195 185.95C291.195 185.95 291.884 184.621 292.419 183.618C292.481 183.647 292.554 183.679 292.643 183.718C293.461 184.051 294.004 185.457 294.843 185.089C295.662 184.728 295.908 183.652 295.168 183.243Z" fill="#F75959"/>
<path d="M130.412 179.552C130.412 179.552 126.987 179.566 126.495 184.59C126.495 184.594 131.12 182.844 130.412 179.552Z" fill="#93BCAF"/>
<path d="M315.774 239.312C315.774 239.312 312.35 239.326 311.857 244.349C311.857 244.349 316.482 242.604 315.774 239.312Z" fill="#93BCAF"/>
<path d="M265.226 255.94C265.226 255.94 261.801 255.954 261.309 260.977C261.309 260.977 265.934 259.232 265.226 255.94Z" fill="#93BCAF"/>
<path d="M151.086 225.698C151.086 225.698 147.661 225.712 147.168 230.736C147.168 230.736 151.794 228.991 151.086 225.698Z" fill="#93BCAF"/>
<path d="M196.399 190.807C196.399 190.807 192.974 190.821 192.482 195.844C192.482 195.844 197.107 194.099 196.399 190.807Z" fill="#93BCAF"/>
<path d="M208.275 213.861C207.96 213.607 207.728 213.265 207.607 212.878C207.487 212.492 207.484 212.079 207.598 211.691C207.712 211.303 207.939 210.957 208.25 210.698C208.561 210.439 208.941 210.278 209.344 210.235C209.746 210.192 210.152 210.269 210.51 210.457C210.869 210.645 211.163 210.935 211.357 211.29C211.551 211.645 211.635 212.05 211.598 212.453C211.562 212.856 211.407 213.239 211.153 213.554C210.812 213.976 210.317 214.245 209.778 214.303C209.238 214.36 208.698 214.201 208.275 213.861Z" fill="#D14771"/>
<path d="M211.349 210.639C211.349 210.639 214.4 209.082 212.574 204.376C212.575 204.374 209.233 208.018 211.349 210.639Z" fill="#21989E"/>
<path d="M211.563 210.865C211.563 210.865 212.903 212.748 215.863 211.065C215.866 211.065 213.104 209.194 211.563 210.865Z" fill="#21989E"/>
<path d="M323.891 255.512C323.577 255.258 323.344 254.916 323.224 254.53C323.103 254.143 323.1 253.73 323.214 253.342C323.329 252.954 323.556 252.608 323.866 252.349C324.177 252.09 324.558 251.929 324.96 251.886C325.362 251.843 325.768 251.92 326.127 252.108C326.485 252.296 326.78 252.586 326.973 252.941C327.167 253.296 327.251 253.701 327.215 254.104C327.178 254.507 327.023 254.89 326.769 255.205C326.601 255.414 326.392 255.588 326.156 255.717C325.92 255.846 325.661 255.927 325.394 255.955C325.127 255.984 324.856 255.959 324.598 255.883C324.341 255.807 324.1 255.681 323.891 255.512Z" fill="#D14771"/>
<path d="M326.964 252.289C326.964 252.289 330.014 250.732 328.188 246.027C328.189 246.028 324.848 249.67 326.964 252.289Z" fill="#21989E"/>
<path d="M327.179 252.519C327.179 252.519 328.52 254.402 331.479 252.719C331.482 252.719 328.72 250.846 327.179 252.519Z" fill="#21989E"/>
<path d="M166.276 183.221C166.005 183.521 165.65 183.733 165.257 183.831C164.865 183.929 164.452 183.909 164.071 183.772C163.69 183.636 163.358 183.39 163.117 183.065C162.876 182.739 162.737 182.35 162.717 181.946C162.698 181.542 162.798 181.141 163.006 180.794C163.214 180.447 163.521 180.169 163.887 179.996C164.253 179.824 164.661 179.763 165.062 179.823C165.462 179.882 165.836 180.059 166.135 180.331C166.537 180.695 166.778 181.205 166.804 181.747C166.831 182.289 166.641 182.819 166.276 183.221Z" fill="#D14771"/>
<path d="M163.235 179.967C163.235 179.967 161.857 176.833 157.054 178.384C157.054 178.384 160.499 181.929 163.235 179.967Z" fill="#21989E"/>
<path d="M163.474 179.767C163.474 179.767 165.431 178.536 163.921 175.482C163.922 175.482 161.894 178.132 163.474 179.767Z" fill="#21989E"/>
<path d="M109.024 240.216C108.709 239.961 108.477 239.619 108.356 239.233C108.236 238.847 108.233 238.433 108.347 238.045C108.462 237.657 108.689 237.312 108.999 237.052C109.31 236.793 109.691 236.632 110.093 236.589C110.496 236.547 110.902 236.624 111.26 236.812C111.618 237 111.913 237.29 112.107 237.645C112.3 238.001 112.384 238.406 112.347 238.809C112.311 239.212 112.156 239.595 111.901 239.91C111.56 240.331 111.065 240.601 110.526 240.658C109.987 240.715 109.446 240.556 109.024 240.216Z" fill="#D14771"/>
<path d="M112.099 236.994C112.099 236.994 115.15 235.437 113.324 230.731C113.325 230.731 109.981 234.374 112.099 236.994Z" fill="#21989E"/>
<path d="M112.314 237.222C112.314 237.222 113.654 239.105 116.614 237.422C116.617 237.422 113.854 235.551 112.314 237.222Z" fill="#21989E"/>
<path d="M324.293 199.179C324.065 199.513 323.743 199.772 323.368 199.923C322.992 200.074 322.581 200.11 322.185 200.028C321.789 199.945 321.426 199.746 321.143 199.458C320.859 199.169 320.668 198.802 320.593 198.405C320.518 198.007 320.563 197.596 320.721 197.224C320.879 196.852 321.145 196.535 321.483 196.313C321.822 196.091 322.219 195.975 322.623 195.979C323.028 195.983 323.422 196.107 323.756 196.335C323.978 196.486 324.168 196.68 324.316 196.905C324.463 197.13 324.564 197.381 324.614 197.645C324.664 197.909 324.661 198.181 324.606 198.444C324.551 198.707 324.445 198.957 324.293 199.179Z" fill="#D14771"/>
<path d="M320.834 196.375C320.834 196.375 319.034 193.46 314.493 195.658C314.493 195.66 318.393 198.695 320.834 196.375Z" fill="#21989E"/>
<path d="M321.044 196.144C321.044 196.144 322.814 194.656 320.898 191.844C320.898 191.839 319.253 194.743 321.044 196.144Z" fill="#21989E"/>
<path d="M282.827 223.174C282.434 223.27 282.021 223.248 281.641 223.11C281.261 222.971 280.93 222.723 280.691 222.397C280.451 222.071 280.314 221.681 280.296 221.277C280.278 220.873 280.381 220.472 280.59 220.126C280.8 219.78 281.108 219.504 281.474 219.333C281.841 219.162 282.25 219.103 282.65 219.164C283.05 219.226 283.423 219.404 283.721 219.677C284.02 219.95 284.23 220.306 284.327 220.699C284.391 220.96 284.403 221.231 284.363 221.497C284.322 221.762 284.229 222.017 284.09 222.247C283.951 222.477 283.767 222.677 283.551 222.836C283.334 222.995 283.088 223.11 282.827 223.174Z" fill="#D14771"/>
<path d="M282.123 218.777C282.123 218.777 282.732 215.406 277.881 214.009C277.881 214.009 278.757 218.874 282.123 218.777Z" fill="#21989E"/>
<path d="M282.435 218.745C282.435 218.745 284.746 218.819 285.2 215.445C285.199 215.441 282.038 216.506 282.435 218.745Z" fill="#21989E"/>
<path d="M277.201 175.766C277.201 175.766 276.925 171.976 271.326 171.814C271.329 171.814 273.614 176.8 277.201 175.766Z" fill="#21989E"/>
<path d="M294.656 239.654C294.656 239.654 294.38 235.864 288.781 235.702C288.776 235.702 291.066 240.688 294.656 239.654Z" fill="#21989E"/>
<path d="M342.432 244.405C342.432 244.405 342.155 240.615 336.557 240.453C336.557 240.453 338.84 245.439 342.432 244.405Z" fill="#21989E"/>
<path d="M174.975 231.615C174.975 231.615 177.991 229.302 175.054 224.534C175.054 224.534 172.14 229.181 174.975 231.615Z" fill="#21989E"/>
<path d="M124.835 251.084C124.835 251.084 128.576 250.414 128.154 244.829C128.155 244.829 123.433 247.62 124.835 251.084Z" fill="#21989E"/>
<path d="M215.805 190.698C215.805 190.698 218.821 188.386 215.883 183.618C215.883 183.618 212.97 188.265 215.805 190.698Z" fill="#21989E"/>
</g>
<defs>
<clipPath id="clip0">
<rect width="435.971" height="327.5" fill="white" transform="translate(0.623047)"/>
</clipPath>
</defs>
</svg>
