<svg width="41" height="56" viewBox="0 0 41 56" fill="none" xmlns="http://www.w3.org/2000/svg">
<path d="M24.9361 41.7305H16.6611V50.9985H24.9361V41.7305Z" fill="#FDCC9B"/>
<path d="M16.6621 42.8225C19.1769 44.2349 22.0691 44.8291 24.9371 44.5225V41.7305H16.6621V42.8225Z" fill="#FCBC85"/>
<path d="M4.72891 31.9656C6.95903 31.9656 8.76691 29.9029 8.76691 27.3585C8.76691 24.8141 6.95903 22.7515 4.72891 22.7515C2.49879 22.7515 0.690918 24.8141 0.690918 27.3585C0.690918 29.9029 2.49879 31.9656 4.72891 31.9656Z" fill="#FCBC85"/>
<path d="M36.87 31.9656C39.1001 31.9656 40.908 29.9029 40.908 27.3585C40.908 24.8141 39.1001 22.7515 36.87 22.7515C34.6399 22.7515 32.832 24.8141 32.832 27.3585C32.832 29.9029 34.6399 31.9656 36.87 31.9656Z" fill="#FCBC85"/>
<path d="M36.8538 18.5594C36.8538 11.7734 31.8888 6.80835 20.7998 6.80835C9.7108 6.80835 4.7448 11.7734 4.7448 18.5594C4.7448 25.3454 3.58681 43.2243 20.7988 43.2243C38.0108 43.2243 36.8538 25.3454 36.8538 18.5594Z" fill="#FDCC9B"/>
<path d="M12.9797 28.1583C13.9396 28.1583 14.7177 27.3063 14.7177 26.2553C14.7177 25.2043 13.9396 24.3523 12.9797 24.3523C12.0198 24.3523 11.2417 25.2043 11.2417 26.2553C11.2417 27.3063 12.0198 28.1583 12.9797 28.1583Z" fill="#3B2519"/>
<path d="M12.2226 25.9353C12.5098 25.9353 12.7426 25.7025 12.7426 25.4153C12.7426 25.1281 12.5098 24.8953 12.2226 24.8953C11.9354 24.8953 11.7026 25.1281 11.7026 25.4153C11.7026 25.7025 11.9354 25.9353 12.2226 25.9353Z" fill="white"/>
<path d="M10.1986 21.5394C11.0206 21.9504 12.3396 20.1394 15.3606 21.7154C15.9116 22.0024 16.2396 19.2644 13.0026 19.2644C10.1986 19.2634 9.70262 21.2914 10.1986 21.5394Z" fill="#51362A"/>
<path d="M28.8327 28.1583C29.7926 28.1583 30.5707 27.3063 30.5707 26.2553C30.5707 25.2043 29.7926 24.3523 28.8327 24.3523C27.8729 24.3523 27.0947 25.2043 27.0947 26.2553C27.0947 27.3063 27.8729 28.1583 28.8327 28.1583Z" fill="#3B2519"/>
<path d="M28.0757 25.9353C28.3629 25.9353 28.5957 25.7025 28.5957 25.4153C28.5957 25.1281 28.3629 24.8953 28.0757 24.8953C27.7885 24.8953 27.5557 25.1281 27.5557 25.4153C27.5557 25.7025 27.7885 25.9353 28.0757 25.9353Z" fill="white"/>
<path d="M31.3987 21.5394C30.5767 21.9504 29.2577 20.1394 26.2367 21.7154C25.6857 22.0024 25.3577 19.2644 28.5957 19.2644C31.3987 19.2634 31.8947 21.2914 31.3987 21.5394Z" fill="#51362A"/>
<path d="M20.7999 32.9504C19.0829 32.9504 18.0479 31.6674 18.0479 32.2884C18.0479 32.9094 18.5479 34.0884 20.7999 34.0884C23.0519 34.0884 23.5518 32.9094 23.5518 32.2884C23.5518 31.6674 22.5169 32.9504 20.7999 32.9504Z" fill="#FCBC85"/>
<path d="M20.7987 38.6564C20.2047 38.6564 19.8467 38.2125 19.8467 38.4274C19.8467 38.6424 20.0187 39.0493 20.7987 39.0493C21.5787 39.0493 21.7507 38.6414 21.7507 38.4274C21.7507 38.2135 21.3927 38.6564 20.7987 38.6564Z" fill="#FCBC85"/>
<path d="M20.8 37.0753C18.078 37.0753 16.438 35.9673 16.438 36.2483C16.438 36.5293 17.225 37.6343 20.8 37.6343C24.375 37.6343 25.162 36.5293 25.162 36.2483C25.162 35.9673 23.521 37.0753 20.8 37.0753Z" fill="#F7945E"/>
<path d="M20.7989 45.4543V55.8813H0.690918C0.690918 51.6603 11.2829 45.4543 20.7989 45.4543Z" fill="#B6CF0B"/>
<path d="M20.7988 45.4543V55.8813H40.9068C40.9068 51.6603 30.3158 45.4543 20.7988 45.4543Z" fill="#CDE90C"/>
<path d="M20.7989 45.4543C18.7406 45.4702 16.6913 45.7273 14.6929 46.2204C15.4475 47.1065 16.3825 47.8213 17.4355 48.3171C18.4885 48.8129 19.6351 49.0783 20.7989 49.0955C23.1972 49.0268 25.4709 48.0115 27.1229 46.2714C25.0555 45.7452 22.9321 45.4709 20.7989 45.4543Z" fill="#0706A9"/>
<path d="M16.6611 45.8143C17.8218 46.784 19.2862 47.3152 20.7986 47.3152C22.3111 47.3152 23.7755 46.784 24.9362 45.8143C22.2505 44.919 19.3468 44.919 16.6611 45.8143Z" fill="#FDCC9B"/>
<path d="M33.9977 5.36037C33.9977 5.36037 28.0397 -2.21163 15.6567 0.643374C3.27375 3.49837 2.34475 10.9464 2.71675 18.1924C3.08875 25.4384 4.08175 29.6924 5.25675 29.1644C6.43175 28.6364 5.81975 23.8554 5.94375 22.7514C6.06775 21.6474 7.18475 16.6514 14.7167 17.4004C19.4336 17.8013 24.1797 17.1221 28.5947 15.4144C28.5947 15.4144 31.1497 18.6434 32.8307 19.2624C36.1907 20.4984 35.0887 28.7414 36.4047 28.7414C37.7207 28.7414 44.1757 9.70437 33.9977 5.36037Z" fill="#51362A"/>
</svg>
