<svg width="95" height="95" viewBox="0 0 95 95" fill="none" xmlns="http://www.w3.org/2000/svg">
<g clip-path="url(#clip0)">
<path d="M94.384 47.2644C94.384 56.5299 91.6364 65.5873 86.4887 73.2913C81.3411 80.9952 74.0245 86.9997 65.4643 90.5454C56.9041 94.0911 47.4846 95.0188 38.3972 93.2111C29.3097 91.4035 20.9624 86.9416 14.4108 80.3899C7.85915 73.8381 3.39748 65.4907 1.58999 56.4032C-0.217496 47.3157 0.710373 37.8963 4.25626 29.3362C7.80216 20.776 13.8068 13.4596 21.5109 8.31213C29.215 3.16464 38.2725 0.417283 47.538 0.41748C59.9624 0.417746 71.8778 5.35351 80.6631 14.139C89.4484 22.9245 94.384 34.84 94.384 47.2644Z" fill="#DEDEDE"/>
<path d="M84.6908 47.2635C84.6908 54.6119 82.5118 61.7952 78.4293 67.9052C74.3467 74.0151 68.5441 78.7772 61.7551 81.5893C54.966 84.4014 47.4956 85.1372 40.2884 83.7036C33.0813 82.27 26.4611 78.7314 21.265 73.5353C16.0689 68.3393 12.5303 61.7191 11.0967 54.5119C9.66314 47.3047 10.3989 39.8343 13.211 33.0453C16.0231 26.2563 20.7852 20.4536 26.8952 16.3711C33.0051 12.2885 40.1885 10.1095 47.5368 10.1095C57.3907 10.1095 66.8409 14.0239 73.8087 20.9917C80.7764 27.9594 84.6908 37.4096 84.6908 47.2635Z" fill="#0706A9"/>
<path d="M71.7677 42.4175C71.7677 43.0539 71.8931 43.684 72.1366 44.272C72.3801 44.8599 72.7371 45.3941 73.1871 45.8441C73.6371 46.2941 74.1713 46.6511 74.7592 46.8946C75.3472 47.1381 75.9773 47.2635 76.6137 47.2635H68.5367C67.2515 47.2635 66.0189 47.774 65.1101 48.6828C64.2013 49.5916 63.6907 50.8242 63.6907 52.1095C63.6907 53.3947 64.2013 54.6273 65.1101 55.5361C66.0189 56.4449 67.2515 56.9555 68.5367 56.9555H55.6137C54.3285 56.9555 53.0959 57.466 52.1871 58.3748C51.2783 59.2836 50.7677 60.5162 50.7677 61.8015C50.7677 63.0867 51.2783 64.3193 52.1871 65.2281C53.0959 66.1369 54.3285 66.6475 55.6137 66.6475H42.6907C41.4055 66.6475 40.1729 67.158 39.2641 68.0668C38.3553 68.9756 37.8447 70.2082 37.8447 71.4935C37.8447 72.7787 38.3553 74.0113 39.2641 74.9201C40.1729 75.8289 41.4055 76.3395 42.6907 76.3395H45.5637C44.9508 77.0101 44.5403 77.8406 44.3799 78.7348C44.2195 79.6291 44.3157 80.5505 44.6574 81.3923C44.999 82.2342 45.5722 82.962 46.3104 83.4916C47.0486 84.0211 47.9218 84.3307 48.8287 84.3845C54.4203 84.1888 59.8955 82.7328 64.8456 80.1252C69.7958 77.5175 74.0931 73.8256 77.4168 69.3249C80.7406 64.8241 83.0049 59.6309 84.0409 54.1326C85.0769 48.6344 84.8577 42.9732 83.3997 37.5715H76.6147C75.3295 37.5715 74.0969 38.082 73.1881 38.9908C72.2793 39.8996 71.7687 41.1322 71.7687 42.4175H71.7677Z" fill="#070676"/>
<path d="M10.3828 39.1875C10.3851 39.9098 10.5505 40.6222 10.8668 41.2715C11.1971 39.2409 11.6972 37.2415 12.3618 35.2945C11.749 35.742 11.2504 36.3278 10.9066 37.0042C10.5627 37.6807 10.3832 38.4287 10.3828 39.1875Z" fill="#E4E4E2"/>
<path d="M36.2297 57.5545C36.1037 52.1545 33.9407 47.5545 30.9107 45.3775C30.6057 43.5396 29.8513 41.8056 28.7146 40.3295C27.5779 38.8535 26.0942 37.6811 24.3952 36.9167C22.6963 36.1522 20.8348 35.8194 18.9762 35.9478C17.1176 36.0761 15.3196 36.6617 13.7418 37.6524C12.1641 38.6431 10.8556 40.0083 9.93259 41.6266C9.00961 43.2449 8.50075 45.0661 8.45126 46.9285C8.40176 48.7908 8.81317 50.6365 9.6489 52.3016C10.4846 53.9666 11.7188 55.3994 13.2417 56.4725C12.3614 57.5598 11.8605 58.9049 11.8152 60.3032C11.7699 61.7014 12.1828 63.0761 12.9908 64.2181C13.7989 65.3601 14.958 66.2068 16.2916 66.6292C17.6253 67.0517 19.0605 67.0269 20.3787 66.5585C22.1057 69.6285 24.6787 71.5665 27.5167 71.4965C32.5107 71.3755 36.3987 65.1355 36.2257 57.5545H36.2297Z" fill="#CDE90C"/>
<path d="M68.5378 18.1865C68.5433 17.0508 68.149 15.9495 67.4242 15.0752C66.6993 14.201 65.69 13.6096 64.573 13.4047C63.456 13.1998 62.3025 13.3943 61.3144 13.9542C60.3264 14.5142 59.5669 15.4039 59.1688 16.4675C55.6374 14.828 51.633 14.5174 47.891 15.5927C44.149 16.668 40.9205 19.0571 38.7982 22.3213C36.6759 25.5855 35.8023 29.5057 36.3378 33.3622C36.8734 37.2186 38.782 40.7525 41.7134 43.315C44.6448 45.8774 48.4021 47.2964 52.2956 47.3115C56.189 47.3265 59.9572 45.9366 62.9083 43.3969C65.8594 40.8572 67.7954 37.3382 68.3607 33.486C68.926 29.6338 68.0828 25.707 65.9858 22.4265C66.7546 22.0162 67.3978 21.4053 67.8471 20.6587C68.2964 19.9122 68.5351 19.0578 68.5378 18.1865Z" fill="#F9F9F9"/>
<path d="M60.4611 31.1105C60.4611 32.708 59.9874 34.2696 59.0999 35.5978C58.2124 36.9261 56.951 37.9614 55.4751 38.5727C53.9992 39.184 52.3752 39.344 50.8084 39.0323C49.2416 38.7207 47.8024 37.9514 46.6728 36.8218C45.5432 35.6922 44.774 34.253 44.4623 32.6863C44.1507 31.1195 44.3106 29.4955 44.922 28.0196C45.5333 26.5437 46.5685 25.2822 47.8968 24.3947C49.225 23.5072 50.7866 23.0335 52.3841 23.0335C54.5263 23.0335 56.5807 23.8845 58.0954 25.3992C59.6102 26.9139 60.4611 28.9684 60.4611 31.1105Z" fill="#FD9226"/>
<path d="M10.8691 41.2755C11.1996 39.245 11.699 37.2458 12.3621 35.2985C11.699 37.2458 11.1996 39.245 10.8691 41.2755Z" fill="#FBB540"/>
<path d="M29.1417 35.9785C29.1417 36.9369 28.8575 37.8739 28.325 38.6708C27.7925 39.4677 27.0357 40.0888 26.1502 40.4556C25.2647 40.8224 24.2903 40.9184 23.3503 40.7314C22.4103 40.5444 21.5468 40.0829 20.8691 39.4051C20.1913 38.7274 19.7298 37.8639 19.5428 36.9239C19.3558 35.9839 19.4518 35.0095 19.8186 34.124C20.1854 33.2385 20.8065 32.4817 21.6034 31.9492C22.4003 31.4167 23.3373 31.1325 24.2957 31.1325C25.5809 31.1325 26.8135 31.6431 27.7223 32.5519C28.6311 33.4607 29.1417 34.6933 29.1417 35.9785Z" fill="#E4AC5A"/>
<path d="M24.2961 40.8255C24.9515 40.8251 25.6 40.6909 26.2018 40.4313C26.8036 40.1717 27.3461 39.792 27.7961 39.3155C26.7155 38.2053 25.4157 37.332 23.9794 36.7512C22.5431 36.1703 21.0017 35.8946 19.4531 35.9415V35.9805C19.4531 37.2648 19.963 38.4967 20.8707 39.4053C21.7784 40.314 23.0097 40.8251 24.2941 40.8265L24.2961 40.8255Z" fill="#9FB464"/>
<path d="M54.3231 83.7705L58.4321 76.6325L54.787 73.4325L48.248 78.4415L54.3231 83.7705Z" fill="#FD9226"/>
<path d="M52.627 75.0945C52.8228 76.0228 53.311 76.8639 54.0199 77.4945C54.9286 78.2778 56.1102 78.67 57.3069 78.5855L58.4379 76.6275L54.7899 73.4275L52.627 75.0945Z" fill="#EE8A24"/>
<path d="M83.0761 50.9725L76.5371 55.9815L72.8921 52.7815L77.0021 45.6435L83.0761 50.9725Z" fill="#FD9226"/>
<path d="M77.6597 50.5305C76.871 49.8459 75.8688 49.4571 74.8247 49.4305L72.8857 52.7875L76.5367 55.9875L79.1747 53.9665C79.1795 53.3192 79.047 52.6782 78.7858 52.086C78.5247 51.4937 78.1409 50.9635 77.6597 50.5305Z" fill="#EE8A24"/>
<path d="M44.3067 75.1775L20.0757 50.9465L44.3067 50.5465V75.1775Z" fill="#E4AC5A"/>
<path d="M34.7147 65.5855C35.8016 63.0517 36.3188 60.3101 36.2297 57.5545C36.1866 55.2037 35.712 52.8808 34.8297 50.7015L20.0757 50.9465L34.7147 65.5855Z" fill="#9FB464"/>
<path d="M42.691 76.3415L18.46 52.1065L42.691 51.7065V76.3415Z" fill="#FBD699"/>
<path d="M39.762 73.4135V55.0345L21.689 55.3345L39.762 73.4135Z" fill="#F0CD93"/>
<path d="M37.8448 81.1875L13.6138 56.9525L37.8448 56.5525V81.1875Z" fill="#FBD699"/>
<path d="M76.601 51.7405C77.5005 52.5286 78.0749 53.623 78.2126 54.8109C78.3503 55.9988 78.0414 57.1956 77.346 58.1685C72.7592 64.5949 67.5423 70.5474 61.773 75.9375C60.8384 76.8093 59.5957 77.2741 58.3184 77.2296C57.0411 77.1852 55.8338 76.6351 54.962 75.7005C54.0903 74.7659 53.6255 73.5232 53.6699 72.2459C53.7144 70.9686 54.2644 69.7613 55.199 68.8895L56.675 67.5095C60.9927 63.4763 64.8973 59.0226 68.331 54.2145L69.511 52.5745C69.9021 52.0263 70.4037 51.5661 70.9835 51.2236C71.5632 50.881 72.2083 50.6637 72.8772 50.5856C73.546 50.5075 74.2238 50.5704 74.8669 50.7701C75.51 50.9699 76.1041 51.3022 76.611 51.7455L76.601 51.7405Z" fill="#FD9226"/>
<path d="M15.2077 44.0325C16.4929 44.0325 17.7255 43.5219 18.6343 42.6131C19.5431 41.7043 20.0537 40.4717 20.0537 39.1864C20.0537 37.9012 19.5431 36.6686 18.6343 35.7598C17.7255 34.851 16.4929 34.3405 15.2077 34.3405C14.1846 34.3433 13.1893 34.6738 12.3677 35.2834C11.7011 37.2381 11.1994 39.2451 10.8677 41.2834C11.258 42.1045 11.8729 42.7981 12.6411 43.2841C13.4094 43.7701 14.2996 44.0285 15.2087 44.0294L15.2077 44.0325Z" fill="#E4AC5A"/>
<path d="M10.6167 40.5995C10.8245 41.2937 11.1858 41.9322 11.6738 42.4679C12.1618 43.0035 12.764 43.4226 13.4359 43.694C14.1078 43.9654 14.8321 44.0822 15.5552 44.0358C16.2783 43.9894 16.9818 43.7809 17.6134 43.4259C18.2451 43.0708 18.7888 42.5782 19.2043 41.9846C19.6199 41.3909 19.8965 40.7114 20.0139 39.9964C20.1313 39.2813 20.0863 38.5491 19.8824 37.8537C19.6784 37.1584 19.3207 36.5179 18.8357 35.9795C17.2142 36.1135 15.6406 36.5956 14.2222 37.3929C12.8039 38.1902 11.5741 39.2839 10.6167 40.5995Z" fill="#9FB464"/>
<path d="M21.691 40.8025C21.691 41.7609 21.4068 42.6979 20.8743 43.4948C20.3418 44.2917 19.585 44.9128 18.6995 45.2796C17.814 45.6464 16.8397 45.7424 15.8996 45.5554C14.9596 45.3684 14.0961 44.9069 13.4184 44.2291C12.7407 43.5514 12.2791 42.6879 12.0921 41.7479C11.9052 40.8079 12.0011 39.8335 12.3679 38.948C12.7347 38.0625 13.3558 37.3057 14.1527 36.7732C14.9497 36.2407 15.8866 35.9565 16.845 35.9565C18.1303 35.9565 19.3629 36.467 20.2717 37.3758C21.1805 38.2846 21.691 39.5172 21.691 40.8025Z" fill="#F55648"/>
<path d="M17.9571 24.7935C16.0805 27.2559 14.5194 29.9435 13.3101 32.7935C13.8244 33.3471 14.4614 33.7724 15.1699 34.0354C15.8783 34.2984 16.6386 34.3917 17.3896 34.3078C18.1406 34.224 18.8616 33.9652 19.4945 33.5524C20.1275 33.1396 20.655 32.5842 21.0345 31.9308C21.4141 31.2773 21.6353 30.544 21.6803 29.7896C21.7253 29.0353 21.5928 28.2809 21.2936 27.5869C20.9944 26.893 20.5367 26.2788 19.9573 25.7937C19.3779 25.3086 18.6928 24.966 17.9571 24.7935Z" fill="#E4AC5A"/>
<path d="M31.3829 37.5715C31.3829 38.5299 31.0987 39.4668 30.5662 40.2638C30.0337 41.0607 29.2769 41.6818 28.3914 42.0486C27.5059 42.4154 26.5315 42.5113 25.5915 42.3244C24.6515 42.1374 23.788 41.6758 23.1103 40.9981C22.4326 40.3204 21.971 39.4569 21.784 38.5169C21.5971 37.5768 21.693 36.6025 22.0598 35.717C22.4266 34.8315 23.0477 34.0746 23.8446 33.5422C24.6415 33.0097 25.5785 32.7255 26.5369 32.7255C27.8222 32.7255 29.0548 33.236 29.9636 34.1448C30.8724 35.0536 31.3829 36.2862 31.3829 37.5715Z" fill="#FD7422"/>
<path d="M16.8449 24.6485C15.901 24.6457 14.9769 24.9196 14.1868 25.4362C13.3967 25.9527 12.7752 26.6894 12.3991 27.5552C12.023 28.421 11.9087 29.3781 12.0704 30.3081C12.2321 31.2381 12.6627 32.1004 13.3089 32.7885C14.5183 29.9385 16.0794 27.2509 17.9559 24.7885C17.5922 24.6994 17.2194 24.6524 16.8449 24.6485Z" fill="#E4E4E2"/>
<path d="M23.3058 31.1095C23.3058 32.0679 23.0216 33.0049 22.4891 33.8018C21.9566 34.5987 21.1997 35.2198 20.3143 35.5866C19.4288 35.9534 18.4544 36.0494 17.5144 35.8624C16.5743 35.6754 15.7109 35.2139 15.0331 34.5361C14.3554 33.8584 13.8939 32.9949 13.7069 32.0549C13.5199 31.1149 13.6159 30.1405 13.9827 29.255C14.3494 28.3695 14.9706 27.6127 15.7675 27.0802C16.5644 26.5477 17.5013 26.2635 18.4598 26.2635C19.745 26.2635 20.9776 26.774 21.8864 27.6828C22.7952 28.5916 23.3058 29.8242 23.3058 31.1095Z" fill="#F55648"/>
</g>
<defs>
<clipPath id="clip0">
<rect width="93.693" height="93.6929" fill="white" transform="translate(0.690918 0.41748)"/>
</clipPath>
</defs>
</svg>
