<svg width="87" height="102" viewBox="0 0 87 102" fill="none" xmlns="http://www.w3.org/2000/svg">
<g clip-path="url(#clip0)">
<path d="M35.5007 24.8565V7.07645C35.4974 7.00714 35.5146 6.93839 35.5502 6.87881C35.5858 6.81923 35.6381 6.77145 35.7007 6.74145L44.3647 3.52545C44.727 3.37828 45.0179 3.09595 45.1757 2.73817C45.3336 2.3804 45.3461 1.97525 45.2106 1.60841C45.0752 1.24157 44.8023 0.941819 44.4498 0.772556C44.0972 0.603294 43.6927 0.577795 43.3217 0.701454L34.6547 3.91745C34.0166 4.16277 33.4681 4.59625 33.082 5.16043C32.6959 5.7246 32.4904 6.39281 32.4927 7.07645V24.8565H35.5007Z" fill="#CDE90C"/>
<path d="M57.8388 30.0334H9.96582L17.4418 94.5654C17.4901 95.051 17.7153 95.5019 18.0745 95.8321C18.4338 96.1624 18.9019 96.349 19.3898 96.3564H48.4148C48.9027 96.349 49.3709 96.1624 49.7301 95.8321C50.0893 95.5019 50.3145 95.051 50.3628 94.5654L57.8388 30.0334Z" fill="#F3E8D7"/>
<path d="M19.539 30.8954H10.064L17.44 94.5674C17.4883 95.053 17.7135 95.5039 18.0727 95.8341C18.4319 96.1644 18.9001 96.351 19.388 96.3584H23.959L19.539 30.8954Z" fill="#0706A9"/>
<path d="M30.5868 96.3564H37.2158L38.6888 30.8954H29.1138L30.5868 96.3564Z" fill="#0706A9"/>
<path d="M57.7387 30.8954H48.2637L43.8447 96.3564H48.4147C48.9026 96.349 49.3708 96.1624 49.73 95.8321C50.0892 95.5019 50.3144 95.051 50.3627 94.5654L57.7387 30.8954Z" fill="#0706A9"/>
<path d="M52.8769 20.9594H14.9259C14.6598 20.9629 14.4032 21.0586 14.1998 21.2303C13.9965 21.4019 13.859 21.6387 13.8109 21.9004L12.0679 30.6524H55.7349L53.9929 21.9004C53.9443 21.6388 53.8066 21.402 53.6031 21.2304C53.3997 21.0588 53.143 20.9631 52.8769 20.9594Z" fill="#F3E8D7"/>
<path d="M41.5109 24.1684H13.3589L12.0679 30.6535H54.8859L55.5939 29.9305L53.9939 21.9015C53.9455 21.6397 53.8078 21.4028 53.6043 21.2312C53.4008 21.0596 53.1441 20.9639 52.8779 20.9604H42.3859L42.7389 22.6785C42.7748 22.8594 42.7702 23.0461 42.7253 23.225C42.6804 23.404 42.5964 23.5707 42.4794 23.7133C42.3623 23.8559 42.2151 23.9708 42.0483 24.0496C41.8815 24.1285 41.6994 24.1694 41.5149 24.1695L41.5109 24.1684Z" fill="#DDD1C3"/>
<path d="M59.2441 34.8884H8.5561C8.10355 34.8882 7.66962 34.7082 7.34971 34.3881C7.0298 34.068 6.8501 33.634 6.8501 33.1814V28.5154C6.85036 28.0631 7.03022 27.6295 7.35013 27.3098C7.67003 26.99 8.10381 26.8104 8.5561 26.8104H59.2441C59.4682 26.8103 59.6902 26.8543 59.8973 26.94C60.1044 27.0257 60.2925 27.1513 60.4511 27.3098C60.6096 27.4682 60.7353 27.6563 60.8211 27.8633C60.9069 28.0704 60.9511 28.2923 60.9511 28.5164V33.1824C60.9508 33.635 60.7709 34.0689 60.4508 34.3888C60.1307 34.7087 59.6967 34.8884 59.2441 34.8884Z" fill="#F3E8D7"/>
<path d="M59.2441 26.8104H49.2441V30.7014C49.2442 30.9782 49.1898 31.2522 49.084 31.5079C48.9781 31.7636 48.8229 31.9959 48.6273 32.1916C48.4316 32.3873 48.1993 32.5425 47.9436 32.6483C47.6879 32.7541 47.4138 32.8086 47.1371 32.8084H8.5561C8.10364 32.8084 7.66971 32.6287 7.34977 32.3087C7.02984 31.9888 6.8501 31.5549 6.8501 31.1024V33.1834C6.85036 33.6357 7.03022 34.0694 7.35013 34.3891C7.67003 34.7088 8.10381 34.8884 8.5561 34.8884H59.2441C59.6967 34.8884 60.1307 34.7087 60.4508 34.3888C60.7709 34.0689 60.9508 33.635 60.9511 33.1824V28.5164C60.9508 28.0639 60.7709 27.63 60.4508 27.31C60.1307 26.9901 59.6967 26.8104 59.2441 26.8104Z" fill="#DDD1C3"/>
<path d="M77.4887 77.2095H38.3227C37.6766 77.2095 37.057 77.4661 36.6002 77.923C36.1434 78.3798 35.8867 78.9994 35.8867 79.6455V84.2145H79.9227V79.6455C79.9224 78.9993 79.6656 78.3797 79.2086 77.9229C78.7516 77.4661 78.1319 77.2095 77.4857 77.2095H77.4887Z" fill="#CC2E00"/>
<path d="M77.49 77.2095H65.79C66.11 77.2093 66.4269 77.2723 66.7226 77.3946C67.0182 77.517 67.2869 77.6964 67.5132 77.9226C67.7395 78.1488 67.919 78.4174 68.0415 78.713C68.164 79.0087 68.227 79.3255 68.227 79.6455V84.2145H79.927V79.6455C79.9268 78.9993 79.6699 78.3797 79.2129 77.9229C78.7559 77.4661 78.1362 77.2095 77.49 77.2095Z" fill="#CC2E00"/>
<path d="M80.467 83.9894H35.329C34.8001 83.9894 34.2929 84.1995 33.919 84.5735C33.545 84.9474 33.335 85.4546 33.335 85.9834C33.3348 87.3451 33.6029 88.6935 34.124 89.9516C34.645 91.2097 35.4088 92.3529 36.3717 93.3157C37.3346 94.2786 38.4777 95.0424 39.7358 95.5634C40.9938 96.0845 42.3423 96.3526 43.704 96.3524H72.093C74.8419 96.3524 77.4784 95.2608 79.4228 93.3176C81.3672 91.3743 82.4604 88.7384 82.462 85.9894C82.462 85.4606 82.2519 84.9534 81.8779 84.5795C81.504 84.2055 80.9968 83.9955 80.468 83.9955L80.467 83.9894Z" fill="#EFA335"/>
<path d="M80.4668 83.9894H70.7578V87.9785C70.7579 89.0782 70.5414 90.1672 70.1206 91.1832C69.6998 92.1992 69.083 93.1224 68.3054 93.9001C67.5278 94.6777 66.6046 95.2945 65.5885 95.7153C64.5725 96.1361 63.4835 96.3526 62.3838 96.3524H72.0918C74.841 96.353 77.4779 95.2616 79.4226 93.3182C81.3673 91.3749 82.4605 88.7387 82.4618 85.9894C82.4626 85.727 82.4116 85.467 82.3116 85.2243C82.2117 84.9816 82.0649 84.761 81.8795 84.5752C81.6942 84.3894 81.474 84.242 81.2316 84.1415C80.9891 84.041 80.7292 83.9893 80.4668 83.9894Z" fill="#FD8F31"/>
<path d="M34.9781 72.5884C33.8781 74.3314 34.8841 78.2724 36.2591 78.2724H63.7281C64.1743 78.2723 64.6059 78.4315 64.9451 78.7214L68.8451 82.0614C69.3938 82.5316 70.1006 82.7759 70.8225 82.7449C71.5445 82.7139 72.2277 82.4099 72.7341 81.8944L75.7441 78.8315C75.9181 78.6543 76.1257 78.5136 76.3548 78.4177C76.5838 78.3217 76.8297 78.2723 77.0781 78.2724H79.4781C80.4091 78.2724 81.2831 77.0814 81.2831 75.6894C81.3266 74.6442 81.2082 73.5985 80.9321 72.5894L34.9781 72.5884Z" fill="#FCCF3F"/>
<path d="M84.1909 95.8154H2.80692C2.24572 95.8154 1.70751 96.0384 1.31068 96.4352C0.913853 96.832 0.690918 97.3702 0.690918 97.9314L0.690918 99.3024C0.690918 99.8636 0.913853 100.402 1.31068 100.799C1.70751 101.196 2.24572 101.418 2.80692 101.418H84.1909C84.7521 101.418 85.2903 101.196 85.6872 100.799C86.084 100.402 86.3069 99.8636 86.3069 99.3024V97.9314C86.3069 97.3702 86.084 96.832 85.6872 96.4352C85.2903 96.0384 84.7521 95.8154 84.1909 95.8154Z" fill="#CDE90C"/>
<path d="M79.127 68.1584C80.395 68.1584 81.464 70.2584 81.466 71.5844C81.466 73.4724 79.314 74.4714 76.813 74.1054C74.477 73.7644 74.448 72.6884 72.082 72.6884C69.716 72.6884 69.716 74.1054 67.351 74.1054C64.986 74.1054 64.985 72.6884 62.619 72.6884C60.253 72.6884 60.254 74.1054 57.888 74.1054C55.522 74.1054 55.523 72.6884 53.157 72.6884C50.791 72.6884 50.792 74.1054 48.426 74.1054C46.06 74.1054 46.06 72.6884 43.695 72.6884C41.33 72.6884 41.295 73.7634 38.963 74.1054C36.463 74.4714 34.309 73.4724 34.311 71.5844C34.311 70.2614 35.381 68.1584 36.649 68.1584H79.127Z" fill="#A0E557"/>
<path d="M57.899 50.0955C35.029 50.1035 33.335 65.1905 33.335 67.3275C33.335 67.8563 33.545 68.3635 33.919 68.7374C34.2929 69.1114 34.8001 69.3215 35.329 69.3215H80.467C80.9964 69.3215 81.5042 69.1116 81.8791 68.7378C82.254 68.364 82.4654 67.8568 82.467 67.3275C82.467 65.1905 80.773 50.1045 57.903 50.0955H57.899Z" fill="#EFA335"/>
<path d="M57.8989 50.0955C55.9421 50.0888 53.9871 50.2131 52.0469 50.4675C69.3649 52.8015 70.7579 65.3895 70.7579 67.3275C70.7579 67.8563 70.5478 68.3635 70.1738 68.7374C69.7999 69.1114 69.2927 69.3215 68.7639 69.3215H80.4639C80.9927 69.3215 81.4999 69.1114 81.8738 68.7374C82.2478 68.3635 82.4579 67.8563 82.4579 67.3275C82.4619 65.1905 80.7679 50.1035 57.8989 50.0955Z" fill="#FD8F31"/>
<path d="M80.4671 69.3224H69.5801V73.4794C70.3072 72.9549 71.1836 72.678 72.0801 72.6894C74.4461 72.6894 74.4801 73.7644 76.8111 74.1064C78.8811 74.4064 80.7111 73.7764 81.2801 72.4784V70.5054C81.1485 70.0823 80.9608 69.6787 80.7221 69.3054C80.6365 69.3169 80.5504 69.3229 80.4641 69.3234L80.4671 69.3224Z" fill="#93CC4A"/>
<path d="M76.813 74.1065C74.477 73.7645 74.448 72.6894 72.082 72.6894C71.1857 72.6777 70.3093 72.9543 69.582 73.4784V82.5174C70.1093 82.7423 70.692 82.8031 71.2543 82.6918C71.8166 82.5805 72.3322 82.3023 72.734 81.8935L75.744 78.8305C75.9182 78.6534 76.1258 78.5128 76.3548 78.4168C76.5839 78.3209 76.8297 78.2714 77.078 78.2714H79.478C80.41 78.2714 81.283 77.0805 81.283 75.6885C81.2958 74.7514 81.2147 73.8154 81.041 72.8945C80.293 73.9075 78.647 74.3745 76.813 74.1055V74.1065Z" fill="#EFC03C"/>
</g>
<defs>
<clipPath id="clip0">
<rect width="85.613" height="100.811" fill="white" transform="translate(0.690918 0.606445)"/>
</clipPath>
</defs>
</svg>
