<svg width="94" height="103" viewBox="0 0 94 103" fill="none" xmlns="http://www.w3.org/2000/svg">
<g clip-path="url(#clip0)">
<path d="M78.5309 46.3545C78.3309 46.3545 78.1309 46.3595 77.9309 46.3695C74.1073 46.5441 70.507 48.2205 67.9123 51.0343C65.3175 53.8482 63.9379 57.5722 64.073 61.3975C64.2082 65.2227 65.8473 68.8401 68.6342 71.4637C71.4211 74.0874 75.1307 75.5054 78.9571 75.4098C82.7835 75.3141 86.4176 73.7125 89.07 70.9529C91.7223 68.1932 93.1786 64.4984 93.1224 60.6712C93.0663 56.844 91.5022 53.1936 88.7701 50.5129C86.038 47.8322 82.3585 46.3379 78.5309 46.3545ZM78.5309 68.7305C78.1049 68.7324 77.6794 68.699 77.2589 68.6305C75.3811 68.3204 73.6819 67.3332 72.4824 65.8556C71.2829 64.3779 70.6662 62.512 70.7488 60.6106C70.8314 58.7091 71.6076 56.9038 72.9307 55.5357C74.2539 54.1676 76.0323 53.3315 77.9299 53.1855C78.1299 53.1708 78.3299 53.1635 78.5299 53.1635C80.5795 53.1867 82.5372 54.0172 83.9783 55.4747C85.4194 56.9323 86.2277 58.8993 86.2277 60.949C86.2277 62.9987 85.4194 64.9657 83.9783 66.4232C82.5372 67.8808 80.5795 68.7113 78.5299 68.7345L78.5309 68.7305Z" fill="#0706A9"/>
<path d="M70.7447 60.9455C70.7444 62.7901 71.399 64.5749 72.592 65.9818C73.785 67.3888 75.4389 68.3263 77.2587 68.6275C76.7581 70.8704 75.9773 73.0415 74.9347 75.0895C71.5391 74.2255 68.5677 72.1685 66.5637 69.2944C64.5597 66.4203 63.6568 62.921 64.0201 59.4361C64.3834 55.9511 65.9886 52.7133 68.5424 50.3143C71.0962 47.9154 74.4279 46.5155 77.9287 46.3705V53.1835C75.9739 53.3351 74.1483 54.2186 72.8165 55.6575C71.4848 57.0964 70.7449 58.9848 70.7447 60.9455Z" fill="#070676"/>
<path d="M74.1629 44.2265V62.2405C74.1922 65.8902 73.5011 69.5099 72.1292 72.8922C70.7573 76.2744 68.7316 79.3528 66.1681 81.9509C63.6047 84.549 60.5538 86.6158 57.1903 88.033C53.8267 89.4501 50.2166 90.1898 46.5668 90.2095C42.917 90.2292 39.2991 89.5287 35.9205 88.148C32.5418 86.7673 29.4688 84.7336 26.8773 82.1633C24.2859 79.5931 22.2271 76.5368 20.8187 73.1696C19.4103 69.8023 18.6801 66.1904 18.6699 62.5405V44.2265C18.6699 43.696 18.8806 43.1873 19.2557 42.8123C19.6308 42.4372 20.1395 42.2265 20.6699 42.2265H72.1579C72.421 42.2258 72.6816 42.2771 72.9248 42.3773C73.1681 42.4775 73.3891 42.6247 73.5754 42.8105C73.7616 42.9963 73.9094 43.217 74.0102 43.46C74.111 43.7029 74.1629 43.9634 74.1629 44.2265Z" fill="#0706A9"/>
<path d="M38.4959 87.0185C38.1715 87.6362 37.7923 88.2236 37.3629 88.7735C32.6855 87.1561 28.5253 84.3184 25.3125 80.5539C22.0997 76.7894 19.9511 72.2349 19.0889 67.3615C19.7734 67.6104 20.4258 67.9404 21.0319 68.3445C22.5232 69.3552 23.6924 70.7736 24.3999 72.4305C25.293 72.2894 26.1957 72.2175 27.0999 72.2155C33.3879 72.2155 38.4739 75.7045 39.4659 80.6985C39.8802 82.854 39.5375 85.0864 38.4959 87.0185Z" fill="#070676"/>
<path d="M74.1629 56.8225V62.5375C74.1189 69.8674 71.1762 76.8822 65.9775 82.0498C60.7788 87.2174 53.7465 90.1179 46.4164 90.1179C39.0863 90.1179 32.054 87.2174 26.8553 82.0498C21.6566 76.8822 18.7139 69.8674 18.6699 62.5375V56.8185C18.7139 64.1485 21.6566 71.1632 26.8553 76.3308C32.054 81.4984 39.0863 84.3989 46.4164 84.3989C53.7465 84.3989 60.7788 81.4984 65.9775 76.3308C71.1762 71.1632 74.1189 64.1485 74.1629 56.8185V56.8225Z" fill="#070676"/>
<path d="M68.6071 95.3065H24.2231V102.605H68.6071V95.3065Z" fill="#B6CF0B"/>
<path d="M35.912 82.9525C35.833 83.7745 35.5924 84.5727 35.204 85.3015C33.904 87.8015 30.952 89.8885 27.25 90.6245C21.718 91.7245 16.593 89.3875 15.8 85.4025C15.794 85.3685 15.788 85.3355 15.784 85.3025C15.074 81.3535 18.9 77.2925 24.384 76.2025C29.208 75.2465 33.723 76.9025 35.322 79.9795C35.7993 80.8939 36.0048 81.9259 35.914 82.9535L35.912 82.9525Z" fill="#E2780E"/>
<path d="M35.2042 85.3015C33.9042 87.8015 30.9522 89.8895 27.2502 90.6245C21.7192 91.7245 16.5942 89.3875 15.8022 85.4025C15.7952 85.3675 15.7902 85.3355 15.7852 85.3025L35.2042 85.3015Z" fill="#A85000"/>
<path d="M27.2439 90.6205C21.7149 91.7205 16.5899 89.3825 15.7979 85.3995C15.6929 84.8729 15.6679 84.3335 15.7239 83.7995C17.3529 86.8395 21.8389 88.4635 26.6239 87.5115C31.4089 86.5595 34.9339 83.3435 35.2769 79.9115C35.5337 80.3841 35.7175 80.8928 35.8219 81.4205C36.6189 85.4055 32.7779 89.5205 27.2439 90.6205Z" fill="#A85000"/>
<path d="M35.9127 82.9515L24.5847 85.2035C24.4859 85.2229 24.3854 85.2323 24.2847 85.2315C23.911 85.2274 23.552 85.0855 23.2765 84.8329C23.0011 84.5803 22.8287 84.2349 22.7923 83.8629C22.756 83.491 22.8584 83.1187 23.0797 82.8176C23.3011 82.5165 23.6259 82.3078 23.9917 82.2315L35.3177 79.9795C35.7957 80.893 36.0022 81.9243 35.9127 82.9515Z" fill="#A85000"/>
<path d="M19.4081 84.0054C19.1059 84.4564 18.7791 84.8904 18.4291 85.3055C15.2591 89.0415 10.6672 90.4484 7.62215 88.4104C6.53328 87.6635 5.73069 86.5687 5.34615 85.3055C4.46615 82.6055 5.06315 79.0055 7.18215 75.8395C9.91615 71.7515 14.2771 69.7294 17.5821 70.7764C18.5664 71.0846 19.441 71.67 20.1011 72.4624C22.3372 75.1154 22.1371 79.9174 19.4081 84.0054Z" fill="#E2780E"/>
<path d="M18.4297 85.3015C15.2597 89.0385 10.6667 90.4435 7.6227 88.4075C6.53356 87.6602 5.73066 86.565 5.3457 85.3015H18.4297Z" fill="#A85000"/>
<path d="M19.4075 84.0065C16.2745 88.6935 10.9985 90.6645 7.62252 88.4065C7.17495 88.108 6.7751 87.7435 6.43652 87.3255C9.73652 88.3255 14.0575 86.2995 16.7695 82.2425C19.4815 78.1855 19.6995 73.4195 17.5145 70.7505C18.0302 70.9033 18.5197 71.1332 18.9665 71.4325C22.3435 73.6895 22.5395 79.3195 19.4075 84.0065Z" fill="#A85000"/>
<path d="M20.1048 72.4635L13.6898 82.0635C13.4639 82.3918 13.1179 82.6179 12.7266 82.693C12.3352 82.7681 11.9301 82.6861 11.5987 82.4648C11.2674 82.2435 11.0365 81.9006 10.956 81.5103C10.8756 81.1201 10.952 80.7138 11.1688 80.3795L17.5828 70.7735C18.5671 71.0815 19.4417 71.6669 20.1018 72.4595L20.1048 72.4635Z" fill="#A85000"/>
<path d="M0.690918 90.7505C0.690919 91.2123 0.852025 91.6596 1.14647 92.0154C1.44091 92.3712 1.85025 92.6131 2.30392 92.6995L24.1439 96.8475H68.6889L90.5289 92.6995C90.9827 92.6133 91.3921 92.3714 91.6866 92.0156C91.9811 91.6598 92.1421 91.2123 92.1419 90.7505C92.1419 90.49 92.0906 90.2322 91.991 89.9916C91.8913 89.751 91.7452 89.5324 91.5611 89.3483C91.377 89.1641 91.1584 89.0181 90.9178 88.9184C90.6772 88.8188 90.4193 88.7675 90.1589 88.7675H2.67292C2.14725 88.768 1.64327 88.9771 1.27166 89.3489C0.900053 89.7207 0.691183 90.2248 0.690918 90.7505Z" fill="#CDE90C"/>
<path d="M74.1619 46.8045H18.6689V49.8375H74.1619V46.8045Z" fill="#CDE90C"/>
<path d="M56.8647 9.63948C56.8688 7.87982 56.424 6.14821 55.5723 4.60837C54.7207 3.06853 53.4904 1.77134 51.9977 0.839475C51.6575 0.628635 51.2477 0.560889 50.8578 0.651015C50.4678 0.74114 50.1293 0.981823 49.9161 1.32056C49.7029 1.6593 49.6323 2.0686 49.7197 2.45919C49.8072 2.84977 50.0455 3.18993 50.3827 3.40548C51.4385 4.06758 52.3089 4.98697 52.9122 6.07744C53.5155 7.16791 53.832 8.39374 53.832 9.63998C53.832 10.8862 53.5155 12.112 52.9122 13.2025C52.3089 14.293 51.4385 15.2124 50.3827 15.8745C50.1692 16.0137 49.9937 16.2039 49.8722 16.4281C49.7508 16.6522 49.6872 16.9031 49.6872 17.158C49.6872 17.4129 49.7508 17.6638 49.8722 17.8879C49.9937 18.112 50.1692 18.3023 50.3827 18.4415C51.4385 19.1036 52.3089 20.023 52.9122 21.1134C53.5155 22.2039 53.832 23.4297 53.832 24.676C53.832 25.9222 53.5155 27.148 52.9122 28.2385C52.3089 29.329 51.4385 30.2484 50.3827 30.9105C50.0423 31.1246 49.8009 31.4653 49.7117 31.8574C49.6224 32.2495 49.6926 32.6611 49.9067 33.0015C50.1209 33.3419 50.4615 33.5833 50.8537 33.6725C51.2458 33.7618 51.6573 33.6916 51.9977 33.4775C53.3376 32.6363 54.4678 31.5003 55.302 30.1561C56.1363 28.8119 56.6525 27.2949 56.8115 25.7209C56.9704 24.1468 56.7679 22.5573 56.2193 21.0734C55.6706 19.5895 54.7904 18.2505 53.6457 17.1585C54.6659 16.1903 55.4776 15.0241 56.0311 13.7311C56.5846 12.4382 56.8683 11.0459 56.8647 9.63948Z" fill="#9E9E9E"/>
<path d="M62.6701 15.8745C62.3297 15.6603 61.9181 15.5902 61.526 15.6794C61.1339 15.7687 60.7932 16.0101 60.5791 16.3505C60.3649 16.6909 60.2948 17.1024 60.384 17.4946C60.4733 17.8867 60.7147 18.2273 61.0551 18.4415C62.1109 19.1036 62.9812 20.023 63.5846 21.1134C64.1879 22.2039 64.5044 23.4297 64.5044 24.676C64.5044 25.9222 64.1879 27.148 63.5846 28.2385C62.9812 29.329 62.1109 30.2484 61.0551 30.9105C60.8865 31.0165 60.7405 31.1547 60.6254 31.3172C60.5102 31.4797 60.4282 31.6632 60.384 31.8574C60.3398 32.0516 60.3343 32.2525 60.3678 32.4488C60.4012 32.6451 60.473 32.8329 60.5791 33.0015C60.6851 33.17 60.8233 33.316 60.9858 33.4312C61.1483 33.5463 61.3318 33.6283 61.526 33.6725C61.7202 33.7167 61.9211 33.7223 62.1174 33.6888C62.3137 33.6553 62.5015 33.5835 62.6701 33.4775C64.1592 32.5421 65.3867 31.2441 66.2375 29.705C67.0883 28.1659 67.5345 26.4361 67.5345 24.6775C67.5345 22.9189 67.0883 21.1891 66.2375 19.65C65.3867 18.1109 64.1592 16.8129 62.6701 15.8775V15.8745Z" fill="#9E9E9E"/>
<path d="M40.4528 15.8735C40.1124 15.6593 39.7008 15.5891 39.3087 15.6784C38.9166 15.7677 38.576 16.0091 38.3618 16.3495C38.1476 16.6899 38.0775 17.1014 38.1667 17.4936C38.256 17.8857 38.4974 18.2263 38.8378 18.4405C39.8936 19.1026 40.764 20.022 41.3673 21.1124C41.9706 22.2029 42.2871 23.4287 42.2871 24.675C42.2871 25.9212 41.9706 27.147 41.3673 28.2375C40.764 29.328 39.8936 30.2474 38.8378 30.9095C38.6692 31.0155 38.5232 31.1537 38.4081 31.3162C38.2929 31.4787 38.2109 31.6622 38.1667 31.8564C38.1225 32.0506 38.117 32.2515 38.1505 32.4478C38.1839 32.6441 38.2558 32.8319 38.3618 33.0005C38.4678 33.169 38.606 33.315 38.7685 33.4302C38.931 33.5453 39.1145 33.6273 39.3087 33.6715C39.5029 33.7157 39.7039 33.7213 39.9002 33.6878C40.0965 33.6543 40.2842 33.5825 40.4528 33.4765C41.942 32.5411 43.1694 31.2431 44.0202 29.704C44.871 28.1649 45.3173 26.4351 45.3173 24.6765C45.3173 22.9179 44.871 21.1881 44.0202 19.649C43.1694 18.1099 41.942 16.8119 40.4528 15.8765V15.8735Z" fill="#9E9E9E"/>
</g>
<defs>
<clipPath id="clip0">
<rect width="92.431" height="102.001" fill="white" transform="translate(0.690918 0.605469)"/>
</clipPath>
</defs>
</svg>
