<svg width="79" height="84" viewBox="0 0 79 84" fill="none" xmlns="http://www.w3.org/2000/svg">
<g clip-path="url(#clip0)">
<path d="M11.115 30.4609C5.80702 25.1529 5.19302 17.1759 9.74302 12.6259L11.115 11.2539C15.665 6.70389 23.643 7.31789 28.95 12.6259C31.2726 14.9997 32.5652 18.1939 32.547 21.5149C32.5289 24.8359 31.2016 28.0158 28.8533 30.3641C26.5049 32.7125 23.3251 34.0398 20.004 34.0579C16.683 34.076 13.4889 32.7835 11.115 30.4609Z" fill="#F75B57"/>
<path d="M17.6287 17.2058C16.7948 17.2072 15.9687 17.0438 15.198 16.7252C14.4274 16.4065 13.7272 15.9388 13.1377 15.3488C12.9984 15.2095 12.8879 15.0441 12.8125 14.862C12.7371 14.68 12.6982 14.4849 12.6982 14.2878C12.6982 14.0908 12.7371 13.8957 12.8125 13.7136C12.8879 13.5316 12.9984 13.3662 13.1377 13.2268C13.2771 13.0875 13.4425 12.977 13.6245 12.9016C13.8066 12.8262 14.0017 12.7873 14.1987 12.7873C14.3958 12.7873 14.5909 12.8262 14.7729 12.9016C14.955 12.977 15.1204 13.0875 15.2597 13.2268C15.889 13.8532 16.7408 14.2049 17.6287 14.2049C18.5166 14.2049 19.3684 13.8532 19.9977 13.2268C20.1371 13.0874 20.3025 12.9768 20.4846 12.9014C20.6666 12.8259 20.8618 12.787 21.0589 12.787C21.256 12.7869 21.4511 12.8257 21.6332 12.9011C21.8153 12.9765 21.9808 13.087 22.1202 13.2263C22.2596 13.3657 22.3702 13.5311 22.4457 13.7132C22.5211 13.8952 22.56 14.0904 22.5601 14.2875C22.5601 14.4846 22.5213 14.6797 22.4459 14.8618C22.3706 15.0439 22.2601 15.2094 22.1207 15.3488C21.531 15.9388 20.8307 16.4065 20.0598 16.7251C19.289 17.0438 18.4628 17.2072 17.6287 17.2058Z" fill="#F98282"/>
<path d="M8.40674 51.4198L15.1567 68.0548C19.6167 76.2438 23.2037 78.3988 31.9117 81.7378C37.6037 83.9208 48.3857 83.9208 54.0347 81.7378C62.6517 78.4078 66.2967 76.3118 70.7097 68.1968L77.5397 51.4198C73.7187 47.6368 67.5397 51.8568 63.7127 55.6398C59.9127 51.8568 53.7577 54.5508 49.9557 58.3338C48.1278 56.5165 45.6549 55.4963 43.0772 55.4963C40.4996 55.4963 38.0267 56.5165 36.1987 58.3338C32.3587 54.5508 26.1427 51.8568 22.2987 55.6398C18.4627 51.8568 12.2467 47.6378 8.40674 51.4198Z" fill="#0706A9"/>
<path d="M27.7649 74.092C27.4795 74.0923 27.1999 74.0111 26.959 73.8581C26.7181 73.705 26.5259 73.4864 26.4049 73.228L22.2569 64.368C22.1733 64.1894 22.1257 63.9962 22.1168 63.7993C22.1079 63.6023 22.1378 63.4056 22.205 63.2202C22.2721 63.0349 22.3751 62.8646 22.5081 62.719C22.641 62.5735 22.8013 62.4556 22.9799 62.372C23.3404 62.2032 23.7533 62.1845 24.1276 62.3201C24.5019 62.4557 24.807 62.7344 24.9759 63.095L29.1239 71.955C29.2312 72.1837 29.2789 72.4359 29.2628 72.688C29.2466 72.9402 29.167 73.1842 29.0313 73.3973C28.8956 73.6105 28.7083 73.7859 28.4868 73.9074C28.2652 74.0288 28.0165 74.0923 27.7639 74.092H27.7649Z" fill="#CDE90C"/>
<path d="M58.1809 74.092C57.9612 74.0924 57.7442 74.0435 57.5459 73.949C57.1856 73.7804 56.9071 73.4756 56.7715 73.1017C56.6359 72.7277 56.6544 72.3153 56.8229 71.955L60.9709 63.095C61.1397 62.7344 61.4448 62.4557 61.8191 62.3201C62.1935 62.1845 62.6063 62.2032 62.9669 62.372C63.3274 62.5408 63.6062 62.8459 63.7418 63.2202C63.8773 63.5946 63.8587 64.0074 63.6899 64.368L59.5419 73.228C59.4208 73.4866 59.2284 73.7053 58.9873 73.8583C58.7462 74.0114 58.4664 74.0924 58.1809 74.092Z" fill="#CDE90C"/>
<path d="M48.5061 77.237C48.4278 77.237 48.3496 77.2309 48.2721 77.219C48.0772 77.1888 47.8902 77.1205 47.7217 77.0179C47.5533 76.9153 47.4067 76.7805 47.2904 76.6212C47.1741 76.4619 47.0904 76.2812 47.044 76.0895C46.9976 75.8978 46.9895 75.6989 47.0201 75.504L48.4021 66.644C48.4326 66.4492 48.5011 66.2623 48.6038 66.094C48.7065 65.9257 48.8414 65.7792 49.0007 65.663C49.16 65.5468 49.3406 65.4631 49.5322 65.4167C49.7239 65.3703 49.9228 65.3621 50.1176 65.3925C50.3124 65.423 50.4993 65.4915 50.6677 65.5942C50.836 65.6969 50.9824 65.8318 51.0987 65.9911C51.2149 66.1504 51.2986 66.331 51.345 66.5227C51.3914 66.7143 51.3996 66.9132 51.3691 67.108L49.9871 75.968C49.932 76.3214 49.7526 76.6434 49.481 76.8761C49.2095 77.1088 48.8637 77.2368 48.5061 77.237Z" fill="#CDE90C"/>
<path d="M37.44 77.237C37.0823 77.2367 36.7364 77.1086 36.4648 76.8757C36.1932 76.6428 36.0139 76.3206 35.959 75.967L34.582 67.108C34.5515 66.9132 34.5597 66.7143 34.6061 66.5227C34.6525 66.331 34.7362 66.1504 34.8525 65.9911C34.9687 65.8318 35.1151 65.6969 35.2834 65.5942C35.4518 65.4915 35.6387 65.423 35.8335 65.3925C36.0283 65.3621 36.2272 65.3703 36.4189 65.4167C36.6105 65.4631 36.7911 65.5468 36.9504 65.663C37.1097 65.7792 37.2446 65.9257 37.3473 66.094C37.45 66.2623 37.5185 66.4492 37.549 66.644L38.931 75.504C38.9616 75.6989 38.9535 75.8978 38.9071 76.0895C38.8607 76.2812 38.777 76.4619 38.6607 76.6212C38.5444 76.7805 38.3978 76.9153 38.2294 77.0179C38.0609 77.1205 37.8739 77.1888 37.679 77.219C37.5999 77.2311 37.52 77.2372 37.44 77.237Z" fill="#CDE90C"/>
<path d="M72.8939 38.3278C73.1148 37.5855 73.228 36.8153 73.2299 36.0408C73.2299 31.8628 69.9299 28.0748 64.5909 25.2948C64.5909 25.2948 64.7319 1.26783 45.1389 3.20983C45.1389 3.20983 51.4569 13.4398 42.6039 13.5328C38.6371 13.5479 34.6889 14.0767 30.8579 15.1058C32.3243 17.5609 32.912 20.4418 32.5243 23.2751C32.1367 26.1084 30.7967 28.7255 28.7247 30.6965C26.6527 32.6674 23.9718 33.8749 21.1227 34.1205C18.2736 34.366 15.4256 33.6351 13.0469 32.0478C12.3657 33.2707 11.9981 34.6432 11.9769 36.0428C11.9788 36.8173 12.092 37.5875 12.3129 38.3298C8.75892 40.9588 6.69092 44.0788 6.69092 47.4298C6.76821 49.8472 7.7354 52.1508 9.40692 53.8988L8.40692 51.4208C12.2469 47.6378 18.4629 51.8578 22.3069 55.6408C26.1469 51.8578 32.3629 54.5518 36.2069 58.3348C38.0349 56.5175 40.5078 55.4973 43.0854 55.4973C45.6631 55.4973 48.136 56.5175 49.9639 58.3348C53.7639 54.5518 59.9189 51.8578 63.7209 55.6408C67.5339 51.8668 73.6989 47.6598 77.5209 51.3998C78.1662 50.1738 78.5091 48.8113 78.5209 47.4258C78.5159 44.0748 76.4479 40.9568 72.8939 38.3278Z" fill="#FFF5BB"/>
<path d="M17.1979 12.7089C16.823 12.7086 16.4618 12.5678 16.1854 12.3145C15.9091 12.0611 15.7377 11.7134 15.7049 11.3399C15.3805 9.03006 14.2032 6.92532 12.4049 5.43988C10.0669 3.62388 6.70891 3.03388 2.41991 3.68688C2.2217 3.72526 2.01778 3.72323 1.82037 3.68091C1.62297 3.6386 1.43613 3.55686 1.27107 3.44061C1.106 3.32436 0.966101 3.17599 0.859751 3.00438C0.753401 2.83277 0.682788 2.64145 0.652145 2.4419C0.621501 2.24235 0.631457 2.03866 0.681416 1.84305C0.731375 1.64743 0.820309 1.46392 0.942889 1.3035C1.06547 1.14308 1.21917 1.00905 1.39479 0.909456C1.5704 0.809858 1.76432 0.746738 1.96491 0.723876C7.12691 -0.0761238 11.2749 0.729876 14.2829 3.10588C16.721 5.10008 18.2989 7.95546 18.6899 11.0809C18.7065 11.2773 18.6842 11.475 18.6243 11.6628C18.5644 11.8506 18.4681 12.0248 18.3409 12.1753C18.2136 12.3259 18.058 12.4499 17.8828 12.5402C17.7076 12.6306 17.5163 12.6855 17.3199 12.7019C17.2795 12.707 17.2387 12.7093 17.1979 12.7089Z" fill="#6A3311"/>
<path d="M42.9771 30.6558C42.5792 30.6558 42.1977 30.4978 41.9164 30.2165C41.6351 29.9352 41.4771 29.5537 41.4771 29.1558C41.4771 28.758 41.6351 28.3765 41.9164 28.0952C42.1977 27.8139 42.5792 27.6558 42.9771 27.6558C48.7279 27.7184 54.4577 26.9522 59.9901 25.3808C60.3709 25.2656 60.7819 25.3064 61.1327 25.4942C61.4835 25.682 61.7453 26.0015 61.8606 26.3823C61.9758 26.7632 61.935 27.1742 61.7472 27.525C61.5594 27.8758 61.2399 28.1376 60.8591 28.2528C55.0446 29.9081 49.0222 30.7174 42.9771 30.6558Z" fill="#FCC900"/>
<path d="M20.7179 44.0988C20.5429 44.0983 20.3692 44.0672 20.2049 44.0068C18.5689 43.4132 16.9741 42.7116 15.4309 41.9068C15.0783 41.7224 14.8134 41.4054 14.6945 41.0256C14.5756 40.6459 14.6125 40.2344 14.7969 39.8818C14.9814 39.5292 15.2983 39.2643 15.6781 39.1454C16.0579 39.0265 16.4693 39.0634 16.8219 39.2478C18.2482 39.9888 19.7213 40.6358 21.2319 41.1848C21.5645 41.3048 21.844 41.5384 22.0211 41.8443C22.1982 42.1503 22.2616 42.509 22.2 42.8572C22.1384 43.2053 21.9558 43.5205 21.6845 43.7471C21.4131 43.9738 21.0704 44.0973 20.7169 44.0958L20.7179 44.0988Z" fill="#FCC900"/>
<path d="M42.6017 47.6209C39.5532 47.6222 36.5075 47.4368 33.4817 47.0659C33.2832 47.0455 33.0909 46.9857 32.9158 46.89C32.7408 46.7944 32.5866 46.6648 32.4623 46.5088C32.3379 46.3528 32.246 46.1736 32.1917 45.9816C32.1375 45.7896 32.1221 45.5888 32.1465 45.3908C32.1708 45.1928 32.2344 45.0017 32.3335 44.8285C32.4326 44.6554 32.5653 44.5038 32.7237 44.3826C32.8821 44.2614 33.0631 44.173 33.2561 44.1225C33.4491 44.0721 33.6502 44.0607 33.8477 44.0889C39.9387 44.8273 46.0984 44.7964 52.1817 43.9969C52.3794 43.9662 52.5813 43.9753 52.7755 44.0238C52.9696 44.0723 53.1521 44.1591 53.3122 44.2792C53.4723 44.3993 53.6067 44.5502 53.7076 44.723C53.8085 44.8958 53.8738 45.0871 53.8996 45.2856C53.9254 45.484 53.9113 45.6856 53.858 45.8785C53.8047 46.0714 53.7134 46.2517 53.5893 46.4087C53.4653 46.5658 53.3111 46.6964 53.1358 46.793C52.9605 46.8895 52.7677 46.95 52.5687 46.9709C49.2639 47.4027 45.9346 47.6198 42.6017 47.6209Z" fill="#FCC900"/>
<path d="M60.7201 45.3409C60.3557 45.3421 60.0033 45.2107 59.7287 44.9711C59.4541 44.7316 59.2761 44.4002 59.228 44.039C59.1799 43.6778 59.2649 43.3114 59.4671 43.0083C59.6694 42.7052 59.9751 42.4861 60.3271 42.3919C63.1747 41.6448 65.9324 40.5892 68.5511 39.2439C68.9033 39.0582 69.3148 39.0201 69.6951 39.1379C70.0755 39.2556 70.3934 39.5197 70.5791 39.8719C70.7647 40.2241 70.8029 40.6356 70.6851 41.0159C70.5673 41.3963 70.3033 41.7142 69.9511 41.8999C67.138 43.3466 64.1759 44.483 61.1171 45.2889C60.9876 45.3236 60.8541 45.3411 60.7201 45.3409Z" fill="#FCC900"/>
</g>
<defs>
<clipPath id="clip0">
<rect width="77.824" height="82.9521" fill="white" transform="translate(0.690918 0.423828)"/>
</clipPath>
</defs>
</svg>
