<svg width="34" height="34" viewBox="0 0 34 34" fill="none" xmlns="http://www.w3.org/2000/svg">
<path d="M28.6909 0.911133H5.69092C2.92949 0.911133 0.690918 3.14971 0.690918 5.91113V28.9111C0.690918 31.6726 2.92949 33.9111 5.69092 33.9111H28.6909C31.4523 33.9111 33.6909 31.6726 33.6909 28.9111V5.91113C33.6909 3.14971 31.4523 0.911133 28.6909 0.911133Z" fill="#F7FFBF"/>
<path d="M16.8919 14.1271C16.3027 14.1271 15.7267 14.3018 15.2367 14.6291C14.7467 14.9563 14.3648 15.4215 14.1391 15.9658C13.9135 16.5101 13.8542 17.1091 13.9689 17.687C14.0835 18.265 14.3669 18.796 14.7833 19.2129C15.1997 19.6298 15.7303 19.9139 16.3081 20.0294C16.8859 20.1448 17.4849 20.0864 18.0295 19.8614C18.5741 19.6365 19.0398 19.2552 19.3677 18.7656C19.6957 18.2761 19.8711 17.7003 19.8719 17.1111C19.8724 16.7195 19.7957 16.3315 19.6462 15.9695C19.4967 15.6075 19.2773 15.2785 19.0005 15.0014C18.7237 14.7242 18.395 14.5044 18.0332 14.3544C17.6714 14.2043 17.2836 14.1271 16.8919 14.1271ZM23.5229 16.3621C23.357 14.8574 22.683 13.4542 21.6122 12.3841C20.5414 11.3141 19.1377 10.641 17.6329 10.4761V8.91113H16.1429V10.4761C14.6295 10.6172 13.2129 11.2826 12.1381 12.3574C11.0634 13.4322 10.3979 14.8487 10.2569 16.3621H8.69189V17.8521H10.2569C10.4226 19.3562 11.096 20.759 12.1661 21.829C13.2361 22.899 14.6388 23.5724 16.1429 23.7381V25.3031H17.6329V23.7381C19.137 23.5724 20.5397 22.899 21.6097 21.829C22.6797 20.759 23.3531 19.3562 23.5189 17.8521H25.0839V16.3621H23.5229ZM16.8919 22.3221C15.694 22.3156 14.5353 21.8944 13.613 21.1301C12.6906 20.3658 12.0614 19.3056 11.8325 18.1297C11.6035 16.9539 11.789 15.7351 12.3572 14.6805C12.9255 13.626 13.8415 12.8008 14.9495 12.3454C16.0574 11.89 17.2889 11.8324 18.4346 12.1824C19.5802 12.5325 20.5692 13.2686 21.2333 14.2655C21.8975 15.2624 22.1959 16.4586 22.0776 17.6507C21.9594 18.8428 21.4319 19.9571 20.5849 20.8041C20.0992 21.2873 19.523 21.67 18.8894 21.9305C18.2557 22.191 17.577 22.324 16.8919 22.3221Z" fill="#0706A9"/>
</svg>
