<svg width="88" height="89" viewBox="0 0 88 89" fill="none" xmlns="http://www.w3.org/2000/svg">
<g clip-path="url(#clip0)">
<path d="M43.8958 2.01337C35.3517 2.01337 26.9994 4.547 19.8952 9.29388C12.791 14.0408 7.25393 20.7877 3.98422 28.6814C0.714519 36.5752 -0.140985 45.2613 1.5259 53.6413C3.19278 62.0212 7.30718 69.7188 13.3488 75.7604C19.3904 81.802 27.0879 85.9164 35.4679 87.5833C43.8479 89.2502 52.534 88.3947 60.4277 85.125C68.3215 81.8553 75.0684 76.3182 79.8153 69.214C84.5622 62.1098 87.0958 53.7575 87.0958 45.2134C87.0958 33.756 82.5444 22.7679 74.4428 14.6664C66.3413 6.56478 55.3532 2.01337 43.8958 2.01337ZM43.8958 60.2774C40.9174 60.2776 38.0058 59.3945 35.5292 57.74C33.0526 56.0854 31.1223 53.7335 29.9824 50.9819C28.8425 48.2302 28.5441 45.2023 29.1251 42.2811C29.706 39.3599 31.1401 36.6765 33.2461 34.5704C35.3521 32.4643 38.0354 31.0299 40.9566 30.4488C43.8778 29.8677 46.9057 30.1658 49.6574 31.3056C52.4092 32.4453 54.7611 34.3755 56.4159 36.8519C58.0706 39.3284 58.9538 42.2399 58.9538 45.2184C58.9539 47.1959 58.5646 49.1542 57.8079 50.9813C57.0512 52.8084 55.9421 54.4685 54.5438 55.867C53.1456 57.2654 51.4856 58.3748 49.6586 59.1317C47.8316 59.8886 45.8734 60.2782 43.8958 60.2784V60.2774Z" fill="#FDCA74"/>
<path d="M8.02192 45.2184C8.02115 34.2211 12.2145 23.6376 19.7471 15.6252C27.2798 7.61278 37.5846 2.77477 48.5609 2.09737C47.6789 2.04337 46.7909 2.01337 45.8959 2.01337C34.4372 2.01337 23.4479 6.56531 15.3454 14.6678C7.24286 22.7703 2.69092 33.7597 2.69092 45.2184C2.69092 56.677 7.24286 67.6664 15.3454 75.7689C23.4479 83.8714 34.4372 88.4234 45.8959 88.4234C46.7959 88.4234 47.6799 88.3924 48.5609 88.3394C37.5846 87.662 27.2798 82.8239 19.7471 74.8115C12.2145 66.7991 8.02115 56.2156 8.02192 45.2184Z" fill="#E6B25B"/>
<path d="M12.8718 37.5104C12.6719 37.5106 12.4744 37.4658 12.2942 37.3793C12.114 37.2927 11.9556 37.1666 11.8308 37.0104L9.54681 34.1554C9.33678 33.8785 9.24321 33.5305 9.28604 33.1856C9.32888 32.8407 9.50472 32.5261 9.7761 32.309C10.0475 32.0919 10.3929 31.9893 10.7388 32.0232C11.0847 32.0571 11.4037 32.2247 11.6278 32.4904L13.9118 35.3454C14.0684 35.5414 14.1665 35.7776 14.1948 36.0269C14.2231 36.2762 14.1805 36.5284 14.0719 36.7546C13.9633 36.9807 13.793 37.1716 13.5807 37.3053C13.3684 37.439 13.1227 37.5101 12.8718 37.5104Z" fill="#0706A9"/>
<path d="M64.2748 71.2854C64.0749 71.2856 63.8775 71.2408 63.6972 71.1543C63.517 71.0677 63.3586 70.9416 63.2338 70.7854L60.9498 67.9304C60.8351 67.7944 60.7487 67.6367 60.6959 67.4668C60.643 67.2969 60.6247 67.1181 60.6421 66.9409C60.6594 66.7638 60.7121 66.592 60.7969 66.4356C60.8817 66.2791 60.997 66.1412 61.136 66.0301C61.2749 65.9189 61.4347 65.8367 61.606 65.7882C61.7772 65.7398 61.9564 65.7261 62.133 65.7481C62.3096 65.77 62.4801 65.8271 62.6342 65.9159C62.7884 66.0048 62.9233 66.1236 63.0308 66.2654L65.3148 69.1204C65.4714 69.3164 65.5695 69.5526 65.5978 69.8019C65.6262 70.0512 65.5836 70.3034 65.4749 70.5296C65.3663 70.7557 65.196 70.9466 64.9837 71.0803C64.7714 71.214 64.5257 71.2851 64.2748 71.2854Z" fill="#A8503C"/>
<path d="M82.059 46.6454C81.859 46.6456 81.6616 46.6008 81.4814 46.5143C81.3012 46.4277 81.1428 46.3016 81.018 46.1454L78.734 43.2904C78.6192 43.1543 78.5329 42.9967 78.4801 42.8268C78.4272 42.6569 78.4089 42.4781 78.4263 42.3009C78.4436 42.1238 78.4963 41.952 78.5811 41.7955C78.6659 41.6391 78.7812 41.5012 78.9201 41.39C79.0591 41.2789 79.2189 41.1966 79.3901 41.1482C79.5614 41.0998 79.7406 41.0861 79.9172 41.1081C80.0938 41.13 80.2642 41.1871 80.4184 41.2759C80.5726 41.3648 80.7075 41.4836 80.815 41.6254L83.099 44.4804C83.2556 44.6764 83.3537 44.9126 83.382 45.1619C83.4103 45.4112 83.3677 45.6634 83.2591 45.8896C83.1504 46.1157 82.9802 46.3066 82.7679 46.4403C82.5556 46.574 82.3099 46.6451 82.059 46.6454Z" fill="#0706A9"/>
<path d="M76.4316 68.1694C76.2221 68.1692 76.0156 68.1197 75.8287 68.0249C75.6419 67.93 75.4801 67.7925 75.3563 67.6234C75.2325 67.4544 75.1503 67.2585 75.1163 67.0518C75.0823 66.845 75.0975 66.6332 75.1606 66.4334L76.2676 62.9484C76.3171 62.7775 76.4004 62.6182 76.5124 62.4799C76.6244 62.3417 76.763 62.2273 76.92 62.1435C77.0769 62.0596 77.249 62.008 77.4262 61.9918C77.6034 61.9755 77.7821 61.9949 77.9517 62.0488C78.1212 62.1026 78.2783 62.19 78.4137 62.3055C78.549 62.4211 78.6598 62.5625 78.7396 62.7216C78.8193 62.8806 78.8664 63.054 78.8781 63.2316C78.8898 63.4091 78.8659 63.5873 78.8076 63.7554L77.7007 67.2404C77.615 67.5098 77.4459 67.745 77.2177 67.912C76.9896 68.079 76.7143 68.1691 76.4316 68.1694Z" fill="#A8503C"/>
<path d="M18.077 48.7773C17.8137 48.7773 17.5563 48.6993 17.3372 48.5531C17.1182 48.407 16.9474 48.1992 16.8463 47.9561C16.7452 47.7129 16.7184 47.4453 16.7692 47.1869C16.8201 46.9286 16.9463 46.691 17.132 46.5043L19.71 43.9123C19.8329 43.7858 19.9797 43.6848 20.1419 43.6154C20.304 43.546 20.4784 43.5094 20.6548 43.5079C20.8312 43.5063 21.0062 43.5398 21.1696 43.6064C21.3329 43.673 21.4815 43.7713 21.6065 43.8957C21.7316 44.0202 21.8307 44.1682 21.8982 44.3312C21.9656 44.4942 22.0001 44.669 21.9995 44.8454C21.9988 45.0218 21.9632 45.1964 21.8947 45.3589C21.8261 45.5215 21.7259 45.6688 21.6 45.7923L19.022 48.3843C18.8983 48.5091 18.7511 48.6082 18.5889 48.6756C18.4267 48.7431 18.2527 48.7776 18.077 48.7773Z" fill="#FB8D4B"/>
<path d="M51.2396 80.8953C50.9765 80.8951 50.7193 80.817 50.5005 80.6709C50.2817 80.5248 50.111 80.3172 50.0099 80.0743C49.9089 79.8313 49.882 79.5639 49.9326 79.3057C49.9833 79.0475 50.1092 78.8101 50.2946 78.6233L52.8726 76.0313C52.9955 75.9047 53.1423 75.8038 53.3044 75.7344C53.4666 75.665 53.641 75.6284 53.8174 75.6269C53.9938 75.6253 54.1687 75.6588 54.3321 75.7254C54.4955 75.792 54.644 75.8903 54.7691 76.0148C54.8942 76.1392 54.9933 76.2872 55.0608 76.4502C55.1282 76.6132 55.1627 76.788 55.162 76.9644C55.1614 77.1408 55.1258 77.3154 55.0572 77.4779C54.9887 77.6405 54.8885 77.7878 54.7626 77.9113L52.1846 80.5033C52.0608 80.6279 51.9136 80.7267 51.7513 80.794C51.5891 80.8613 51.4152 80.8957 51.2396 80.8953Z" fill="#0706A9"/>
<path d="M70.307 55.2524C70.0065 55.2531 69.7145 55.1523 69.4785 54.9663C69.2425 54.7803 69.0763 54.52 69.0068 54.2276C68.9373 53.9352 68.9687 53.6279 69.0958 53.3556C69.2229 53.0833 69.4383 52.8619 69.707 52.7274L72.976 51.0894C73.1329 51.0065 73.3048 50.9559 73.4816 50.9403C73.6583 50.9248 73.8364 50.9446 74.0054 50.9988C74.1744 51.053 74.3308 51.1403 74.4656 51.2558C74.6004 51.3712 74.7107 51.5124 74.7902 51.671C74.8697 51.8297 74.9167 52.0026 74.9285 52.1797C74.9403 52.3567 74.9166 52.5343 74.8588 52.7021C74.8011 52.8699 74.7104 53.0244 74.5921 53.1567C74.4738 53.289 74.3303 53.3963 74.17 53.4724L70.903 55.1114C70.7181 55.2042 70.514 55.2525 70.307 55.2524Z" fill="#FB8D4B"/>
<path d="M69.0349 38.4714C68.7994 38.4711 68.5682 38.4084 68.3649 38.2897C68.1615 38.1711 67.9931 38.0007 67.877 37.7958C67.7609 37.591 67.7011 37.3591 67.7037 37.1236C67.7063 36.8881 67.7712 36.6576 67.8919 36.4554L69.7689 33.3174C69.9531 33.0203 70.2467 32.8075 70.5864 32.7248C70.926 32.6421 71.2846 32.6961 71.5848 32.8753C71.885 33.0544 72.1028 33.3443 72.1913 33.6825C72.2798 34.0207 72.2319 34.3802 72.0579 34.6834L70.1839 37.8224C70.0652 38.021 69.8969 38.1854 69.6954 38.2992C69.4939 38.413 69.2663 38.4723 69.0349 38.4714Z" fill="#A8503C"/>
<path d="M16.166 59.7153C15.9986 59.7154 15.8326 59.6839 15.677 59.6223L12.277 58.2793C12.1103 58.2179 11.9577 58.1237 11.8279 58.0024C11.6982 57.8812 11.594 57.7351 11.5215 57.573C11.449 57.4109 11.4096 57.2359 11.4056 57.0584C11.4016 56.8808 11.4332 56.7043 11.4985 56.5391C11.5637 56.3739 11.6613 56.2234 11.7855 56.0964C11.9097 55.9695 12.058 55.8687 12.2217 55.7998C12.3855 55.731 12.5613 55.6956 12.7389 55.6957C12.9165 55.6958 13.0923 55.7313 13.256 55.8003L16.656 57.1433C16.9441 57.2576 17.1833 57.4688 17.3326 57.7405C17.4818 58.0121 17.5317 58.3273 17.4737 58.6318C17.4157 58.9363 17.2534 59.211 17.0147 59.4088C16.7761 59.6065 16.4759 59.7149 16.166 59.7153Z" fill="#A8503C"/>
<path d="M39.7537 75.3974C39.4147 75.3979 39.0884 75.2687 38.8417 75.0364L36.1767 72.5364C36.046 72.4174 35.9402 72.2736 35.8657 72.1133C35.7911 71.953 35.7491 71.7795 35.7422 71.6029C35.7353 71.4262 35.7636 71.25 35.8255 71.0844C35.8874 70.9188 35.9816 70.7671 36.1026 70.6383C36.2236 70.5094 36.3691 70.4059 36.5305 70.3338C36.6919 70.2617 36.866 70.2224 37.0427 70.2183C37.2195 70.2141 37.3953 70.2451 37.5599 70.3095C37.7245 70.3739 37.8747 70.4705 38.0017 70.5935L40.6667 73.0935C40.8598 73.2767 40.9936 73.5136 41.0509 73.7736C41.1082 74.0336 41.0864 74.3048 40.9881 74.5523C40.8899 74.7997 40.7198 75.0121 40.4998 75.162C40.2798 75.3119 40.0199 75.3925 39.7537 75.3934V75.3974Z" fill="#FB8D4B"/>
<path d="M24.4627 66.4544C24.1153 66.4478 23.7842 66.3059 23.5399 66.0588C23.2956 65.8118 23.1574 65.4791 23.1548 65.1316C23.1522 64.7842 23.2854 64.4494 23.5259 64.1987C23.7665 63.948 24.0954 63.8011 24.4427 63.7894L28.0987 63.7344C28.4469 63.7371 28.7802 63.8761 29.0274 64.1214C29.2745 64.3668 29.4158 64.6991 29.421 65.0473C29.4262 65.3955 29.295 65.732 29.0553 65.9846C28.8157 66.2373 28.4867 66.3862 28.1387 66.3994L24.4827 66.4544H24.4627Z" fill="#CC2E00"/>
<path d="M45.8166 0.110382C51.7557 0.0838475 57.6408 1.23811 63.1298 3.50607C68.6189 5.77403 73.6024 9.11045 77.7906 13.3214C79.9804 15.7104 81.9679 18.2772 83.7326 20.9954C84.0381 21.4458 84.1827 21.986 84.1431 22.5288C84.1034 23.0716 83.8818 23.5851 83.5142 23.9863C83.1465 24.3875 82.6542 24.653 82.1169 24.7397C81.5797 24.8265 81.0289 24.7295 80.5536 24.4644L80.4976 24.4314C78.9969 23.5569 77.291 23.0962 75.5541 23.0962C73.8172 23.0962 72.1113 23.5569 70.6106 24.4314C69.1099 25.3059 67.404 25.7666 65.6671 25.7666C63.9302 25.7666 62.2243 25.3059 60.7236 24.4314C59.2229 23.5569 57.517 23.0962 55.7801 23.0962C54.0432 23.0962 52.3373 23.5569 50.8366 24.4314C49.3359 25.3059 47.63 25.7666 45.8931 25.7666C44.1562 25.7666 42.4503 25.3059 40.9496 24.4314C39.4489 23.5569 37.743 23.0962 36.0061 23.0962C34.2692 23.0962 32.5633 23.5569 31.0626 24.4314C29.5619 25.3059 27.856 25.7666 26.1191 25.7666C24.3822 25.7666 22.6763 25.3059 21.1756 24.4314C19.6749 23.5569 17.969 23.0962 16.2321 23.0962C14.4952 23.0962 12.7893 23.5569 11.2886 24.4314L11.2326 24.4644C10.7573 24.7295 10.2065 24.8265 9.66926 24.7397C9.13201 24.653 8.63973 24.3875 8.27205 23.9863C7.90437 23.5851 7.68279 23.0716 7.64314 22.5288C7.6035 21.986 7.74812 21.4458 8.0536 20.9954C9.81836 18.2773 11.8059 15.7104 13.9956 13.3214C18.1844 9.11015 23.1686 5.77357 28.6583 3.50561C34.1481 1.23764 40.0339 0.0835387 45.9736 0.110382H45.8166Z" fill="#0706A9"/>
<path d="M11.288 24.4334C11.6553 24.2196 12.0361 24.0299 12.428 23.8654C14.3267 20.9982 16.4543 18.2893 18.79 15.7654C27.4333 7.07404 38.8199 1.64435 51.014 0.39938C49.3148 0.206488 47.6061 0.108669 45.896 0.10638C39.9694 0.0896521 34.0983 1.24868 28.6226 3.51636C23.1469 5.78404 18.1755 9.11533 13.996 13.3174C11.8074 15.7081 9.8212 18.2766 8.05799 20.9964C7.75251 21.4468 7.6079 21.987 7.64754 22.5298C7.68718 23.0726 7.90877 23.5861 8.27645 23.9873C8.64413 24.3885 9.1364 24.654 9.67365 24.7407C10.2109 24.8275 10.7617 24.7305 11.237 24.4654L11.293 24.4334H11.288Z" fill="#070676"/>
<path d="M31.2178 16.6554C30.8643 16.6554 30.5252 16.5149 30.2752 16.2649C30.0252 16.015 29.8848 15.6759 29.8848 15.3224V12.6644C29.8799 12.4863 29.9108 12.3091 29.9755 12.1432C30.0403 11.9772 30.1377 11.8259 30.2619 11.6983C30.3861 11.5706 30.5346 11.4691 30.6987 11.3998C30.8628 11.3306 31.0392 11.2949 31.2173 11.2949C31.3954 11.2949 31.5717 11.3306 31.7358 11.3998C31.8999 11.4691 32.0485 11.5706 32.1727 11.6983C32.2969 11.8259 32.3943 11.9772 32.459 12.1432C32.5238 12.3091 32.5547 12.4863 32.5498 12.6644V15.3204C32.55 15.4955 32.5158 15.669 32.449 15.8309C32.3822 15.9928 32.2841 16.1399 32.1604 16.2639C32.0367 16.3879 31.8898 16.4862 31.7281 16.5534C31.5663 16.6206 31.3929 16.6552 31.2178 16.6554Z" fill="#CDE90C"/>
<path d="M60.5708 16.6553C60.3957 16.6553 60.2224 16.6209 60.0607 16.5539C59.8989 16.4869 59.752 16.3887 59.6282 16.2649C59.5044 16.1411 59.4063 15.9942 59.3393 15.8325C59.2723 15.6707 59.2378 15.4974 59.2378 15.3223V12.6644C59.2473 12.3173 59.3919 11.9876 59.6407 11.7455C59.8896 11.5033 60.2231 11.3679 60.5703 11.3679C60.9175 11.3679 61.251 11.5033 61.4999 11.7455C61.7487 11.9876 61.8933 12.3173 61.9028 12.6644V15.3204C61.9031 15.4955 61.8688 15.669 61.802 15.8308C61.7352 15.9927 61.6371 16.1399 61.5134 16.2639C61.3897 16.3878 61.2428 16.4862 61.0811 16.5534C60.9193 16.6206 60.7459 16.6552 60.5708 16.6553Z" fill="#CDE90C"/>
<path d="M45.8949 18.0734C45.0217 18.08 44.1571 17.8998 43.3592 17.5448C42.5614 17.1899 41.8487 16.6684 41.2689 16.0154C41.1495 15.8843 41.0574 15.7306 40.9981 15.5635C40.9388 15.3963 40.9135 15.219 40.9235 15.042C40.9336 14.8649 40.9789 14.6916 41.0568 14.5323C41.1347 14.373 41.2437 14.2308 41.3772 14.1141C41.5107 13.9974 41.6662 13.9085 41.8346 13.8526C42.0029 13.7968 42.1807 13.7751 42.3575 13.7888C42.5343 13.8025 42.7066 13.8514 42.8643 13.9325C43.022 14.0137 43.1619 14.1255 43.2759 14.2614C43.6096 14.6231 44.0147 14.9118 44.4655 15.1093C44.9163 15.3068 45.4032 15.4087 45.8954 15.4087C46.3876 15.4087 46.8744 15.3068 47.3252 15.1093C47.7761 14.9118 48.1811 14.6231 48.5149 14.2614C48.7498 14.0035 49.0763 13.848 49.4246 13.8281C49.7728 13.8083 50.1149 13.9257 50.3776 14.1553C50.6402 14.3848 50.8024 14.7081 50.8294 15.0559C50.8564 15.4036 50.746 15.7481 50.5219 16.0154C49.9421 16.6686 49.2292 17.1903 48.4311 17.5452C47.6331 17.9002 46.7683 18.0803 45.8949 18.0734Z" fill="#CDE90C"/>
</g>
<defs>
<clipPath id="clip0">
<rect width="86.41" height="88.313" fill="white" transform="translate(0.690918 0.110352)"/>
</clipPath>
</defs>
</svg>
