<svg width="744" height="448" viewBox="0 0 744 448" fill="none" xmlns="http://www.w3.org/2000/svg">
<g clip-path="url(#clip0)">
<path d="M3.29997 248.219C3.78154 256.382 4.70657 264.512 6.07097 272.575C10.579 299.3 19.6 325.064 32.748 348.764C56.534 391.528 93.867 426.474 142.118 440.612C204.781 458.977 268.835 432.64 331.738 429.902C379.715 427.821 425.765 445.54 473.721 445.431C516.521 445.331 559.798 439.276 600.131 424.908C682.243 395.668 739.54 330.308 742.858 242.789C745.758 166.12 719.269 72.7708 650.977 27.8268C577.677 -20.4132 481.036 2.20079 411.419 45.7098C371.064 70.9418 329.186 96.1508 279.632 94.4758C231.939 92.8638 187.006 71.4638 138.934 73.4488C77.793 75.9788 32.061 123.179 13.247 177.584C5.35678 200.255 1.97766 224.25 3.29997 248.219Z" fill="#F7FFBF"/>
<path d="M353.726 126.523C353.859 123.083 354.935 119.746 356.837 116.877C358.738 114.007 361.391 111.715 364.507 110.251C370.877 107.385 377.694 108.801 383.158 112.487C384.639 103.887 391.128 95.7008 400.758 97.3528C408.665 98.7098 412.258 106.153 412.621 113.493C421.392 113.52 428.362 120.121 428.258 128.732C430.097 129.048 431.816 129.859 433.231 131.078C434.645 132.296 435.701 133.876 436.287 135.649C438.109 141.272 435.057 147.429 430.324 150.559C420.33 157.168 406 154.376 398.212 145.784C389.039 152.084 375.312 151.976 367.375 143.851C362.402 147.072 357.232 150.084 350.975 148.869C346.119 147.926 340.969 144.432 339.656 139.453C337.22 130.237 346.075 124.937 353.726 126.523Z" fill="white"/>
<path d="M539.997 79.8888L656.58 30.8608H667.234C670.442 30.867 673.53 32.087 675.877 34.2758C678.223 36.4646 679.654 39.4601 679.884 42.6608C679.904 42.9718 679.915 43.2848 679.915 43.5998V407.17C679.935 409.375 679.246 411.527 677.951 413.311C676.655 415.096 674.821 416.416 672.719 417.08C665.954 419.122 658.419 420.838 654.957 419.41L539.997 375.935C535.738 374.303 532.354 362.345 532.354 355.5V95.2088C532.354 88.3648 535.738 81.5198 539.997 79.8888Z" fill="#030301"/>
<path d="M527.698 370.821L653.408 418.975C661.157 421.943 667.615 416.669 667.615 407.11V43.5998C667.615 34.0408 661.157 28.7668 653.408 31.7338L527.698 79.8838C523.438 81.5158 520.055 88.3598 520.055 95.2048V355.5C520.06 362.345 523.443 369.189 527.698 370.821Z" fill="#4B4237"/>
<path d="M528.084 334.433L652.74 370.202V63.2778L528.084 103.302V334.433Z" fill="#CADDFC"/>
<path d="M571.439 368.725C571.439 376.717 575.939 384.876 581.631 386.996C587.473 389.173 592.326 384.184 592.326 375.796C592.326 367.408 587.474 359.134 581.631 357.356C575.942 355.624 571.439 360.733 571.439 368.725Z" fill="white"/>
<path d="M563.787 82.2668L601.077 69.4348C602.357 68.9948 603.411 67.2048 603.411 65.4608C603.411 63.7158 602.358 62.6658 601.077 63.1248L563.787 76.4728C562.714 76.8568 561.841 78.4668 561.841 80.0518C561.841 81.6388 562.714 82.6358 563.787 82.2668Z" fill="white"/>
<path d="M642.98 51.1418C642.98 53.5218 644.536 54.9168 646.468 54.2528C648.416 53.5848 650.006 51.0828 650.006 48.6688C650.006 46.2548 648.416 44.8688 646.468 45.5748C644.535 46.2688 642.98 48.7598 642.98 51.1418Z" fill="white"/>
<path d="M6.07031 272.576C10.5795 299.3 19.6015 325.064 32.7503 348.763C62.8333 367.391 121.794 400.54 185.311 417.778C304.548 450.15 411.278 394.266 490.959 351.162C570.64 308.058 652.752 327.062 652.752 327.062L652.774 223.168C475.122 210.105 392.987 342.017 278.043 369.45C180.742 392.667 45.3413 301.205 6.07031 272.576Z" fill="#FFDCA3"/>
<path d="M5.4237 212.464C5.29355 211.484 5.5325 210.491 6.09407 209.678C6.65564 208.865 7.49964 208.29 8.46185 208.064C12.9781 206.88 17.9906 211.055 20.6244 214.259C21.2663 215.04 21.8485 215.869 22.3658 216.738C22.6165 216.966 22.8609 217.205 23.0953 217.444C23.2671 214.46 23.5009 211.477 23.7965 208.496C22.3777 206.355 20.7222 204.38 18.8615 202.609C16.5972 200.614 14.1654 198.818 11.5929 197.24C9.30828 195.896 6.61256 195.182 5.54917 192.49C5.10821 191.447 5.03259 190.287 5.33459 189.196C5.63659 188.105 6.29848 187.148 7.21276 186.481C12.0743 182.956 17.3363 188.299 20.0774 191.933C22.0905 194.595 23.6542 197.568 24.7064 200.735C25.1273 197.643 25.6158 194.559 26.1717 191.485C25.3028 189.339 24.0572 187.367 22.4937 185.66C20.2152 183.203 17.2824 181.425 14.726 179.296C10.8753 176.099 4.38358 167.55 11.0807 163.642C17.2334 160.052 22.9231 167.889 25.5636 172.391C26.8788 174.632 27.9156 177.026 28.651 179.519C29.0263 177.929 29.419 176.346 29.8292 174.768C29.5718 173.572 29.3815 172.363 29.2592 171.146C28.9214 169.242 28.4312 167.369 27.7932 165.544C26.3611 161.828 24.6598 158.222 22.7029 154.755C20.9495 151.434 19.3972 147.976 19.1291 144.183C18.9121 141.089 19.2214 136.246 22.7055 135.045C26.2826 133.813 29.3226 137.218 31.0133 139.945C32.7837 143.101 34.0273 146.524 34.6948 150.08C35.1072 151.857 35.4476 153.664 35.7185 155.481C36.2692 153.925 36.8302 152.372 37.4149 150.827C38.3562 148.338 39.3408 145.866 40.3688 143.411C41.4262 140.885 42.3452 138.131 44.1963 136.067C45.8704 134.198 49.4492 135.047 49.0925 137.94C48.5521 142.319 45.9629 146.584 44.3629 150.668C43.28 153.436 42.2524 156.224 41.28 159.034C43.7992 156.343 46.3616 153.412 49.3392 151.309C54.2391 147.845 63.8521 148.032 65.5029 155.21C67.3104 163.063 56.6602 165.162 51.3832 166.753C47.5695 167.903 43.6469 169.157 40.3109 171.397C38.925 172.303 37.6767 173.404 36.6048 174.666C36.512 174.773 36.4322 174.895 36.3481 175.011C35.9096 176.623 35.4881 178.24 35.0837 179.862C36.7678 178.102 38.6763 176.572 40.7599 175.31C46.0054 172.14 53.3992 170.329 57.8424 175.868C59.4445 177.862 60.1888 180.909 58.8193 183.232C57.2715 185.858 52.9124 186.238 50.2077 186.67C46.5459 187.253 42.9243 186.98 39.2486 187.195C37.3837 187.202 35.5481 187.66 33.8985 188.53C33.5548 188.741 33.2378 188.992 32.9541 189.279C32.8594 189.745 32.7586 190.209 32.667 190.676C32.0304 193.906 31.4557 197.152 30.9431 200.415C32.9424 198.331 35.3212 196.649 37.9518 195.458C43.1644 193.177 51.6236 191.972 55.4161 197.354C56.1948 198.443 56.6588 199.725 56.757 201.06C56.8552 202.395 56.584 203.731 55.973 204.922C54.3656 207.743 51.1762 208.242 48.1993 208.08C42.2052 207.756 33.9299 205.264 29.6089 210.219C29.1507 214.171 28.7875 218.135 28.5193 222.109C29.926 220.28 31.6852 218.751 33.6929 217.613C37.6064 215.371 44.1393 213.925 47.8239 217.399C51.8103 221.157 47.5811 225.777 43.5137 226.798C40.351 227.591 37.2237 227.001 34.0339 226.908C31.9457 226.727 29.8632 227.311 28.1728 228.55C27.9466 234.19 27.9237 239.826 28.104 245.458C28.442 255.752 28.7604 266.812 32.6411 276.485C32.7953 276.889 32.7897 277.336 32.6257 277.736C32.4617 278.136 32.1514 278.459 31.7581 278.638C31.3647 278.818 30.9177 278.841 30.5081 278.703C30.0984 278.564 29.7568 278.275 29.5527 277.894C25.5215 269.436 24.4527 260.032 23.6191 250.806C22.914 242.893 22.6245 234.948 22.7519 227.004C21.6797 225.464 20.3701 224.103 18.8718 222.974C16.1259 221.129 13.2841 219.432 10.3585 217.889C8.3019 216.679 5.80072 215.065 5.4237 212.464Z" fill="#096561"/>
<path d="M126.582 328.59C127.214 328.399 127.753 327.981 128.094 327.415C128.435 326.849 128.553 326.177 128.426 325.529C127.903 322.45 123.978 320.546 121.299 319.823C120.645 319.649 119.979 319.523 119.307 319.447C119.1 319.361 118.89 319.272 118.678 319.199C120.449 318.271 122.202 317.307 123.938 316.305C125.634 316.579 127.294 317.043 128.886 317.689C130.726 318.519 132.491 319.506 134.162 320.639C135.61 321.661 136.79 323.107 138.722 323.012C139.479 322.994 140.208 322.72 140.79 322.235C141.371 321.75 141.772 321.083 141.926 320.342C142.734 316.408 138.027 314.675 135.057 314.005C132.88 313.509 130.635 313.373 128.414 313.603C130.183 312.493 131.928 311.345 133.647 310.159C135.194 310.097 136.739 310.313 138.21 310.795C140.28 311.657 142.291 312.653 144.231 313.776C147.238 315.244 154.237 316.844 154.773 311.685C155.263 306.946 148.922 305.641 145.448 305.271C143.719 305.086 141.974 305.114 140.253 305.353C141.119 304.686 141.973 304.009 142.823 303.324C143.623 303.152 144.412 302.935 145.187 302.674C146.44 302.354 147.717 302.136 149.005 302.022C151.664 301.872 154.331 301.915 156.985 302.15C159.485 302.426 162.015 302.175 164.412 301.415C166.358 300.695 169.221 299.173 168.994 296.716C168.759 294.196 165.847 293.283 163.719 293.004C161.308 292.795 158.879 292.982 156.529 293.557C155.331 293.794 154.139 294.082 152.954 294.422C153.749 293.658 154.543 292.886 155.322 292.105C156.58 290.845 157.815 289.564 159.028 288.261C160.402 287.007 161.558 285.534 162.449 283.902C163.127 282.365 161.623 280.42 159.955 281.433C157.436 282.969 155.553 285.721 153.503 287.823C152.115 289.246 150.698 290.641 149.254 292.007C150.316 289.748 151.15 287.389 151.744 284.964C152.503 281.023 149.739 275.216 144.91 276.188C139.626 277.252 141.282 284.32 141.771 287.972C142.242 290.622 142.315 293.327 141.99 295.998C141.821 297.091 141.496 298.154 141.024 299.155C140.982 299.24 140.932 299.323 140.885 299.408C140.023 300.119 139.154 300.822 138.278 301.516C138.885 300.006 139.29 298.422 139.484 296.806C139.97 292.735 139.035 287.729 134.435 286.548C133.589 286.294 132.687 286.294 131.841 286.549C130.995 286.805 130.242 287.303 129.678 287.983C128.504 289.65 129.474 292.411 129.956 294.178C130.741 296.497 131.643 298.775 132.658 301.003C133.169 302.144 133.397 303.393 133.32 304.642C133.286 304.909 133.22 305.171 133.124 305.423C132.867 305.609 132.61 305.798 132.351 305.984C130.558 307.263 128.737 308.507 126.89 309.717C127.609 307.924 127.979 306.01 127.978 304.078C127.934 300.274 126.334 294.785 122.008 293.957C121.13 293.783 120.22 293.853 119.38 294.161C118.539 294.47 117.799 295.004 117.242 295.705C115.964 297.46 116.542 299.543 117.461 301.312C119.308 304.873 123.11 309.233 121.28 313.229C118.995 314.597 116.679 315.911 114.332 317.17C115.06 315.809 115.507 314.315 115.646 312.778C115.934 309.776 115.014 305.395 111.882 304.106C108.493 302.714 106.843 306.564 107.342 309.325C107.729 311.471 108.952 313.215 109.888 315.133C110.573 316.356 110.792 317.786 110.502 319.157C107.127 320.85 103.698 322.417 100.217 323.858C93.8508 326.49 87.0215 329.345 80.0581 329.646C79.7567 329.646 79.4674 329.765 79.2539 329.978C79.0404 330.191 78.9202 330.479 78.9197 330.781C78.9193 331.082 79.0385 331.371 79.2513 331.585C79.4641 331.798 79.753 331.919 80.0544 331.919C86.317 332.04 92.3449 330.103 98.1995 328.071C103.216 326.318 108.138 324.304 112.943 322.037C114.178 322.266 115.368 322.689 116.469 323.29C118.35 324.456 120.168 325.72 121.915 327.078C123.22 327.997 124.895 329.077 126.582 328.59Z" fill="#096561"/>
<path d="M631.315 142.807C631.448 139.367 632.524 136.03 634.426 133.16C636.327 130.291 638.981 127.999 642.097 126.535C648.468 123.668 655.286 125.085 660.749 128.771C662.23 120.171 668.719 111.985 678.349 113.638C686.256 114.994 689.849 122.438 690.214 129.778C698.985 129.805 705.955 136.406 705.851 145.017C707.69 145.334 709.409 146.145 710.823 147.363C712.237 148.582 713.294 150.162 713.88 151.934C715.702 157.557 712.65 163.714 707.917 166.844C697.923 173.453 683.593 170.66 675.805 162.068C666.632 168.374 652.905 168.261 644.967 160.135C639.994 163.357 634.823 166.37 628.561 165.154C623.706 164.211 618.556 160.717 617.243 155.738C614.81 146.524 623.666 141.223 631.315 142.807Z" fill="white"/>
<path d="M550.315 41.4958C552.341 40.7382 554.528 40.5144 556.666 40.8458C557.424 40.9368 558.166 41.0888 558.879 41.1688C558.389 37.8344 559.018 34.4316 560.669 31.4932C562.319 28.5549 564.898 26.2469 568 24.9308C570.595 23.8864 573.399 23.4636 576.187 23.6961C578.975 23.9286 581.67 24.81 584.056 26.2698C582.079 24.9608 592.367 18.4188 593.556 18.0568C598.478 16.61 603.764 17.0591 608.371 19.3158C611.166 20.7708 613.552 22.9016 615.313 25.5143C617.074 28.1269 618.153 31.1384 618.453 34.2748C618.557 35.9069 618.416 37.5454 618.035 39.1358C621.289 39.5021 624.409 40.6393 627.135 42.4528C629.949 44.2931 632.037 47.0531 633.042 50.2615C634.047 53.4699 633.908 56.9278 632.647 60.0448C627.807 72.1878 611.394 74.0368 601.421 67.1868C594.066 74.9548 578.53 70.4998 569.621 65.6528C561.529 69.7808 551.239 69.8188 545.251 61.9818C540.124 55.2768 542.115 44.7708 550.315 41.4958Z" fill="white"/>
<path opacity="0.5" d="M70.2654 347.613C81.9512 347.613 91.4244 345.946 91.4244 343.889C91.4244 341.832 81.9512 340.165 70.2654 340.165C58.5797 340.165 49.1064 341.832 49.1064 343.889C49.1064 345.946 58.5797 347.613 70.2654 347.613Z" fill="#555555"/>
<path d="M101.271 247.58C84.2622 229.655 56.7852 229.655 39.9942 247.58C31.7979 256.333 27.2373 267.876 27.2373 279.867C27.2373 291.859 31.7979 303.402 39.9942 312.155L70.5232 344.555L101.052 312.382C118.063 294.46 118.063 265.504 101.271 247.58Z" fill="#4B4237"/>
<path d="M70.5244 248.637C64.7888 248.637 59.1819 250.338 54.4129 253.524C49.6439 256.711 45.9269 261.24 43.7319 266.539C41.537 271.838 40.9627 277.669 42.0817 283.294C43.2006 288.92 45.9626 294.087 50.0183 298.143C54.0741 302.199 59.2414 304.961 64.8668 306.08C70.4923 307.199 76.3232 306.624 81.6222 304.429C86.9213 302.234 91.4505 298.517 94.6371 293.748C97.8236 288.979 99.5244 283.372 99.5244 277.637C99.5257 273.828 98.7765 270.056 97.3196 266.537C95.8627 263.018 93.7266 259.821 91.0335 257.128C88.3403 254.435 85.1428 252.299 81.6238 250.842C78.1048 249.385 74.3331 248.635 70.5244 248.637Z" fill="#F3F3F3"/>
<path d="M70.5139 264.927L59.2949 275.996V292H81.7328V275.996L70.5139 264.927Z" fill="#1918A9"/>
<path d="M74.403 282.932H66.7744V291.907H74.403V282.932Z" fill="white"/>
<path d="M84.5745 276.499L71.7106 263.635C71.3793 263.345 70.9541 263.185 70.5139 263.185C70.0737 263.185 69.6485 263.345 69.3173 263.635L56.4527 276.499C56.1353 276.817 55.957 277.247 55.957 277.696C55.957 278.145 56.1353 278.575 56.4527 278.893C56.7701 279.21 57.2005 279.388 57.6494 279.388C58.0982 279.388 58.5287 279.21 58.846 278.893L70.5136 267.076L82.1811 278.743C82.5127 279.032 82.9378 279.192 83.3778 279.192C83.8178 279.192 84.243 279.032 84.5745 278.743C84.8626 278.441 85.0234 278.039 85.0234 277.621C85.0234 277.203 84.8626 276.802 84.5745 276.499Z" fill="#1918A9"/>
<path d="M437.744 250.878C447.777 240.175 480.321 228.452 483.687 222.423C487.052 216.394 479.761 202.367 479.761 202.367C479.761 202.367 459.033 203.545 459.7 213.337C460.366 223.13 423.665 233.403 419.235 248.54C411.883 273.867 451.444 299.63 451.444 299.63C451.949 299.459 452.433 299.233 452.889 298.957C457.254 302.789 449.397 308.734 443.305 311.403C437.213 314.071 438.815 316.47 438.815 316.47C444.13 318.16 465.699 307.212 465.699 307.212C466.562 304.203 454.913 295.959 454.913 295.959C454.913 295.959 418.08 271.878 437.744 250.878Z" fill="black"/>
<path d="M451.029 158.851C448.482 154.995 442.505 153.509 437.446 157.43C432.387 161.352 437.876 177.448 430.231 190.842C423.765 202.156 407.031 210.856 401.972 213.3C401.368 213.584 400.957 213.893 401.022 214.282C400.006 214.632 398.942 215.235 399.289 216.008C399.83 217.238 400.41 218.258 401.729 218.017C402.298 217.918 402.848 217.728 403.357 217.456C403.9 217.521 404.45 217.425 404.938 217.178C416.269 212.156 426.747 205.396 435.993 197.142C447.626 186.354 453.573 162.746 451.029 158.851Z" fill="#FDFDFD"/>
<path d="M385.027 169.598C383.433 169.948 382.842 173.345 383.696 177.174C383.965 178.443 384.396 179.673 384.979 180.832C384.132 182.049 383.754 183.532 383.916 185.006L387.398 217.541L388.135 217.47L384.651 184.931C384.536 183.78 384.795 182.622 385.389 181.629C386.251 182.978 387.235 183.737 388.108 183.548C389.699 183.193 390.297 179.793 389.444 175.964C388.591 172.135 386.617 169.236 385.027 169.598Z" fill="#5A4A42"/>
<path d="M381.308 218.816C381.197 213.592 378.966 209.402 376.324 209.458C373.682 209.514 371.629 213.794 371.74 219.018C371.85 224.242 374.081 228.432 376.723 228.376C379.365 228.32 381.418 224.04 381.308 218.816Z" fill="#D0D2D3"/>
<path d="M378.273 208.969C378.273 208.969 374.434 209.041 373.728 210.534L374.459 227.995C374.459 227.995 375.507 229.866 378.483 229.657L378.273 208.969Z" fill="#4E4E4E"/>
<path d="M377.171 228.856L376.509 210.755C376.49 210.374 376.546 209.993 376.675 209.635C376.804 209.276 377.003 208.946 377.26 208.665C377.518 208.383 377.828 208.156 378.174 207.995C378.52 207.835 378.894 207.745 379.275 207.73C384.183 207.487 394.484 207.789 402.995 213.493C414.618 221.277 406.997 226.721 401.07 228.167C396.709 229.227 385.929 230.851 380.512 231.633C380.106 231.699 379.69 231.677 379.293 231.568C378.896 231.46 378.527 231.267 378.21 231.004C377.893 230.741 377.637 230.413 377.458 230.042C377.278 229.672 377.181 229.267 377.171 228.856Z" fill="#1918A9"/>
<path d="M566.902 239.495C568.679 238.713 568.365 234.09 566.201 229.168C564.036 224.247 560.841 220.891 559.063 221.672C557.286 222.454 557.599 227.078 559.764 231.999C561.928 236.921 565.124 240.277 566.902 239.495Z" fill="#EE4036"/>
<path d="M378.258 302.065C363.992 306.977 356.41 322.523 361.322 336.789C366.234 351.054 381.78 358.637 396.045 353.725C410.311 348.813 417.893 333.266 412.981 319.001C408.069 304.736 392.523 297.153 378.258 302.065Z" fill="#181818"/>
<path d="M400.742 326.631C400.055 319.121 393.411 313.589 385.901 314.275C378.391 314.961 372.859 321.605 373.545 329.116C374.231 336.626 380.875 342.158 388.385 341.472C395.896 340.785 401.428 334.141 400.742 326.631Z" fill="#F5F8FF"/>
<path d="M386.127 327.038C387.236 322.859 385.825 318.858 382.976 318.101C380.127 317.345 376.918 320.12 375.808 324.3C374.699 328.479 376.11 332.48 378.959 333.237C381.808 333.993 385.017 331.218 386.127 327.038Z" fill="#8E8E8E"/>
<path d="M533.2 248.714C518.935 253.626 511.352 269.173 516.264 283.438C521.176 297.703 536.722 305.286 550.988 300.374C565.253 295.462 572.835 279.915 567.924 265.65C563.012 251.385 547.465 243.802 533.2 248.714Z" fill="#181818"/>
<path d="M554.368 280.531C557.674 273.752 554.859 265.578 548.081 262.272C541.303 258.966 533.128 261.78 529.822 268.559C526.516 275.337 529.331 283.512 536.109 286.818C542.887 290.124 551.062 287.309 554.368 280.531Z" fill="white"/>
<path d="M540.89 273.741C542 269.561 540.589 265.56 537.74 264.804C534.891 264.047 531.681 266.822 530.572 271.002C529.463 275.181 530.873 279.183 533.723 279.939C536.572 280.695 539.781 277.92 540.89 273.741Z" fill="#8E8E8E"/>
<path d="M359.088 311.639C359.044 311.885 359.05 312.137 359.105 312.38C359.161 312.624 359.264 312.854 359.41 313.057C359.556 313.26 359.741 313.431 359.954 313.561C360.168 313.691 360.405 313.776 360.652 313.813L403.686 320.052C406.393 320.53 409.177 320.311 411.776 319.416L417.621 317.403C417.927 317.299 418.208 317.133 418.447 316.915C418.686 316.697 418.877 316.432 419.01 316.137C419.142 315.842 419.212 315.523 419.216 315.2C419.219 314.877 419.156 314.556 419.031 314.258C416.449 308.022 408.074 292.882 392.238 291.292C371.18 289.23 360.305 304.528 359.088 311.639Z" fill="#2F2FC2"/>
<path d="M568.548 260.383L522.578 276.211C514.402 279.027 517.862 295.715 509.802 298.49C501.743 301.265 442.461 322.226 437.323 323.446C432.184 324.667 426.18 314.282 409.74 299.579C393.299 284.877 381.43 294.474 378.543 291.601C375.655 288.729 383.966 234.863 386.616 232.425C389.623 229.501 393.465 227.586 397.61 226.947C398.798 226.74 400.022 226.91 401.108 227.435C403.163 228.777 400.361 258.177 407.093 262.344C413.284 266.196 421.551 312.413 435.559 315.425C436.827 315.695 438.145 315.607 439.366 315.171C455.718 309.541 479.995 300.633 482.631 293.415C485.267 286.198 456.491 251.286 455.281 246.833C454.071 242.379 497.522 220.906 501.146 221.823C504.77 222.74 503.524 235.176 510.769 232.682L551.716 218.583C559.701 215.833 566.455 248.107 569.033 249.201C571.612 250.294 575.334 258.046 568.548 260.383Z" fill="#1918A9"/>
<path d="M576.25 258.249C576.262 258.787 576.108 259.316 575.81 259.764C575.513 260.213 575.085 260.56 574.584 260.758L525.701 277.59C521.617 278.996 519.71 293.752 516.486 294.862C513.263 295.972 509.288 293.614 507.155 292.108C507.155 292.108 500.081 288.85 494.913 273.841C489.745 258.832 496.398 241.9 514.311 235.732C532.224 229.564 554.438 239.855 563.343 248.342C563.343 248.342 571.349 247.247 572.836 248.359C573.423 248.964 573.895 249.669 574.233 250.441C575.327 252.603 576.486 255.881 576.25 258.249Z" fill="#2F2FC2"/>
<path d="M559.832 220.478C559.301 219.271 557.891 218.722 556.684 219.253C555.476 219.783 554.928 221.193 555.458 222.401L563.65 241.036C564.181 242.244 565.591 242.792 566.798 242.262C568.006 241.731 568.554 240.321 568.023 239.113L559.832 220.478Z" fill="white"/>
<path d="M485.17 305.614L441.279 320.727C431.475 324.103 410.759 296.286 405.529 290.496C400.3 284.706 398.697 254.918 398.39 237.535C398.402 233.985 398.139 230.44 397.604 226.93C398.792 226.723 400.016 226.894 401.102 227.418C403.157 228.76 400.355 258.16 407.086 262.328C413.28 266.171 421.546 312.398 435.552 315.402C436.118 316.647 436.792 317.39 437.59 317.116L472.582 305.067C479.852 302.563 480.534 298.259 482.166 296.889C483.798 295.519 488.154 298.353 490.736 298.515C493.319 298.678 491.775 303.34 485.17 305.614Z" fill="#382423"/>
<path d="M422.788 152.464C428.373 151.051 434.284 151.771 439.366 154.484C448.011 159.029 446.861 151.903 446.861 151.903C446.861 151.903 433.172 143.554 431.415 136.416C429.658 129.278 422.788 152.464 422.788 152.464Z" fill="#F8C3A3"/>
<path d="M421.901 157.343C421.901 157.343 419.582 157.25 418.271 153.175C416.96 149.099 419.961 151.709 419.961 151.709C419.961 151.709 421.505 155.818 423.106 156.928C423.106 156.928 422.911 157.688 421.901 157.343Z" fill="#202021"/>
<path d="M401.436 128.677C401.445 132.256 402.642 135.73 404.837 138.556C408.454 142.95 406.605 145.904 407.731 149.175C411.823 161.057 416.255 164.257 437.3 137.553C453.761 116.678 404.698 107.32 401.436 128.677Z" fill="#F8C3A3"/>
<path d="M423.919 148.685C423.919 148.685 424.047 155.711 421.9 157.342C421.9 157.342 422.888 157.886 424.196 156.551C425.504 155.217 429.227 147.412 429.227 147.412L423.919 148.685Z" fill="#58595B"/>
<path d="M421.238 134.814C421.238 134.814 422.926 149.963 425.475 151.28C428.023 152.597 435.128 138.879 434.17 135.444C433.211 132.009 421.238 134.814 421.238 134.814Z" fill="#CDE90C"/>
<path d="M412.049 128.666C412.049 128.666 415.871 130.78 422.448 140.564C429.025 150.347 445.397 137.531 444.743 135.326C444.09 133.12 421.128 117.804 415.864 122.101C410.601 126.398 412.049 128.666 412.049 128.666Z" fill="#58595B"/>
<path d="M445.487 135.953L435.775 141.065C432.267 142.273 427.365 142.535 425.63 139.224C423.705 135.558 417.642 127.696 413.85 126.513C405.705 123.929 403.734 128.587 401.238 129.416C397.19 130.741 399.038 119.649 399.472 118.066C401.179 111.728 405.307 106.314 410.967 102.989C416.167 100.091 422.229 99.1392 428.067 100.305C433.905 101.47 439.137 104.677 442.825 109.35C443.788 110.578 444.631 111.895 445.343 113.284C445.599 113.806 445.85 114.337 446.076 114.861C447.523 118.206 448.22 121.828 448.118 125.472C448.017 129.116 447.118 132.693 445.487 135.953Z" fill="#CDE90C"/>
<path d="M414.962 125.543C415.161 125.674 415.304 125.874 415.364 126.104C415.424 126.334 415.396 126.578 415.285 126.789C413.067 130.791 396.287 139.496 392.151 141.613L392.057 141.646C391.832 141.722 391.585 141.706 391.372 141.601C391.159 141.496 390.996 141.311 390.918 141.086C390.841 140.847 390.819 140.594 390.854 140.346C390.865 139.967 391.006 139.604 391.254 139.317L398.88 131.668L398.325 126.448C398.31 126.285 398.34 126.12 398.414 125.974C398.487 125.827 398.601 125.704 398.741 125.619C406.836 120.941 413.093 124.282 414.962 125.543Z" fill="#202021"/>
<path d="M413.851 126.506C413.851 126.506 401.394 135.55 390.832 140.285C390.864 139.923 391.014 139.582 391.26 139.314L398.885 131.666C403.534 129.086 408.599 127.339 413.851 126.506V126.506Z" fill="#CDE90C"/>
<path d="M404.126 125.092C403.799 125.204 403.678 125.716 403.857 126.236C404.036 126.755 404.446 127.084 404.773 126.971C405.101 126.858 405.221 126.346 405.043 125.827C404.864 125.308 404.454 124.979 404.126 125.092Z" fill="#808184"/>
<path d="M408.844 135.874C409.342 136.787 409.361 137.732 408.894 137.99C408.426 138.248 407.636 137.715 407.15 136.8C406.665 135.885 406.633 134.943 407.102 134.69C407.571 134.438 408.354 134.96 408.844 135.874Z" fill="#202021"/>
<path d="M405.443 139.354C406.006 140.954 406.097 142.682 405.705 144.332C405.131 145.939 402.604 146.924 403.166 147.447C404.466 148.653 408.378 148.838 408.562 147.78C408.745 146.721 408.036 138.53 405.443 139.354Z" fill="#D8A675"/>
<path d="M409.33 151.604C409.24 151.637 409.141 151.632 409.054 151.592C408.967 151.552 408.9 151.479 408.867 151.389C408.835 151.299 408.839 151.2 408.879 151.113C408.919 151.027 408.992 150.959 409.082 150.926C413.479 149.177 419.432 146.037 418.906 144.534C418.875 144.444 418.881 144.345 418.923 144.259C418.965 144.173 419.039 144.107 419.129 144.076C419.174 144.061 419.221 144.054 419.269 144.057C419.316 144.06 419.362 144.072 419.405 144.093C419.447 144.113 419.485 144.142 419.517 144.178C419.548 144.213 419.572 144.254 419.588 144.299C420.526 147.024 411.219 150.848 409.343 151.599L409.33 151.604Z" fill="#B28256"/>
<path d="M410.772 108.65C412.757 109.985 412.86 113.319 410.996 116.095C409.133 118.871 406.007 120.034 404.019 118.695C402.031 117.356 401.931 114.025 403.795 111.25C405.659 108.475 408.781 107.315 410.772 108.65Z" fill="white"/>
<path d="M444.942 128.824C446.097 129.257 446.538 130.912 445.931 132.516C445.324 134.12 443.899 135.067 442.754 134.63C441.61 134.193 441.157 132.551 441.762 130.944C442.367 129.338 443.794 128.389 444.942 128.824Z" fill="white"/>
<path d="M410.084 117.804C410.45 118.027 410.715 118.383 410.827 118.797C410.938 119.211 410.886 119.652 410.682 120.028C410.587 120.447 410.334 120.814 409.977 121.052C409.619 121.29 409.184 121.381 408.76 121.307C408.396 121.083 408.131 120.727 408.019 120.313C407.908 119.899 407.959 119.459 408.162 119.081C408.263 118.665 408.517 118.303 408.873 118.066C409.229 117.83 409.662 117.736 410.084 117.804Z" fill="white"/>
<path d="M443.612 128.044C443.794 127.56 443.662 127.062 443.316 126.931C442.969 126.801 442.541 127.087 442.358 127.571C442.175 128.056 442.308 128.554 442.654 128.685C443 128.815 443.429 128.529 443.612 128.044Z" fill="white"/>
<path d="M446.083 114.828L424.745 127.426L428.138 114.262L428.839 117.58L442.829 109.318C443.792 110.546 444.635 111.864 445.347 113.252C445.601 113.805 445.852 114.336 446.083 114.828Z" fill="#202021"/>
<path d="M460.778 296.348C460.778 296.348 472.426 304.592 471.565 307.601C471.565 307.601 449.994 318.549 444.68 316.858C444.68 316.858 443.034 314.445 449.163 311.794C455.292 309.143 463.251 303.132 458.679 299.303C454.106 295.475 460.778 296.348 460.778 296.348Z" fill="#393533"/>
<path d="M386.33 219.234C384.248 215.203 394.911 211.951 399.822 213.354C404.733 214.758 406.484 221.623 403.077 222.796C399.671 223.969 389.371 225.131 386.33 219.234Z" fill="#7D8CC4"/>
<path d="M405.026 219.138C405.211 219.677 405.233 220.259 405.087 220.81C404.942 221.361 404.637 221.857 404.21 222.235C403.783 222.612 403.253 222.855 402.689 222.931C402.124 223.008 401.549 222.916 401.037 222.666C400.525 222.416 400.098 222.02 399.811 221.527C399.524 221.035 399.389 220.468 399.424 219.9C399.459 219.331 399.662 218.785 400.007 218.331C400.352 217.877 400.823 217.536 401.362 217.351C401.72 217.227 402.099 217.176 402.477 217.199C402.855 217.222 403.224 217.32 403.564 217.486C403.905 217.652 404.209 217.883 404.46 218.167C404.71 218.45 404.903 218.78 405.026 219.138Z" fill="#4E4E4E"/>
<path d="M411.756 215.356C411.756 215.356 409.228 217.355 407.757 216.733C406.285 216.112 400.273 213.481 398.041 216.824C395.809 220.168 403.326 218.274 404.998 219.146C406.67 220.018 405.239 221.284 406.022 222.383C406.804 223.482 408.79 223.298 410.634 220.285C412.478 217.273 413.682 216.545 413.682 216.545L411.756 215.356Z" fill="#F8C3A3"/>
<path d="M409.551 219.264L409.739 217.774L402.314 218.609C402.082 218.711 401.876 218.865 401.713 219.058C401.549 219.252 401.432 219.48 401.369 219.726C401.307 219.971 401.302 220.228 401.353 220.476C401.405 220.724 401.512 220.957 401.668 221.158C402.712 222.975 409.366 223.595 409.366 223.595L409.551 219.264Z" fill="#202021"/>
<path d="M412.255 219.728C412.441 220.267 412.462 220.849 412.317 221.4C412.172 221.951 411.866 222.447 411.439 222.824C411.012 223.202 410.483 223.444 409.918 223.521C409.353 223.598 408.778 223.505 408.266 223.255C407.754 223.005 407.327 222.609 407.04 222.117C406.753 221.624 406.619 221.058 406.653 220.489C406.688 219.92 406.891 219.374 407.236 218.921C407.581 218.467 408.053 218.126 408.592 217.94C408.95 217.817 409.328 217.765 409.706 217.788C410.084 217.812 410.454 217.909 410.794 218.075C411.134 218.241 411.438 218.472 411.689 218.756C411.94 219.04 412.132 219.37 412.255 219.728Z" fill="#4E4E4E"/>
<path d="M395.84 221.897C395.84 221.897 396.954 219.844 398.188 219.618C399.421 219.392 402.589 222.796 401.883 225.105C401.447 226.536 398.032 226.224 398.797 225.504C399.815 224.544 399.497 223.419 398.278 223.222C396.611 222.964 395.796 223.185 395.84 221.897Z" fill="#202021"/>
<path d="M399.942 224.714C399.028 225.029 398.405 225.629 398.552 226.054C398.698 226.479 399.558 226.568 400.472 226.254C401.387 225.939 402.009 225.339 401.863 224.914C401.717 224.489 400.857 224.399 399.942 224.714Z" fill="#4E4E4E"/>
<path d="M406.759 218.107C406.173 218.337 405.666 218.733 405.302 219.246C404.937 219.76 404.73 220.369 404.706 220.998C404.873 221.927 406.816 223.208 406.816 223.208C405.236 224.175 404.559 223.668 404.559 223.668C404.1 223.723 403.634 223.656 403.209 223.474C402.784 223.293 402.414 223.002 402.137 222.632C401.501 221.782 401.045 220.811 400.796 219.779C400.539 219.949 400.333 220.185 400.2 220.463C400.068 220.741 400.013 221.05 400.043 221.356C400.101 221.765 400.092 222.179 400.017 222.585C399.897 223.236 399.687 223.868 399.394 224.461C398.974 224.531 398.544 224.502 398.138 224.376C397.732 224.251 397.36 224.033 397.053 223.739C396.186 222.756 396.021 217.951 398.389 216.373C398.681 216.182 401.427 215.945 401.756 216.548L402.245 216.242C402.922 216.28 403.562 216.563 404.044 217.04C405.511 217.051 407.777 217.742 406.759 218.107Z" fill="#F8C3A3"/>
<path d="M399.052 224.495C399.052 224.495 398.578 223.584 398.139 222.906C397.699 222.228 398.372 218.384 398.727 218.129C399.081 217.875 402.534 216.395 402.443 216.172C402.351 215.949 400.477 216.461 399.732 216.899C398.987 217.338 398.395 217.443 398.118 218.323C397.842 219.203 397.354 222.191 397.64 222.771C398.05 223.393 398.523 223.97 399.052 224.495V224.495Z" fill="#B28256"/>
<path d="M401.317 218.524C400.661 218.834 400.796 219.778 400.796 219.778C400.539 219.948 400.334 220.184 400.201 220.463C400.068 220.741 400.014 221.049 400.044 221.356C400.101 221.764 400.092 222.179 400.017 222.585C399.745 222.216 399.615 221.761 399.65 221.304C399.686 220.847 399.885 220.418 400.211 220.095C400.355 219.962 400.491 218.695 400.799 218.262C401.665 217.627 402.664 217.198 403.72 217.004C403.932 217.136 401.999 218.206 401.317 218.524Z" fill="#B28256"/>
<path d="M404.561 223.673C404.074 223.262 403.672 222.762 403.375 222.199C402.992 221.393 402.617 220.239 403.179 219.66C403.741 219.081 405.012 217.878 404.808 217.75C404.604 217.621 403.288 219.172 402.753 219.441C402.219 219.709 401.958 220.164 402.58 221.307C403.202 222.449 403.453 223.42 404.561 223.673Z" fill="#B28256"/>
<path d="M485.596 202.797C485.596 202.797 492.863 216.824 489.519 222.846C486.174 228.868 453.577 240.616 443.594 251.342C423.937 272.338 460.794 296.381 460.794 296.381C460.794 296.381 460.987 298.814 457.322 300.076C457.322 300.076 414.465 272.422 424.849 245.83C432.678 225.782 459.143 221.966 458.48 212.149C457.817 202.332 485.596 202.797 485.596 202.797Z" fill="#333333"/>
<path d="M430.325 155.517C430.325 155.517 434.908 144.481 439.687 142.644C444.466 140.807 443.108 147.754 443.108 147.754C443.108 147.754 454.425 147.668 471.985 170.369C489.544 193.07 487.398 204.074 487.398 204.074C487.398 204.074 463.155 218.792 455.668 214.999C443.324 208.74 440.845 161.924 435.624 157.762C435.618 157.764 430.38 161.191 430.325 155.517Z" fill="white"/>
<path d="M413.544 213.751C413.544 213.751 409.948 214.364 410.618 215.878C411.19 217.206 411.775 218.331 412.978 218.153C413.843 218.01 414.643 217.604 415.269 216.991L413.544 213.751Z" fill="#726DA8"/>
<path d="M412.286 214.504C411.841 213.895 412.255 213.493 412.938 213.144C417.472 210.82 432.355 202.518 437.66 190.853C443.948 177.043 437.98 159.579 442.432 155.731C446.883 151.882 452.44 153.808 455.023 158.056C457.606 162.304 453.436 187.089 443.317 197.852C435.449 206.012 426.147 212.653 415.875 217.445C415.331 217.632 414.513 217.914 414.18 217.457L412.286 214.504Z" fill="#FDFAFA"/>
<path d="M503.789 220.241L501.291 217.412C500.523 216.548 499.473 215.984 498.329 215.821C497.184 215.657 496.018 215.904 495.038 216.517C485.549 222.437 459.485 238.446 451.876 240.41C444.498 242.311 451.947 250.53 455.445 253.936C455.91 254.392 456.493 254.708 457.129 254.85C457.764 254.992 458.426 254.954 459.041 254.74L460.07 254.386C460.07 254.386 477.172 234.688 503.662 225.567L504.278 224.478C504.65 223.809 504.802 223.041 504.714 222.281C504.627 221.521 504.303 220.808 503.789 220.241Z" fill="#201916"/>
<path d="M520.818 231.037L579.346 210.885C588.427 207.758 593.584 203.543 589.893 192.826C586.203 182.109 571.468 135.199 550.974 142.256L503.866 158.476C491.827 162.622 484.85 165.024 494.063 191.782C502.356 215.865 508.173 235.392 520.818 231.037Z" fill="#164E1E"/>
<path d="M581.323 169.972C574.33 154.089 563.668 137.069 550.736 141.522L503.616 157.747C491.576 161.893 484.599 164.295 493.813 191.053L496.599 199.145L581.323 169.972Z" fill="#05122B"/>
<path d="M519.719 227.842L578.246 207.69C587.327 204.563 592.557 200.559 589.223 190.878C585.89 181.197 572.71 138.804 552.216 145.861L505.108 162.081C493.069 166.227 486.092 168.629 494.411 192.789C501.887 214.503 507.073 232.197 519.719 227.842Z" fill="#1918A9"/>
<path d="M381.355 209.974C381.454 210.261 381.465 210.571 381.388 210.864C381.31 211.158 381.148 211.422 380.92 211.623C380.693 211.824 380.411 211.954 380.11 211.994C379.81 212.035 379.503 211.986 379.23 211.853C378.958 211.72 378.73 211.509 378.577 211.247C378.424 210.985 378.353 210.683 378.371 210.38C378.39 210.077 378.498 209.786 378.682 209.544C378.865 209.303 379.117 209.121 379.404 209.022C379.789 208.89 380.21 208.915 380.576 209.094C380.942 209.272 381.222 209.589 381.355 209.974V209.974Z" fill="white"/>
<path d="M399.415 213.358C399.362 213.376 399.304 213.383 399.248 213.378C399.191 213.372 399.136 213.355 399.087 213.326C393.785 210.167 383.227 210.358 383.122 210.363C383.03 210.352 382.945 210.309 382.882 210.241C382.82 210.172 382.785 210.084 382.783 209.991C382.781 209.899 382.812 209.809 382.872 209.738C382.931 209.667 383.014 209.62 383.105 209.606C383.557 209.596 394.001 209.406 399.493 212.675C399.537 212.702 399.574 212.736 399.604 212.777C399.634 212.817 399.655 212.863 399.667 212.913C399.679 212.962 399.681 213.012 399.673 213.062C399.665 213.112 399.647 213.16 399.621 213.203C399.574 213.278 399.501 213.333 399.415 213.358Z" fill="white"/>
<path d="M393.668 214.925L392.914 214.948L391.772 182.251C391.737 181.177 391.981 180.113 392.48 179.162C392.98 178.212 393.718 177.407 394.622 176.827L400.142 173.324L400.547 173.947L395.044 177.466C394.253 177.972 393.607 178.675 393.169 179.506C392.731 180.338 392.516 181.268 392.546 182.207L393.668 214.925Z" fill="#5A4A42"/>
<path d="M401.628 174.781C402.197 178.661 401.363 182.004 399.766 182.28C398.17 182.555 396.375 179.568 395.795 175.683C395.216 171.798 396.058 168.459 397.655 168.184C399.253 167.909 401.044 170.896 401.628 174.781Z" fill="#4E4E4E"/>
<path d="M392.827 212.219L393.607 212.268L394.615 214.599C394.615 214.599 392.286 216.437 390.939 216.428C389.592 216.419 392.827 212.219 392.827 212.219Z" fill="#4E4E4E"/>
<path d="M394.698 221.635L394.596 221.67C393.173 221.786 391.742 221.577 390.412 221.058C389.082 220.539 387.887 219.724 386.919 218.674C386.888 218.635 386.865 218.59 386.85 218.541C386.836 218.493 386.832 218.443 386.837 218.393C386.843 218.343 386.858 218.294 386.882 218.25C386.906 218.206 386.939 218.167 386.978 218.136C387.018 218.104 387.063 218.081 387.111 218.066C387.159 218.052 387.21 218.048 387.26 218.053C387.361 218.064 387.453 218.115 387.517 218.194C388.414 219.139 389.51 219.872 390.726 220.341C391.942 220.809 393.246 221.001 394.546 220.903C394.647 220.902 394.746 220.94 394.82 221.009C394.895 221.078 394.941 221.173 394.948 221.275C394.948 221.353 394.924 221.43 394.88 221.494C394.835 221.559 394.772 221.608 394.698 221.635V221.635Z" fill="white"/>
<path d="M366.662 303.888C367.394 304.398 366.966 306.305 365.676 308.129C364.387 309.952 362.758 311.009 362.024 310.492C361.289 309.975 361.72 308.074 363.01 306.251C364.299 304.427 365.928 303.371 366.662 303.888Z" fill="white"/>
<path d="M397.035 295.927C396.903 295.974 396.76 295.984 396.622 295.955C378.407 291.969 368.493 302.417 368.397 302.519C368.259 302.664 368.069 302.749 367.868 302.755C367.667 302.761 367.473 302.688 367.326 302.551C367.178 302.415 367.091 302.226 367.082 302.026C367.073 301.825 367.143 301.629 367.277 301.48C367.377 301.37 377.845 290.274 396.957 294.453C397.132 294.478 397.292 294.562 397.412 294.691C397.532 294.82 397.603 294.987 397.614 295.163C397.625 295.339 397.574 295.513 397.472 295.656C397.369 295.799 397.22 295.902 397.05 295.948L397.035 295.927Z" fill="white"/>
<path d="M405.912 293.689C405.816 293.721 405.715 293.733 405.615 293.726C405.514 293.719 405.416 293.692 405.326 293.646C405.097 293.535 402.948 292.361 397.97 286.104C392.838 279.656 393.747 232.473 393.789 230.469C393.817 230.284 393.91 230.115 394.053 229.994C394.196 229.873 394.378 229.808 394.565 229.812C394.752 229.815 394.931 229.886 395.07 230.012C395.208 230.137 395.296 230.309 395.318 230.495C395.039 244.004 395.192 280.151 399.161 285.148C403.925 291.129 405.992 292.262 406.01 292.27C406.192 292.362 406.331 292.52 406.397 292.713C406.463 292.905 406.452 293.115 406.365 293.299C406.321 293.393 406.259 293.476 406.18 293.543C406.102 293.61 406.011 293.66 405.912 293.689Z" fill="white"/>
<path d="M512.211 256.949C516.388 252.143 517.454 246.231 514.592 243.743C511.73 241.255 506.023 243.133 501.846 247.939C497.669 252.744 496.603 258.657 499.465 261.145C502.327 263.633 508.034 261.754 512.211 256.949Z" fill="white"/>
<path d="M559.345 250.962C559.232 251 559.112 251.011 558.994 250.995C558.876 250.978 558.764 250.935 558.665 250.868C535.004 234.963 518.214 241.246 518.032 241.317C517.94 241.361 517.84 241.384 517.739 241.386C517.637 241.388 517.536 241.369 517.442 241.329C517.349 241.289 517.265 241.23 517.195 241.156C517.126 241.081 517.074 240.993 517.041 240.896C516.966 240.709 516.969 240.499 517.047 240.314C517.126 240.128 517.276 239.981 517.462 239.905C518.178 239.659 535.103 233.236 559.486 249.625C559.604 249.705 559.698 249.817 559.756 249.947C559.814 250.077 559.835 250.221 559.817 250.362C559.798 250.503 559.741 250.637 559.651 250.748C559.561 250.858 559.442 250.942 559.308 250.989L559.345 250.962Z" fill="white"/>
<path d="M492.206 295.571C492.078 295.615 491.941 295.623 491.809 295.593C491.609 295.554 491.433 295.436 491.319 295.267C491.205 295.098 491.162 294.89 491.201 294.69C491.796 291.749 486.334 284.781 481.049 278.043C472.865 267.554 464.341 256.721 468.42 250.886C474.986 241.468 497.006 230.274 497.94 229.799C498.122 229.708 498.333 229.692 498.526 229.755C498.719 229.819 498.88 229.956 498.972 230.138C499.063 230.32 499.079 230.53 499.016 230.724C498.952 230.917 498.815 231.078 498.633 231.17C498.395 231.252 476.024 242.666 469.683 251.762C466.254 256.677 474.765 267.541 482.261 277.092C488.259 284.751 493.439 291.359 492.715 294.991C492.688 295.124 492.626 295.247 492.537 295.348C492.448 295.45 492.334 295.527 492.206 295.571Z" fill="white"/>
<path d="M457.408 252.057C457.267 252.111 457.113 252.122 456.966 252.088C456.819 252.055 456.685 251.979 456.581 251.869C456.284 251.56 455.94 251.236 455.582 250.894C454.22 249.595 452.666 248.091 452.183 246.379C451.13 242.657 456.029 240.726 458.385 239.801L458.604 239.726C462.845 238.054 466.976 236.218 471.229 234.098C478.518 230.475 487.953 225.451 496.237 218.698C496.396 218.59 496.59 218.546 496.78 218.574C496.97 218.602 497.143 218.7 497.265 218.848C497.387 218.997 497.449 219.186 497.439 219.378C497.428 219.57 497.347 219.751 497.21 219.886C488.809 226.742 479.28 231.822 471.901 235.459C467.613 237.592 463.439 239.448 459.162 241.134L458.991 241.193C457.052 241.959 453.026 243.536 453.705 245.929C454.088 247.261 455.466 248.584 456.692 249.755C457.064 250.107 457.419 250.45 457.729 250.773C457.799 250.844 457.855 250.93 457.892 251.023C457.93 251.117 457.948 251.217 457.946 251.317C457.944 251.418 457.922 251.517 457.882 251.609C457.841 251.701 457.783 251.785 457.709 251.854C457.628 251.946 457.524 252.016 457.408 252.057Z" fill="#7C675D"/>
<path opacity="0.9" d="M505.396 167.095C506.702 169.015 505.335 172.214 502.344 174.243C499.353 176.271 495.874 176.34 494.578 174.417C493.281 172.493 494.64 169.289 497.63 167.269C500.619 165.25 504.097 165.164 505.396 167.095Z" fill="white"/>
<path opacity="0.6" d="M567.762 155.796C567.624 155.85 567.473 155.863 567.327 155.833C567.182 155.804 567.048 155.733 566.942 155.629C566.871 155.554 559.014 147.986 551.805 150.469L510.626 164.648C510.44 164.693 510.243 164.666 510.075 164.574C509.907 164.482 509.779 164.331 509.717 164.149C509.654 163.968 509.662 163.77 509.737 163.594C509.813 163.417 509.952 163.276 510.126 163.196L551.333 149.008C559.44 146.215 567.7 154.178 568.047 154.524C568.19 154.667 568.272 154.86 568.275 155.062C568.278 155.265 568.202 155.46 568.063 155.608C567.977 155.691 567.874 155.755 567.762 155.796Z" fill="white"/>
<path d="M566.354 173.091L519.246 189.312L519.222 184.504L510.774 201.824L566.63 182.591L566.354 173.091Z" fill="white"/>
<path d="M567.244 172.785L567.523 182.284L570.265 181.34L569.986 171.841L567.244 172.785Z" fill="white"/>
<path d="M570.878 171.534L571.161 181.031L573.171 180.339L572.895 170.839L570.878 171.534Z" fill="white"/>
<path d="M575.239 170.032L575.522 179.53L576.809 179.086L576.527 169.589L575.239 170.032Z" fill="white"/>
<path d="M579.599 168.531L579.875 178.031L580.442 177.835L580.158 168.338L579.599 168.531Z" fill="white"/>
<path d="M576.249 258.249L525.15 275.844L532.637 260.493L532.659 264.762L574.22 250.451C575.328 252.607 576.486 255.881 576.249 258.249Z" fill="#27272C"/>
<path d="M609.794 233.934L609.648 233.511C609.189 232.334 608.292 231.38 607.146 230.849C605.999 230.319 604.692 230.252 603.497 230.663C602.303 231.075 601.313 231.932 600.737 233.056C600.16 234.18 600.04 235.484 600.403 236.694C600.41 236.727 600.421 236.759 600.436 236.789C599.78 237.17 599.221 237.699 598.805 238.333C598.389 238.967 598.126 239.69 598.037 240.444C597.949 241.197 598.037 241.961 598.295 242.675C598.553 243.388 598.973 244.032 599.523 244.555C600.073 245.077 600.737 245.465 601.463 245.687C602.189 245.908 602.956 245.958 603.704 245.831C604.452 245.705 605.161 245.406 605.773 244.958C606.386 244.511 606.886 243.926 607.233 243.252C607.879 243.55 608.582 243.703 609.293 243.702C610.004 243.7 610.706 243.543 611.351 243.242C611.995 242.94 612.565 242.502 613.023 241.957C613.48 241.413 613.813 240.775 613.998 240.088C614.183 239.402 614.216 238.683 614.095 237.982C613.974 237.281 613.701 236.615 613.296 236.031C612.89 235.447 612.362 234.958 611.748 234.599C611.135 234.239 610.45 234.019 609.742 233.951L609.794 233.934Z" fill="white"/>
<path d="M622.748 205.706C621.054 204.487 618.946 203.989 616.886 204.324C614.826 204.659 612.983 205.798 611.763 207.492L611.678 207.621C610.566 207.117 609.352 206.879 608.133 206.925C606.913 206.971 605.721 207.3 604.65 207.886C603.579 208.473 602.66 209.3 601.964 210.303C601.269 211.306 600.816 212.457 600.641 213.665C600.467 214.873 600.576 216.105 600.96 217.263C601.344 218.422 601.992 219.475 602.854 220.34C603.715 221.205 604.766 221.858 605.923 222.247C607.079 222.636 608.311 222.75 609.52 222.581C609.726 223.709 610.175 224.778 610.837 225.714C611.5 226.65 612.358 227.43 613.353 227.999C614.348 228.568 615.456 228.913 616.598 229.01C617.74 229.106 618.89 228.952 619.966 228.558C621.043 228.164 622.02 227.539 622.83 226.728C623.64 225.917 624.263 224.938 624.655 223.861C625.047 222.784 625.199 221.634 625.101 220.492C625.002 219.35 624.655 218.243 624.084 217.249C624.234 217.069 624.383 216.887 624.532 216.691C625.75 214.997 626.246 212.889 625.912 210.83C625.577 208.77 624.439 206.928 622.748 205.706Z" fill="white"/>
<path d="M596.867 215.073C596.878 214.97 596.89 214.874 596.895 214.773C596.88 213.89 596.514 213.049 595.879 212.435C595.244 211.822 594.391 211.485 593.508 211.5C592.625 211.515 591.784 211.88 591.17 212.516C590.556 213.151 590.22 214.004 590.235 214.887L590.256 214.948C589.751 215.059 589.279 215.285 588.877 215.609C588.475 215.933 588.154 216.347 587.939 216.816C587.724 217.286 587.622 217.799 587.639 218.316C587.657 218.832 587.795 219.337 588.042 219.791C588.289 220.245 588.638 220.635 589.061 220.93C589.485 221.226 589.971 221.419 590.482 221.494C590.993 221.569 591.515 221.524 592.006 221.363C592.496 221.202 592.943 220.929 593.31 220.565C593.665 220.896 594.089 221.145 594.551 221.294C595.013 221.444 595.502 221.491 595.984 221.432C596.466 221.372 596.929 221.208 597.341 220.951C597.753 220.694 598.103 220.349 598.368 219.942C598.633 219.535 598.805 219.075 598.873 218.594C598.941 218.114 598.903 217.624 598.762 217.159C598.621 216.694 598.38 216.266 598.056 215.905C597.731 215.543 597.332 215.257 596.885 215.066L596.867 215.073Z" fill="white"/>
<path d="M584.434 248.328C584.438 248.35 584.445 248.371 584.455 248.39C583.961 248.538 583.508 248.8 583.132 249.153C582.757 249.507 582.468 249.943 582.29 250.427C582.111 250.911 582.048 251.43 582.104 251.943C582.161 252.456 582.336 252.949 582.616 253.382C582.895 253.816 583.272 254.178 583.716 254.442C584.16 254.705 584.659 254.861 585.173 254.898C585.688 254.935 586.204 254.852 586.681 254.656C587.158 254.459 587.583 254.155 587.922 253.766C588.302 254.071 588.743 254.29 589.216 254.406C589.689 254.522 590.181 254.533 590.659 254.439C591.136 254.344 591.587 254.146 591.98 253.858C592.372 253.57 592.697 253.199 592.931 252.772C593.165 252.345 593.302 251.872 593.333 251.386C593.364 250.9 593.288 250.413 593.111 249.96C592.933 249.506 592.658 249.097 592.306 248.762C591.953 248.426 591.531 248.172 591.069 248.017C591.077 247.918 591.078 247.818 591.072 247.719C591.045 247.273 590.928 246.837 590.729 246.437C590.53 246.037 590.252 245.681 589.913 245.39C589.574 245.099 589.18 244.88 588.754 244.744C588.328 244.608 587.88 244.56 587.435 244.601C586.99 244.642 586.558 244.771 586.164 244.983C585.77 245.194 585.422 245.482 585.142 245.829C584.862 246.177 584.654 246.578 584.531 247.008C584.408 247.437 584.373 247.887 584.427 248.331L584.434 248.328Z" fill="white"/>
<path d="M608.494 249.106C608.258 248.661 607.857 248.327 607.377 248.176C606.897 248.024 606.377 248.068 605.929 248.297C605.492 248.523 605.16 248.91 605.005 249.377C604.737 249.301 604.455 249.285 604.18 249.329C603.904 249.374 603.642 249.478 603.411 249.634C603.18 249.79 602.986 249.995 602.842 250.233C602.698 250.472 602.608 250.74 602.578 251.017C602.549 251.294 602.58 251.575 602.669 251.839C602.759 252.103 602.905 252.344 603.098 252.546C603.29 252.747 603.524 252.905 603.784 253.007C604.044 253.108 604.322 253.152 604.601 253.136L604.657 253.299C604.902 253.738 605.309 254.063 605.79 254.205C606.272 254.347 606.79 254.294 607.233 254.058C607.677 253.823 608.01 253.422 608.162 252.944C608.314 252.465 608.272 251.946 608.045 251.498C608.384 251.212 608.614 250.818 608.696 250.382C608.778 249.946 608.706 249.495 608.494 249.106Z" fill="white"/>
<path d="M608.679 190.191C608.439 189.743 608.03 189.408 607.543 189.259C607.056 189.111 606.53 189.162 606.08 189.401C605.644 189.628 605.312 190.015 605.157 190.482C604.888 190.403 604.604 190.383 604.327 190.426C604.049 190.468 603.784 190.571 603.551 190.727C603.317 190.883 603.121 191.088 602.975 191.329C602.83 191.569 602.739 191.838 602.709 192.117C602.68 192.396 602.711 192.679 602.803 192.944C602.894 193.21 603.043 193.452 603.238 193.654C603.433 193.856 603.67 194.012 603.933 194.112C604.195 194.212 604.476 194.253 604.756 194.233C604.772 194.288 604.79 194.343 604.813 194.396C605.061 194.829 605.467 195.148 605.946 195.287C606.425 195.426 606.939 195.374 607.38 195.141C607.821 194.908 608.155 194.513 608.31 194.039C608.465 193.565 608.431 193.049 608.213 192.6C608.558 192.315 608.793 191.919 608.877 191.479C608.962 191.04 608.892 190.585 608.678 190.192L608.679 190.191Z" fill="white"/>
<path d="M638.081 227.555C638.411 227.373 638.68 227.099 638.855 226.767C639.031 226.434 639.105 226.057 639.068 225.683C639.032 225.308 638.887 224.953 638.65 224.66C638.414 224.368 638.097 224.151 637.739 224.036C637.868 223.561 637.807 223.055 637.57 222.623C637.36 222.238 637.024 221.936 636.618 221.768C636.212 221.6 635.76 221.577 635.339 221.702C634.918 221.828 634.553 222.094 634.305 222.456C634.056 222.818 633.94 223.255 633.975 223.693C633.92 223.708 633.865 223.727 633.812 223.749C633.591 223.87 633.396 224.034 633.238 224.23C633.08 224.427 632.962 224.652 632.892 224.894C632.821 225.136 632.799 225.39 632.826 225.64C632.853 225.891 632.93 226.133 633.051 226.354C633.172 226.575 633.335 226.77 633.532 226.928C633.728 227.086 633.954 227.204 634.196 227.274C634.438 227.345 634.691 227.367 634.942 227.34C635.192 227.313 635.435 227.236 635.656 227.115L635.693 227.102C635.977 227.442 636.371 227.673 636.806 227.755C637.242 227.838 637.692 227.767 638.081 227.555Z" fill="white"/>
<path d="M588.008 237.35C587.764 237.285 587.509 237.269 587.259 237.303C587.008 237.336 586.767 237.419 586.548 237.546C586.329 237.673 586.138 237.842 585.985 238.043C585.831 238.244 585.719 238.473 585.654 238.717C585.526 239.196 585.592 239.705 585.838 240.135C585.604 240.283 585.405 240.481 585.254 240.714C585.104 240.947 585.006 241.209 584.967 241.484C584.928 241.758 584.949 242.038 585.029 242.303C585.108 242.569 585.245 242.814 585.428 243.022C585.611 243.23 585.838 243.395 586.091 243.507C586.345 243.619 586.62 243.675 586.897 243.67C587.174 243.665 587.447 243.601 587.697 243.481C587.946 243.36 588.167 243.187 588.343 242.974C588.405 242.995 588.451 243.02 588.508 243.031C588.754 243.102 589.011 243.123 589.264 243.094C589.518 243.065 589.764 242.985 589.986 242.86C590.209 242.734 590.404 242.566 590.561 242.364C590.718 242.163 590.833 241.932 590.9 241.686C590.967 241.439 590.984 241.182 590.951 240.928C590.917 240.675 590.833 240.431 590.704 240.211C590.575 239.99 590.404 239.797 590.2 239.644C589.996 239.49 589.763 239.379 589.515 239.316C589.534 238.863 589.394 238.419 589.118 238.06C588.842 237.7 588.449 237.45 588.007 237.351L588.008 237.35Z" fill="white"/>
</g>
<defs>
<clipPath id="clip0">
<rect width="742.925" height="446.324" fill="white" transform="translate(0.146484 0.747803)"/>
</clipPath>
</defs>
</svg>
