<svg width="369" height="210" viewBox="0 0 369 210" fill="none" xmlns="http://www.w3.org/2000/svg">
<g clip-path="url(#clip0)">
<path d="M167.415 208.177C167.178 205.47 167.675 202.748 168.852 200.299C170.03 197.85 171.845 195.762 174.107 194.256C176.369 192.75 178.995 191.88 181.709 191.739C184.423 191.597 187.125 192.188 189.532 193.451C190.693 190.342 191.885 187.177 193.945 184.575C196.005 181.973 199.112 179.975 202.429 180.098V208.177H167.415Z" fill="#EBEBEB"/>
<path d="M75.2353 99.5439L57.3463 135.63L62.6873 135.83L47.5293 164.509H55.4903L43.0703 189.985H112.492L97.2083 164.509L104.532 164.191L89.8833 135.529L95.3013 135.209L75.2353 99.5439Z" fill="#EBEBEB"/>
<path d="M78.2603 141.406C78.3483 141.406 78.1963 156.689 77.9203 175.535C77.6443 194.381 77.3493 209.664 77.2613 209.663C77.1733 209.662 77.3253 194.383 77.6013 175.53C77.8773 156.677 78.1723 141.405 78.2603 141.406Z" fill="#E0E0E0"/>
<path d="M86.7688 149.817C86.4289 150.405 86.0391 150.963 85.6038 151.484C84.8468 152.484 83.7658 153.842 82.5538 155.322L79.4328 159.099C79.0234 159.64 78.5753 160.15 78.0918 160.626C78.4317 160.038 78.8215 159.48 79.2568 158.959C80.0138 157.959 81.0948 156.601 82.3078 155.12L85.4288 151.343C85.8379 150.802 86.2858 150.292 86.7688 149.817Z" fill="#E0E0E0"/>
<path d="M78.0912 160.627C75.4158 158.811 72.8626 156.82 70.4482 154.669C71.8158 155.533 73.1253 156.486 74.3682 157.522C75.6762 158.474 76.9199 159.511 78.0912 160.627Z" fill="#E0E0E0"/>
<path d="M77.6158 178.328C77.1513 178.019 76.7147 177.671 76.3108 177.286C75.5268 176.619 74.4438 175.7 73.2278 174.709C72.0118 173.718 70.8918 172.843 70.0808 172.209C69.6233 171.89 69.1947 171.532 68.7998 171.139C69.3023 171.384 69.7775 171.681 70.2178 172.025C71.0658 172.613 72.2108 173.464 73.4318 174.459C74.6528 175.454 75.7158 176.404 76.4638 177.116C76.8893 177.478 77.2754 177.885 77.6158 178.328Z" fill="#E0E0E0"/>
<path d="M87.5121 167.386C87.4287 167.562 87.321 167.726 87.1921 167.873C86.9711 168.173 86.6331 168.598 86.2021 169.111C85.3441 170.138 84.0911 171.497 82.6811 172.967C81.2711 174.437 79.9961 175.767 79.0981 176.752C78.6346 177.304 78.1409 177.83 77.6191 178.328C77.7025 178.151 77.8102 177.988 77.9391 177.841C78.1601 177.541 78.4981 177.116 78.9291 176.603C79.7871 175.577 81.0401 174.217 82.4501 172.747C83.8601 171.277 85.1341 169.947 86.0331 168.963C86.4964 168.41 86.9902 167.884 87.5121 167.386Z" fill="#E0E0E0"/>
<path d="M220.854 140.607H293.387L306.941 121.368L321.141 141.155L337.835 140.889L319.84 116.656L238.965 116.992L220.854 140.607Z" fill="#E0E0E0"/>
<path d="M257.129 140.883V208.343H329.556V140.883H321.256L306.941 121.362L293.341 140.587L257.129 140.883Z" fill="#F5F5F5"/>
<path d="M284.303 179.095H267.362V208.342H284.303V179.095Z" fill="#E0E0E0"/>
<path d="M321.148 178.272H294.459V194.804H321.148V178.272Z" fill="#E0E0E0"/>
<path d="M302.47 178.272H301.858V194.958H302.47V178.272Z" fill="#EBEBEB"/>
<path d="M313.57 178.272H312.958V194.958H313.57V178.272Z" fill="#EBEBEB"/>
<path d="M313.264 186.813H302.165V187.425H313.264V186.813Z" fill="#EBEBEB"/>
<path d="M321.148 145.183H294.459V161.715H321.148V145.183Z" fill="#E0E0E0"/>
<path d="M302.47 145.183H301.858V161.87H302.47V145.183Z" fill="#EBEBEB"/>
<path d="M313.57 145.183H312.958V161.87H313.57V145.183Z" fill="#EBEBEB"/>
<path d="M313.264 153.724H302.165V154.336H313.264V153.724Z" fill="#EBEBEB"/>
<path d="M282.537 145.332H265.705V161.269H282.537V145.332Z" fill="#E0E0E0"/>
<path d="M257.128 140.885H227.73V208.343H257.128V140.885Z" fill="#E0E0E0"/>
<path d="M274.426 145.333H273.814V161.27H274.426V145.333Z" fill="#EBEBEB"/>
<path d="M282.537 153.387H265.705V153.999H282.537V153.387Z" fill="#EBEBEB"/>
<path d="M306.902 137.81C308.873 137.81 310.471 136.212 310.471 134.241C310.471 132.27 308.873 130.672 306.902 130.672C304.931 130.672 303.333 132.27 303.333 134.241C303.333 136.212 304.931 137.81 306.902 137.81Z" fill="#E0E0E0"/>
<path d="M281.444 129.864L285.944 124.309V110.946H276.512V129.968L281.444 129.864Z" fill="#F5F5F5"/>
<path d="M281.447 129.864V110.946H285.947V124.309L281.447 129.864Z" fill="#EBEBEB"/>
<path d="M286.586 108.979H275.467V110.946H286.586V108.979Z" fill="#EBEBEB"/>
<path d="M257.129 170.394H202.43V208.343H257.129V170.394Z" fill="#F5F5F5"/>
<path d="M236.676 170.394H202.43V208.343H236.676V170.394Z" fill="#E0E0E0"/>
<path d="M231.579 182.628H209.181V208.276H231.579V182.628Z" fill="#F5F5F5"/>
<path d="M254.116 182.524H239.688V186.198H254.116V182.524Z" fill="#EBEBEB"/>
<path d="M220.854 140.607V142.56H293.341V140.589L220.854 140.607Z" fill="#EBEBEB"/>
<path d="M293.344 142.562L306.901 123.532L306.942 121.365L293.388 140.609L293.344 142.562Z" fill="#EBEBEB"/>
<path d="M337.494 140.885H321.258V142.145H337.494V140.885Z" fill="#EBEBEB"/>
<path d="M278.526 174.614H272.536V176.892H278.526V174.614Z" fill="#E0E0E0"/>
<path d="M368.342 208.343C368.342 208.431 286.074 208.502 184.613 208.502C83.1132 208.502 0.866211 208.431 0.866211 208.343C0.866211 208.255 83.1172 208.183 184.613 208.183C286.078 208.183 368.342 208.255 368.342 208.343Z" fill="#263238"/>
<path d="M226.189 30.7921C212.632 12.1451 192.918 3.45115 172.348 3.45215C172.348 3.45215 121.975 3.45214 107.058 48.5461C101.558 65.1651 102.778 83.2122 109.449 99.3961C111.954 105.548 115.109 111.415 118.86 116.896C131.866 135.683 172.349 186.986 172.349 186.986H181.149C192.449 171.293 220.895 119.159 229.415 102.445C240.113 81.4571 241.758 52.2071 226.189 30.7921ZM180.748 114.209C172.238 114.209 163.919 111.686 156.843 106.958C149.767 102.23 144.252 95.5096 140.996 87.6472C137.739 79.7849 136.887 71.1334 138.547 62.7868C140.207 54.4402 144.305 46.7733 150.323 40.7558C156.341 34.7382 164.007 30.6402 172.354 28.9799C180.701 27.3197 189.352 28.1718 197.215 31.4285C205.077 34.6851 211.797 40.2001 216.525 47.2761C221.253 54.352 223.776 62.671 223.776 71.1812C223.776 76.8317 222.663 82.4268 220.501 87.6472C218.339 92.8676 215.169 97.611 211.174 101.607C207.178 105.602 202.435 108.771 197.215 110.934C191.994 113.096 186.399 114.209 180.748 114.209Z" fill="#0706A9"/>
<path opacity="0.4" d="M226.189 30.7921C212.632 12.1451 192.918 3.45115 172.348 3.45215C172.348 3.45215 121.975 3.45214 107.058 48.5461C101.558 65.1651 102.778 83.2122 109.449 99.3961C111.954 105.548 115.109 111.415 118.86 116.896C131.866 135.683 172.349 186.986 172.349 186.986H181.149C192.449 171.293 220.895 119.159 229.415 102.445C240.113 81.4571 241.758 52.2071 226.189 30.7921ZM180.748 114.209C172.238 114.209 163.919 111.686 156.843 106.958C149.767 102.23 144.252 95.5096 140.996 87.6472C137.739 79.7849 136.887 71.1334 138.547 62.7868C140.207 54.4402 144.305 46.7733 150.323 40.7558C156.341 34.7382 164.007 30.6402 172.354 28.9799C180.701 27.3197 189.352 28.1718 197.215 31.4285C205.077 34.6851 211.797 40.2001 216.525 47.2761C221.253 54.352 223.776 62.671 223.776 71.1812C223.776 76.8317 222.663 82.4268 220.501 87.6472C218.339 92.8676 215.169 97.611 211.174 101.607C207.178 105.602 202.435 108.771 197.215 110.934C191.994 113.096 186.399 114.209 180.748 114.209Z" fill="#470404"/>
<path d="M235.048 31.1452C221.491 12.4982 201.777 3.80418 181.209 3.80518C181.209 3.80518 130.836 3.80517 115.918 48.8992C110.418 65.5182 111.638 83.5652 118.309 99.7502C120.814 105.902 123.969 111.769 127.72 117.25C140.726 136.037 181.209 187.339 181.209 187.339C181.209 187.339 227.979 122.994 238.274 102.798C248.973 81.8092 250.618 52.5602 235.048 31.1452ZM180.81 114.562C172.3 114.563 163.98 112.039 156.904 107.312C149.828 102.584 144.313 95.8641 141.056 88.0019C137.799 80.1396 136.946 71.4881 138.606 63.1414C140.266 54.7947 144.364 47.1277 150.381 41.1098C156.399 35.092 164.065 30.9937 172.412 29.3332C180.759 27.6727 189.41 28.5245 197.273 31.781C205.135 35.0375 211.855 40.5523 216.584 47.6282C221.312 54.704 223.836 63.023 223.836 71.5332C223.878 77.1954 222.794 82.8095 220.647 88.0489C218.5 93.2883 215.332 98.0485 211.328 102.053C207.325 106.057 202.565 109.225 197.325 111.372C192.086 113.52 186.472 114.604 180.81 114.562Z" fill="#0706A9"/>
<path d="M180.755 28.1501C171.863 28.151 163.19 30.9061 155.927 36.0367C148.664 41.1673 143.169 48.4215 140.196 56.8022C143.516 49.462 149.147 43.4108 156.231 39.5737C163.314 35.7365 171.459 34.3246 179.42 35.5537C187.382 36.7828 194.722 40.5853 200.318 46.3799C205.915 52.1745 209.459 59.6424 210.411 67.6419C211.362 75.6413 209.667 83.7322 205.586 90.6776C201.504 97.623 195.261 103.041 187.81 106.103C180.358 109.165 172.109 109.702 164.324 107.633C156.538 105.564 149.644 101.002 144.696 94.6452C148.763 100.893 154.384 105.978 161.007 109.4C167.63 112.822 175.029 114.464 182.478 114.166C189.928 113.867 197.171 111.638 203.5 107.697C209.828 103.756 215.024 98.2388 218.578 91.6852C222.132 85.1316 223.922 77.7671 223.772 70.3134C223.623 62.8597 221.54 55.5728 217.726 49.1668C213.913 42.7608 208.5 37.4557 202.019 33.7713C195.538 30.087 188.21 28.15 180.755 28.1501Z" fill="#0706A9"/>
<path opacity="0.4" d="M180.755 28.1501C171.863 28.151 163.19 30.9061 155.927 36.0367C148.664 41.1673 143.169 48.4215 140.196 56.8022C143.516 49.462 149.147 43.4108 156.231 39.5737C163.314 35.7365 171.459 34.3246 179.42 35.5537C187.382 36.7828 194.722 40.5853 200.318 46.3799C205.915 52.1745 209.459 59.6424 210.411 67.6419C211.362 75.6413 209.667 83.7322 205.586 90.6776C201.504 97.623 195.261 103.041 187.81 106.103C180.358 109.165 172.109 109.702 164.324 107.633C156.538 105.564 149.644 101.002 144.696 94.6452C148.763 100.893 154.384 105.978 161.007 109.4C167.63 112.822 175.029 114.464 182.478 114.166C189.928 113.867 197.171 111.638 203.5 107.697C209.828 103.756 215.024 98.2388 218.578 91.6852C222.132 85.1316 223.922 77.7671 223.772 70.3134C223.623 62.8597 221.54 55.5728 217.726 49.1668C213.913 42.7608 208.5 37.4557 202.019 33.7713C195.538 30.087 188.21 28.15 180.755 28.1501Z" fill="#2B0D04"/>
<path d="M266.551 90.909C264.818 89.7287 262.717 89.2105 260.633 89.449C257.105 89.849 251.998 90.37 251.998 90.37L252.017 90.538L227.329 92.058L219.772 76.72L208.315 84.269C208.315 84.269 209.821 86.683 216.243 98.541C217.497 100.856 219.431 102.731 221.784 103.911C224.137 105.091 226.795 105.521 229.4 105.141L258.469 100.887V100.831C261.469 100.661 264.726 100.381 265.197 99.951C266.097 99.127 266.919 96.128 266.919 96.128C266.919 96.128 272.096 99.209 273.097 99.277C274.098 99.345 274.275 98.512 274.897 97.629C275.324 97.024 269.988 93.247 266.551 90.909Z" fill="#FFBE9D"/>
<path d="M221.293 75.7172C221.293 75.7172 216.493 66.4802 212.093 57.7602C206.693 47.0502 194.785 44.9082 194.785 44.9082L177.538 42.6432C177.538 42.6432 163.123 36.1202 149.689 52.3092L138.645 64.6222L140.989 66.7302L151.919 76.5572L154.08 78.5002L159.026 73.4082L156.726 86.3082L152.669 104.289L152.681 104.299L161.451 103.239L167.387 66.9692L200.829 69.6372L198.205 92.5052C198.742 92.4232 202.789 91.6252 204.105 86.1272C204.538 84.3768 204.548 82.5482 204.134 80.7932L206.066 85.7442L221.293 75.7172Z" fill="#CDE90C"/>
<path d="M167.387 66.9492L161.451 103.22L152.681 104.28C158.541 109.332 165.656 112.71 173.276 114.057C180.895 115.404 188.737 114.67 195.975 111.933L198.206 92.4862L200.83 69.6182L167.387 66.9492Z" fill="#263238"/>
<path d="M169.37 40.8371L168.644 70.2991L174.224 71.1801L174.972 41.3251C173.177 40.6837 171.248 40.5157 169.37 40.8371Z" fill="#263238"/>
<path d="M192.973 70.457L197.568 45.157C197.831 44.875 201.605 46.229 202.741 47.518L198.611 70.989L192.973 70.457Z" fill="#263238"/>
<path d="M174.424 66.8461C174.48 67.0087 174.508 67.1793 174.507 67.3511C174.554 67.8164 174.559 68.2849 174.523 68.7511C174.481 69.4623 174.241 70.1474 173.829 70.7291C173.578 71.0798 173.243 71.3618 172.854 71.5491C172.427 71.7441 171.951 71.8018 171.489 71.7141C171.057 71.6229 170.648 71.4439 170.288 71.1881C169.927 70.9323 169.623 70.6052 169.394 70.2271C169.04 69.6156 168.83 68.9318 168.777 68.2271C168.736 67.7614 168.736 67.2929 168.777 66.8271C168.778 66.6567 168.807 66.4875 168.865 66.3271C168.924 66.3271 168.855 67.0581 168.998 68.2021C169.078 68.8642 169.296 69.5019 169.64 70.0731C169.853 70.4096 170.131 70.7005 170.457 70.9286C170.783 71.1568 171.151 71.3178 171.54 71.4021C171.927 71.4703 172.326 71.4266 172.689 71.2762C173.052 71.1259 173.364 70.875 173.589 70.5531C173.98 70.0167 174.222 69.3863 174.289 68.7261C174.427 67.5801 174.359 66.8461 174.424 66.8461Z" fill="#455A64"/>
<path d="M171.12 69.449C170.886 69.3557 170.685 69.1951 170.543 68.9876C170.4 68.78 170.322 68.5348 170.318 68.2829C170.315 68.031 170.386 67.7838 170.523 67.5725C170.661 67.3611 170.857 67.1952 171.089 67.0955C171.32 66.9959 171.576 66.9671 171.823 67.0128C172.071 67.0585 172.3 67.1766 172.48 67.3521C172.661 67.5277 172.785 67.7529 172.838 67.9992C172.891 68.2455 172.869 68.5019 172.776 68.736C172.651 69.0502 172.407 69.3018 172.096 69.4355C171.785 69.5692 171.435 69.5741 171.12 69.449Z" fill="#455A64"/>
<path d="M197.289 69.6092C197.289 69.8612 197.214 70.1075 197.074 70.317C196.935 70.5265 196.736 70.6898 196.503 70.7862C196.27 70.8827 196.014 70.9079 195.767 70.8587C195.52 70.8096 195.293 70.6882 195.114 70.5101C194.936 70.3319 194.815 70.1049 194.766 69.8577C194.717 69.6106 194.742 69.3545 194.838 69.1217C194.935 68.8889 195.098 68.6899 195.307 68.5499C195.517 68.4099 195.763 68.3352 196.015 68.3352C196.353 68.3352 196.677 68.4694 196.916 68.7083C197.155 68.9473 197.289 69.2713 197.289 69.6092Z" fill="#455A64"/>
<path d="M199.003 68.7271C198.99 69.2363 198.891 69.7396 198.711 70.2161C198.541 70.7565 198.25 71.2511 197.861 71.6621C197.613 71.9198 197.31 72.1178 196.975 72.2413C196.639 72.3649 196.28 72.4106 195.925 72.3751C195.215 72.3019 194.558 71.9633 194.087 71.4271C193.719 70.9912 193.473 70.4663 193.373 69.9051C193.302 69.5348 193.292 69.1557 193.341 68.7821C193.38 68.5201 193.431 68.3821 193.45 68.3821C193.456 68.8759 193.504 69.3683 193.593 69.8541C193.715 70.3641 193.96 70.8365 194.307 71.2301C194.738 71.6955 195.324 71.9887 195.955 72.0551C196.265 72.0871 196.578 72.0499 196.872 71.9462C197.166 71.8424 197.433 71.6747 197.655 71.4551C198.026 71.081 198.314 70.6329 198.5 70.1401C198.826 69.2841 198.948 68.7111 199.003 68.7271Z" fill="#455A64"/>
<path d="M171.043 80.8221C170.999 80.8221 170.983 80.5751 170.993 80.1901C170.993 79.9971 171.01 79.7691 171.027 79.5151C171.038 79.3791 171.048 79.2481 171.058 79.1151L171.076 78.9051L171.086 78.7971L171.092 78.7431V78.7151V78.7021V78.6921C170.934 78.8331 171.307 78.4981 171.268 78.5331C171.987 78.558 172.699 78.6887 173.38 78.9211C172.665 79.0029 171.942 78.9789 171.234 78.8501L171.41 78.6921V78.7161V78.7441L171.404 78.7991L171.392 78.9081L171.369 79.1211C171.352 79.2541 171.337 79.3861 171.319 79.5211C171.285 79.7771 171.25 80.0081 171.219 80.2001C171.143 80.5951 171.083 80.8301 171.043 80.8221Z" fill="#455A64"/>
<path d="M170.144 89.2632C170.082 87.8426 170.234 86.4208 170.593 85.0452C170.656 86.4657 170.505 87.8877 170.144 89.2632Z" fill="#455A64"/>
<path d="M171.386 96.5652C170.686 96.3942 170.016 96.1213 169.396 95.7552L169.308 95.5952V95.5852V95.5712V95.5432L169.314 95.4892L169.326 95.3812L169.351 95.1702L169.403 94.7702C169.439 94.5162 169.475 94.2882 169.51 94.0962C169.58 93.7142 169.645 93.4802 169.689 93.4852C169.733 93.4902 169.747 93.7322 169.734 94.1212C169.728 94.3152 169.715 94.5462 169.695 94.8022C169.684 94.9392 169.673 95.0712 169.662 95.2022L169.641 95.4142L169.631 95.5222L169.625 95.5762V95.6042V95.6172V95.6292C169.703 95.7722 169.518 95.4362 169.537 95.4702C170.203 95.7425 170.826 96.1115 171.386 96.5652Z" fill="#455A64"/>
<path d="M177.042 99.3741C176.014 99.1025 175.052 98.6263 174.213 97.9741C175.24 98.2457 176.203 98.7219 177.042 99.3741Z" fill="#455A64"/>
<path d="M183.775 100.925C183.183 101.335 182.534 101.656 181.849 101.877C181.588 101.867 181.776 101.877 181.717 101.871H181.713H181.707L181.695 101.865L181.67 101.853L181.621 101.828L181.521 101.779L181.332 101.679L180.976 101.492C180.75 101.371 180.549 101.258 180.376 101.158C180.042 100.958 179.845 100.817 179.864 100.778C179.883 100.739 180.116 100.81 180.476 100.956C180.656 101.029 180.868 101.122 181.101 101.228L181.466 101.399L181.658 101.491L181.758 101.539L181.808 101.563L181.832 101.575L181.845 101.581H181.851H181.856H181.726C182.372 101.263 183.063 101.042 183.775 100.925Z" fill="#455A64"/>
<path d="M188.349 99.0721C188.382 99.1531 187.897 99.4271 187.266 99.6831C186.635 99.9391 186.096 100.083 186.066 99.9991C186.036 99.9151 186.518 99.6441 187.15 99.3881C187.782 99.1321 188.316 98.9901 188.349 99.0721Z" fill="#455A64"/>
<path d="M192.841 95.209C192.926 95.9238 192.905 96.6472 192.78 97.356C192.58 97.619 192.725 97.429 192.68 97.488H192.674H192.668H192.655L192.629 97.498L192.578 97.519L192.478 97.559L192.278 97.637L191.902 97.779C191.661 97.868 191.444 97.944 191.258 98.004C190.888 98.123 190.651 98.176 190.634 98.135C190.617 98.094 190.825 97.967 191.173 97.795C191.347 97.709 191.557 97.611 191.791 97.508L192.16 97.348L192.36 97.266L192.46 97.224L192.511 97.203L192.537 97.193L192.55 97.187H192.556H192.562C192.518 97.246 192.662 97.056 192.462 97.318C192.484 96.6002 192.612 95.8896 192.841 95.209Z" fill="#455A64"/>
<path d="M193.659 87.2771C193.735 88.6124 193.597 89.9514 193.25 91.2431C193.174 89.9078 193.312 88.5688 193.659 87.2771Z" fill="#455A64"/>
<path d="M192.156 80.9511C192.872 80.8693 193.595 80.8932 194.303 81.0221C194.586 81.3721 194.381 81.1221 194.445 81.1981V81.2231V81.2511L194.439 81.3051L194.427 81.4131L194.403 81.6241L194.353 82.0241C194.319 82.2781 194.283 82.5061 194.253 82.6981C194.184 83.0811 194.12 83.3151 194.077 83.3111C194.034 83.3071 194.018 83.0641 194.029 82.6751C194.034 82.4811 194.046 82.2501 194.065 81.9941L194.097 81.5941L194.116 81.3821L194.127 81.2741L194.133 81.2191V81.1911V81.1651C194.196 81.2431 193.992 80.9891 194.274 81.3391C193.553 81.3147 192.839 81.184 192.156 80.9511Z" fill="#455A64"/>
<path d="M184.646 80.1391C185.912 80.0605 187.181 80.1958 188.401 80.5391C187.136 80.6185 185.867 80.4833 184.646 80.1391Z" fill="#455A64"/>
<path d="M177.137 79.3301C178.402 79.2508 179.672 79.3861 180.892 79.7301C179.626 79.8087 178.357 79.6735 177.137 79.3301Z" fill="#455A64"/>
<path d="M137.781 68.962C137.743 69.6953 137.724 70.436 137.724 71.184C137.722 74.0913 138.015 76.9913 138.596 79.84L138.614 79.924C138.687 80.279 138.776 80.624 138.858 80.981C139.193 82.363 139.588 83.728 140.028 85.072C140.086 85.239 140.139 85.408 140.198 85.572C141.78 85.219 146.359 81.255 151.63 76.3L140.708 66.48C139.87 67.4581 138.882 68.296 137.781 68.962Z" fill="#FFBE9D"/>
<path d="M206.716 5.38599C207.096 9.61299 211.916 13.181 216.161 13.048C218.502 12.975 220.868 11.935 223.118 12.586C226.888 13.677 228.412 18.937 232.273 19.642C235.161 20.17 237.828 17.828 240.759 17.671C242.913 17.556 244.946 18.632 246.73 19.845C248.418 21.1917 250.28 22.3035 252.266 23.15C254.31 23.84 256.181 22.614 258.244 21.985C258.756 23.299 259.087 24.911 259.744 26.303C260.401 27.695 261.197 30.176 260.029 30.716C260.029 30.716 256.78 32.4 254.9 32.309C255.659 33.0741 256.607 33.625 257.648 33.906C258.688 34.1869 259.784 34.188 260.825 33.909C261.347 37.052 261.739 40.68 259.611 43.051C258.618 44.0775 257.346 44.7903 255.952 45.101C249.129 46.862 242.002 42.096 235.077 43.401C232.234 43.935 229.634 45.469 226.766 45.845C225.35 46.0224 223.913 45.9141 222.54 45.5265C221.167 45.1388 219.885 44.4796 218.771 43.588C216.04 41.378 214.161 37.681 210.697 37.103C209.14 36.9676 207.572 37.1748 206.103 37.71C204.633 38.2443 203.055 38.4158 201.503 38.21C200.732 38.0871 200.026 37.7053 199.501 37.1275C198.975 36.5497 198.662 35.8103 198.613 35.031" fill="#263238"/>
<path d="M193.156 46.468C193.921 42.203 194.804 37.728 194.804 37.728C194.804 37.728 200.461 37.784 202.863 30.812C205.154 24.164 206.809 8.17104 206.809 8.17104C203.183 5.9173 198.956 4.82592 194.693 5.04327C190.43 5.26062 186.336 6.7763 182.959 9.38704L177.32 44.126C177.19 45.1179 177.259 46.1257 177.522 47.0907C177.785 48.0558 178.238 48.9588 178.853 49.7474C179.469 50.536 180.235 51.1944 181.107 51.6843C181.979 52.1742 182.94 52.4858 183.934 52.601C185.966 52.9725 188.063 52.5407 189.783 51.3967C191.503 50.2527 192.712 48.4858 193.156 46.468Z" fill="#FFBE9D"/>
<path d="M202.6 20.1501C202.56 20.3901 202.428 20.6049 202.232 20.7489C202.036 20.8929 201.791 20.9547 201.55 20.9211C201.431 20.9096 201.316 20.8744 201.211 20.8176C201.106 20.7607 201.013 20.6834 200.939 20.5902C200.864 20.4969 200.809 20.3897 200.777 20.2748C200.744 20.1599 200.735 20.0396 200.75 19.9211C200.79 19.6812 200.922 19.4663 201.118 19.3221C201.314 19.178 201.558 19.1159 201.799 19.1491C201.918 19.1607 202.034 19.1959 202.139 19.2528C202.244 19.3097 202.336 19.3871 202.411 19.4804C202.486 19.5738 202.541 19.6811 202.573 19.7961C202.606 19.9112 202.615 20.0315 202.6 20.1501Z" fill="#263238"/>
<path d="M204.273 19.3811C204.138 19.4811 203.532 18.8431 202.542 18.6711C201.552 18.4991 200.742 18.8711 200.653 18.7271C200.61 18.6641 200.764 18.4681 201.121 18.2931C201.601 18.0716 202.138 18.0042 202.659 18.1001C203.174 18.1887 203.648 18.4396 204.011 18.8161C204.274 19.1031 204.338 19.3381 204.273 19.3811Z" fill="#263238"/>
<path d="M192.439 18.54C192.399 18.7802 192.267 18.9952 192.071 19.1394C191.875 19.2836 191.63 19.3456 191.389 19.312C191.27 19.3005 191.155 19.2653 191.05 19.2084C190.945 19.1516 190.852 19.0743 190.778 18.981C190.703 18.8878 190.648 18.7806 190.616 18.6656C190.583 18.5507 190.574 18.4305 190.589 18.312C190.629 18.072 190.761 17.8571 190.957 17.7129C191.153 17.5688 191.398 17.5068 191.639 17.54C191.758 17.5517 191.873 17.587 191.978 17.6439C192.083 17.7008 192.175 17.7781 192.25 17.8713C192.324 17.9645 192.38 18.0717 192.412 18.1865C192.445 18.3014 192.454 18.4216 192.439 18.54Z" fill="#263238"/>
<path d="M193.883 17.9221C193.748 18.0221 193.141 17.3831 192.151 17.2121C191.161 17.0411 190.351 17.4121 190.262 17.2671C190.219 17.2051 190.372 17.0081 190.73 16.8341C191.21 16.6126 191.748 16.5452 192.268 16.6411C192.783 16.7298 193.257 16.9802 193.62 17.3561C193.883 17.6431 193.949 17.8791 193.883 17.9221Z" fill="#263238"/>
<path d="M196.177 25.8951C196.727 25.8233 197.285 25.821 197.836 25.8881C198.093 25.9071 198.341 25.8981 198.414 25.7341C198.481 25.4768 198.469 25.2049 198.377 24.9551L197.969 22.8991C197.563 21.1464 197.298 19.3641 197.177 17.5691C197.723 19.2846 198.131 21.0412 198.396 22.8221C198.529 23.5421 198.654 24.2294 198.771 24.8841C198.876 25.2169 198.861 25.5764 198.728 25.8991C198.676 25.9824 198.606 26.0527 198.522 26.1047C198.439 26.1567 198.345 26.189 198.248 26.1991C198.101 26.2124 197.953 26.207 197.808 26.1831C197.254 26.1564 196.706 26.0596 196.177 25.8951Z" fill="#263238"/>
<path d="M194.803 37.728C191.418 37.1852 188.25 35.7137 185.651 33.4771C185.651 33.4771 187.113 38.814 194.409 39.407L194.803 37.728Z" fill="#EB996E"/>
<path d="M195.344 28.207C195.197 27.9367 194.984 27.7082 194.725 27.543C194.465 27.3779 194.168 27.2815 193.861 27.263C193.639 27.2442 193.416 27.2703 193.205 27.3399C192.993 27.4095 192.798 27.5211 192.631 27.668C192.47 27.8095 192.356 27.9971 192.305 28.2055C192.253 28.4139 192.268 28.6329 192.345 28.833C192.473 29.0388 192.659 29.2017 192.88 29.301C193.101 29.4002 193.346 29.4312 193.585 29.39C194.082 29.3067 194.558 29.1255 194.985 28.857C195.11 28.7978 195.224 28.7157 195.319 28.615C195.365 28.5666 195.395 28.5058 195.406 28.4401C195.418 28.3744 195.409 28.3069 195.382 28.246" fill="#EB996E"/>
<path d="M193.147 26.0719C193.31 26.0909 193.122 27.1659 193.908 28.0899C194.694 29.0139 195.858 29.0979 195.84 29.2489C195.84 29.3189 195.548 29.4129 195.063 29.3409C194.432 29.2389 193.858 28.9178 193.44 28.4339C193.04 27.9689 192.836 27.3665 192.871 26.7539C192.908 26.2929 193.078 26.0479 193.147 26.0719Z" fill="#263238"/>
<path d="M187.808 4.26106C189.724 8.48806 195.934 13.6311 200.731 15.4611C200.295 14.5891 197.599 12.1351 197.163 11.2611C199.098 13.3611 201.895 16.2181 204.851 16.9311C205.192 17.0447 205.559 17.0562 205.907 16.9641C206.1 16.8617 206.267 16.7157 206.395 16.5376C206.522 16.3595 206.606 16.1543 206.64 15.9381C207.214 13.8067 207.553 11.6191 207.653 9.41406C207.755 7.55404 207.143 5.72521 205.941 4.30206C204.306 2.46506 201.641 1.58506 199.07 1.03806C196.937 0.493138 194.717 0.376898 192.539 0.696067C190.416 1.10407 188.439 2.32907 187.796 4.12907" fill="#263238"/>
<path d="M176.372 20.182C176.336 18.5404 176.398 16.8982 176.557 15.264C177.041 11.531 178.204 -2.03603 190.731 1.45197L189.397 4.92897C189.397 4.92897 190.359 13.663 183.93 18.354C183.93 18.354 183.958 27.072 179.504 30.217C179.504 30.217 176.398 24.305 176.372 20.183" fill="#263238"/>
<path d="M184.193 17.7611C183.453 17.462 182.645 17.3724 181.858 17.5021C181.067 17.6384 180.362 18.0829 179.898 18.7381C179.471 19.4197 179.32 20.238 179.474 21.0271C179.632 21.8097 179.962 22.5473 180.441 23.1861C180.753 23.6673 181.174 24.0679 181.671 24.3551C181.92 24.4959 182.201 24.5727 182.487 24.5786C182.773 24.5845 183.057 24.5194 183.312 24.3891" fill="#FFBE9D"/>
<path d="M182.956 22.3361C183.039 22.3791 182.623 22.7851 181.956 22.4721C181.601 22.2776 181.337 21.9509 181.222 21.5631C181.083 21.131 181.03 20.6758 181.066 20.2231C181.093 19.739 181.292 19.2804 181.628 18.9301C181.769 18.7808 181.943 18.6657 182.135 18.5934C182.328 18.5212 182.535 18.4937 182.74 18.5131C183.464 18.6241 183.6 19.1631 183.516 19.1631C183.448 19.2111 183.216 18.9051 182.721 18.9351C182.413 18.9953 182.137 19.1636 181.942 19.4095C181.748 19.6555 181.648 19.9629 181.661 20.2761C181.6 20.6006 181.615 20.9345 181.703 21.2523C181.792 21.5702 181.952 21.8636 182.172 22.1101C182.568 22.4091 182.919 22.2651 182.956 22.3361Z" fill="#EB996E"/>
<path d="M256.72 18.352C256.636 18.5361 256.522 18.7051 256.383 18.852C255.98 19.2769 255.461 19.5753 254.892 19.711C253.99 19.9369 253.039 19.87 252.178 19.52C251.068 19.0325 250.036 18.3853 249.115 17.599C248.037 16.6433 246.761 15.9381 245.379 15.534C244.6 15.3866 243.797 15.4208 243.034 15.634C242.218 15.8739 241.429 16.1955 240.679 16.594C239.894 16.988 239.102 17.429 238.251 17.81C237.384 18.2316 236.444 18.4821 235.483 18.548C234.468 18.5817 233.468 18.2902 232.631 17.716C231.801 17.1151 231.077 16.3804 230.489 15.542C229.264 13.911 228.274 12.142 226.777 10.984C226.054 10.4127 225.19 10.0494 224.277 9.93299C223.394 9.82991 222.5 9.86975 221.63 10.051C219.911 10.368 218.307 10.912 216.73 11.111C215.264 11.2915 213.776 11.1627 212.363 10.733C210.312 10.1239 208.478 8.94187 207.077 7.32599C206.563 6.74276 206.134 6.08959 205.804 5.38599C205.84 5.42252 205.87 5.46393 205.895 5.50899L206.134 5.88499C207.594 8.14354 209.829 9.79105 212.419 10.518C213.803 10.9229 215.257 11.036 216.688 10.85C218.229 10.65 219.821 10.096 221.57 9.76299C222.471 9.57227 223.397 9.52837 224.312 9.63299C225.278 9.75237 226.195 10.1326 226.962 10.733C228.533 11.949 229.529 13.741 230.739 15.348C231.306 16.1569 232.004 16.8664 232.803 17.448C233.585 17.9862 234.518 18.2605 235.467 18.231C236.388 18.1695 237.29 17.9318 238.122 17.531C238.958 17.16 239.749 16.724 240.542 16.331C241.312 15.9269 242.122 15.6022 242.958 15.362C243.763 15.1418 244.609 15.1113 245.428 15.273C246.846 15.6933 248.151 16.4267 249.248 17.419C250.147 18.2033 251.154 18.8543 252.238 19.352C253.064 19.7028 253.98 19.7853 254.856 19.588C255.41 19.4687 255.921 19.1976 256.331 18.805C256.608 18.529 256.703 18.341 256.72 18.352Z" fill="#263238"/>
<path d="M115.732 139.944L104.632 162.344L107.947 162.47L98.5404 180.27H103.481L95.7734 196.082H138.856L129.369 180.27L133.915 180.07L124.823 162.282L128.183 162.082L115.732 139.944Z" fill="#455A64"/>
<path d="M117.61 165.925C117.698 165.925 117.631 175.412 117.459 187.108C117.287 198.804 117.078 208.289 116.99 208.288C116.902 208.287 116.97 198.804 117.141 187.103C117.312 175.402 117.522 165.924 117.61 165.925Z" fill="#263238"/>
<path d="M122.891 171.683C122.723 172.045 122.499 172.377 122.226 172.667C121.619 173.401 120.973 174.102 120.292 174.767C119.504 175.552 118.797 176.261 118.301 176.791C118.054 177.099 117.774 177.38 117.467 177.627C117.634 177.265 117.859 176.933 118.132 176.643C118.739 175.909 119.384 175.208 120.066 174.543C120.853 173.758 121.56 173.05 122.056 172.52C122.303 172.212 122.583 171.931 122.891 171.683Z" fill="#263238"/>
<path d="M117.505 177.854C115.797 176.792 114.207 175.552 112.761 174.154C114.468 175.216 116.058 176.457 117.505 177.854Z" fill="#263238"/>
<path d="M117.211 188.84C115.354 187.395 113.529 185.908 111.738 184.38C113.786 185.57 115.633 187.075 117.211 188.84Z" fill="#263238"/>
<path d="M123.349 182.05C122.501 183.327 121.509 184.504 120.394 185.556L118.159 187.891C117.875 188.239 117.557 188.557 117.209 188.841C118.057 187.564 119.049 186.387 120.164 185.335L122.399 183C122.683 182.653 123.002 182.334 123.349 182.05Z" fill="#263238"/>
</g>
<defs>
<clipPath id="clip0">
<rect width="367.476" height="209.162" fill="white" transform="translate(0.871094 0.5)"/>
</clipPath>
</defs>
</svg>
