<svg width="41" height="57" viewBox="0 0 41 57" fill="none" xmlns="http://www.w3.org/2000/svg">
<path d="M20.4097 19.022V55.0589H36.9366C36.9366 55.0589 40.077 38.7776 39.9995 28.973C39.9221 19.1684 20.4097 19.022 20.4097 19.022Z" fill="#543C2A"/>
<path d="M20.4096 19.022V55.0589H3.88265C3.88265 55.0589 0.742319 38.7776 0.819769 28.973C0.897218 19.1684 20.4096 19.022 20.4096 19.022Z" fill="#543C2A"/>
<path d="M24.4399 42.9731H16.3779V52.0033H24.4399V42.9731Z" fill="#FDCC9B"/>
<path d="M16.3779 44.0369C18.8277 45.4138 21.6455 45.9937 24.4399 45.696V42.9731H16.3779V44.0369Z" fill="#FCBC85"/>
<path d="M4.75352 33.4605C6.92631 33.4605 8.68771 31.451 8.68771 28.9721C8.68771 26.4932 6.92631 24.4836 4.75352 24.4836C2.58073 24.4836 0.819336 26.4932 0.819336 28.9721C0.819336 31.451 2.58073 33.4605 4.75352 33.4605Z" fill="#FCBC85"/>
<path d="M36.066 33.4605C38.2388 33.4605 40.0002 31.451 40.0002 28.9721C40.0002 26.4932 38.2388 24.4836 36.066 24.4836C33.8932 24.4836 32.1318 26.4932 32.1318 28.9721C32.1318 31.451 33.8932 33.4605 36.066 33.4605Z" fill="#FCBC85"/>
<path d="M36.0506 20.3997C36.0506 13.7886 31.21 8.95166 20.4107 8.95166C9.61137 8.95166 4.77079 13.7923 4.77079 20.3997C4.77079 27.0071 3.64172 44.4248 20.4107 44.4248C37.1797 44.4248 36.0506 27.0107 36.0506 20.3997Z" fill="#FDCC9B"/>
<path d="M12.7916 29.7507C13.7266 29.7507 14.4846 28.9207 14.4846 27.8967C14.4846 26.8728 13.7266 26.0427 12.7916 26.0427C11.8566 26.0427 11.0986 26.8728 11.0986 27.8967C11.0986 28.9207 11.8566 29.7507 12.7916 29.7507Z" fill="#3B2519"/>
<path d="M12.0537 27.583C12.3331 27.583 12.5595 27.3565 12.5595 27.0771C12.5595 26.7978 12.3331 26.5713 12.0537 26.5713C11.7743 26.5713 11.5479 26.7978 11.5479 27.0771C11.5479 27.3565 11.7743 27.583 12.0537 27.583Z" fill="white"/>
<path d="M10.0823 23.8993C10.8834 24.2054 12.1686 22.8573 15.1105 24.0299C15.6466 24.2441 15.9673 22.2014 12.8112 22.2014C10.0823 22.2014 9.59826 23.7141 10.0823 23.8993Z" fill="#684B37"/>
<path d="M28.2369 29.7507C29.172 29.7507 29.9299 28.9207 29.9299 27.8967C29.9299 26.8728 29.172 26.0427 28.2369 26.0427C27.3019 26.0427 26.5439 26.8728 26.5439 27.8967C26.5439 28.9207 27.3019 29.7507 28.2369 29.7507Z" fill="#3B2519"/>
<path d="M27.499 27.583C27.7784 27.583 28.0048 27.3565 28.0048 27.0771C28.0048 26.7978 27.7784 26.5713 27.499 26.5713C27.2196 26.5713 26.9932 26.7978 26.9932 27.0771C26.9932 27.3565 27.2196 27.583 27.499 27.583Z" fill="white"/>
<path d="M30.7355 23.8995C29.9344 24.2057 28.6492 22.8576 25.7073 24.0302C25.1712 24.2444 24.8505 22.2017 28.0066 22.2017C30.7355 22.2017 31.2183 23.7143 30.7355 23.8995Z" fill="#684B37"/>
<path d="M20.409 34.4217C18.7366 34.4217 17.7285 33.1716 17.7285 33.7767C17.7285 34.3818 18.2126 35.5302 20.409 35.5302C22.6054 35.5302 23.0895 34.3818 23.0895 33.7767C23.0895 33.1716 22.0814 34.4217 20.409 34.4217Z" fill="#FCBC85"/>
<path d="M20.4089 39.9799C19.8305 39.9799 19.4819 39.5479 19.4819 39.7572C19.4819 39.9666 19.6489 40.3623 20.4089 40.3623C21.1689 40.3623 21.3359 39.9654 21.3359 39.7572C21.3359 39.5491 20.9874 39.9799 20.4089 39.9799Z" fill="#FCBC85"/>
<path d="M20.409 38.4397C17.7576 38.4397 16.1602 37.3603 16.1602 37.6338C16.1602 37.9072 16.9262 38.9843 20.409 38.9843C23.8918 38.9843 24.6578 37.9072 24.6578 37.6338C24.6578 37.3603 23.0604 38.4397 20.409 38.4397Z" fill="#F7945E"/>
<path d="M10.6135 36.1218C11.8827 36.1218 12.9116 35.0929 12.9116 33.8237C12.9116 32.5545 11.8827 31.5256 10.6135 31.5256C9.34431 31.5256 8.31543 32.5545 8.31543 33.8237C8.31543 35.0929 9.34431 36.1218 10.6135 36.1218Z" fill="#F9AA8D"/>
<path d="M30.4875 36.1218C31.7567 36.1218 32.7856 35.0929 32.7856 33.8237C32.7856 32.5545 31.7567 31.5256 30.4875 31.5256C29.2183 31.5256 28.1895 32.5545 28.1895 33.8237C28.1895 35.0929 29.2183 36.1218 30.4875 36.1218Z" fill="#F9AA8D"/>
<path d="M20.4097 46.6035V56.7615H2.75488C2.75488 52.6542 11.1388 46.6035 20.4097 46.6035Z" fill="#B6CF0B"/>
<path d="M20.4097 46.6035V56.7615H38.0645C38.0645 52.6542 29.6818 46.6035 20.4097 46.6035Z" fill="#CDE90C"/>
<path d="M17.0455 46.8622L16.8894 46.8876C15.819 47.0581 14.7613 47.3006 13.7236 47.6137L20.4097 56.7576V51.6749L17.394 46.8198C17.2778 46.8368 17.1605 46.8452 17.0455 46.8622Z" fill="#0706A9"/>
<path d="M23.7736 46.8634L23.9297 46.8888C25.0001 47.0593 26.0578 47.3018 27.0955 47.6149L20.4082 56.7587V51.6761L23.4251 46.8174C23.5413 46.838 23.6587 46.8452 23.7736 46.8634Z" fill="#0706A9"/>
<path d="M20.4109 0.881348C2.19088 0.881348 0.0549731 13.7694 0.820996 28.9713C1.58702 44.1731 14.486 51.6809 14.486 51.6809C14.486 51.6809 0.0307716 30.9934 12.0548 12.8533C12.0548 12.8533 9.79665 16.7367 9.91888 19.9932C9.91888 19.9932 12.7518 19.0251 20.4109 19.0251C28.0699 19.0251 30.9028 19.9932 30.9028 19.9932C31.0238 16.7415 28.7681 12.8533 28.7681 12.8533C40.7921 30.9934 26.3369 51.6809 26.3369 51.6809C26.3369 51.6809 39.2371 44.178 40.0019 28.9725C40.7667 13.767 38.6308 0.881348 20.4109 0.881348Z" fill="#684B37"/>
<path d="M16.3784 46.9529L20.4082 53.6426L24.4392 46.948C21.8226 46.0772 18.994 46.0789 16.3784 46.9529Z" fill="#FDCC9B"/>
</svg>
