<svg xmlns="http://www.w3.org/2000/svg" width="178.427" height="61.551" viewBox="0 0 178.427 61.551">
  <g id="Group_1" data-name="Group 1" transform="translate(-227.772 -295)">
    <g id="OBJECTS" transform="translate(227.772 297.052)">
      <path id="Path_11" data-name="Path 11" d="M21.7,0A21.69,21.69,0,0,0,0,21.7C0,32.015,16.047,53.2,20.543,58.934a1.461,1.461,0,0,0,2.308,0C27.346,53.2,43.393,32.015,43.393,21.7A21.7,21.7,0,0,0,21.7,0Z" transform="translate(0 0)" fill="#fff"/>
      <circle id="Ellipse_2" data-name="Ellipse 2" cx="11.952" cy="11.952" r="11.952" transform="translate(7.245 30.466) rotate(-76.26)" fill="#ffb300"/>
      <path id="Path_12" data-name="Path 12" d="M233.739,164.882c-1.234,1.234-3.848.667-5.823-1.334a6.456,6.456,0,0,1-2-3.8,5.876,5.876,0,0,0-1.774-3.788l-5.242-5.009a10.013,10.013,0,0,1,1.187-.614l4.722,4.962a5.8,5.8,0,0,0,3.762,1.774,6.483,6.483,0,0,1,3.808,2C234.373,161.04,234.973,163.648,233.739,164.882Z" transform="translate(-203.225 -139.577)" fill="#fff"/>
      <path id="Path_13" data-name="Path 13" d="M171.834,242.967a12.083,12.083,0,0,1-1.207.614l-5.069-5.336a4.2,4.2,0,0,0-3.181-1.334,2.561,2.561,0,0,1-1.881-.76l-5.149-5.142a.393.393,0,0,1,0-.574.4.4,0,0,1,.554,0l4,4a.367.367,0,0,0,.233.1.387.387,0,0,0,.24-.1.333.333,0,0,0,0-.467l-4-4a.4.4,0,0,1,0-.567.407.407,0,0,1,.56,0l4,4a.32.32,0,0,0,.467,0,.313.313,0,0,0,0-.46l-4-4a.38.38,0,0,1,0-.56.387.387,0,0,1,.554,0l4,4a.333.333,0,0,0,.467-.474l-4-4a.42.42,0,0,1,0-.567.4.4,0,0,1,.567,0l5.129,5.2a2.6,2.6,0,0,1,.754,1.894,4.222,4.222,0,0,0,1.334,3.181Z" transform="translate(-144.108 -210.952)" fill="#fff"/>
      <path id="Path_14" data-name="Path 14" d="M221.546,174.292c-1.234,1.254-3.835.62-5.836-1.347a6.5,6.5,0,0,1-2-3.808,5.863,5.863,0,0,0-1.774-3.782l-6.169-5.863a9.11,9.11,0,0,1,.907-.58l4.062,3.862,1.848,1.934.1.093a5.942,5.942,0,0,1,1.027,2.895,6.456,6.456,0,0,0,2,3.8c2,2,4.589,2.581,5.823,1.334a2.121,2.121,0,0,0,.547-1.04A2.668,2.668,0,0,1,221.546,174.292Z" transform="translate(-191.032 -147.533)" fill="#bdbdbd"/>
      <path id="Path_15" data-name="Path 15" d="M171.375,276.925a.141.141,0,0,0,0,.04l3.555,3.555a.333.333,0,0,0,.467,0,.146.146,0,0,1,.04-.1l-3.475-3.475a.407.407,0,0,0-.587-.02Z" transform="translate(-159.102 -256.989)" fill="#bdbdbd"/>
      <path id="Path_16" data-name="Path 16" d="M185.738,262.58v.04l3.555,3.555a.333.333,0,0,0,.467,0h0a.146.146,0,0,1,.04-.1l-3.475-3.475a.407.407,0,0,0-.587-.02Z" transform="translate(-172.439 -243.671)" fill="#bdbdbd"/>
      <path id="Path_17" data-name="Path 17" d="M199.8,248.359h0l3.562,3.555a.333.333,0,0,0,.467,0,.125.125,0,0,1,.04-.093l-3.5-3.475a.393.393,0,0,0-.567.013Z" transform="translate(-185.497 -230.457)" fill="#bdbdbd"/>
      <path id="Path_18" data-name="Path 18" d="M170.6,302.99a9.257,9.257,0,0,1-1.007.394l-4.069-4.275a4.242,4.242,0,0,0-3.181-1.334,2.548,2.548,0,0,1-1.881-.734l-.74-.747-4.409-4.409a.373.373,0,0,1,0-.56.4.4,0,0,1,.554,0l4,4a.32.32,0,0,0,.373.04l.213.207a2.562,2.562,0,0,0,1.888.8,4.188,4.188,0,0,1,3.155,1.287,4.415,4.415,0,0,0,.667.84l1.427,1.334Z" transform="translate(-144.077 -270.361)" fill="#bdbdbd"/>
      <path id="Path_19" data-name="Path 19" d="M258.472,142.232a11.959,11.959,0,0,1-6.836,15.447c6.156-2.374,11.232-10.058,8.857-16.214s-11.305-8.464-17.468-6.089A11.952,11.952,0,0,1,258.472,142.232Z" transform="translate(-225.623 -124.831)" fill="#dcdcdc"/>
      <path id="Path_20" data-name="Path 20" d="M113.591,162.735a11.945,11.945,0,0,1,6.856-15.467c-6.156,2.368-11.232,10.058-8.857,16.214s11.285,8.457,17.468,6.089A11.952,11.952,0,0,1,113.591,162.735Z" transform="translate(-103.046 -136.723)" fill="#dcdcdc"/>
    </g>
    <text id="EATANCE_" data-name="EATANCE " transform="translate(278.2 335)" fill="#fff" font-size="43" font-family="Satisfy-Regular, Satisfy"><tspan x="0" y="0">Eatance</tspan></text>
  </g>
</svg>
