<svg xmlns="http://www.w3.org/2000/svg" width="172.24" height="60" viewBox="0 0 172.24 60">
  <g id="Group_1450" data-name="Group 1450" transform="translate(-202 -10)">
    <g id="OBJECTS" transform="translate(202 12)">
      <path id="Path_11" data-name="Path 11" d="M20.337,0A20.33,20.33,0,0,0,0,20.337c0,9.671,15.041,29.533,19.255,34.9a1.369,1.369,0,0,0,2.163,0c4.214-5.37,19.255-25.232,19.255-34.9A20.337,20.337,0,0,0,20.337,0Z" transform="translate(0 0)" fill="#ffb300"/>
      <circle id="Ellipse_2" data-name="Ellipse 2" cx="11.203" cy="11.203" r="11.203" transform="translate(6.791 28.556) rotate(-76.26)" fill="#fff"/>
      <path id="Path_12" data-name="Path 12" d="M232.809,163.97c-1.157,1.157-3.607.625-5.458-1.25a6.051,6.051,0,0,1-1.876-3.557,5.508,5.508,0,0,0-1.663-3.551l-4.914-4.695a9.38,9.38,0,0,1,1.113-.575l4.426,4.651a5.433,5.433,0,0,0,3.526,1.663,6.076,6.076,0,0,1,3.57,1.875C233.4,160.369,233.965,162.814,232.809,163.97Z" transform="translate(-204.208 -140.252)" fill="#eda006"/>
      <path id="Path_13" data-name="Path 13" d="M170.793,241.98a11.316,11.316,0,0,1-1.132.575l-4.751-5a3.939,3.939,0,0,0-2.982-1.25,2.4,2.4,0,0,1-1.763-.713l-4.826-4.82a.369.369,0,0,1,0-.538.375.375,0,0,1,.519,0l3.751,3.751a.344.344,0,0,0,.219.094.362.362,0,0,0,.225-.094.313.313,0,0,0,0-.438L156.3,229.8a.375.375,0,0,1,0-.531.381.381,0,0,1,.525,0l3.751,3.751a.3.3,0,0,0,.438,0,.294.294,0,0,0,0-.431l-3.751-3.751a.356.356,0,0,1,0-.525.363.363,0,0,1,.519,0l3.751,3.751a.312.312,0,0,0,.438-.444l-3.751-3.751a.394.394,0,0,1,0-.531.375.375,0,0,1,.531,0l4.808,4.87a2.432,2.432,0,0,1,.706,1.775,3.957,3.957,0,0,0,1.25,2.982Z" transform="translate(-144.805 -211.972)" fill="#eda006"/>
      <path id="Path_14" data-name="Path 14" d="M220.556,173.328c-1.157,1.175-3.595.581-5.47-1.263a6.1,6.1,0,0,1-1.875-3.57,5.5,5.5,0,0,0-1.663-3.545l-5.783-5.5a8.539,8.539,0,0,1,.85-.544l3.807,3.62,1.732,1.813.094.088a5.57,5.57,0,0,1,.963,2.713,6.052,6.052,0,0,0,1.876,3.557c1.875,1.875,4.3,2.419,5.458,1.25a1.988,1.988,0,0,0,.513-.975A2.5,2.5,0,0,1,220.556,173.328Z" transform="translate(-191.955 -148.246)" fill="#bdbdbd"/>
      <path id="Path_15" data-name="Path 15" d="M171.375,276.917a.131.131,0,0,0,0,.038l3.332,3.332a.313.313,0,0,0,.438,0,.137.137,0,0,1,.038-.094l-3.257-3.257a.381.381,0,0,0-.55-.019Z" transform="translate(-159.872 -258.231)" fill="#bdbdbd"/>
      <path id="Path_16" data-name="Path 16" d="M185.738,262.573v.038l3.332,3.332a.313.313,0,0,0,.438,0h0a.137.137,0,0,1,.038-.094l-3.257-3.257a.381.381,0,0,0-.55-.019Z" transform="translate(-173.272 -244.849)" fill="#bdbdbd"/>
      <path id="Path_17" data-name="Path 17" d="M199.8,248.351h0l3.338,3.332a.313.313,0,0,0,.438,0,.117.117,0,0,1,.038-.087l-3.282-3.257a.369.369,0,0,0-.531.013Z" transform="translate(-186.394 -231.571)" fill="#bdbdbd"/>
      <path id="Path_18" data-name="Path 18" d="M169.637,302.252a8.677,8.677,0,0,1-.944.369l-3.814-4.007a3.976,3.976,0,0,0-2.982-1.25,2.388,2.388,0,0,1-1.763-.688l-.694-.7-4.132-4.132a.35.35,0,0,1,0-.525.375.375,0,0,1,.519,0l3.751,3.751a.3.3,0,0,0,.35.038l.2.194a2.4,2.4,0,0,0,1.769.75,3.926,3.926,0,0,1,2.957,1.207,4.14,4.14,0,0,0,.625.788l1.338,1.25Z" transform="translate(-144.774 -271.669)" fill="#bdbdbd"/>
      <path id="Path_19" data-name="Path 19" d="M257.5,141.745a11.209,11.209,0,0,1-6.408,14.479c5.77-2.226,10.528-9.428,8.3-15.2s-10.6-7.933-16.373-5.708A11.2,11.2,0,0,1,257.5,141.745Z" transform="translate(-226.714 -125.435)" fill="#eda006"/>
      <path id="Path_20" data-name="Path 20" d="M113.428,161.765a11.2,11.2,0,0,1,6.427-14.5c-5.77,2.219-10.528,9.427-8.3,15.2s10.578,7.927,16.373,5.708A11.2,11.2,0,0,1,113.428,161.765Z" transform="translate(-103.545 -137.384)" fill="#eda006"/>
    </g>
    <text id="EATANCE_" data-name="EATANCE " transform="translate(249.24 49)" fill="#ffb300" font-size="42" font-family="Satisfy-Regular, Satisfy"><tspan x="0" y="0">Eatance</tspan></text>
  </g>
</svg>
