<svg width="97" height="105" viewBox="0 0 97 105" fill="none" xmlns="http://www.w3.org/2000/svg">
<g clip-path="url(#clip0)">
<path d="M52.8288 104.604C67.7223 104.604 79.7958 102.19 79.7958 99.2112C79.7958 96.2328 67.7223 93.8182 52.8288 93.8182C37.9354 93.8182 25.8618 96.2328 25.8618 99.2112C25.8618 102.19 37.9354 104.604 52.8288 104.604Z" fill="#F4F4F4"/>
<path d="M43.8398 102.808C53.7688 102.808 61.8178 101.198 61.8178 99.2122C61.8178 97.2262 53.7688 95.6162 43.8398 95.6162C33.9108 95.6162 25.8618 97.2262 25.8618 99.2122C25.8618 101.198 33.9108 102.808 43.8398 102.808Z" fill="#24702E"/>
<path d="M83.6349 59.2952C83.6349 53.7672 65.0669 49.2852 42.1629 49.2852C19.2589 49.2852 0.692871 53.7662 0.692871 59.2952V59.5382C0.692871 70.5373 5.06223 81.0859 12.8397 88.8634C20.6172 96.6409 31.1658 101.01 42.1649 101.01C53.1639 101.01 63.7125 96.6409 71.49 88.8634C79.2675 81.0859 83.6369 70.5373 83.6369 59.5382C83.6369 59.5382 83.6349 59.3772 83.6349 59.2952Z" fill="#0706A9"/>
<path d="M96.152 18.7303L22.4409 11.5392L22.0918 15.1182L95.8028 22.3093L96.152 18.7303Z" fill="#B6CD14"/>
<path d="M28.3108 43.4772C27.5488 42.8898 26.9318 42.1354 26.5072 41.272C26.0827 40.4086 25.8619 39.4593 25.8619 38.4972C25.8619 37.5351 26.0827 36.5858 26.5072 35.7225C26.9318 34.8591 27.5488 34.1046 28.3108 33.5172C28.6653 33.2676 28.9546 32.9363 29.1543 32.5514C29.3539 32.1666 29.4582 31.7393 29.4582 31.3057C29.4582 30.8721 29.3539 30.4449 29.1543 30.06C28.9546 29.6751 28.6653 29.3439 28.3108 29.0942C27.5488 28.5068 26.9318 27.7524 26.5072 26.889C26.0827 26.0256 25.8619 25.0764 25.8619 24.1142C25.8619 23.1521 26.0827 22.2028 26.5072 21.3395C26.9318 20.4761 27.5488 19.7216 28.3108 19.1342C28.6542 18.874 28.9354 18.5406 29.1338 18.1581C29.3322 17.7757 29.4429 17.3538 29.4578 16.9232C29.4429 16.4926 29.3322 16.0708 29.1338 15.6883C28.9354 15.3059 28.6542 14.9724 28.3108 14.7122C27.5564 14.1179 26.9448 13.362 26.521 12.5002C26.0972 11.6384 25.8719 10.6926 25.8618 9.73223C25.8715 8.77182 26.0966 7.82582 26.5204 6.96394C26.9443 6.10206 27.5561 5.34626 28.3108 4.75223L30.6048 7.52123C30.2614 7.78142 29.9803 8.11486 29.7818 8.49732C29.5834 8.87977 29.4727 9.30163 29.4578 9.73223C29.4727 10.1628 29.5834 10.5847 29.7818 10.9671C29.9803 11.3496 30.2614 11.683 30.6048 11.9432C31.3668 12.5306 31.9838 13.2851 32.4084 14.1485C32.833 15.0118 33.0537 15.9611 33.0537 16.9232C33.0537 17.8853 32.833 18.8346 32.4084 19.698C31.9838 20.5614 31.3668 21.3158 30.6048 21.9032C30.2503 22.1529 29.9611 22.4841 29.7614 22.869C29.5617 23.2539 29.4575 23.6811 29.4575 24.1147C29.4575 24.5483 29.5617 24.9756 29.7614 25.3604C29.9611 25.7453 30.2503 26.0766 30.6048 26.3262C31.3668 26.9136 31.9838 27.6681 32.4084 28.5315C32.833 29.3948 33.0537 30.3441 33.0537 31.3062C33.0537 32.2683 32.833 33.2176 32.4084 34.081C31.9838 34.9444 31.3668 35.6988 30.6048 36.2862C30.2503 36.5359 29.9611 36.8671 29.7614 37.252C29.5617 37.6369 29.4575 38.0641 29.4575 38.4977C29.4575 38.9313 29.5617 39.3586 29.7614 39.7434C29.9611 40.1283 30.2503 40.4595 30.6048 40.7092L28.3108 43.4772Z" fill="#EEAF4B"/>
<path d="M35.5027 43.4772C34.7407 42.8898 34.1237 42.1354 33.6991 41.272C33.2746 40.4086 33.0538 39.4593 33.0538 38.4972C33.0538 37.5351 33.2746 36.5858 33.6991 35.7225C34.1237 34.8591 34.7407 34.1046 35.5027 33.5172C35.8572 33.2676 36.1465 32.9363 36.3461 32.5514C36.5458 32.1666 36.6501 31.7393 36.6501 31.3057C36.6501 30.8721 36.5458 30.4449 36.3461 30.06C36.1465 29.6751 35.8572 29.3439 35.5027 29.0942C34.7407 28.5068 34.1237 27.7524 33.6991 26.889C33.2746 26.0256 33.0538 25.0764 33.0538 24.1142C33.0538 23.1521 33.2746 22.2028 33.6991 21.3395C34.1237 20.4761 34.7407 19.7216 35.5027 19.1342C35.8461 18.874 36.1273 18.5406 36.3257 18.1581C36.5241 17.7757 36.6348 17.3538 36.6497 16.9232C36.6348 16.4926 36.5241 16.0708 36.3257 15.6883C36.1273 15.3059 35.8461 14.9724 35.5027 14.7122C34.7483 14.1179 34.1367 13.362 33.7129 12.5002C33.2891 11.6384 33.0638 10.6926 33.0537 9.73223C33.0634 8.77182 33.2885 7.82582 33.7123 6.96394C34.1362 6.10206 34.748 5.34626 35.5027 4.75223L37.7967 7.52123C37.4533 7.78142 37.1722 8.11486 36.9737 8.49732C36.7753 8.87977 36.6646 9.30163 36.6497 9.73223C36.6646 10.1628 36.7753 10.5847 36.9737 10.9671C37.1722 11.3496 37.4533 11.683 37.7967 11.9432C38.5587 12.5306 39.1757 13.2851 39.6003 14.1485C40.0248 15.0118 40.2456 15.9611 40.2456 16.9232C40.2456 17.8853 40.0248 18.8346 39.6003 19.698C39.1757 20.5614 38.5587 21.3158 37.7967 21.9032C37.4422 22.1529 37.153 22.4841 36.9533 22.869C36.7536 23.2539 36.6494 23.6811 36.6494 24.1147C36.6494 24.5483 36.7536 24.9756 36.9533 25.3604C37.153 25.7453 37.4422 26.0766 37.7967 26.3262C38.5587 26.9136 39.1757 27.6681 39.6003 28.5315C40.0248 29.3948 40.2456 30.3441 40.2456 31.3062C40.2456 32.2683 40.0248 33.2176 39.6003 34.081C39.1757 34.9444 38.5587 35.6988 37.7967 36.2862C37.4422 36.5359 37.153 36.8671 36.9533 37.252C36.7536 37.6369 36.6494 38.0641 36.6494 38.4977C36.6494 38.9313 36.7536 39.3586 36.9533 39.7434C37.153 40.1283 37.4422 40.4595 37.7967 40.7092L35.5027 43.4772Z" fill="#EEAF4B"/>
<path d="M42.6941 43.4772C41.9321 42.8898 41.3151 42.1354 40.8905 41.272C40.466 40.4086 40.2452 39.4593 40.2452 38.4972C40.2452 37.5351 40.466 36.5858 40.8905 35.7225C41.3151 34.8591 41.9321 34.1046 42.6941 33.5172C43.0486 33.2676 43.3379 32.9363 43.5376 32.5514C43.7372 32.1666 43.8415 31.7393 43.8415 31.3057C43.8415 30.8721 43.7372 30.4449 43.5376 30.06C43.3379 29.6751 43.0486 29.3439 42.6941 29.0942C41.9321 28.5068 41.3151 27.7524 40.8905 26.889C40.466 26.0256 40.2452 25.0764 40.2452 24.1142C40.2452 23.1521 40.466 22.2028 40.8905 21.3395C41.3151 20.4761 41.9321 19.7216 42.6941 19.1342C43.0375 18.874 43.3187 18.5406 43.5171 18.1581C43.7155 17.7757 43.8262 17.3538 43.8411 16.9232C43.8262 16.4926 43.7155 16.0708 43.5171 15.6883C43.3187 15.3059 43.0375 14.9724 42.6941 14.7122C41.9397 14.1179 41.3281 13.362 40.9043 12.5002C40.4805 11.6384 40.2552 10.6926 40.2451 9.73223C40.2548 8.77182 40.4799 7.82582 40.9037 6.96394C41.3276 6.10206 41.9394 5.34626 42.6941 4.75223L44.9881 7.52123C44.6447 7.78142 44.3636 8.11486 44.1651 8.49732C43.9667 8.87977 43.856 9.30163 43.8411 9.73223C43.856 10.1628 43.9667 10.5847 44.1651 10.9671C44.3636 11.3496 44.6447 11.683 44.9881 11.9432C45.7501 12.5306 46.3671 13.2851 46.7917 14.1485C47.2163 15.0118 47.437 15.9611 47.437 16.9232C47.437 17.8853 47.2163 18.8346 46.7917 19.698C46.3671 20.5614 45.7501 21.3158 44.9881 21.9032C44.6336 22.1529 44.3444 22.4841 44.1447 22.869C43.945 23.2539 43.8408 23.6811 43.8408 24.1147C43.8408 24.5483 43.945 24.9756 44.1447 25.3604C44.3444 25.7453 44.6336 26.0766 44.9881 26.3262C45.7501 26.9136 46.3671 27.6681 46.7917 28.5315C47.2163 29.3948 47.437 30.3441 47.437 31.3062C47.437 32.2683 47.2163 33.2176 46.7917 34.081C46.3671 34.9444 45.7501 35.6988 44.9881 36.2862C44.6336 36.5359 44.3444 36.8671 44.1447 37.252C43.945 37.6369 43.8408 38.0641 43.8408 38.4977C43.8408 38.9313 43.945 39.3586 44.1447 39.7434C44.3444 40.1283 44.6336 40.4595 44.9881 40.7092L42.6941 43.4772Z" fill="#EEAF4B"/>
<path d="M49.885 43.4772C49.1231 42.8898 48.506 42.1354 48.0815 41.272C47.6569 40.4086 47.4361 39.4593 47.4361 38.4972C47.4361 37.5351 47.6569 36.5858 48.0815 35.7225C48.506 34.8591 49.1231 34.1046 49.885 33.5172C50.2395 33.2676 50.5288 32.9363 50.7285 32.5514C50.9281 32.1666 51.0324 31.7393 51.0324 31.3057C51.0324 30.8721 50.9281 30.4449 50.7285 30.06C50.5288 29.6751 50.2395 29.3439 49.885 29.0942C49.1231 28.5068 48.506 27.7524 48.0815 26.889C47.6569 26.0256 47.4361 25.0764 47.4361 24.1142C47.4361 23.1521 47.6569 22.2028 48.0815 21.3395C48.506 20.4761 49.1231 19.7216 49.885 19.1342C50.2285 18.874 50.5096 18.5406 50.708 18.1581C50.9064 17.7757 51.0171 17.3538 51.032 16.9232C51.0171 16.4926 50.9064 16.0708 50.708 15.6883C50.5096 15.3059 50.2285 14.9724 49.885 14.7122C49.1306 14.1179 48.519 13.362 48.0952 12.5002C47.6714 11.6384 47.4462 10.6926 47.436 9.73223C47.4457 8.77182 47.6708 7.82582 48.0946 6.96394C48.5185 6.10206 49.1303 5.34626 49.885 4.75223L52.179 7.52123C51.8356 7.78142 51.5545 8.11486 51.3561 8.49732C51.1577 8.87977 51.047 9.30163 51.032 9.73223C51.047 10.1628 51.1577 10.5847 51.3561 10.9671C51.5545 11.3496 51.8356 11.683 52.179 11.9432C52.941 12.5306 53.558 13.2851 53.9826 14.1485C54.4072 15.0118 54.628 15.9611 54.628 16.9232C54.628 17.8853 54.4072 18.8346 53.9826 19.698C53.558 20.5614 52.941 21.3158 52.179 21.9032C51.8245 22.1529 51.5353 22.4841 51.3356 22.869C51.1359 23.2539 51.0317 23.6811 51.0317 24.1147C51.0317 24.5483 51.1359 24.9756 51.3356 25.3604C51.5353 25.7453 51.8245 26.0766 52.179 26.3262C52.941 26.9136 53.558 27.6681 53.9826 28.5315C54.4072 29.3948 54.628 30.3441 54.628 31.3062C54.628 32.2683 54.4072 33.2176 53.9826 34.081C53.558 34.9444 52.941 35.6988 52.179 36.2862C51.8245 36.5359 51.5353 36.8671 51.3356 37.252C51.1359 37.6369 51.0317 38.0641 51.0317 38.4977C51.0317 38.9313 51.1359 39.3586 51.3356 39.7434C51.5353 40.1283 51.8245 40.4595 52.179 40.7092L49.885 43.4772Z" fill="#EEAF4B"/>
<path d="M42.1629 69.3042C65.0673 69.3042 83.6349 64.8226 83.6349 59.2942C83.6349 53.7659 65.0673 49.2842 42.1629 49.2842C19.2586 49.2842 0.690918 53.7659 0.690918 59.2942C0.690918 64.8226 19.2586 69.3042 42.1629 69.3042Z" fill="#FCC900"/>
<path d="M58.6358 66.1962C58.3791 65.8516 58.0455 65.5716 57.6614 65.3788C57.2774 65.186 56.8536 65.0855 56.4238 65.0855C55.9941 65.0855 55.5703 65.186 55.1862 65.3788C54.8022 65.5716 54.4685 65.8516 54.2118 66.1962L51.4448 63.8962C52.0326 63.1348 52.7871 62.5182 53.6505 62.094C54.5138 61.6698 55.4629 61.4492 56.4248 61.4492C57.3867 61.4492 58.3359 61.6698 59.1992 62.094C60.0625 62.5182 60.8171 63.1348 61.4048 63.8962L58.6358 66.1962Z" fill="#EEAF4B"/>
<path d="M69.4229 64.3982C69.1663 64.0536 68.8326 63.7736 68.4485 63.5808C68.0645 63.388 67.6407 63.2875 67.2109 63.2875C66.7812 63.2875 66.3574 63.388 65.9733 63.5808C65.5893 63.7736 65.2556 64.0536 64.9989 64.3982L62.2319 62.0982C62.8197 61.3368 63.5742 60.7202 64.4376 60.296C65.3009 59.8718 66.25 59.6512 67.2119 59.6512C68.1739 59.6512 69.123 59.8718 69.9863 60.296C70.8496 60.7202 71.6042 61.3368 72.1919 62.0982L69.4229 64.3982Z" fill="#EEAF4B"/>
<path d="M76.6138 60.8032C76.3572 60.4586 76.0235 60.1786 75.6394 59.9858C75.2554 59.793 74.8316 59.6925 74.4019 59.6925C73.9721 59.6925 73.5483 59.793 73.1643 59.9858C72.7802 60.1786 72.4465 60.4586 72.1898 60.8032L69.4229 58.5032C70.0106 57.7418 70.7652 57.1252 71.6285 56.701C72.4918 56.2768 73.4409 56.0562 74.4029 56.0562C75.3648 56.0562 76.3139 56.2768 77.1772 56.701C78.0405 57.1252 78.7951 57.7418 79.3829 58.5032L76.6138 60.8032Z" fill="#EEAF4B"/>
<path d="M65.8267 59.0052C65.5701 58.6606 65.2364 58.3806 64.8523 58.1878C64.4683 57.995 64.0445 57.8945 63.6147 57.8945C63.185 57.8945 62.7612 57.995 62.3771 58.1878C61.9931 58.3806 61.6594 58.6606 61.4027 59.0052L58.6357 56.7052C59.2235 55.9438 59.9781 55.3272 60.8414 54.903C61.7047 54.4788 62.6538 54.2582 63.6157 54.2582C64.5777 54.2582 65.5268 54.4788 66.3901 54.903C67.2534 55.3272 68.008 55.9438 68.5957 56.7052L65.8267 59.0052Z" fill="#EEAF4B"/>
<path d="M55.0411 60.8032C54.7844 60.4586 54.4507 60.1786 54.0667 59.9858C53.6826 59.793 53.2588 59.6925 52.8291 59.6925C52.3994 59.6925 51.9755 59.793 51.5915 59.9858C51.2074 60.1786 50.8738 60.4586 50.6171 60.8032L47.8501 58.5032C48.4379 57.7418 49.1924 57.1252 50.0557 56.701C50.9191 56.2768 51.8682 56.0562 52.8301 56.0562C53.792 56.0562 54.7411 56.2768 55.6045 56.701C56.4678 57.1252 57.2223 57.7418 57.8101 58.5032L55.0411 60.8032Z" fill="#EEAF4B"/>
<path d="M55.0411 55.4092C54.7844 55.0646 54.4507 54.7846 54.0667 54.5918C53.6826 54.399 53.2588 54.2985 52.8291 54.2985C52.3994 54.2985 51.9755 54.399 51.5915 54.5918C51.2074 54.7846 50.8738 55.0646 50.6171 55.4092L47.8501 53.1092C48.4379 52.3478 49.1924 51.7312 50.0557 51.307C50.9191 50.8828 51.8682 50.6622 52.8301 50.6622C53.792 50.6622 54.7411 50.8828 55.6045 51.307C56.4678 51.7312 57.2223 52.3478 57.8101 53.1092L55.0411 55.4092Z" fill="#EEAF4B"/>
<path d="M44.254 59.0052C43.9973 58.6606 43.6636 58.3806 43.2796 58.1878C42.8955 57.995 42.4717 57.8945 42.042 57.8945C41.6122 57.8945 41.1884 57.995 40.8044 58.1878C40.4203 58.3806 40.0867 58.6606 39.83 59.0052L37.063 56.7052C37.6508 55.9438 38.4053 55.3272 39.2686 54.903C40.132 54.4788 41.0811 54.2582 42.043 54.2582C43.0049 54.2582 43.954 54.4788 44.8173 54.903C45.6807 55.3272 46.4352 55.9438 47.023 56.7052L44.254 59.0052Z" fill="#EEAF4B"/>
<path d="M46.0509 66.1962C45.7942 65.8516 45.4605 65.5716 45.0765 65.3788C44.6924 65.186 44.2686 65.0855 43.8389 65.0855C43.4091 65.0855 42.9853 65.186 42.6013 65.3788C42.2172 65.5716 41.8835 65.8516 41.6269 66.1962L38.8599 63.8962C39.4476 63.1348 40.2022 62.5182 41.0655 62.094C41.9288 61.6698 42.8779 61.4492 43.8399 61.4492C44.8018 61.4492 45.7509 61.6698 46.6142 62.094C47.4775 62.5182 48.2321 63.1348 48.8199 63.8962L46.0509 66.1962Z" fill="#EEAF4B"/>
<path d="M35.2647 66.1962C35.0081 65.8516 34.6744 65.5716 34.2903 65.3788C33.9063 65.186 33.4825 65.0855 33.0527 65.0855C32.623 65.0855 32.1992 65.186 31.8151 65.3788C31.4311 65.5716 31.0974 65.8516 30.8407 66.1962L28.0737 63.8962C28.6615 63.1348 29.416 62.5182 30.2794 62.094C31.1427 61.6698 32.0918 61.4492 33.0537 61.4492C34.0156 61.4492 34.9648 61.6698 35.8281 62.094C36.6914 62.5182 37.446 63.1348 38.0337 63.8962L35.2647 66.1962Z" fill="#EEAF4B"/>
<path d="M13.691 64.3982C13.4343 64.0536 13.1006 63.7736 12.7166 63.5808C12.3325 63.388 11.9087 63.2875 11.479 63.2875C11.0493 63.2875 10.6255 63.388 10.2414 63.5808C9.85735 63.7736 9.52368 64.0536 9.267 64.3982L6.5 62.0982C7.09442 61.3441 7.85035 60.7328 8.71218 60.3093C9.57401 59.8859 10.5198 59.661 11.48 59.6512C12.4402 59.661 13.386 59.8859 14.2478 60.3093C15.1096 60.7328 15.8656 61.3441 16.46 62.0982L13.691 64.3982Z" fill="#EEAF4B"/>
<path d="M26.275 64.3982C26.0183 64.0536 25.6846 63.7736 25.3006 63.5808C24.9165 63.388 24.4927 63.2875 24.063 63.2875C23.6332 63.2875 23.2094 63.388 22.8254 63.5808C22.4413 63.7736 22.1077 64.0536 21.851 64.3982L19.084 62.0982C19.6717 61.3368 20.4263 60.7202 21.2896 60.296C22.153 59.8718 23.1021 59.6512 24.064 59.6512C25.0259 59.6512 25.975 59.8718 26.8383 60.296C27.7017 60.7202 28.4562 61.3368 29.044 62.0982L26.275 64.3982Z" fill="#EEAF4B"/>
<path d="M31.669 59.0052C31.4123 58.6606 31.0787 58.3806 30.6946 58.1878C30.3106 57.995 29.8868 57.8945 29.457 57.8945C29.0273 57.8945 28.6035 57.995 28.2194 58.1878C27.8354 58.3806 27.5017 58.6606 27.245 59.0052L24.478 56.7052C25.0658 55.9438 25.8203 55.3272 26.6837 54.903C27.547 54.4788 28.4961 54.2582 29.458 54.2582C30.4199 54.2582 31.3691 54.4788 32.2324 54.903C33.0957 55.3272 33.8503 55.9438 34.438 56.7052L31.669 59.0052Z" fill="#EEAF4B"/>
<path d="M17.2857 59.0052C17.029 58.6606 16.6954 58.3806 16.3113 58.1878C15.9273 57.995 15.5035 57.8945 15.0737 57.8945C14.644 57.8945 14.2202 57.995 13.8361 58.1878C13.4521 58.3806 13.1184 58.6606 12.8617 59.0052L10.0947 56.7052C10.6892 55.9511 11.4451 55.3398 12.3069 54.9163C13.1687 54.4929 14.1145 54.268 15.0747 54.2582C16.0349 54.268 16.9807 54.4929 17.8425 54.9163C18.7044 55.3398 19.4603 55.9511 20.0547 56.7052L17.2857 59.0052Z" fill="#EEAF4B"/>
<path d="M94.4267 4.32272L93.9297 0.76123L16.6227 11.549L17.1197 15.1105L94.4267 4.32272Z" fill="#CDE90C"/>
<path opacity="0.23" d="M29.983 94.5732C13.012 91.9482 9.66797 70.4462 9.66797 70.4462C14.819 73.0532 19.184 75.4212 20.811 79.3522C26.611 79.6522 29.669 81.5202 28.693 87.0522C44.312 90.7342 43.755 93.5962 39.377 95.7882C36.59 95.5172 29.983 94.5732 29.983 94.5732Z" fill="#F9D2C7"/>
</g>
<defs>
<clipPath id="clip0">
<rect width="95.463" height="103.844" fill="white" transform="translate(0.690918 0.76123)"/>
</clipPath>
</defs>
</svg>
