<svg width="66" height="66" viewBox="0 0 66 66" fill="none" xmlns="http://www.w3.org/2000/svg">
<path d="M60.6909 0.375488H5.69092C2.92949 0.375488 0.690918 2.61406 0.690918 5.37549V60.3755C0.690918 63.1369 2.92949 65.3755 5.69092 65.3755H60.6909C63.4523 65.3755 65.6909 63.1369 65.6909 60.3755V5.37549C65.6909 2.61406 63.4523 0.375488 60.6909 0.375488Z" fill="#F7FFBF"/>
<path d="M24.0472 44.9854C20.9902 44.9854 17.7412 45.9963 17.7412 47.8713C17.7412 49.7463 20.9902 50.7574 24.0472 50.7574C27.1042 50.7574 30.3532 49.7463 30.3532 47.8713C30.3532 45.9963 27.1042 44.9854 24.0472 44.9854Z" fill="#FFDB56"/>
<path d="M24.0469 25.3096C21.682 25.3122 19.4147 26.2529 17.7425 27.9251C16.0702 29.5974 15.1296 31.8647 15.127 34.2296C15.127 37.2837 16.5799 40.5667 19.4449 43.9887C20.7298 45.5267 22.162 46.9354 23.7209 48.1947C23.8144 48.267 23.9293 48.3062 24.0474 48.3062C24.1656 48.3062 24.2804 48.267 24.3739 48.1947C25.9329 46.9354 27.365 45.5267 28.6499 43.9887C31.5149 40.5667 32.9679 37.2837 32.9679 34.2296C32.9652 31.8645 32.0245 29.5971 30.352 27.9248C28.6796 26.2525 26.412 25.312 24.0469 25.3096ZM27.3919 34.2296C27.3919 34.8912 27.1957 35.5379 26.8282 36.088C26.4606 36.6381 25.9382 37.0668 25.327 37.32C24.7158 37.5732 24.0432 37.6394 23.3943 37.5104C22.7455 37.3813 22.1495 37.0627 21.6817 36.5949C21.2139 36.1271 20.8953 35.5311 20.7662 34.8822C20.6371 34.2333 20.7034 33.5608 20.9566 32.9495C21.2097 32.3383 21.6385 31.8159 22.1885 31.4483C22.7386 31.0808 23.3853 30.8846 24.0469 30.8846C24.4866 30.8842 24.9221 30.9705 25.3284 31.1386C25.7347 31.3066 26.1039 31.5531 26.4148 31.864C26.7258 32.1749 26.9724 32.544 27.1406 32.9502C27.3088 33.3565 27.3952 33.7919 27.3949 34.2316L27.3919 34.2296Z" fill="#FF4A4A"/>
<path d="M47.8339 30.0656C45.6729 29.3069 43.3179 29.3069 41.1569 30.0656C40.1049 30.4946 39.5249 31.1236 39.5249 31.8376C39.5249 32.5516 40.1039 33.1816 41.1569 33.6096C43.3179 34.3683 45.6729 34.3683 47.8339 33.6096C48.8859 33.1806 49.4659 32.5516 49.4659 31.8376C49.4659 31.1236 48.8859 30.4946 47.8339 30.0656Z" fill="#FFDB56"/>
<path d="M24.0472 49.4247C21.3752 49.4247 18.5562 48.6517 17.8892 47.2046C17.7918 47.4131 17.7413 47.6405 17.7412 47.8706C17.7412 49.7447 20.9902 50.7568 24.0472 50.7568C27.1042 50.7568 30.3532 49.7447 30.3532 47.8706C30.3531 47.6405 30.3026 47.4131 30.2052 47.2046C29.5382 48.6517 26.7172 49.4247 24.0472 49.4247Z" fill="#FFBB24"/>
<path d="M47.8344 32.2773C45.6734 33.036 43.3184 33.036 41.1574 32.2773C40.5652 32.0789 40.0553 31.69 39.7074 31.1714C39.5895 31.3736 39.5268 31.6033 39.5254 31.8373C39.5254 32.5513 40.1044 33.1813 41.1574 33.6092C43.3184 34.3679 45.6734 34.3679 47.8344 33.6092C48.8864 33.1803 49.4654 32.5513 49.4654 31.8373C49.4639 31.6033 49.4012 31.3737 49.2834 31.1714C48.9357 31.6898 48.4262 32.0787 47.8344 32.2773Z" fill="#FFBB24"/>
<path d="M44.4956 14.3755C42.6453 14.3776 40.8714 15.1136 39.563 16.4219C38.2547 17.7303 37.5187 19.5042 37.5166 21.3545C37.5166 23.7315 38.6426 26.2815 40.8636 28.9345C41.8568 30.1232 42.9637 31.2121 44.1686 32.1855C44.2621 32.2577 44.377 32.2969 44.4951 32.2969C44.6133 32.2969 44.7281 32.2577 44.8216 32.1855C46.0266 31.2121 47.1335 30.1232 48.1266 28.9345C50.3476 26.2815 51.4736 23.7345 51.4736 21.3545C51.4715 19.5044 50.7357 17.7306 49.4275 16.4223C48.1194 15.114 46.3457 14.3779 44.4956 14.3755V14.3755ZM47.0666 21.3545C47.0666 21.863 46.9158 22.3601 46.6333 22.7829C46.3508 23.2057 45.9493 23.5352 45.4795 23.7298C45.0097 23.9244 44.4928 23.9753 43.994 23.8761C43.4953 23.7769 43.0372 23.532 42.6776 23.1725C42.3181 22.8129 42.0732 22.3548 41.974 21.8561C41.8748 21.3573 41.9257 20.8404 42.1203 20.3706C42.3149 19.9008 42.6444 19.4993 43.0672 19.2168C43.49 18.9343 43.9871 18.7835 44.4956 18.7835C45.1775 18.7835 45.8314 19.0544 46.3136 19.5365C46.7958 20.0187 47.0666 20.6726 47.0666 21.3545Z" fill="#FF4A4A"/>
<path d="M24.0469 25.3096C23.7128 25.3099 23.379 25.329 23.0469 25.3666C25.2235 25.6162 27.2325 26.6571 28.6918 28.2912C30.1511 29.9253 30.959 32.0388 30.9619 34.2296C30.9619 37.2837 29.5089 40.5667 26.6439 43.9887C25.5429 45.2979 24.339 46.5171 23.0439 47.6347C23.4439 47.9767 23.6929 48.1727 23.7219 48.1947C23.8155 48.267 23.9303 48.3062 24.0484 48.3062C24.1666 48.3062 24.2814 48.267 24.3749 48.1947C25.9339 46.9354 27.3661 45.5267 28.6509 43.9887C31.5159 40.5667 32.9689 37.2837 32.9689 34.2296C32.9663 31.8644 32.0254 29.5967 30.3527 27.9244C28.68 26.2521 26.4122 25.3117 24.0469 25.3096Z" fill="#E7343F"/>
<path d="M44.4961 14.3755C44.1614 14.3759 43.8273 14.4003 43.4961 14.4485C45.1548 14.6919 46.6707 15.5234 47.7675 16.7913C48.8644 18.0592 49.469 19.679 49.4711 21.3555C49.4711 23.7325 48.3451 26.2825 46.1241 28.9355C45.3173 29.8951 44.4391 30.7923 43.4971 31.6195C43.8971 31.9675 44.1491 32.1665 44.1751 32.1865C44.2686 32.2587 44.3834 32.2979 44.5016 32.2979C44.6198 32.2979 44.7346 32.2587 44.8281 32.1865C46.033 31.2131 47.14 30.1242 48.1331 28.9355C50.3541 26.2825 51.4801 23.7355 51.4801 21.3555C51.4782 19.5042 50.7417 17.7292 49.4322 16.4205C48.1228 15.1118 46.3474 14.3763 44.4961 14.3755V14.3755Z" fill="#E7343F"/>
<path d="M32.3219 48.4043C32.1844 48.3983 32.0545 48.3395 31.9594 48.2401C31.8642 48.1407 31.811 48.0084 31.811 47.8708C31.811 47.7331 31.8642 47.6008 31.9594 47.5014C32.0545 47.402 32.1844 47.3432 32.3219 47.3373H33.0219C33.1594 47.3432 33.2893 47.402 33.3845 47.5014C33.4797 47.6008 33.5328 47.7331 33.5328 47.8708C33.5328 48.0084 33.4797 48.1407 33.3845 48.2401C33.2893 48.3395 33.1594 48.3983 33.0219 48.4043H32.3219ZM35.1399 48.3913C34.9984 48.3913 34.8627 48.335 34.7627 48.235C34.6626 48.1349 34.6064 47.9992 34.6064 47.8578C34.6064 47.7163 34.6626 47.5806 34.7627 47.4805C34.8627 47.3805 34.9984 47.3243 35.1399 47.3243H35.8399C35.9774 47.3302 36.1073 47.389 36.2025 47.4884C36.2977 47.5878 36.3508 47.7201 36.3508 47.8578C36.3508 47.9954 36.2977 48.1277 36.2025 48.2271C36.1073 48.3265 35.9774 48.3853 35.8399 48.3913H35.1399ZM37.9589 48.3783C37.8214 48.3723 37.6915 48.3135 37.5964 48.2141C37.5012 48.1147 37.448 47.9824 37.448 47.8448C37.448 47.7071 37.5012 47.5748 37.5964 47.4754C37.6915 47.376 37.8214 47.3172 37.9589 47.3113H38.6589C38.7964 47.3172 38.9263 47.376 39.0215 47.4754C39.1167 47.5748 39.1698 47.7071 39.1698 47.8448C39.1698 47.9824 39.1167 48.1147 39.0215 48.2141C38.9263 48.3135 38.7964 48.3723 38.6589 48.3783H37.9589ZM40.7779 48.3653C40.6404 48.3593 40.5105 48.3005 40.4154 48.2011C40.3202 48.1017 40.267 47.9694 40.267 47.8318C40.267 47.6941 40.3202 47.5618 40.4154 47.4624C40.5105 47.363 40.6404 47.3042 40.7779 47.2983H41.4779C41.6154 47.3042 41.7453 47.363 41.8405 47.4624C41.9357 47.5618 41.9888 47.6941 41.9888 47.8318C41.9888 47.9694 41.9357 48.1017 41.8405 48.2011C41.7453 48.3005 41.6154 48.3593 41.4779 48.3653H40.7779ZM43.5959 48.3523C43.4584 48.3463 43.3285 48.2875 43.2334 48.1881C43.1382 48.0887 43.085 47.9564 43.085 47.8188C43.085 47.6811 43.1382 47.5488 43.2334 47.4494C43.3285 47.35 43.4584 47.2912 43.5959 47.2853H44.2959C44.4334 47.2912 44.5633 47.35 44.6585 47.4494C44.7537 47.5488 44.8068 47.6811 44.8068 47.8188C44.8068 47.9564 44.7537 48.0887 44.6585 48.1881C44.5633 48.2875 44.4334 48.3463 44.2959 48.3523H43.5959ZM46.4149 48.3393C46.2774 48.3333 46.1475 48.2745 46.0524 48.1751C45.9572 48.0757 45.904 47.9434 45.904 47.8058C45.904 47.6681 45.9572 47.5358 46.0524 47.4364C46.1475 47.337 46.2774 47.2782 46.4149 47.2723H46.5149C46.6929 47.2714 46.8706 47.2587 47.0469 47.2343C47.184 47.2212 47.3208 47.2617 47.4288 47.3471C47.5368 47.4325 47.6076 47.5564 47.6264 47.6928C47.6453 47.8292 47.6107 47.9676 47.5299 48.0791C47.4491 48.1906 47.3284 48.2666 47.1929 48.2913C46.9699 48.3221 46.7451 48.3381 46.5199 48.3393H46.4199H46.4149ZM49.0689 47.5393C48.9557 47.5381 48.8458 47.501 48.7551 47.4333C48.6644 47.3657 48.5975 47.2709 48.5641 47.1628C48.5307 47.0546 48.5326 46.9387 48.5694 46.8316C48.6062 46.7246 48.6761 46.632 48.7689 46.5673C48.9395 46.4492 49.1006 46.3182 49.2509 46.1753C49.3547 46.0859 49.4888 46.0399 49.6256 46.0466C49.7624 46.0534 49.8913 46.1124 49.9858 46.2115C50.0803 46.3106 50.1331 46.4422 50.1333 46.5792C50.1335 46.7161 50.0811 46.8479 49.9869 46.9473C49.7968 47.1295 49.5929 47.2966 49.3769 47.4473C49.2862 47.5078 49.179 47.5388 49.0699 47.5363L49.0689 47.5393ZM50.7559 45.3393C50.6707 45.3388 50.5868 45.3179 50.5112 45.2783C50.4357 45.2387 50.3708 45.1817 50.3218 45.1119C50.2729 45.0421 50.2414 44.9616 50.2299 44.8771C50.2184 44.7926 50.2274 44.7066 50.2559 44.6263C50.3255 44.4308 50.3797 44.2302 50.4179 44.0263C50.4445 43.8873 50.5251 43.7645 50.6421 43.685C50.7591 43.6055 50.903 43.5757 51.0419 43.6023C51.1809 43.6288 51.3036 43.7094 51.3832 43.8264C51.4627 43.9435 51.4924 44.0873 51.4659 44.2263C51.4171 44.4846 51.3483 44.7387 51.2599 44.9863C51.2224 45.0896 51.1538 45.1788 51.0636 45.2416C50.9733 45.3045 50.8659 45.3379 50.7559 45.3373V45.3393ZM50.8419 42.5683C50.7263 42.568 50.6139 42.5303 50.5215 42.4607C50.4292 42.3911 50.362 42.2934 50.3299 42.1823C50.2725 41.9832 50.1997 41.7889 50.1119 41.6013C50.0592 41.4741 50.0576 41.3316 50.1075 41.2033C50.1573 41.075 50.2548 40.9709 50.3795 40.9127C50.5042 40.8546 50.6466 40.8468 50.7769 40.891C50.9072 40.9353 51.0154 41.0282 51.0789 41.1503C51.1901 41.3887 51.2824 41.6354 51.3549 41.8883C51.3777 41.9677 51.3817 42.0514 51.3666 42.1326C51.3515 42.2139 51.3178 42.2906 51.2681 42.3566C51.2184 42.4226 51.154 42.4761 51.08 42.5131C51.0061 42.55 50.9246 42.5692 50.8419 42.5693V42.5683ZM49.2949 40.2683C49.1751 40.2683 49.0588 40.2277 48.9649 40.1533C48.8021 40.0247 48.6296 39.9091 48.4489 39.8073C48.3256 39.7378 48.2349 39.6221 48.1969 39.4858C48.1588 39.3495 48.1764 39.2036 48.2459 39.0803C48.3154 38.9569 48.431 38.8663 48.5674 38.8282C48.7037 38.7901 48.8496 38.8078 48.9729 38.8773C49.2016 39.0062 49.4199 39.1526 49.6259 39.3153C49.7126 39.3841 49.7757 39.4782 49.8065 39.5845C49.8373 39.6908 49.8344 39.8041 49.798 39.9086C49.7617 40.0132 49.6937 40.1038 49.6036 40.1681C49.5135 40.2323 49.4056 40.267 49.2949 40.2673V40.2683ZM46.6949 39.3013H46.6699C46.6106 39.3013 46.5506 39.3013 46.4899 39.3013H45.9899C45.9179 39.3044 45.846 39.2929 45.7786 39.2675C45.7112 39.2421 45.6495 39.2033 45.5975 39.1534C45.5454 39.1036 45.504 39.0437 45.4757 38.9774C45.4474 38.9112 45.4328 38.8398 45.4328 38.7678C45.4328 38.6957 45.4474 38.6244 45.4757 38.5581C45.504 38.4918 45.5454 38.4319 45.5975 38.3821C45.6495 38.3322 45.7112 38.2934 45.7786 38.268C45.846 38.2426 45.9179 38.2311 45.9899 38.2343H46.4899C46.5649 38.2343 46.6419 38.2343 46.7169 38.2393C46.8548 38.2474 46.9842 38.3087 47.0779 38.4103C47.1716 38.5118 47.2222 38.6457 47.2193 38.7838C47.2163 38.922 47.1599 39.0535 47.0619 39.151C46.964 39.2484 46.8321 39.304 46.6939 39.3063L46.6949 39.3013ZM43.8759 39.3013H43.1759C43.1039 39.3044 43.032 39.2929 42.9646 39.2675C42.8972 39.2421 42.8355 39.2033 42.7835 39.1534C42.7314 39.1036 42.69 39.0437 42.6617 38.9774C42.6334 38.9112 42.6188 38.8398 42.6188 38.7678C42.6188 38.6957 42.6334 38.6244 42.6617 38.5581C42.69 38.4918 42.7314 38.4319 42.7835 38.3821C42.8355 38.3322 42.8972 38.2934 42.9646 38.268C43.032 38.2426 43.1039 38.2311 43.1759 38.2343H43.8759C43.9479 38.2311 44.0198 38.2426 44.0873 38.268C44.1547 38.2934 44.2163 38.3322 44.2684 38.3821C44.3204 38.4319 44.3619 38.4918 44.3902 38.5581C44.4185 38.6244 44.433 38.6957 44.433 38.7678C44.433 38.8398 44.4185 38.9112 44.3902 38.9774C44.3619 39.0437 44.3204 39.1036 44.2684 39.1534C44.2163 39.2033 44.1547 39.2421 44.0873 39.2675C44.0198 39.2929 43.9479 39.3044 43.8759 39.3013ZM41.0569 39.3013H40.3569C40.2849 39.3044 40.213 39.2929 40.1456 39.2675C40.0782 39.2421 40.0165 39.2033 39.9645 39.1534C39.9124 39.1036 39.871 39.0437 39.8427 38.9774C39.8144 38.9112 39.7998 38.8398 39.7998 38.7678C39.7998 38.6957 39.8144 38.6244 39.8427 38.5581C39.871 38.4918 39.9124 38.4319 39.9645 38.3821C40.0165 38.3322 40.0782 38.2934 40.1456 38.268C40.213 38.2426 40.2849 38.2311 40.3569 38.2343H41.0569C41.1289 38.2311 41.2008 38.2426 41.2683 38.268C41.3357 38.2934 41.3973 38.3322 41.4494 38.3821C41.5014 38.4319 41.5429 38.4918 41.5712 38.5581C41.5995 38.6244 41.614 38.6957 41.614 38.7678C41.614 38.8398 41.5995 38.9112 41.5712 38.9774C41.5429 39.0437 41.5014 39.1036 41.4494 39.1534C41.3973 39.2033 41.3357 39.2421 41.2683 39.2675C41.2008 39.2929 41.1289 39.3044 41.0569 39.3013ZM38.2379 39.3013H37.5379C37.4659 39.3044 37.394 39.2929 37.3266 39.2675C37.2592 39.2421 37.1975 39.2033 37.1455 39.1534C37.0934 39.1036 37.052 39.0437 37.0237 38.9774C36.9954 38.9112 36.9808 38.8398 36.9808 38.7678C36.9808 38.6957 36.9954 38.6244 37.0237 38.5581C37.052 38.4918 37.0934 38.4319 37.1455 38.3821C37.1975 38.3322 37.2592 38.2934 37.3266 38.268C37.394 38.2426 37.4659 38.2311 37.5379 38.2343H38.2379C38.3754 38.2402 38.5053 38.299 38.6005 38.3984C38.6957 38.4978 38.7488 38.6301 38.7488 38.7678C38.7488 38.9054 38.6957 39.0377 38.6005 39.1371C38.5053 39.2365 38.3754 39.2953 38.2379 39.3013ZM35.5199 38.7703C35.4194 38.7704 35.3209 38.7419 35.2359 38.6883C35.0066 38.5436 34.7925 38.3761 34.5969 38.1883C34.4949 38.0901 34.4361 37.9555 34.4334 37.814C34.4307 37.6725 34.4843 37.5357 34.5824 37.4338C34.6806 37.3318 34.8152 37.273 34.9567 37.2702C35.0982 37.2675 35.235 37.3211 35.3369 37.4193C35.4801 37.5571 35.6369 37.6801 35.8049 37.7863C35.9033 37.8477 35.9789 37.9395 36.0203 38.0478C36.0617 38.1562 36.0667 38.275 36.0345 38.3864C36.0023 38.4978 35.9346 38.5956 35.8417 38.6651C35.7489 38.7345 35.6359 38.7718 35.5199 38.7713V38.7703ZM33.9689 36.5103C33.8454 36.51 33.7257 36.467 33.6303 36.3884C33.5349 36.3098 33.4698 36.2005 33.4459 36.0793C33.3968 35.8269 33.372 35.5704 33.3719 35.3133V35.2713C33.3738 35.131 33.4307 34.9971 33.5304 34.8985C33.6302 34.7999 33.7647 34.7445 33.9049 34.7443H33.9109C33.981 34.745 34.0503 34.7596 34.1147 34.7872C34.1791 34.8148 34.2375 34.8548 34.2864 34.905C34.3354 34.9551 34.374 35.0144 34.3999 35.0795C34.4259 35.1446 34.4389 35.2142 34.4379 35.2843V35.3143C34.4379 35.5029 34.456 35.6911 34.4919 35.8763C34.507 35.9536 34.5047 36.0332 34.4854 36.1096C34.466 36.1859 34.43 36.257 34.3799 36.3178C34.3298 36.3786 34.2669 36.4276 34.1957 36.4612C34.1245 36.4948 34.0467 36.5122 33.9679 36.5123L33.9689 36.5103ZM34.5519 33.8323C34.4538 33.8321 34.3577 33.8049 34.2741 33.7536C34.1904 33.7024 34.1225 33.6291 34.0778 33.5418C34.0331 33.4545 34.0132 33.3566 34.0205 33.2587C34.0278 33.1609 34.0618 33.067 34.1189 32.9873C34.2772 32.7669 34.4575 32.5632 34.6569 32.3793C34.7084 32.3318 34.7687 32.2949 34.8345 32.2708C34.9002 32.2466 34.97 32.2356 35.04 32.2385C35.11 32.2413 35.1787 32.2579 35.2422 32.2873C35.3058 32.3167 35.363 32.3583 35.4104 32.4098C35.4579 32.4612 35.4948 32.5216 35.5189 32.5873C35.5431 32.653 35.5541 32.7229 35.5512 32.7928C35.5484 32.8628 35.5318 32.9315 35.5024 32.9951C35.473 33.0586 35.4314 33.1158 35.3799 33.1633C35.2339 33.2982 35.1019 33.4477 34.9859 33.6093C34.9362 33.6761 34.8715 33.7304 34.797 33.7678C34.7225 33.8051 34.6403 33.8245 34.5569 33.8243L34.5519 33.8323ZM36.9009 32.4203C36.767 32.4179 36.6388 32.3654 36.5419 32.273C36.4449 32.1806 36.3862 32.0551 36.3774 31.9215C36.3686 31.7878 36.4103 31.6557 36.4943 31.5514C36.5783 31.4471 36.6985 31.3781 36.8309 31.3583C37.0066 31.335 37.1837 31.3233 37.3609 31.3233H37.6049C37.6769 31.3201 37.7488 31.3316 37.8163 31.357C37.8837 31.3824 37.9453 31.4212 37.9974 31.4711C38.0494 31.5209 38.0908 31.5808 38.1191 31.6471C38.1474 31.7134 38.162 31.7847 38.162 31.8568C38.162 31.9288 38.1474 32.0002 38.1191 32.0664C38.0908 32.1327 38.0494 32.1926 37.9974 32.2424C37.9453 32.2923 37.8837 32.3311 37.8163 32.3565C37.7488 32.3819 37.6769 32.3934 37.6049 32.3903H37.3699C37.2398 32.3904 37.1099 32.3991 36.9809 32.4163C36.9555 32.4162 36.9301 32.4141 36.9049 32.4103L36.9009 32.4203Z" fill="#0706A9"/>
</svg>
