<svg width="66" height="66" viewBox="0 0 66 66" fill="none" xmlns="http://www.w3.org/2000/svg">
<path d="M60.6909 0.375488H5.69092C2.92949 0.375488 0.690918 2.61406 0.690918 5.37549V60.3755C0.690918 63.1369 2.92949 65.3755 5.69092 65.3755H60.6909C63.4523 65.3755 65.6909 63.1369 65.6909 60.3755V5.37549C65.6909 2.61406 63.4523 0.375488 60.6909 0.375488Z" fill="#F7FFBF"/>
<path d="M55.4883 41.4585H21.9883V34.9933C21.9883 34.7926 22.068 34.6 22.21 34.4581C22.352 34.3161 22.5445 34.2363 22.7453 34.2363H55.4913C55.6921 34.2363 55.8846 34.3161 56.0266 34.4581C56.1685 34.6 56.2483 34.7926 56.2483 34.9933V40.7025C56.2483 40.9032 56.1685 41.0958 56.0266 41.2378C55.8846 41.3797 55.6921 41.4595 55.4913 41.4595L55.4883 41.4585Z" fill="#594157"/>
<path d="M55.4893 41.4585H53.6523V34.2363H55.4853C55.6861 34.2363 55.8787 34.3161 56.0206 34.4581C56.1626 34.6 56.2424 34.7926 56.2424 34.9933V40.7025C56.2421 40.9024 56.1628 41.0941 56.0217 41.2357C55.8806 41.3774 55.6892 41.4574 55.4893 41.4585Z" fill="#402F3E"/>
<path d="M42.6572 36.9653H35.5752C35.4436 36.9699 35.313 36.941 35.1957 36.8814C35.0783 36.8217 34.978 36.7333 34.9042 36.6243L33.4722 34.2363H44.7602L43.3282 36.6243C43.2543 36.7333 43.154 36.8217 43.0367 36.8814C42.9193 36.941 42.7887 36.9699 42.6572 36.9653Z" fill="#F9EFEF"/>
<path d="M44.7602 34.2363L43.3282 36.6243C43.2545 36.7334 43.1541 36.8219 43.0368 36.8815C42.9194 36.9411 42.7888 36.97 42.6572 36.9653H40.8032C40.9348 36.97 41.0654 36.9411 41.1828 36.8815C41.3001 36.8219 41.4004 36.7334 41.4742 36.6243L42.9062 34.2363H44.7602Z" fill="#E1D3CE"/>
<path d="M56.624 34.3198H23.8781C23.6775 34.3196 23.4852 34.2397 23.3434 34.0977C23.2017 33.9558 23.1221 33.7634 23.1221 33.5628V27.8537C23.1221 27.7543 23.1416 27.6558 23.1797 27.564C23.2177 27.4722 23.2735 27.3887 23.3438 27.3184C23.4141 27.2481 23.4975 27.1923 23.5894 27.1543C23.6812 27.1163 23.7797 27.0967 23.8791 27.0967H56.625C56.7244 27.0967 56.8229 27.1163 56.9147 27.1543C57.0065 27.1923 57.09 27.2481 57.1603 27.3184C57.2306 27.3887 57.2863 27.4722 57.3244 27.564C57.3624 27.6558 57.382 27.7543 57.382 27.8537V33.5628C57.382 33.6622 57.3624 33.7607 57.3244 33.8525C57.2863 33.9444 57.2306 34.0278 57.1603 34.0981C57.09 34.1684 57.0065 34.2242 56.9147 34.2622C56.8229 34.3002 56.7244 34.3198 56.625 34.3198H56.624Z" fill="#594157"/>
<path d="M56.625 34.3198H54.792V27.0977H56.625C56.8258 27.0977 57.0183 27.1774 57.1603 27.3194C57.3022 27.4613 57.382 27.6539 57.382 27.8547V33.5638C57.382 33.7646 57.3022 33.9571 57.1603 34.0991C57.0183 34.241 56.8258 34.3208 56.625 34.3208V34.3198Z" fill="#402F3E"/>
<path d="M43.7933 29.8267H36.7153C36.5837 29.8312 36.4532 29.8023 36.3358 29.7427C36.2185 29.6831 36.1181 29.5946 36.0443 29.4857L34.6123 27.0977H45.8953L44.4633 29.4857C44.3895 29.5947 44.2892 29.6832 44.1718 29.7428C44.0545 29.8025 43.9239 29.8313 43.7923 29.8267H43.7933Z" fill="#F9EFEF"/>
<path d="M45.8925 27.0977L44.4605 29.4857C44.3867 29.5947 44.2864 29.6832 44.1691 29.7428C44.0517 29.8025 43.9211 29.8313 43.7895 29.8267H41.9355C42.0671 29.8312 42.1976 29.8023 42.315 29.7427C42.4324 29.6831 42.5327 29.5946 42.6065 29.4857L44.0385 27.0977H45.8925Z" fill="#E1D3CE"/>
<path d="M52.8995 27.0977H20.1535C19.9527 27.0977 19.7602 27.0179 19.6182 26.8759C19.4762 26.734 19.3965 26.5414 19.3965 26.3406V20.6325C19.3965 20.4317 19.4762 20.2392 19.6182 20.0972C19.7602 19.9552 19.9527 19.8755 20.1535 19.8755H52.8995C53.1003 19.8755 53.2928 19.9552 53.4348 20.0972C53.5767 20.2392 53.6565 20.4317 53.6565 20.6325V26.3406C53.6565 26.5414 53.5767 26.734 53.4348 26.8759C53.2928 27.0179 53.1003 27.0977 52.8995 27.0977Z" fill="#594157"/>
<path d="M52.8994 27.0977H51.0664V19.8755H52.8994C53.1002 19.8755 53.2927 19.9552 53.4347 20.0972C53.5767 20.2392 53.6564 20.4317 53.6564 20.6325V26.3406C53.6564 26.5414 53.5767 26.734 53.4347 26.8759C53.2927 27.0179 53.1002 27.0977 52.8994 27.0977Z" fill="#402F3E"/>
<path d="M40.0682 22.6045H32.9872C32.8556 22.6092 32.725 22.5803 32.6077 22.5207C32.4903 22.461 32.39 22.3725 32.3162 22.2635L30.8872 19.8755H42.1752L40.7432 22.2635C40.6693 22.3725 40.569 22.4609 40.4517 22.5205C40.3343 22.5802 40.2038 22.6091 40.0722 22.6045H40.0682Z" fill="#F9EFEF"/>
<path d="M42.1699 19.8755L40.7379 22.2635C40.6641 22.3725 40.5638 22.461 40.4464 22.5207C40.3291 22.5803 40.1985 22.6092 40.0669 22.6045H38.2129C38.3445 22.6092 38.4751 22.5803 38.5924 22.5207C38.7098 22.461 38.8101 22.3725 38.8839 22.2635L40.3159 19.8755H42.1699Z" fill="#E1D3CE"/>
<path d="M42.399 40.9005C42.3999 41.396 42.2072 41.8721 41.862 42.2275C39.5311 44.7299 36.7044 46.7192 33.562 48.0685C32.5201 48.4614 31.4034 48.6156 30.294 48.5195C27.941 48.3195 23.341 47.7385 21.25 46.1555V44.5155C23.341 46.0995 27.941 46.6805 30.294 46.8805C31.4034 46.976 32.5201 46.8216 33.562 46.4285C36.7043 45.0795 39.531 43.0906 41.862 40.5885C42.0063 40.4401 42.1249 40.2688 42.213 40.0815C42.3351 40.3373 42.3987 40.6171 42.399 40.9005Z" fill="#FFBFAB"/>
<path d="M41.9545 39.6745C41.6967 39.3665 41.3482 39.1476 40.9588 39.0492C40.5693 38.9508 40.1587 38.9779 39.7855 39.1265L34.9415 41.0535C34.2293 41.337 33.4411 41.3667 32.7095 41.1375L31.2545 40.6815C31.1939 40.6627 31.1402 40.6265 31.1001 40.5773C31.0599 40.5281 31.0352 40.4682 31.0289 40.4051C31.0226 40.3419 31.035 40.2783 31.0647 40.2222C31.0943 40.1661 31.1398 40.1199 31.1955 40.0895L32.4955 39.3775C32.8343 39.1898 33.0921 38.884 33.2198 38.5183C33.3474 38.1526 33.3359 37.7528 33.1876 37.395C33.0392 37.0373 32.7643 36.7467 32.4153 36.5788C32.0663 36.4108 31.6677 36.3772 31.2955 36.4844L25.5955 38.1615C24.5687 38.4633 23.5039 38.6165 22.4335 38.6165H21.2596L20.7686 38.5655V46.1556H21.2596C23.3505 47.7386 27.9505 48.3207 30.3035 48.5197C31.4129 48.6156 32.5296 48.4615 33.5715 48.0686C36.7139 46.7197 39.5406 44.7307 41.8715 42.2285C42.1994 41.8894 42.3902 41.4409 42.407 40.9695C42.4238 40.4981 42.2655 40.0371 41.9625 39.6755L41.9545 39.6745Z" fill="#FFC4B4"/>
<path d="M20.8991 46.9076H18.3721V38.1816H20.8991C20.9922 38.1816 21.0814 38.2186 21.1473 38.2845C21.2131 38.3503 21.2501 38.4395 21.2501 38.5326V46.5576C21.2498 46.6506 21.2127 46.7396 21.1469 46.8052C21.0811 46.8708 20.992 46.9076 20.8991 46.9076Z" fill="#F9EFEF"/>
<path d="M20.8991 46.9072H18.3721V43.6934H21.2501V46.5572C21.2498 46.6502 21.2127 46.7391 21.1469 46.8048C21.0811 46.8704 20.992 46.9072 20.8991 46.9072Z" fill="#EFE2DD"/>
<path d="M18.3991 47.7563H12.1121C12.0639 47.7563 12.0163 47.7468 11.9718 47.7284C11.9273 47.7099 11.8869 47.6829 11.8529 47.6488C11.8189 47.6147 11.792 47.5742 11.7737 47.5297C11.7553 47.4852 11.746 47.4375 11.7461 47.3894V37.6995C11.7461 37.6024 11.7847 37.5093 11.8533 37.4407C11.9219 37.3721 12.015 37.3335 12.1121 37.3335H18.3991C18.4473 37.3334 18.495 37.3427 18.5395 37.3611C18.584 37.3794 18.6245 37.4063 18.6586 37.4403C18.6927 37.4743 18.7197 37.5147 18.7382 37.5592C18.7566 37.6037 18.7661 37.6513 18.7661 37.6995V47.3894C18.7661 47.4867 18.7274 47.58 18.6586 47.6489C18.5898 47.7177 18.4964 47.7563 18.3991 47.7563Z" fill="#CDE90C"/>
<path d="M18.3991 47.7553H12.1121C12.015 47.7553 11.9219 47.7168 11.8533 47.6482C11.7847 47.5795 11.7461 47.4864 11.7461 47.3893V44.0894H18.7651V47.3893C18.7651 47.4865 18.7266 47.5797 18.658 47.6485C18.5893 47.7173 18.4963 47.7561 18.3991 47.7563V47.7553Z" fill="#B6CF0B"/>
</svg>
