<svg width="66" height="66" viewBox="0 0 66 66" fill="none" xmlns="http://www.w3.org/2000/svg">
<g clip-path="url(#clip0)">
<path d="M60.6909 0.375488H5.69092C2.92949 0.375488 0.690918 2.61406 0.690918 5.37549V60.3755C0.690918 63.1369 2.92949 65.3755 5.69092 65.3755H60.6909C63.4523 65.3755 65.6909 63.1369 65.6909 60.3755V5.37549C65.6909 2.61406 63.4523 0.375488 60.6909 0.375488Z" fill="#F7FFBF"/>
<path d="M50.0647 17.1525V44.8625L47.0487 49.7495H45.8607L42.8447 44.8625V17.1525H50.0647Z" fill="#0706A9"/>
<path d="M50.0641 17.1534V44.8624L47.0481 49.7494H46.4541V17.1534H50.0641Z" fill="#050475"/>
<path d="M15.6909 18.1595H40.4639V49.7485H15.6909V18.1595Z" fill="white"/>
<path d="M28.0781 18.1595H40.4651V49.7485H28.0781V18.1595Z" fill="#F6F6F6"/>
<path d="M22.6651 31.0644L20.4761 28.4444L22.0211 27.1524L22.8731 28.1704L24.9611 26.2994L26.3051 27.7994L22.6651 31.0644Z" fill="#FF633D"/>
<path d="M28.0781 27.9294H35.8641V29.9435H28.0781V27.9294Z" fill="#A17852"/>
<path d="M22.6651 36.8555L20.4761 34.2385L22.0211 32.9465L22.8731 33.9645L24.9611 32.0935L26.3051 33.5935L22.6651 36.8555Z" fill="#FF633D"/>
<path d="M28.0781 33.7205H35.8641V35.7345H28.0781V33.7205Z" fill="#A17852"/>
<path d="M22.6651 42.6465L20.4761 40.0295L22.0211 38.7375L22.8731 39.7555L24.9611 37.8845L26.3051 39.3845L22.6651 42.6465Z" fill="#FF633D"/>
<path d="M28.0781 39.5125H35.8641V41.5265H28.0781V39.5125Z" fill="#A17852"/>
<path d="M20.1519 15.3755H22.1659V21.1095H20.1519V15.3755Z" fill="#BD9B7B"/>
<path d="M24.7637 15.3755H26.7777V21.1095H24.7637V15.3755Z" fill="#BD9B7B"/>
<path d="M29.377 15.3755H31.3909V21.1095H29.377V15.3755Z" fill="#A17852"/>
<path d="M33.9888 15.3755H36.0028V21.1095H33.9888V15.3755Z" fill="#A17852"/>
<path d="M50.0647 44.8595L47.0487 49.7465H45.8607L42.8447 44.8595H50.0647Z" fill="#FFD499"/>
<path d="M42.8438 17.1525H50.0647V23.4965H42.8438V17.1525Z" fill="#CDE90C"/>
<path d="M46.4541 17.1525H50.0651V23.4965H46.4541V17.1525Z" fill="#9FB509"/>
<path d="M46.4541 44.8595H50.0651L47.0491 49.7465H46.4551L46.4541 44.8595Z" fill="#FFB74F"/>
</g>
<defs>
<clipPath id="clip0">
<rect width="65" height="65" fill="white" transform="translate(0.690918 0.375488)"/>
</clipPath>
</defs>
</svg>
