<svg width="60" height="58" viewBox="0 0 60 58" fill="none" xmlns="http://www.w3.org/2000/svg">
<path d="M45.1909 2.18949V39.3495C45.191 39.5877 45.1442 39.8237 45.0531 40.0438C44.962 40.264 44.8284 40.464 44.6599 40.6325C44.4914 40.8009 44.2914 40.9346 44.0713 41.0257C43.8511 41.1168 43.6152 41.1636 43.3769 41.1635H2.50392C2.26566 41.1635 2.02975 41.1165 1.80965 41.0253C1.58956 40.9341 1.38961 40.8003 1.22123 40.6318C1.05285 40.4632 0.919345 40.2631 0.828351 40.0429C0.737357 39.8227 0.690656 39.5867 0.690919 39.3485V2.18949C0.690788 1.95132 0.737585 1.71546 0.828638 1.49538C0.919691 1.2753 1.05322 1.07532 1.22158 0.906862C1.38995 0.738403 1.58985 0.604769 1.80988 0.513595C2.02991 0.42242 2.26575 0.375493 2.50392 0.375493H43.3739C43.6124 0.374966 43.8487 0.421506 44.0692 0.512445C44.2897 0.603383 44.4901 0.736934 44.6588 0.905445C44.8276 1.07396 44.9615 1.27412 45.0528 1.49446C45.1441 1.7148 45.1911 1.95098 45.1909 2.18949Z" fill="#CDE90C"/>
<path d="M45.1879 2.18949V39.3495C45.1881 39.5877 45.1412 39.8237 45.0501 40.0438C44.959 40.264 44.8254 40.464 44.6569 40.6325C44.4884 40.8009 44.2884 40.9346 44.0683 41.0257C43.8481 41.1168 43.6122 41.1636 43.3739 41.1635H22.9399V0.375489H43.3719C43.6102 0.375357 43.8461 0.422188 44.0663 0.513303C44.2864 0.604419 44.4865 0.738032 44.6549 0.906504C44.8234 1.07498 44.957 1.275 45.0481 1.49515C45.1392 1.71529 45.1861 1.95123 45.1859 2.18949H45.1879Z" fill="#B6CF0B"/>
<path d="M29.4723 0.375488V18.3193C29.4739 18.429 29.4454 18.537 29.39 18.6316C29.3345 18.7263 29.2542 18.8039 29.1577 18.856C29.0612 18.9082 28.9522 18.9329 28.8427 18.9275C28.7331 18.9221 28.6272 18.8867 28.5363 18.8253L23.6013 15.5943C23.4049 15.4644 23.1747 15.3952 22.9393 15.3952C22.7039 15.3952 22.4737 15.4644 22.2773 15.5943L17.3423 18.8253C17.2514 18.8867 17.1455 18.9221 17.0359 18.9275C16.9264 18.9329 16.8174 18.9082 16.7209 18.856C16.6244 18.8039 16.5441 18.7263 16.4886 18.6316C16.4331 18.537 16.4047 18.429 16.4063 18.3193V0.375488H29.4723Z" fill="#F7941E"/>
<path d="M29.4719 0.375488V18.3193C29.4736 18.429 29.4451 18.537 29.3896 18.6316C29.3342 18.7263 29.2538 18.8039 29.1573 18.856C29.0608 18.9082 28.9519 18.9329 28.8423 18.9275C28.7328 18.9221 28.6268 18.8867 28.5359 18.8253L23.6009 15.5943C23.4048 15.4646 23.1751 15.3951 22.9399 15.3943V0.375488H29.4719Z" fill="#F7711E"/>
<path d="M59.662 35.4275C59.662 40.6275 51.999 52.9354 49.145 57.3374C49.0312 57.5135 48.8752 57.6582 48.691 57.7585C48.5069 57.8587 48.3006 57.9112 48.091 57.9112C47.8814 57.9112 47.6751 57.8587 47.491 57.7585C47.3069 57.6582 47.1508 57.5135 47.037 57.3374C44.184 52.9374 36.52 40.6295 36.52 35.4275C36.52 32.3585 37.7391 29.4152 39.9092 27.2452C42.0793 25.0751 45.0225 23.856 48.0915 23.856C51.1604 23.856 54.1037 25.0751 56.2738 27.2452C58.4439 29.4152 59.663 32.3585 59.663 35.4275H59.662Z" fill="#F7941E"/>
<path d="M59.6628 35.4265C59.6628 40.6265 51.9998 52.9346 49.1458 57.3366C49.0328 57.5134 48.8769 57.6588 48.6926 57.7591C48.5083 57.8595 48.3016 57.9116 48.0918 57.9106V23.8564C49.6113 23.8563 51.1159 24.1555 52.5197 24.7369C53.9236 25.3183 55.1992 26.1705 56.2737 27.2449C57.3481 28.3193 58.2005 29.5948 58.782 30.9986C59.3635 32.4024 59.6628 33.907 59.6628 35.4265Z" fill="#F7711E"/>
<path d="M52.9438 34.6914C52.9438 35.6512 52.6592 36.5895 52.1259 37.3876C51.5927 38.1856 50.8347 38.8076 49.948 39.175C49.0612 39.5423 48.0854 39.6384 47.144 39.4511C46.2026 39.2639 45.3379 38.8017 44.6592 38.123C43.9805 37.4443 43.5183 36.5795 43.331 35.6382C43.1438 34.6968 43.2399 33.721 43.6072 32.8342C43.9745 31.9475 44.5965 31.1895 45.3946 30.6562C46.1927 30.123 47.131 29.8384 48.0908 29.8384C49.3779 29.8384 50.6123 30.3497 51.5224 31.2598C52.4325 32.1699 52.9438 33.4043 52.9438 34.6914Z" fill="#EDF0F5"/>
<path d="M52.9438 34.6914C52.9438 35.9785 52.4325 37.2129 51.5224 38.123C50.6123 39.0331 49.3779 39.5444 48.0908 39.5444V29.8364C48.7283 29.8364 49.3595 29.962 49.9484 30.2061C50.5373 30.4501 51.0724 30.8077 51.5231 31.2585C51.9738 31.7094 52.3312 32.2446 52.575 32.8336C52.8188 33.4227 52.9441 34.054 52.9438 34.6914Z" fill="#D8DCEB"/>
</svg>
