<svg width="55" height="50" viewBox="0 0 55 50" fill="none" xmlns="http://www.w3.org/2000/svg">
<g clip-path="url(#clip0)">
<path d="M45.0663 15.4901C44.5662 15.0531 44.1653 14.5142 43.8907 13.9094C43.6162 13.3047 43.4742 12.6482 43.4743 11.9841V7.66108C43.4743 7.55602 43.4537 7.452 43.4135 7.35493C43.3732 7.25787 43.3143 7.16968 43.24 7.0954C43.1657 7.02111 43.0776 6.96219 42.9805 6.92198C42.8834 6.88178 42.7794 6.86108 42.6743 6.86108H37.7203C37.5082 6.86108 37.3047 6.94537 37.1547 7.0954C37.0046 7.24543 36.9203 7.44891 36.9203 7.66108V11.9841C36.9205 12.6482 36.7785 13.3047 36.5039 13.9094C36.2293 14.5142 35.8285 15.0531 35.3283 15.4901C34.4879 16.2243 33.8142 17.1298 33.3527 18.1459C32.8911 19.162 32.6523 20.2651 32.6523 21.3811V22.3581C32.6523 22.5703 32.7366 22.7737 32.8867 22.9238C33.0367 23.0738 33.2402 23.1581 33.4523 23.1581H46.9424C47.0474 23.1581 47.1514 23.1374 47.2485 23.0972C47.3456 23.057 47.4337 22.9981 47.508 22.9238C47.5823 22.8495 47.6413 22.7613 47.6815 22.6642C47.7217 22.5672 47.7423 22.4631 47.7423 22.3581V21.3811C47.7424 20.2651 47.5036 19.162 47.042 18.1459C46.5805 17.1298 45.9068 16.2243 45.0663 15.4901Z" fill="#CDE90C"/>
<path d="M45.0661 15.4901C44.5659 15.0531 44.1651 14.5142 43.8905 13.9094C43.6159 13.3047 43.4739 12.6482 43.4741 11.9841V7.66108C43.4741 7.44891 43.3898 7.24543 43.2397 7.0954C43.0897 6.94537 42.8862 6.86108 42.6741 6.86108H39.1641C39.3762 6.86108 39.5797 6.94537 39.7298 7.0954C39.8798 7.24543 39.9641 7.44891 39.9641 7.66108V11.9841C39.9639 12.6482 40.1059 13.3047 40.3805 13.9094C40.6551 14.5142 41.0559 15.0531 41.5561 15.4901C42.3965 16.2243 43.0702 17.1298 43.5317 18.1459C43.9933 19.162 44.2321 20.2651 44.2321 21.3811V22.3581C44.2321 22.4631 44.2114 22.5672 44.1712 22.6642C44.131 22.7613 44.0721 22.8495 43.9978 22.9238C43.9235 22.9981 43.8353 23.057 43.7382 23.0972C43.6412 23.1374 43.5371 23.1581 43.4321 23.1581H46.9421C47.1543 23.1581 47.3577 23.0738 47.5078 22.9238C47.6578 22.7737 47.7421 22.5703 47.7421 22.3581V21.3811C47.7421 20.2651 47.5033 19.162 47.0417 18.1459C46.5802 17.1298 45.9065 16.2243 45.0661 15.4901Z" fill="#B6CF0B"/>
<path d="M50.3223 28.466C50.2472 28.378 50.154 28.3074 50.0491 28.2589C49.9441 28.2103 49.8299 28.1852 49.7143 28.1851H4.66726C4.5517 28.1855 4.43761 28.2109 4.33282 28.2596C4.22803 28.3083 4.13505 28.3792 4.06026 28.4673C3.98547 28.5554 3.93065 28.6586 3.89958 28.7699C3.86851 28.8812 3.86192 28.998 3.88026 29.1121L6.63626 45.8391C6.80412 46.8716 7.33438 47.8106 8.13193 48.4876C8.92948 49.1645 9.94214 49.5352 10.9883 49.5331H43.3953C44.4414 49.5352 45.454 49.1645 46.2516 48.4876C47.0492 47.8106 47.5794 46.8716 47.7473 45.8391L50.5013 29.1121C50.5199 28.9978 50.5136 28.8809 50.4827 28.7694C50.4518 28.6579 50.397 28.5544 50.3223 28.466Z" fill="#9C2300"/>
<path d="M50.3231 28.466C50.2481 28.378 50.1549 28.3074 50.0499 28.2589C49.945 28.2103 49.8307 28.1852 49.7151 28.1851H45.9391C46.0547 28.1855 46.1688 28.2109 46.2736 28.2596C46.3783 28.3083 46.4713 28.3792 46.5461 28.4673C46.6209 28.5554 46.6757 28.6586 46.7068 28.7699C46.7379 28.8812 46.7445 28.998 46.7261 29.1121L43.9721 45.8391C43.8043 46.8716 43.274 47.8106 42.4764 48.4876C41.6789 49.1645 40.6662 49.5352 39.6201 49.5331H43.3971C44.4432 49.5352 45.4559 49.1645 46.2534 48.4876C47.051 47.8106 47.5813 46.8716 47.7491 45.8391L50.5031 29.1121C50.5216 28.9978 50.5151 28.8808 50.4841 28.7693C50.453 28.6578 50.3981 28.5543 50.3231 28.466Z" fill="#6B1800"/>
<path d="M29.4803 2.02565e-05H24.9033C24.3729 2.02565e-05 23.8642 0.210734 23.4891 0.585807C23.114 0.96088 22.9033 1.46959 22.9033 2.00002V22.358C22.9033 22.5702 22.9876 22.7737 23.1376 22.9237C23.2877 23.0737 23.4911 23.158 23.7033 23.158H30.6893C30.9015 23.158 31.105 23.0737 31.255 22.9237C31.405 22.7737 31.4893 22.5702 31.4893 22.358V2.00202C31.4896 1.73845 31.4377 1.47743 31.3368 1.23395C31.2358 0.990484 31.0878 0.769369 30.9011 0.583322C30.7144 0.397274 30.4927 0.249963 30.2489 0.14986C30.0051 0.0497563 29.7439 -0.00116595 29.4803 2.02565e-05Z" fill="#9C2300"/>
<path d="M29.4804 0H25.6484C26.1789 0 26.6876 0.210714 27.0627 0.585787C27.4377 0.96086 27.6484 1.46957 27.6484 2V22.358C27.6484 22.5702 27.5642 22.7737 27.4141 22.9237C27.2641 23.0737 27.0606 23.158 26.8484 23.158H30.6804C30.8926 23.158 31.0961 23.0737 31.2461 22.9237C31.3962 22.7737 31.4804 22.5702 31.4804 22.358V2.002C31.4807 1.73919 31.4292 1.4789 31.3288 1.23602C31.2284 0.993137 31.0811 0.772424 30.8954 0.586494C30.7096 0.400565 30.489 0.253068 30.2463 0.152433C30.0035 0.0517989 29.7433 -1.31406e-07 29.4804 0Z" fill="#6B1800"/>
<path d="M22.9172 21.864L13.3532 9.70902C12.0331 8.03986 10.2055 6.84578 8.14661 6.30725C6.08776 5.76873 3.90956 5.91502 1.94121 6.72402C1.52428 6.89669 1.153 7.16357 0.856492 7.50376C0.559981 7.84394 0.346291 8.24818 0.232176 8.68478C0.118061 9.12138 0.106621 9.57849 0.198753 10.0203C0.290886 10.462 0.484086 10.8764 0.763209 11.231L9.90521 22.85C9.98042 22.944 10.0759 23.0197 10.1844 23.0717C10.293 23.1236 10.4119 23.1504 10.5322 23.15H22.2912C22.4404 23.149 22.5863 23.1063 22.7125 23.0268C22.8387 22.9472 22.9401 22.8339 23.0054 22.6998C23.0706 22.5656 23.097 22.4158 23.0816 22.2675C23.0662 22.1191 23.0096 21.9779 22.9182 21.86L22.9172 21.864Z" fill="#FFBB64"/>
<path d="M22.9184 21.864L13.3534 9.70902C12.0333 8.03986 10.2057 6.84578 8.14684 6.30725C6.08799 5.76873 3.90979 5.91502 1.94144 6.72402C1.84129 6.76567 1.74347 6.81274 1.64844 6.86502C3.12131 6.87028 4.57405 7.20746 5.89865 7.8515C7.22326 8.49554 8.38566 9.42987 9.29944 10.585L18.8634 22.74C18.9569 22.8595 19.0145 23.0031 19.0294 23.154H22.2904C22.4396 23.153 22.5855 23.1103 22.7117 23.0308C22.8379 22.9512 22.9394 22.8379 23.0046 22.7038C23.0698 22.5696 23.0962 22.4199 23.0808 22.2715C23.0654 22.1231 23.0088 21.9819 22.9174 21.864H22.9184Z" fill="#FFAD47"/>
<path d="M53.4493 21.5601H0.933301C0.828243 21.5601 0.724214 21.5808 0.627154 21.621C0.530094 21.6612 0.441902 21.7201 0.367615 21.7944C0.293328 21.8687 0.234401 21.9568 0.194197 22.0539C0.153993 22.151 0.133301 22.255 0.133301 22.3601V28.9851C0.133301 29.1972 0.217586 29.4007 0.367615 29.5507C0.517644 29.7008 0.721128 29.7851 0.933301 29.7851H53.4493C53.6615 29.7851 53.865 29.7008 54.015 29.5507C54.165 29.4007 54.2493 29.1972 54.2493 28.9851V22.3601C54.2493 22.255 54.2286 22.151 54.1884 22.0539C54.1482 21.9568 54.0893 21.8687 54.015 21.7944C53.9407 21.7201 53.8525 21.6612 53.7554 21.621C53.6584 21.5808 53.5544 21.5601 53.4493 21.5601Z" fill="#A0D2DB"/>
<path d="M53.4491 21.5601H50.5791V29.7791H53.4491C53.6613 29.7791 53.8647 29.6948 54.0148 29.5447C54.1648 29.3947 54.2491 29.1912 54.2491 28.9791V22.3541C54.2475 22.1429 54.1625 21.941 54.0127 21.7923C53.8628 21.6435 53.6602 21.5601 53.4491 21.5601Z" fill="#8EBAC2"/>
<path d="M22.9921 22.0061C22.9262 21.8724 22.8242 21.7598 22.6977 21.681C22.5712 21.6022 22.4252 21.5603 22.2761 21.5601H4.66714C4.51822 21.5612 4.37257 21.6038 4.24657 21.6832C4.12057 21.7626 4.01924 21.8756 3.95397 22.0094C3.8887 22.1433 3.86209 22.2927 3.87714 22.4409C3.89219 22.589 3.9483 22.73 4.03914 22.8481L12.8921 34.1701C12.9669 34.2652 13.0622 34.3422 13.171 34.3952C13.2798 34.4482 13.3991 34.4759 13.5201 34.4761C13.6415 34.4754 13.7611 34.4471 13.8699 34.3934C13.9787 34.3397 14.0738 34.262 14.1481 34.1661L22.9041 22.8441C22.9953 22.7264 23.0519 22.5856 23.0674 22.4376C23.083 22.2895 23.0569 22.1401 22.9921 22.0061Z" fill="#CDE90C"/>
<path d="M22.9922 22.0061C22.9263 21.8724 22.8243 21.7598 22.6978 21.681C22.5713 21.6022 22.4253 21.5603 22.2762 21.5601H19.0662L11.0942 31.8701L12.8942 34.1701C12.969 34.2652 13.0643 34.3422 13.1731 34.3952C13.2819 34.4482 13.4012 34.4759 13.5222 34.4761C13.6436 34.4754 13.7632 34.4471 13.872 34.3934C13.9808 34.3397 14.0759 34.262 14.1502 34.1661L22.9062 22.8441C22.9971 22.7262 23.0533 22.5853 23.0685 22.4373C23.0837 22.2892 23.0573 22.1399 22.9922 22.0061Z" fill="#B6CF0B"/>
<path d="M12.2513 14.9499H12.2833C12.4895 14.9501 12.6879 14.8707 12.8369 14.7281C12.986 14.5856 13.0742 14.391 13.0833 14.1849L13.2673 9.59991C12.8135 9.04004 12.2986 8.53256 11.7323 8.08691L11.4903 14.1219C11.4827 14.3323 11.5583 14.5372 11.7007 14.6922C11.8432 14.8472 12.041 14.9398 12.2513 14.9499Z" fill="#F78819"/>
<path d="M15.5554 12.5071L15.2974 18.9631C15.2896 19.1743 15.3656 19.38 15.5089 19.5354C15.6523 19.6907 15.8513 19.783 16.0624 19.7921H16.0944C16.3007 19.7923 16.499 19.7128 16.6481 19.5703C16.7972 19.4277 16.8854 19.2331 16.8944 19.0271L17.0784 14.4371L15.5554 12.5071Z" fill="#F78819"/>
<path d="M42.0265 3.01099H38.3715C37.7869 3.01178 37.2265 3.24435 36.8132 3.65769C36.3999 4.07104 36.1673 4.63143 36.1665 5.21599V7.66099C36.1665 7.87316 36.2508 8.07664 36.4008 8.22667C36.5508 8.3767 36.7543 8.46099 36.9665 8.46099H43.4375C43.6497 8.46099 43.8531 8.3767 44.0032 8.22667C44.1532 8.07664 44.2375 7.87316 44.2375 7.66099V5.21599C44.2371 4.92603 44.1796 4.63898 44.0683 4.37125C43.9569 4.10351 43.794 3.86033 43.5887 3.65557C43.3834 3.45082 43.1397 3.28851 42.8717 3.17791C42.6037 3.06731 42.3164 3.01059 42.0265 3.01099Z" fill="#0706A9"/>
<path d="M42.0271 3.01099H38.5171C39.1016 3.01178 39.662 3.24435 40.0754 3.65769C40.4887 4.07104 40.7213 4.63143 40.7221 5.21598V7.66098C40.7221 7.87316 40.6378 8.07664 40.4878 8.22667C40.3377 8.3767 40.1343 8.46098 39.9221 8.46098H43.4321C43.6442 8.46098 43.8477 8.3767 43.9978 8.22667C44.1478 8.07664 44.2321 7.87316 44.2321 7.66098V5.21598C44.2313 4.63143 43.9987 4.07104 43.5854 3.65769C43.172 3.24435 42.6116 3.01178 42.0271 3.01099Z" fill="#06058F"/>
</g>
<defs>
<clipPath id="clip0">
<rect width="54.111" height="49.5332" fill="white" transform="translate(0.135254)"/>
</clipPath>
</defs>
</svg>
