<svg width="66" height="73" viewBox="0 0 66 73" fill="none" xmlns="http://www.w3.org/2000/svg">
<path d="M60.6909 0.375488H5.69092C2.92949 0.375488 0.690918 2.61406 0.690918 5.37549V60.3755C0.690918 63.1369 2.92949 65.3755 5.69092 65.3755H60.6909C63.4523 65.3755 65.6909 63.1369 65.6909 60.3755V5.37549C65.6909 2.61406 63.4523 0.375488 60.6909 0.375488Z" fill="#F7FFBF"/>
<g filter="url(#filter0_d)">
<path d="M26.3229 47.2583C23.8298 47.2583 21.4389 48.2487 19.676 50.0115C17.9132 51.7743 16.9229 54.1653 16.9229 56.6583V58.8583H22.1829L22.9828 58.2123L23.7379 58.8583H27.8068L36.2389 47.2583H26.3229Z" fill="#F9F9F9"/>
<path d="M40.5082 47.2583H36.2372L31.9452 50.7723L27.8052 54.1363V58.8583H43.0972L43.8742 58.2643L44.6512 58.8583H49.9112V56.6583C49.9112 55.4236 49.6679 54.201 49.1953 53.0604C48.7228 51.9197 48.0301 50.8833 47.1569 50.0104C46.2837 49.1375 45.2471 48.4452 44.1063 47.973C42.9655 47.5007 41.7428 47.2579 40.5082 47.2583Z" fill="white"/>
<path d="M22.1802 58.8604V54.2184C22.1802 54.0123 22.262 53.8147 22.4077 53.669C22.5535 53.5233 22.7511 53.4414 22.9572 53.4414C23.1632 53.4414 23.3609 53.5233 23.5066 53.669C23.6523 53.8147 23.7342 54.0123 23.7342 54.2184V58.8604H22.1802Z" fill="#BDBFB4"/>
<path d="M43.8727 53.4414C43.6666 53.4414 43.469 53.5233 43.3233 53.669C43.1776 53.8147 43.0957 54.0123 43.0957 54.2184V58.8604H44.6497V54.2184C44.6497 54.0123 44.5679 53.8147 44.4221 53.669C44.2764 53.5233 44.0788 53.4414 43.8727 53.4414Z" fill="#D7D9CC"/>
<path d="M31.4081 56.4453C31.9338 56.4453 32.36 56.0191 32.36 55.4934C32.36 54.9677 31.9338 54.5415 31.4081 54.5415C30.8823 54.5415 30.4561 54.9677 30.4561 55.4934C30.4561 56.0191 30.8823 56.4453 31.4081 56.4453Z" fill="#D7D9CC"/>
<path d="M39.3641 56.4453C39.8899 56.4453 40.3161 56.0191 40.3161 55.4934C40.3161 54.9677 39.8899 54.5415 39.3641 54.5415C38.8383 54.5415 38.4121 54.9677 38.4121 55.4934C38.4121 56.0191 38.8383 56.4453 39.3641 56.4453Z" fill="#D7D9CC"/>
<path d="M50.3132 30.3776L33.4132 28.8286L16.5132 30.3776V37.5288H50.3132V30.3776Z" fill="#7E3D2F"/>
<path d="M48.5823 41.1256C50.5451 41.1256 52.1363 39.5344 52.1363 37.5716C52.1363 35.6088 50.5451 34.0176 48.5823 34.0176C46.6195 34.0176 45.0283 35.6088 45.0283 37.5716C45.0283 39.5344 46.6195 41.1256 48.5823 41.1256Z" fill="#E3B098"/>
<path d="M33.4144 50.8345C41.9599 50.8345 48.8874 44.3937 48.8874 36.4485C48.8874 28.5033 41.9599 22.0625 33.4144 22.0625C24.8689 22.0625 17.9414 28.5033 17.9414 36.4485C17.9414 44.3937 24.8689 50.8345 33.4144 50.8345Z" fill="#FBC4AC"/>
<path d="M21.0491 36.4494C21.0491 28.9925 27.1491 22.8605 34.9691 22.1355C34.4578 22.0881 33.9398 22.0641 33.4151 22.0635C25.7601 22.0635 19.4041 27.2315 18.1621 34.0194C17.6955 34.025 17.2346 34.1224 16.8057 34.3062C16.3767 34.4899 15.9882 34.7563 15.6622 35.0901C15.0039 35.7644 14.6404 36.6726 14.6516 37.6149C14.6629 38.5572 15.048 39.4565 15.7223 40.1148C16.3966 40.7732 17.3048 41.1367 18.2471 41.1254C18.4192 41.1271 18.5911 41.1117 18.7601 41.0794C19.9168 44.0058 21.9404 46.5087 24.5598 48.2524C27.1792 49.9961 30.269 50.8974 33.4151 50.8354C33.9398 50.8354 34.4578 50.8114 34.9691 50.7634C27.1521 50.0384 21.0491 43.9064 21.0491 36.4494Z" fill="#E3B098"/>
<path d="M45.5075 7.37549C44.2301 7.37552 42.9798 7.74467 41.9072 8.43852C40.8346 9.13237 39.9853 10.1214 39.4615 11.2865C38.9377 10.1214 38.0884 9.13252 37.0158 8.43874C35.9432 7.74495 34.693 7.37586 33.4155 7.37586C32.1381 7.37586 30.8879 7.74495 29.8153 8.43874C28.7427 9.13252 27.8934 10.1214 27.3695 11.2865C26.9732 10.4073 26.3898 9.62512 25.6601 8.99456C24.9303 8.364 24.0718 7.90024 23.1444 7.63563C22.2169 7.37102 21.243 7.31193 20.2904 7.46248C19.3377 7.61303 18.4294 7.9696 17.6288 8.50731C16.8282 9.04503 16.1545 9.75094 15.6548 10.5758C15.1551 11.4007 14.8413 12.3246 14.7354 13.2832C14.6295 14.2419 14.734 15.212 15.0416 16.1261C15.3493 17.0402 15.8526 17.8761 16.5166 18.5756V27.2757L33.4165 28.8247L50.3165 27.2757V18.5756C51.211 17.6354 51.81 16.4534 52.0391 15.176C52.2682 13.8987 52.1174 12.5822 51.6053 11.3897C51.0933 10.1972 50.2426 9.18127 49.1587 8.46771C48.0748 7.75414 46.8052 7.37438 45.5075 7.37549Z" fill="white"/>
<path d="M19.6245 27.2752V18.5753C18.822 17.732 18.2557 16.6922 17.9826 15.5605C17.7096 14.4288 17.7393 13.2451 18.069 12.1286C18.3986 11.0121 19.0165 10.002 19.8604 9.20011C20.7044 8.39819 21.7446 7.83267 22.8765 7.56044C21.4852 7.22427 20.0224 7.34742 18.7068 7.91147C17.3912 8.47553 16.2936 9.45019 15.5778 10.6898C14.8621 11.9294 14.5667 13.3673 14.7359 14.7886C14.9051 16.21 15.5298 17.5384 16.5165 18.5753V27.2752L33.4165 28.8242L34.9705 28.6822L19.6245 27.2752Z" fill="#F9F9F9"/>
<path d="M33.4152 42.1046C35.1642 44.2916 37.7422 43.3856 39.1022 42.6666C39.1764 42.6258 39.239 42.5668 39.2841 42.4951C39.3293 42.4234 39.3555 42.3415 39.3603 42.2569C39.3651 42.1723 39.3483 42.0879 39.3115 42.0116C39.2748 41.9353 39.2193 41.8696 39.1502 41.8206C38.3712 41.2756 37.9172 40.0816 37.2732 39.4816C36.2732 38.5496 34.5502 37.9816 33.4152 39.0116C32.2802 37.9826 30.5572 38.5486 29.5572 39.4816C28.9132 40.0816 28.4572 41.2756 27.6802 41.8206C27.611 41.8696 27.5555 41.9353 27.5187 42.0116C27.482 42.0879 27.4652 42.1723 27.47 42.2569C27.4748 42.3415 27.501 42.4234 27.5462 42.4951C27.5913 42.5668 27.6539 42.6258 27.7281 42.6666C29.0881 43.3846 31.6662 44.2916 33.4152 42.1046Z" fill="#7E3D2F"/>
<path d="M41.944 38.2613C41.7379 38.2613 41.5403 38.1794 41.3946 38.0337C41.2488 37.888 41.167 37.6904 41.167 37.4843V35.8263C41.167 35.6203 41.2488 35.4226 41.3946 35.2769C41.5403 35.1312 41.7379 35.0493 41.944 35.0493C42.1501 35.0493 42.3477 35.1312 42.4934 35.2769C42.6391 35.4226 42.721 35.6203 42.721 35.8263V37.4843C42.721 37.6904 42.6391 37.888 42.4934 38.0337C42.3477 38.1794 42.1501 38.2613 41.944 38.2613Z" fill="#3B484A"/>
<path d="M43.078 40.6997H40.819C40.7169 40.6997 40.6159 40.6796 40.5216 40.6406C40.4274 40.6015 40.3417 40.5443 40.2696 40.4721C40.1974 40.3999 40.1402 40.3143 40.1011 40.22C40.0621 40.1257 40.042 40.0246 40.042 39.9226C40.042 39.8205 40.0621 39.7195 40.1011 39.6252C40.1402 39.5309 40.1974 39.4453 40.2696 39.3731C40.3417 39.3009 40.4274 39.2437 40.5216 39.2047C40.6159 39.1656 40.7169 39.1455 40.819 39.1455H43.078C43.18 39.1455 43.2811 39.1656 43.3753 39.2047C43.4696 39.2437 43.5553 39.3009 43.6274 39.3731C43.6996 39.4453 43.7568 39.5309 43.7958 39.6252C43.8349 39.7195 43.855 39.8205 43.855 39.9226C43.855 40.0246 43.8349 40.1257 43.7958 40.22C43.7568 40.3143 43.6996 40.3999 43.6274 40.4721C43.5553 40.5443 43.4696 40.6015 43.3753 40.6406C43.2811 40.6796 43.18 40.6997 43.078 40.6997Z" fill="#F98084"/>
<path d="M24.8864 38.2613C24.6803 38.2613 24.4827 38.1794 24.337 38.0337C24.1912 37.888 24.1094 37.6904 24.1094 37.4843V35.8263C24.1094 35.6203 24.1912 35.4226 24.337 35.2769C24.4827 35.1312 24.6803 35.0493 24.8864 35.0493C25.0925 35.0493 25.2901 35.1312 25.4358 35.2769C25.5815 35.4226 25.6634 35.6203 25.6634 35.8263V37.4843C25.6634 37.5864 25.6433 37.6874 25.6042 37.7816C25.5652 37.8759 25.508 37.9616 25.4358 38.0337C25.3637 38.1059 25.278 38.1631 25.1837 38.2022C25.0895 38.2412 24.9884 38.2613 24.8864 38.2613Z" fill="#3B484A"/>
<path d="M26.0155 40.6997H23.7565C23.6544 40.6997 23.5534 40.6796 23.4591 40.6406C23.3649 40.6015 23.2792 40.5443 23.2071 40.4721C23.1349 40.3999 23.0777 40.3143 23.0386 40.22C22.9996 40.1257 22.9795 40.0246 22.9795 39.9226C22.9795 39.8205 22.9996 39.7195 23.0386 39.6252C23.0777 39.5309 23.1349 39.4453 23.2071 39.3731C23.2792 39.3009 23.3649 39.2437 23.4591 39.2047C23.5534 39.1656 23.6544 39.1455 23.7565 39.1455H26.0155C26.1175 39.1455 26.2186 39.1656 26.3128 39.2047C26.4071 39.2437 26.4928 39.3009 26.5649 39.3731C26.6371 39.4453 26.6943 39.5309 26.7333 39.6252C26.7724 39.7195 26.7925 39.8205 26.7925 39.9226C26.7925 40.0246 26.7724 40.1257 26.7333 40.22C26.6943 40.3143 26.6371 40.3999 26.5649 40.4721C26.4928 40.5443 26.4071 40.6015 26.3128 40.6406C26.2186 40.6796 26.1175 40.6997 26.0155 40.6997Z" fill="#F98084"/>
<path d="M33.4152 25.0014C33.2091 25.0014 33.0115 24.9196 32.8658 24.7739C32.72 24.6281 32.6382 24.4305 32.6382 24.2244V15.5504C32.6382 15.3444 32.72 15.1467 32.8658 15.001C33.0115 14.8553 33.2091 14.7734 33.4152 14.7734C33.6212 14.7734 33.8189 14.8553 33.9646 15.001C34.1103 15.1467 34.1922 15.3444 34.1922 15.5504V24.2224C34.1924 24.3246 34.1725 24.4259 34.1336 24.5204C34.0947 24.6149 34.0375 24.7008 33.9653 24.7732C33.8931 24.8455 33.8074 24.9029 33.713 24.9421C33.6186 24.9813 33.5174 25.0014 33.4152 25.0014Z" fill="#D7D9CC"/>
<path d="M25.6261 25.0014C25.4201 25.0014 25.2224 24.9196 25.0767 24.7739C24.931 24.6281 24.8491 24.4305 24.8491 24.2244V15.5504C24.8491 15.3444 24.931 15.1467 25.0767 15.001C25.2224 14.8553 25.4201 14.7734 25.6261 14.7734C25.8322 14.7734 26.0298 14.8553 26.1756 15.001C26.3213 15.1467 26.4031 15.3444 26.4031 15.5504V24.2224C26.4034 24.3246 26.3835 24.4259 26.3446 24.5204C26.3056 24.6149 26.2484 24.7008 26.1763 24.7732C26.1041 24.8455 26.0183 24.9029 25.9239 24.9421C25.8295 24.9813 25.7283 25.0014 25.6261 25.0014Z" fill="#D7D9CC"/>
<path d="M41.2052 25.0014C40.9992 25.0014 40.8015 24.9196 40.6558 24.7739C40.5101 24.6281 40.4282 24.4305 40.4282 24.2244V15.5504C40.4282 15.3444 40.5101 15.1467 40.6558 15.001C40.8015 14.8553 40.9992 14.7734 41.2052 14.7734C41.4113 14.7734 41.6089 14.8553 41.7546 15.001C41.9004 15.1467 41.9822 15.3444 41.9822 15.5504V24.2224C41.9825 24.3246 41.9626 24.4259 41.9236 24.5204C41.8847 24.6149 41.8275 24.7008 41.7554 24.7732C41.6832 24.8455 41.5975 24.9029 41.5031 24.9421C41.4087 24.9813 41.3074 25.0014 41.2052 25.0014Z" fill="#D7D9CC"/>
<path d="M50.3141 27.2783H16.5171V30.3774H50.3141V27.2783Z" fill="#F9F9F9"/>
<path d="M19.6256 27.2783H16.5176V30.3765H19.6256V27.2783Z" fill="#BDBFB4"/>
</g>
<defs>
<filter id="filter0_d" x="4.65137" y="1.375" width="57.4918" height="71.4854" filterUnits="userSpaceOnUse" color-interpolation-filters="sRGB">
<feFlood flood-opacity="0" result="BackgroundImageFix"/>
<feColorMatrix in="SourceAlpha" type="matrix" values="0 0 0 0 0 0 0 0 0 0 0 0 0 0 0 0 0 0 127 0"/>
<feOffset dy="4"/>
<feGaussianBlur stdDeviation="5"/>
<feColorMatrix type="matrix" values="0 0 0 0 0 0 0 0 0 0 0 0 0 0 0 0 0 0 0.1 0"/>
<feBlend mode="normal" in2="BackgroundImageFix" result="effect1_dropShadow"/>
<feBlend mode="normal" in="SourceGraphic" in2="effect1_dropShadow" result="shape"/>
</filter>
</defs>
</svg>
